<?xml version="1.0" encoding="utf-8"?>
<!-- Generator: Adobe Illustrator 23.1.0, SVG Export Plug-In . SVG Version: 6.00 Build 0)  -->
<svg version="1.1" id="Calque_1" xmlns="http://www.w3.org/2000/svg" xmlns:xlink="http://www.w3.org/1999/xlink" x="0px" y="0px"
	 viewBox="0 0 24 25.7" style="enable-background:new 0 0 24 25.7;" xml:space="preserve">
<style type="text/css">
	.st0{fill:#FFFFFF;filter:url(#Adobe_OpacityMaskFilter);}
	.st1{mask:url(#path-1-inside-1_1_);fill:none;stroke:#963737;stroke-width:24;}
	.st2{fill:#FFFFFF;}
</style>
<g>
	<defs>
		<filter id="Adobe_OpacityMaskFilter" filterUnits="userSpaceOnUse" x="-12" y="-12" width="48" height="49.6">
			<feColorMatrix  type="matrix" values="1 0 0 0 0  0 1 0 0 0  0 0 1 0 0  0 0 0 1 0"/>
		</filter>
	</defs>
	<mask maskUnits="userSpaceOnUse" x="-12" y="-12" width="48" height="49.6" id="path-1-inside-1_1_">
		<path class="st0" d="M5,0h14c2.8,0,5,2.2,5,5v15.6c0,2.8-2.2,5-5,5H5c-2.8,0-5-2.2-5-5V5C0,2.2,2.2,0,5,0z"/>
	</mask>
	<path class="st1" d="M5,0h14c2.8,0,5,2.2,5,5v15.6c0,2.8-2.2,5-5,5H5c-2.8,0-5-2.2-5-5V5C0,2.2,2.2,0,5,0z"/>
</g>
<path class="st2" d="M19.2,4.7H4.8c-1,0-1.8,0.9-1.8,2l0,12.2c0,1.1,0.8,2,1.8,2h14.4c1,0,1.8-0.9,1.8-2V6.7
	C21,5.6,20.2,4.7,19.2,4.7z M19.2,18.9H4.8v-6.1h14.4V18.9z M19.2,8.7H4.8v-2h14.4V8.7z"/>
</svg>
