<?xml version="1.0" encoding="utf-8"?>
<!-- Generator: Adobe Illustrator 23.1.0, SVG Export Plug-In . SVG Version: 6.00 Build 0)  -->
<svg version="1.1" id="Calque_1" xmlns="http://www.w3.org/2000/svg" xmlns:xlink="http://www.w3.org/1999/xlink" x="0px" y="0px"
	 viewBox="0 0 78 82.7" style="enable-background:new 0 0 78 82.7;" xml:space="preserve">
<style type="text/css">
	.st0{fill:#013183;}
	.st1{fill:#FFFFFF;}
	.st2{fill:#FEBA1B;}
	.st3{fill:#C54141;}
</style>
<g>
	<path class="st2" d="M29,52.7h20.1c1,0,1.6-1.2,0.9-2L39.9,39.9c-0.5-0.5-1.3-0.5-1.7,0L28.1,50.7C27.4,51.5,27.9,52.7,29,52.7z"/>
	<path class="st2" d="M40.9,8.5h-3.8v37.9h3.8V8.5z"/>
	<path class="st2" d="M63.9,15.8c-0.1,0-0.3,0-0.4-0.1L12.6,4.4c-1-0.2-1.7-1.2-1.4-2.3c0.2-1,1.2-1.7,2.3-1.4L64.3,12
		c1,0.2,1.7,1.2,1.4,2.3C65.6,15.2,64.8,15.8,63.9,15.8z"/>
	<path class="st0" d="M39.4,12.5c2.4,0,4.3-1.9,4.3-4.3c0-2.4-1.9-4.3-4.3-4.3s-4.3,1.9-4.3,4.3C35.1,10.6,37,12.5,39.4,12.5z"/>
	<path class="st0" d="M39.4,14.4c-3.4,0-6.2-2.8-6.2-6.2c0-3.4,2.8-6.2,6.2-6.2c3.4,0,6.2,2.8,6.2,6.2
		C45.6,11.7,42.8,14.4,39.4,14.4z M39.4,5.8c-1.3,0-2.4,1.1-2.4,2.4c0,1.3,1.1,2.4,2.4,2.4c1.3,0,2.4-1.1,2.4-2.4
		C41.8,6.9,40.7,5.8,39.4,5.8z"/>
	<path class="st2" d="M23.3,27.2H2.4c-0.6,0-1.3-0.3-1.6-0.9c-0.4-0.5-0.4-1.2-0.1-1.8L11.4,1.8c0.3-0.7,1-1.1,1.7-1.1
		c0.7,0,1.4,0.4,1.7,1.1L25,24.5c0.3,0.6,0.2,1.3-0.1,1.8C24.5,26.9,23.9,27.2,23.3,27.2z M5.4,23.4h14.9L13.1,7.2L5.4,23.4z"/>
	<path class="st2" d="M74.1,38.4H53.3c-0.6,0-1.3-0.3-1.6-0.9c-0.4-0.5-0.4-1.2-0.1-1.8l10.7-22.7c0.3-0.7,1-1.1,1.7-1.1
		c0.7,0,1.4,0.4,1.7,1.1l10.2,22.7c0.3,0.6,0.2,1.3-0.1,1.8C75.4,38.1,74.8,38.4,74.1,38.4z M56.3,34.7h14.9l-7.3-16.3L56.3,34.7z"
		/>
	<path class="st0" d="M74.1,36.5c0,5.7-4.7,10.4-10.4,10.4c-5.7,0-10.4-4.7-10.4-10.4"/>
	<path class="st0" d="M63.7,48.8c-6.8,0-12.3-5.5-12.3-12.3h3.8c0,4.7,3.8,8.5,8.5,8.5s8.5-3.8,8.5-8.5H76
		C76,43.3,70.5,48.8,63.7,48.8z"/>
	<path class="st0" d="M23.2,25.3c0,5.7-4.7,10.4-10.4,10.4C7.1,35.7,2.4,31,2.4,25.3"/>
	<path class="st0" d="M12.8,37.6C6,37.6,0.5,32,0.5,25.3h3.8c0,4.7,3.8,8.5,8.5,8.5c4.7,0,8.5-3.8,8.5-8.5h3.8
		C25.1,32,19.6,37.6,12.8,37.6z"/>
</g>
</svg>
