<?xml version="1.0" encoding="utf-8"?>
<!-- Generator: Adobe Illustrator 23.1.0, SVG Export Plug-In . SVG Version: 6.00 Build 0)  -->
<svg version="1.1" id="Calque_1" xmlns="http://www.w3.org/2000/svg" xmlns:xlink="http://www.w3.org/1999/xlink" x="0px" y="0px"
	 viewBox="0 0 24 25.6" style="enable-background:new 0 0 24 25.6;" xml:space="preserve">
<style type="text/css">
	.st0{fill:#FFFFFF;}
	.st1{fill:#FFFFFF;filter:url(#Adobe_OpacityMaskFilter);}
	.st2{mask:url(#path-1-inside-1_1_);fill:none;stroke:#FFFFFF;stroke-width:24;}
	.st3{fill:#C54141;}
</style>
<g>
	<path class="st0" d="M5,0h14c2.8,0,5,2.2,5,5v15.6c0,2.8-2.2,5-5,5H5c-2.8,0-5-2.2-5-5V5C0,2.2,2.2,0,5,0z"/>
	<defs>
		<filter id="Adobe_OpacityMaskFilter" filterUnits="userSpaceOnUse" x="-12" y="-12" width="48" height="49.6">
			<feColorMatrix  type="matrix" values="1 0 0 0 0  0 1 0 0 0  0 0 1 0 0  0 0 0 1 0"/>
		</filter>
	</defs>
	<mask maskUnits="userSpaceOnUse" x="-12" y="-12" width="48" height="49.6" id="path-1-inside-1_1_">
		<path class="st1" d="M5,0h14c2.8,0,5,2.2,5,5v15.6c0,2.8-2.2,5-5,5H5c-2.8,0-5-2.2-5-5V5C0,2.2,2.2,0,5,0z"/>
	</mask>
	<path class="st2" d="M5,0h14c2.8,0,5,2.2,5,5v15.6c0,2.8-2.2,5-5,5H5c-2.8,0-5-2.2-5-5V5C0,2.2,2.2,0,5,0z"/>
</g>
<path class="st3" d="M18.4,17h-1.2c-0.1,0-0.2,0-0.2,0.1c-0.1,0.2-0.2,0.3-0.4,0.5c-0.6,0.6-1.2,1.1-1.9,1.4
	c-0.7,0.3-1.5,0.5-2.4,0.5c-0.8,0-1.6-0.2-2.4-0.5c-0.7-0.3-1.4-0.8-1.9-1.4c-0.6-0.6-1-1.3-1.3-2.1c-0.3-0.8-0.5-1.7-0.5-2.6
	c0-0.9,0.2-1.8,0.5-2.6c0.3-0.8,0.7-1.5,1.3-2.1C8.6,7.4,9.3,7,10,6.6c0.7-0.3,1.5-0.5,2.4-0.5c0.8,0,1.6,0.2,2.4,0.5
	c0.7,0.3,1.4,0.8,1.9,1.4c0.1,0.1,0.3,0.3,0.4,0.5c0.1,0.1,0.1,0.1,0.2,0.1h1.2c0.1,0,0.2-0.1,0.1-0.2c-1.3-2.3-3.6-3.8-6.2-3.7
	C8.2,4.7,5,8.4,5,12.9c0,4.5,3.3,8.1,7.4,8.1c2.6,0,4.9-1.5,6.2-3.7C18.6,17.1,18.5,17,18.4,17z M19.9,12.7l-2.4-2.1
	c-0.1-0.1-0.2,0-0.2,0.1v1.4h-5.4c-0.1,0-0.1,0.1-0.1,0.2v1.1c0,0.1,0.1,0.2,0.1,0.2h5.4v1.4c0,0.1,0.1,0.2,0.2,0.1l2.4-2.1
	c0,0,0,0,0-0.1c0,0,0,0,0-0.1C20,12.8,20,12.8,19.9,12.7C20,12.7,20,12.7,19.9,12.7z"/>
</svg>
