<?xml version="1.0" encoding="utf-8"?>
<!-- Generator: Adobe Illustrator 23.1.0, SVG Export Plug-In . SVG Version: 6.00 Build 0)  -->
<svg version="1.1" id="Calque_1" xmlns="http://www.w3.org/2000/svg" xmlns:xlink="http://www.w3.org/1999/xlink" x="0px" y="0px"
	 viewBox="0 0 24 25.6" style="enable-background:new 0 0 24 25.6;" xml:space="preserve">
<style type="text/css">
	.st0{fill:#FFFFFF;filter:url(#Adobe_OpacityMaskFilter);}
	.st1{mask:url(#path-1-inside-1_1_);fill:#C4C4C4;stroke:#013183;stroke-width:24;}
	.st2{fill:#FFFFFF;}
</style>
<g>
	<defs>
		<filter id="Adobe_OpacityMaskFilter" filterUnits="userSpaceOnUse" x="-12" y="-12" width="48" height="49.6">
			<feColorMatrix  type="matrix" values="1 0 0 0 0  0 1 0 0 0  0 0 1 0 0  0 0 0 1 0"/>
		</filter>
	</defs>
	<mask maskUnits="userSpaceOnUse" x="-12" y="-12" width="48" height="49.6" id="path-1-inside-1_1_">
		<path class="st0" d="M5,0h14c2.8,0,5,2.2,5,5v15.6c0,2.8-2.2,5-5,5H5c-2.8,0-5-2.2-5-5V5C0,2.2,2.2,0,5,0z"/>
	</mask>
	<path class="st1" d="M5,0h14c2.8,0,5,2.2,5,5v15.6c0,2.8-2.2,5-5,5H5c-2.8,0-5-2.2-5-5V5C0,2.2,2.2,0,5,0z"/>
	<path class="st2" d="M18.8,16.9c-0.5-0.5-0.8-1-1.2-1.6c-0.4-0.8-0.6-1.8-0.6-2.7V9.8c0-1.5-0.4-2.9-1.3-4c-0.8-1.1-1.9-1.8-3.2-2
		V3.1c0-0.2-0.1-0.4-0.2-0.5c-0.1-0.1-0.3-0.2-0.4-0.2c-0.2,0-0.3,0.1-0.4,0.2c-0.1,0.1-0.2,0.3-0.2,0.5v0.7C10.1,4,9,4.7,8.2,5.8
		C7.4,6.9,7,8.3,7,9.8v2.8c-0.1,0.9-0.3,1.9-0.6,2.7c-0.3,0.6-0.7,1.2-1.2,1.6C5.1,16.9,5.1,17,5,17.1c0,0.1,0,0.2,0,0.2v0.8
		c0,0.1,0,0.3,0.1,0.4c0.1,0.1,0.2,0.2,0.3,0.2h13.1c0.1,0,0.2-0.1,0.3-0.2c0.1-0.1,0.1-0.2,0.1-0.4v-0.8c0-0.1,0-0.2,0-0.2
		C18.9,17,18.9,16.9,18.8,16.9z M6,17.5c0.4-0.5,0.8-1.1,1.1-1.7c0.5-1,0.7-2.1,0.8-3.3V9.8c0-0.7,0.1-1.3,0.3-1.9
		c0.2-0.6,0.5-1.2,0.9-1.6c0.4-0.5,0.8-0.8,1.3-1.1c0.5-0.3,1.1-0.4,1.6-0.4c0.6,0,1.1,0.1,1.6,0.4c0.5,0.3,1,0.6,1.3,1.1
		c0.4,0.5,0.7,1,0.9,1.6c0.2,0.6,0.3,1.3,0.3,1.9v2.8c0.1,1.1,0.3,2.3,0.8,3.3c0.3,0.6,0.7,1.2,1.1,1.7H6z"/>
	<path class="st2" d="M12.5,21c0.4,0,0.7-0.1,1-0.3s0.4-0.5,0.5-0.8h-3c0.1,0.3,0.2,0.6,0.5,0.8C11.8,20.9,12.2,21,12.5,21z"/>
</g>
</svg>
