<?xml version="1.0" encoding="utf-8"?>
<!-- Generator: Adobe Illustrator 23.1.0, SVG Export Plug-In . SVG Version: 6.00 Build 0)  -->
<svg version="1.1" id="Calque_2" xmlns="http://www.w3.org/2000/svg" xmlns:xlink="http://www.w3.org/1999/xlink" x="0px" y="0px"
	 viewBox="0 0 78 82.7" style="enable-background:new 0 0 78 82.7;" xml:space="preserve">
<style type="text/css">
	.st0{fill:#FEBA1B;}
	.st1{fill:#FFFFFF;}
	.st2{fill:#C54141;}
	.st3{fill:#013183;}
</style>
<path class="st0" d="M61.9,69.5H32.5c-3.6,0-6.5-2.9-6.5-6.5V37.1c0-3.6,2.9-6.5,6.5-6.5h29.5c3.6,0,6.5,2.9,6.5,6.5v25.9
	C68.4,66.6,65.5,69.5,61.9,69.5z"/>
<path class="st1" d="M63.3,26.6H30.5c-3.3,0-6.1,2.7-6.1,6c0,0,0,0,0,0v0v3.4v2.6V39v8.3c0,0.9,0.7,1.6,1.6,1.6c0.5,0,1-0.3,1.3-0.7
	v2.9c0,0.9,0.7,1.6,1.6,1.6c0.9,0,1.6-0.7,1.6-1.6v-3.2c0.2,0.1,0.4,0.1,0.7,0.1c0.9,0,1.6-0.7,1.6-1.6v2c0,0.9,0.7,1.6,1.6,1.6
	c0.7,0,1.2-0.4,1.5-1v0.2c0,0.9,0.7,1.6,1.6,1.6c0.5,0,0.9-0.2,1.2-0.6v2.5c0,0.9,0.7,1.6,1.6,1.6c0.9,0,1.6-0.7,1.6-1.6v-3.5
	c0.3,0.2,0.6,0.4,1.1,0.4c0.9,0,1.6-0.7,1.6-1.6v-0.6c0,0.9,0.7,1.6,1.6,1.6c0.9,0,1.6-0.7,1.6-1.6v-1.9c0.2,0,0.3,0.1,0.5,0.1
	c0.9,0,1.6-0.7,1.6-1.6v2.3c0,0.9,0.7,1.6,1.6,1.6c0.3,0,0.6-0.1,0.8-0.2v3.3c0,0.9,0.7,1.6,1.6,1.6c0.9,0,1.6-0.7,1.6-1.6v0
	c0,0.9,0.7,1.6,1.6,1.6c0.9,0,1.6-0.7,1.6-1.6v-1.4c0.3,0.2,0.6,0.4,1,0.4c0.4,0,0.7-0.1,0.9-0.3v2.5c0,0.9,0.7,1.6,1.6,1.6
	c0.9,0,1.6-0.7,1.6-1.6v-6.1c0,0.9,0.7,1.6,1.6,1.6c0.5,0,0.9-0.2,1.2-0.6v2.5c0,0.9,0.7,1.6,1.6,1.6s1.6-0.7,1.6-1.6V38.7v-3.6
	v-1.7C70,29.6,67,26.6,63.3,26.6z"/>
<g>
	<path class="st0" d="M32,9.4v19.6c0,0.9,1.2,1.6,2.7,1.6s2.7-0.7,2.7-1.6V9.4H32z"/>
	<ellipse class="st1" cx="34.6" cy="9.4" rx="2.7" ry="1.6"/>
	<rect x="34.2" y="6" class="st0" width="0.7" height="3.4"/>
	<g>
		<path class="st2" d="M34.6,0.7l-1.8,1.8c-1,1-1,2.6,0,3.5c1,1,2.6,1,3.5,0c1-1,1-2.6,0-3.5L34.6,0.7z"/>
	</g>
</g>
<g>
	<path class="st0" d="M44.1,13.6v19.6c0,0.9,1.2,1.6,2.7,1.6s2.7-0.7,2.7-1.6V13.6H44.1z"/>
	<ellipse class="st1" cx="46.8" cy="13.6" rx="2.7" ry="1.6"/>
	<rect x="46.4" y="10.2" class="st0" width="0.7" height="3.4"/>
	<g>
		<path class="st2" d="M46.8,4.9L45,6.6c-1,1-1,2.6,0,3.5c1,1,2.6,1,3.5,0c1-1,1-2.6,0-3.5L46.8,4.9z"/>
	</g>
</g>
<g>
	<path class="st0" d="M56.1,9.4v19.6c0,0.9,1.2,1.6,2.7,1.6s2.7-0.7,2.7-1.6V9.4H56.1z"/>
	<ellipse class="st1" cx="58.8" cy="9.4" rx="2.7" ry="1.6"/>
	<rect x="58.4" y="6" class="st0" width="0.7" height="3.4"/>
	<g>
		<path class="st2" d="M58.8,0.7L57,2.5c-1,1-1,2.6,0,3.5c1,1,2.6,1,3.5,0c1-1,1-2.6,0-3.5L58.8,0.7z"/>
	</g>
</g>
<path class="st3" d="M30.1,30.7l-2,1.4c-0.4,0.3-1,0.2-1.3-0.2l0,0c-0.3-0.4-0.2-1,0.2-1.3l2-1.4c0.4-0.3,1-0.2,1.3,0.2v0
	C30.6,29.9,30.5,30.4,30.1,30.7z"/>
<path class="st3" d="M52.3,29.2l2,1.4c0.4,0.3,0.5,0.9,0.2,1.3v0c-0.3,0.4-0.9,0.5-1.3,0.2l-2-1.4c-0.4-0.3-0.5-0.9-0.2-1.3v0
	C51.3,29,51.9,28.9,52.3,29.2z"/>
<path class="st3" d="M66.3,35.2l1.4,2c0.3,0.4,0.2,1-0.2,1.3v0c-0.4,0.3-1,0.2-1.3-0.2l-1.4-2c-0.3-0.4-0.2-1,0.2-1.3l0,0
	C65.5,34.7,66,34.8,66.3,35.2z"/>
<path class="st3" d="M33.8,35.9L33,33.6c-0.2-0.5,0.1-1,0.5-1.2h0c0.5-0.2,1,0.1,1.2,0.5l0.9,2.3c0.2,0.5-0.1,1-0.5,1.2h0
	C34.5,36.6,34,36.3,33.8,35.9z"/>
<path class="st2" d="M39.3,30.3l2.3-0.9c0.5-0.2,1,0.1,1.2,0.5v0c0.2,0.5-0.1,1-0.5,1.2L39.9,32c-0.5,0.2-1-0.1-1.2-0.5v0
	C38.6,31,38.8,30.5,39.3,30.3z"/>
<path class="st2" d="M66.2,30.6l-1.9,1.5c-0.4,0.3-1,0.2-1.3-0.2l0,0c-0.3-0.4-0.2-1,0.2-1.3l1.9-1.5c0.4-0.3,1-0.2,1.3,0.2l0,0
	C66.7,29.7,66.6,30.3,66.2,30.6z"/>
<path class="st2" d="M48.5,35.8l2.3-0.9c0.5-0.2,1,0.1,1.2,0.5l0,0c0.2,0.5-0.1,1-0.5,1.2l-2.3,0.9c-0.5,0.2-1-0.1-1.2-0.5v0
	C47.8,36.5,48,36,48.5,35.8z"/>
</svg>
