<?xml version="1.0" encoding="utf-8"?>
<!-- Generator: Adobe Illustrator 23.1.0, SVG Export Plug-In . SVG Version: 6.00 Build 0)  -->
<svg version="1.1" id="Calque_1" xmlns="http://www.w3.org/2000/svg" xmlns:xlink="http://www.w3.org/1999/xlink" x="0px" y="0px"
	 viewBox="0 0 24 25.5" style="enable-background:new 0 0 24 25.5;" xml:space="preserve">
<style type="text/css">
	.st0{fill:#FFFFFF;filter:url(#Adobe_OpacityMaskFilter);}
	.st1{mask:url(#path-1-inside-1_1_);fill:#C4C4C4;stroke:#FEBA1B;stroke-width:24;}
	.st2{fill:#FFFFFF;}
</style>
<g>
	<defs>
		<filter id="Adobe_OpacityMaskFilter" filterUnits="userSpaceOnUse" x="-12" y="-12.1" width="48" height="49.6">
			<feColorMatrix  type="matrix" values="1 0 0 0 0  0 1 0 0 0  0 0 1 0 0  0 0 0 1 0"/>
		</filter>
	</defs>
	<mask maskUnits="userSpaceOnUse" x="-12" y="-12.1" width="48" height="49.6" id="path-1-inside-1_1_">
		<path class="st0" d="M5-0.1h14c2.8,0,5,2.2,5,5v15.6c0,2.8-2.2,5-5,5H5c-2.8,0-5-2.2-5-5V4.9C0,2.1,2.2-0.1,5-0.1z"/>
	</mask>
	<path class="st1" d="M5-0.1h14c2.8,0,5,2.2,5,5v15.6c0,2.8-2.2,5-5,5H5c-2.8,0-5-2.2-5-5V4.9C0,2.1,2.2-0.1,5-0.1z"/>
	<path class="st2" d="M13.9,12.5c0.5,0,0.9-0.5,0.9-1.1c0-0.6-0.4-1.1-0.9-1.1s-0.9,0.5-0.9,1.1C12.9,12,13.4,12.5,13.9,12.5z"/>
	<path class="st2" d="M10.1,12.5c0.5,0,0.9-0.5,0.9-1.1c0-0.6-0.4-1.1-0.9-1.1s-0.9,0.5-0.9,1.1C9.2,12,9.6,12.5,10.1,12.5z"/>
	<path class="st2" d="M12,17.1c1.5,0,2.8-1.1,3.4-2.6H8.6C9.2,16,10.5,17.1,12,17.1z M20.2,12.1c-0.1-0.6-0.3-1.2-0.7-1.7
		c-0.4-0.5-0.9-0.8-1.4-1c-0.4-1-1-1.8-1.6-2.5c-1.2-1.2-2.7-2-4.5-2s-3.3,0.7-4.5,2C6.9,7.5,6.3,8.4,5.9,9.4c-0.5,0.2-1,0.5-1.4,1
		c-0.4,0.5-0.6,1.1-0.7,1.7c0,0.2,0,0.4,0,0.6c0,0.2,0,0.4,0,0.6c0.1,0.6,0.3,1.2,0.7,1.7c0.4,0.5,0.9,0.8,1.4,1
		c0.4,1,0.9,1.8,1.6,2.5c1.2,1.2,2.8,2,4.5,2s3.3-0.8,4.5-2c0.7-0.7,1.2-1.6,1.6-2.5c0.5-0.2,1-0.5,1.4-1c0.4-0.5,0.6-1.1,0.7-1.7
		c0-0.2,0-0.4,0-0.6C20.3,12.5,20.2,12.3,20.2,12.1z M17.3,14.4c-0.1,0-0.1,0-0.2,0c-0.2,0.6-0.4,1.1-0.6,1.6
		c-0.9,1.7-2.6,2.8-4.4,2.8S8.5,17.7,7.6,16c-0.3-0.5-0.5-1-0.6-1.6c-0.1,0-0.1,0-0.2,0c-0.8,0-1.5-0.8-1.5-1.7c0-1,0.7-1.7,1.5-1.7
		c0.1,0,0.1,0,0.2,0c0.1-0.6,0.4-1.1,0.6-1.6c0.9-1.7,2.6-2.8,4.4-2.8s3.5,1.1,4.4,2.8c0.3,0.5,0.5,1,0.6,1.6c0.1,0,0.1,0,0.2,0
		c0.8,0,1.5,0.8,1.5,1.7C18.8,13.7,18.1,14.4,17.3,14.4z"/>
</g>
</svg>
