<?xml version="1.0" encoding="utf-8"?>
<!-- Generator: Adobe Illustrator 23.1.0, SVG Export Plug-In . SVG Version: 6.00 Build 0)  -->
<svg version="1.1" id="Calque_1" xmlns="http://www.w3.org/2000/svg" xmlns:xlink="http://www.w3.org/1999/xlink" x="0px" y="0px"
	 viewBox="0 0 78 82.7" style="enable-background:new 0 0 78 82.7;" xml:space="preserve">
<style type="text/css">
	.st0{fill:#013183;}
	.st1{fill:#FFFFFF;}
	.st2{fill:#FEBA1B;}
	.st3{fill:#C54141;}
</style>
<g>
	<path class="st2" d="M72.8,8.5c2.4,0,4.3-1.9,4.3-4.3C77,1.9,75.1,0,72.8,0s-4.3,1.9-4.3,4.3C68.5,6.6,70.4,8.5,72.8,8.5z"/>
	<path class="st3" d="M38,50.2l7.2,4.6L76.3,6.7L69.2,2L38,50.2z"/>
	<path class="st1" d="M41.3,57.6l3.9-2.8c-1-3-4-4.9-7.2-4.6L37.2,55c0.8,0.1,1.7,0.4,2.4,0.9C40.3,56.4,40.8,57,41.3,57.6z"/>
	<path class="st3" d="M41.3,57.6c-0.4-0.6-1-1.2-1.7-1.6c-0.8-0.5-1.6-0.8-2.4-0.9L36,61.3L41.3,57.6z"/>
	<path class="st3" d="M61,9.2c2.4,0,4.3-1.9,4.3-4.3c0-2.4-1.9-4.3-4.3-4.3s-4.3,1.9-4.3,4.3C56.7,7.2,58.6,9.2,61,9.2z"/>
	<path class="st2" d="M46.9,60.8l8.4,1.5l9.9-56.5l-8.4-1.5L46.9,60.8z"/>
	<path class="st1" d="M52.8,66.3l2.5-4.1c-2.1-2.4-5.6-3-8.4-1.5l1.1,4.8c0.8-0.2,1.7-0.2,2.6-0.1C51.4,65.6,52.2,65.9,52.8,66.3z"
		/>
	<path class="st2" d="M52.8,66.3c-0.7-0.4-1.4-0.7-2.2-0.8c-0.9-0.2-1.8-0.1-2.6,0.1l1.4,6.2L52.8,66.3z"/>
</g>
</svg>
