<?xml version="1.0" encoding="utf-8"?>
<!-- Generator: Adobe Illustrator 23.1.0, SVG Export Plug-In . SVG Version: 6.00 Build 0)  -->
<svg version="1.1" id="Calque_1" xmlns="http://www.w3.org/2000/svg" xmlns:xlink="http://www.w3.org/1999/xlink" x="0px" y="0px"
	 viewBox="0 0 78 82.7" style="enable-background:new 0 0 78 82.7;" xml:space="preserve">
<style type="text/css">
	.st0{fill:#FEBA1B;}
	.st1{fill:#F19D06;}
	.st2{fill:#E7A52E;}
</style>
<g>
	<g>
		<path class="st0" d="M72.4,29.2c-2.1,9.3-8.5,20-18,29.6c-8,8-16.8,13.7-25,16.6C17.8,72,8.7,62.9,5.3,51.3
			c2.9-8.1,8.6-16.9,16.6-25c9.6-9.5,20.5-15.9,29.7-18c7.3-1.7,13.7-0.8,17.6,3.2C73.2,15.5,74.1,21.8,72.4,29.2L72.4,29.2z"/>
		<g>
			<path class="st1" d="M69.2,11.5c-1.8-1.8-5.5-1.4-10.2,0.6c-7.8,3.4-18.7,11.3-29.3,22c-9.3,9.3-16.5,18.6-20.4,26.1
				c-1.7-2.7-3.1-5.7-4-8.8c2.9-8.1,8.6-16.9,16.6-25c9.5-9.6,20.4-15.9,29.6-18.1l0,0C58.9,6.7,65.3,7.6,69.2,11.5L69.2,11.5z"/>
			<g>
				<path class="st1" d="M63.9,39.8c3-3,0.4-10.6-6-16.9s-13.9-9-16.9-6"/>
				<path class="st1" d="M50.2,53.5c3-3,0.4-10.6-6-16.9s-13.9-9-16.9-5.9"/>
				<path class="st1" d="M36.5,67.2c3-3,0.4-10.6-6-16.9s-13.9-9-16.9-6"/>
			</g>
		</g>
	</g>
	<g>
		<g>
			<circle class="st2" cx="13.3" cy="59.9" r="1.7"/>
			<circle class="st2" cx="17.7" cy="57.2" r="1.7"/>
			<circle class="st2" cx="17.7" cy="62.1" r="1.7"/>
		</g>
		<g>
			<circle class="st2" cx="55.8" cy="44.2" r="1.7"/>
			<circle class="st2" cx="60.3" cy="41.6" r="1.7"/>
			<circle class="st2" cx="60.2" cy="46.4" r="1.7"/>
		</g>
	</g>
</g>
</svg>
