<?xml version="1.0" encoding="utf-8"?>
<!-- Generator: Adobe Illustrator 23.1.0, SVG Export Plug-In . SVG Version: 6.00 Build 0)  -->
<svg version="1.1" xmlns="http://www.w3.org/2000/svg" xmlns:xlink="http://www.w3.org/1999/xlink" x="0px" y="0px"
	 viewBox="0 0 78 82.7" style="enable-background:new 0 0 78 82.7;" xml:space="preserve">
<style type="text/css">
	.st0{fill:#FFFFFF;}
	.st1{fill:#C54141;}
	.st2{fill:#013183;}
	.st3{fill:#F19D06;}
</style>
<g id="Calque_2">
	<g>
		<path class="st0" d="M35.6,80.5c0,0-0.1,0-0.1,0l-0.1,0C35.5,80.5,35.5,80.5,35.6,80.5L35.6,80.5z M36.9,39.4
			c-1.5,0.2-3.1,0.4-4.7,0.6c-0.3,0-0.7,0.1-1,0.2c-0.5,0.1-0.9,0.1-1.4,0.2c-0.7,0.1-1.5,0.2-2.2,0.3l-0.9,0.1
			c-1.3,0.1-2.5,0.3-3.8,0.5c-1.8,0.3-3.3,0.6-4.6,0.9c-0.7,0.2-1.5,0.4-2.1,0.7c-0.7,0.3-1.3,0.5-1.8,0.8c-0.7,0.4-1.2,0.9-1.5,1.5
			c-0.1,0.3-0.2,0.7-0.2,1.1c0,0.5,0.1,1,0.2,1.4c0.5,5.7,1.2,12.3,3.1,18.8c0.5,1.6,1,3.1,1.5,4.6c0.5,1.4,1.1,2.5,1.7,3.5
			c0.7,1.1,1.5,2,2.5,2.8c0.9,0.8,2.1,1.4,3.6,2c2.5,1,5.3,1.6,8.7,1.9c1.4,0.1,2.9,0.2,4.4,0.2c1.1,0,2.3,0,3.3-0.1
			c2.3-0.1,4.2-0.3,6-0.5c2.5-0.3,4.7-0.7,6.8-1.3c2.4-0.6,4.3-1.5,6-2.5c0.9-0.5,1.6-1.2,2.3-1.9c0.7-0.7,1.2-1.5,1.6-2.4
			c0.5-1.1,0.9-2.4,1.2-4c0.2-1.2,0.4-2.6,0.6-4.3c0.1-1.1,0.1-2.2,0.2-3.3l0.1-0.9c0.1-1.1,0.1-2.2,0.2-3.3l0.1-1.1
			c0.2-3.1,0.4-6.4,0.1-9.7c-0.1-0.8-0.2-1.6-0.3-2.3c-0.1-0.6-0.2-1.1-0.4-1.7c-0.4-0.9-0.9-1.6-1.7-2.2c-0.7-0.5-1.5-0.9-2.6-1.2
			c-0.8-0.3-1.8-0.4-2.9-0.5c-1.6-0.1-3.2-0.1-4.7-0.1c-0.4,0-0.7,0-1.1,0c-3.4,0.1-6.9,0.2-10.3,0.5C40.7,39,38.8,39.2,36.9,39.4
			L36.9,39.4z"/>
		<path class="st1" d="M35.8,3.6L35.8,3.6L35.8,3.6c-1.4,0.2-2.7,0.4-3.9,0.8c-0.2,0.1-0.5,0.1-0.7,0.2c-0.6,0.1-1.1,0.3-1.6,0.5
			c-2.8,0.9-5.4,2.3-7.8,4.1c-2.3,1.7-4.3,3.9-6.2,6.5c-1.7,2.4-3.2,5.1-4.4,8c-0.9,2.2-1.6,4.6-2.4,7.5c-0.8,3.2-1.2,5.9-1.2,8.4
			c0,1.5,0.1,2.9,0.3,4.1C8.1,45,8.6,46.1,9.3,47c0.2,0.2,0.3,0.4,0.6,0.6c0.3,0.3,0.5,0.5,0.8,0.7c0.2,0.1,0.4,0.2,0.6,0.3
			c0.2,0,0.3,0.1,0.5,0c0.1,0,0.1,0,0.2,0c0.3-0.1,0.6-0.3,0.8-0.6c0.2-0.4,0.4-0.8,0.5-1.1c0-0.1,0.1-0.2,0.1-0.3
			c0.1-0.3,0.2-0.7,0.4-1c0.2,1,0.6,1.8,1.1,2.4c0.5,0.7,1.3,1.1,2,1.2c0.2,0,0.4,0,0.5,0c0.6-0.1,1.2-0.3,1.7-0.8
			c0.5-0.4,1-1,1.4-1.7c0.3,0.8,0.7,1.4,1.3,1.8c0.6,0.5,1.4,0.7,2.1,0.6c0.1,0,0.1,0,0.2,0c0.8-0.1,1.5-0.6,2.2-1.3
			c0.3-0.3,0.6-0.7,0.9-1.2c0-0.1,0.1-0.2,0.1-0.2c0.2,0.7,0.6,1.3,1,1.8c0.3,0.4,0.7,0.6,1.1,0.9c0.4,0.2,0.8,0.3,1.2,0.3
			c0.1,0,0.3,0,0.4,0c0.3,0,0.5-0.1,0.8-0.2c0.4-0.2,0.7-0.4,1.1-0.8c0.3-0.3,0.6-0.7,0.9-1.2c0.1-0.1,0.1-0.3,0.2-0.4l0,0.1l0,0
			c0.2,0.4,0.4,0.8,0.6,1c0.3,0.3,0.5,0.5,0.8,0.6c0.3,0.1,0.6,0.1,0.8,0.1l0.1,0c0.6-0.1,1.2-0.4,1.7-1.1c0.3-0.3,0.6-0.7,0.7-1
			c0.1-0.2,0.2-0.3,0.3-0.5c0.4,0.7,0.8,1.2,1.3,1.5c0.6,0.5,1.3,0.7,1.9,0.6c0.6-0.1,1.2-0.4,1.8-1c0.3-0.3,0.5-0.7,0.7-1
			c0.1-0.1,0.2-0.3,0.2-0.4c0.3,0.8,0.8,1.5,1.3,1.9c0.4,0.3,0.8,0.5,1.2,0.5c0.3,0,0.5,0.1,0.8,0c0.2,0,0.3-0.1,0.5-0.1
			c0.4-0.1,0.8-0.3,1.2-0.6c0.4-0.3,0.7-0.6,1.1-1c0.4-0.5,0.7-1,0.9-1.6c0.3,0.7,0.6,1.2,1,1.7c0.3,0.3,0.7,0.6,1,0.7
			c0.4,0.2,0.8,0.2,1.2,0.2c0.8-0.1,1.5-0.6,2.1-1.3c0.3-0.5,0.6-1,0.8-1.7c0.1,0.1,0.1,0.2,0.2,0.4c0.1,0.2,0.3,0.3,0.4,0.4
			c0.2,0.2,0.5,0.4,0.8,0.4c0.1,0,0.3,0,0.5,0c0.1,0,0.3-0.1,0.4-0.1c0.5-0.2,1-0.7,1.4-1.4c0.2-0.3,0.3-0.7,0.4-1
			c0.4,0.9,1,1.6,1.8,2.1c0.5,0.4,1.1,0.6,1.7,0.7c0.3,0,0.6,0.1,0.9,0c0.3,0,0.6-0.1,0.9-0.3c1.5-0.7,2.2-2.3,2.6-3.5
			c0.5-1.4,0.7-2.9,0.8-4.7c0.1-2.8-0.2-5.8-1-9.6c-0.3-1.6-0.8-3.1-1.2-4.5c-0.5-1.4-1.1-2.8-1.8-4.1c-0.7-1.3-1.5-2.6-2.4-3.7
			c-0.8-1.1-1.8-2.2-2.9-3.3c-2-2-4.4-3.7-7.1-5.2c-1.3-0.7-2.7-1.3-4.2-1.8c-1.5-0.5-3-1-4.5-1.3c-1.5-0.3-3.1-0.5-4.8-0.6
			C39.3,3.3,37.5,3.4,35.8,3.6L35.8,3.6z"/>
		<path class="st2" d="M14.9,14.6C14.9,14.6,14.9,14.7,14.9,14.6C14.9,14.7,14.9,14.6,14.9,14.6L14.9,14.6z M15.7,12.5
			c-0.1,0.1-0.2,0.2-0.3,0.3c-0.3,0.3-0.4,0.6-0.5,1c-0.1,0.3,0,0.6,0,0.9c0,0.1,0,0.2,0.1,0.3c0.2,0.6,0.6,1,1.2,1.1
			c0.7,0.1,1.3-0.2,1.6-0.8c0.2-0.4,0.4-0.8,0.4-1.3c0-0.3,0-0.5-0.1-0.8c-0.1-0.3-0.4-0.7-0.8-0.9c-0.3-0.1-0.5-0.2-0.9-0.2
			c0,0,0,0-0.1,0C16.1,12.2,15.9,12.3,15.7,12.5L15.7,12.5z"/>
		<path class="st2" d="M54.6,6.4c-0.5,0.3-0.7,0.9-0.6,1.5c0,0.5,0.2,0.9,0.6,1.2c0,0,0,0,0,0c0.1,0.2,0.2,0.3,0.4,0.4
			c0.1,0.1,0.3,0.2,0.5,0.3c0,0,0,0,0,0c0.3,0.1,0.5,0.2,0.8,0.1c0.1,0,0.3,0,0.4-0.1c0.1,0,0.1,0,0.2-0.1c0.5-0.2,0.9-0.7,1-1.2
			c0.1-0.5-0.1-1-0.4-1.3C57.2,7,57,6.8,56.7,6.6c0,0,0,0,0,0c-0.1,0-0.1-0.1-0.2-0.1c-0.3-0.3-0.8-0.4-1.2-0.4
			C55,6.2,54.8,6.2,54.6,6.4L54.6,6.4z"/>
		<path class="st2" d="M57,25.6c-0.4,0.1-0.7,0.5-0.9,0.9c0,0,0,0,0,0c-0.1,0.3-0.1,0.5-0.1,0.8c0,0.1,0,0.2,0,0.3
			c0,0.1,0.1,0.3,0.1,0.4c0.1,0.5,0.4,1,0.9,1.3c0.6,0.3,1.4,0.1,1.9-0.4c0.2-0.3,0.4-0.7,0.4-1.1c0-0.1,0-0.1,0-0.2
			c0.1-0.4-0.1-0.9-0.3-1.2c-0.1-0.2-0.3-0.3-0.5-0.5c-0.3-0.3-0.8-0.4-1.2-0.4C57.2,25.5,57.1,25.5,57,25.6L57,25.6z"/>
		<path class="st2" d="M36.7,20.4c-0.2,0-0.4,0.1-0.6,0.2c-0.4,0.2-0.7,0.4-0.9,0.9c0,0,0,0,0,0.1c-0.2,0.2-0.2,0.5-0.3,0.7
			c0,0,0,0,0,0c0,0,0,0.1,0,0.1c-0.1,0.3-0.1,0.5-0.1,0.8c0.1,0.5,0.4,1,0.9,1.3c0.6,0.3,1.4,0.1,1.8-0.4c0.4-0.4,0.7-0.9,0.8-1.4
			c0.1-0.3,0.2-0.5,0.1-0.8c0-0.3-0.1-0.5-0.3-0.8C37.8,20.6,37.2,20.3,36.7,20.4C36.7,20.4,36.7,20.4,36.7,20.4L36.7,20.4z"/>
		<path class="st2" d="M19.1,34.5c-0.1,0.1-0.2,0.2-0.3,0.3c0,0,0,0.1-0.1,0.1c-0.2,0.2-0.3,0.4-0.3,0.6c-0.2,0.6-0.1,1.2,0.4,1.7
			c0,0,0.1,0.1,0.1,0.1c0.4,0.6,1.2,0.8,1.8,0.6c0.6-0.2,1-0.8,1-1.5c0-0.1,0-0.1,0-0.2c0-0.3,0-0.7-0.2-1c-0.1-0.1-0.1-0.3-0.2-0.4
			c-0.2-0.3-0.6-0.6-1-0.6c-0.2,0-0.4,0-0.5,0C19.6,34.3,19.4,34.3,19.1,34.5L19.1,34.5z"/>
		<path class="st2" d="M6.4,34.5c0,0.1,0,0.2,0,0.2c-0.1,0.2-0.1,0.5-0.1,0.7c0,0.4,0.2,0.8,0.6,1c0.1,0.1,0.1,0.1,0.2,0.2
			c0.2,0.1,0.3,0.2,0.5,0.2c0.8,0.1,1.7-0.4,1.8-1.2c0-0.1,0-0.1,0-0.2c0-0.1,0-0.3,0-0.4c0-0.4,0-0.7-0.3-1.1
			c-0.2-0.3-0.6-0.5-1-0.6c-0.1,0-0.3,0-0.4,0C7.1,33.3,6.5,33.8,6.4,34.5L6.4,34.5z"/>
		<path class="st2" d="M36.6,1.8C36.3,2,36,2.1,35.8,2.4c0,0,0,0,0,0c0,0-0.1,0.1-0.1,0.1c-0.2,0.2-0.3,0.4-0.3,0.7
			c-0.1,0.4,0,0.8,0.3,1.2c0.2,0.3,0.6,0.6,1,0.6c0.3,0.1,0.6,0,0.9-0.1c0.1,0,0.3-0.1,0.5-0.2c0.1-0.1,0.2-0.2,0.3-0.3
			c0.2-0.2,0.3-0.5,0.4-0.9c0.1-0.5-0.2-1.1-0.6-1.5c-0.3-0.3-0.8-0.4-1.2-0.4C36.8,1.7,36.7,1.8,36.6,1.8L36.6,1.8z"/>
		<path class="st2" d="M41.6,35.5c0,0.1-0.1,0.1-0.1,0.2c-0.1,0.3-0.3,0.7-0.2,1.1c0.1,0.7,0.6,1.3,1.3,1.4c0.7,0.1,1.4-0.2,1.7-0.9
			c0.1-0.1,0.1-0.2,0.1-0.3c0-0.1,0.1-0.2,0.1-0.3l0,0c0-0.1,0-0.2,0-0.3c0-0.6-0.3-1.1-0.9-1.4c-0.3-0.1-0.6-0.2-0.9-0.1
			C42.2,34.8,41.8,35.1,41.6,35.5L41.6,35.5z"/>
		<path class="st2" d="M69.8,31.3c-0.1,0.1-0.3,0.2-0.4,0.3c-0.2,0.2-0.3,0.5-0.3,0.7c-0.1,0.4,0,0.6,0.1,0.9c0,0.1,0,0.1,0.1,0.2
			c0,0.2,0.1,0.4,0.3,0.6c0.2,0.3,0.6,0.6,1,0.6c0.8,0.2,1.7-0.4,1.8-1.2c0-0.3,0.1-0.5,0.2-0.8c0.1-0.8-0.4-1.6-1.3-1.8
			c-0.2,0-0.3,0-0.5,0C70.4,30.9,70.1,31,69.8,31.3L69.8,31.3z"/>
		<path class="st0" d="M45.5,11.6c0,0.1-0.1,0.1-0.1,0.2c0,0,0,0,0,0c-0.1,0.1-0.1,0.2-0.2,0.3c-0.1,0.2-0.1,0.4-0.1,0.7
			c0,0.1,0,0.2,0,0.2c0,0.2,0.1,0.4,0.2,0.6c0.2,0.3,0.5,0.4,0.8,0.5c0.6,0.1,1.1-0.2,1.3-0.8c0,0,0-0.1,0-0.1
			c0.1-0.2,0.1-0.4,0.1-0.6c0,0,0,0,0,0c0.1-0.6-0.4-1.3-1-1.4c-0.1,0-0.2,0-0.4,0C46,11.3,45.7,11.4,45.5,11.6L45.5,11.6z"/>
		<path class="st3" d="M29.5,11.4c0,0,0-0.1,0-0.1C29.5,11.3,29.5,11.4,29.5,11.4C29.5,11.4,29.5,11.4,29.5,11.4L29.5,11.4z
			 M27.6,10.2c-0.2,0.2-0.5,0.5-0.5,0.8c0,0.1,0,0.2,0,0.3c-0.2,0.5-0.1,1,0.4,1.4c0.3,0.3,0.8,0.4,1.2,0.2c0.4-0.2,0.7-0.5,0.8-0.9
			c0.1-0.3,0-0.5,0-0.8c0,0,0-0.1,0-0.1c0-0.2-0.1-0.4-0.2-0.6c-0.2-0.3-0.5-0.4-0.8-0.5c-0.1,0-0.2,0-0.4,0
			C28,10,27.8,10.1,27.6,10.2L27.6,10.2z"/>
		<path class="st0" d="M22.8,24.2C22.8,24.3,22.8,24.3,22.8,24.2c-0.1,0.2-0.1,0.3-0.2,0.4c-0.1,0.2-0.1,0.4-0.1,0.6c0,0,0,0,0,0
			l0,0c0,0.1,0,0.2,0,0.3c0,0.2,0.1,0.4,0.2,0.6c0.2,0.3,0.5,0.4,0.8,0.5c0.2,0,0.4,0,0.6,0c0.3-0.1,0.6-0.3,0.6-0.6
			c0.1-0.2,0.1-0.4,0.2-0.5c0,0,0-0.1,0.1-0.1c0.1-0.3,0.1-0.6,0-0.9c-0.1-0.3-0.3-0.5-0.6-0.7c-0.2-0.1-0.4-0.1-0.7-0.1
			C23.3,23.6,22.9,23.9,22.8,24.2L22.8,24.2z"/>
		<path class="st3" d="M30.6,41.3c0.1,0.7,0.7,1.2,1.4,1.2c0.7-0.1,1.2-0.7,1.1-1.4c-0.1-0.7-0.7-1.2-1.4-1.2
			C31,40,30.5,40.6,30.6,41.3L30.6,41.3z"/>
		<path class="st0" d="M54,17c0,0.2,0,0.5,0,0.7c0,0.7,0.7,1.2,1.4,1.1c0.7-0.1,1.2-0.6,1.1-1.3c0,0,0-0.1,0-0.1c0,0,0,0,0,0
			c0.1-0.6-0.3-1.3-1-1.4c-0.1,0-0.2,0-0.4,0C54.5,16.1,54.1,16.5,54,17L54,17z"/>
		<path class="st0" d="M59.6,38.4c0.1,0.7,0.7,1.3,1.4,1.2c0.7-0.1,1.2-0.7,1.1-1.4c-0.1-0.7-0.7-1.3-1.4-1.2
			C60,37.1,59.5,37.6,59.6,38.4L59.6,38.4z"/>
		<path class="st3" d="M66.8,19.1c-0.2,0.2-0.5,0.5-0.5,0.8c0,0.1,0,0.1,0,0.2c-0.1,0.3-0.1,0.5,0,0.8c0.1,0.2,0.2,0.4,0.4,0.5
			c0.2,0.2,0.6,0.3,0.9,0.3c0.3,0,0.6-0.2,0.8-0.4c0.2-0.3,0.3-0.6,0.3-1c0-0.3,0-0.6-0.2-0.9c-0.2-0.3-0.5-0.4-0.8-0.5
			c-0.1,0-0.2,0-0.4,0C67.1,18.9,66.9,19,66.8,19.1L66.8,19.1z"/>
		<path class="st3" d="M10.5,23.5c-0.1,0.2-0.2,0.3-0.3,0.5c-0.1,0.2-0.2,0.4-0.2,0.6c-0.1,0.7,0.5,1.5,1.3,1.4
			c0.3,0,0.7-0.2,0.8-0.5c0.1-0.1,0.2-0.3,0.2-0.4c0-0.1,0.1-0.1,0.1-0.2c0.1-0.2,0.2-0.3,0.2-0.5c0.3-0.6,0-1.3-0.6-1.6
			c-0.2-0.1-0.4-0.1-0.6-0.1C11.1,22.9,10.7,23.1,10.5,23.5L10.5,23.5z"/>
		<path class="st3" d="M46.3,5.1c0.1,0.7,0.7,1.3,1.4,1.2c0.7-0.1,1.2-0.7,1.1-1.4c-0.1-0.7-0.7-1.3-1.4-1.2
			C46.8,3.8,46.3,4.4,46.3,5.1L46.3,5.1z"/>
		<path class="st2" d="M19.5,51.7c0,0.1-0.1,0.1-0.1,0.2c0,4.6,0.4,9.2,1.1,13.8c0.4,2.5,0.9,5,1.5,7.4c0,0,0,0.1,0.1,0.1
			c0.1,0,0.1,0.1,0.2,0.1c0.1,0,0.1,0,0.2-0.1c0,0,0.1-0.1,0.1-0.2c-0.5-2.3-1-4.5-1.4-6.8c-0.4-2.3-0.7-4.6-0.9-6.9
			c-0.2-2.5-0.3-5-0.3-7.5c0-0.1,0-0.1-0.1-0.2c-0.1,0-0.1-0.1-0.2-0.1c0,0,0,0,0,0C19.6,51.6,19.6,51.6,19.5,51.7L19.5,51.7z"/>
		<path class="st2" d="M27,53.3c0.7,4.7,1.2,9.4,1.7,14.2c0.3,2.2,0.5,4.3,0.8,6.4c0,0.1,0.1,0.2,0.3,0.2c0.1,0,0.2-0.1,0.2-0.3
			c-0.2-1.2-0.3-2.4-0.5-3.5c-0.2-1.2-0.3-2.4-0.4-3.5c-0.3-2.4-0.6-4.7-0.8-7.1c-0.3-2.1-0.5-4.3-0.8-6.4c0-0.1-0.1-0.2-0.3-0.2
			c0,0,0,0,0,0C27.1,53,27,53.2,27,53.3L27,53.3z"/>
		<path class="st2" d="M34.2,52.7c0.6,4.7,1,9.4,1.3,14c0.2,3.4,0.3,6.7,0.4,10.1c0,0.1,0.2,0.2,0.3,0.2c0.1,0,0.1,0,0.2-0.1
			c0-0.1,0.1-0.1,0.1-0.2c-0.1-4.7-0.3-9.4-0.7-14.1c-0.2-3.4-0.6-6.7-1-10.1c0-0.1-0.1-0.2-0.3-0.2l0,0
			C34.3,52.4,34.2,52.6,34.2,52.7L34.2,52.7z"/>
		<path class="st2" d="M40.8,51.8c0.3,4.7,0.8,9.3,1.1,14c0.2,2.9,0.2,5.8,0.2,8.7l0-0.1c0,0.1,0,0.2,0,0.4c0,0.1,0,0.1,0,0.2
			c0,0.1,0.1,0.1,0.2,0.1c0.1,0,0.1,0,0.2,0c0,0,0.1-0.1,0.1-0.2c0.2-4.7-0.1-9.3-0.5-14c-0.2-3-0.5-6.1-0.7-9.1
			c0-0.1-0.1-0.2-0.3-0.2c0,0,0,0,0,0C40.8,51.5,40.8,51.6,40.8,51.8L40.8,51.8z"/>
		<path class="st2" d="M47.7,51.5c0.2,4.6,0.7,9.2,0.8,13.8c0.1,1.5,0.1,3,0,4.6c0,0,0,0,0-0.1c0,1-0.1,1.9-0.1,2.9
			c0,0.1,0,0.1,0,0.2c0,0.1,0.1,0.1,0.2,0.1c0.1,0,0.3-0.1,0.3-0.2c0.4-4.6,0.1-9.2-0.3-13.8c-0.2-2.5-0.4-5-0.5-7.5
			c0-0.1-0.1-0.2-0.3-0.2c0,0,0,0,0,0C47.7,51.3,47.7,51.4,47.7,51.5L47.7,51.5z"/>
		<path class="st2" d="M54.9,67.7C54.9,67.7,54.9,67.7,54.9,67.7C54.9,67.7,54.9,67.7,54.9,67.7L54.9,67.7z M54.3,50.2
			c0,0.1-0.1,0.1-0.1,0.2c0.1,4.5,0.6,9.1,0.7,13.6c0,1.2,0,2.5,0,3.7c0,0,0,0,0,0c0,1.6-0.2,3.3-0.4,4.9c0,0.1,0.1,0.3,0.2,0.3
			c0.1,0,0.3-0.1,0.3-0.2c0.6-4.5,0.4-9.1,0.1-13.6c-0.2-2.9-0.4-5.9-0.5-8.8c0-0.1-0.1-0.2-0.3-0.2c0,0,0,0,0,0
			C54.4,50.1,54.3,50.1,54.3,50.2L54.3,50.2z"/>
		<path class="st2" d="M59.2,50.3C59.2,50.3,59.2,50.3,59.2,50.3C59.2,50.3,59.2,50.3,59.2,50.3C59.2,50.3,59.2,50.3,59.2,50.3
			L59.2,50.3z M59.3,50c0,0.1-0.1,0.1-0.1,0.2c0,0,0,0,0,0c0,0,0,0,0,0c0,0,0,0,0,0c0,0,0,0,0,0l0,0c0,0,0,0,0,0c0,0,0,0,0,0
			c0,0,0,0,0,0.1c-0.1,2.3-0.1,4.6-0.1,6.9c0,0.6,0,1.2,0,1.7c0,0.1,0,0.1,0,0.2c0,0.1,0,0.2,0,0.3c0,0,0,0.1,0,0.1
			c0,0.1,0,0.3,0,0.4c0,0.3,0,0.6,0,0.9c0,0.6,0,1.2-0.1,1.7c-0.1,1.4-0.1,2.8-0.2,4.3c-0.1,1.4-0.2,2.9-0.3,4.3
			c0,0.1,0.1,0.3,0.2,0.3c0.1,0,0.3-0.1,0.3-0.2c0.2-2.3,0.4-4.6,0.5-7c0.1-1.6,0.1-3.3,0.2-4.9c0,0,0,0,0-0.1c0-0.7,0-1.4,0-2
			c0-1.5,0.1-2.9,0.1-4.4c0-0.7,0-1.5,0.1-2.2c0-0.1,0-0.2,0-0.3c0,0,0-0.1,0-0.1c0,0,0,0,0-0.1c0,0,0-0.1,0-0.1
			c0-0.1,0-0.1-0.1-0.2c-0.1,0-0.1-0.1-0.2-0.1c0,0,0,0,0,0C59.4,50,59.3,50,59.3,50L59.3,50z"/>
		<path class="st0" d="M44.3,27.9c0.1,0.7,0.7,1.3,1.4,1.2c0.7-0.1,1.2-0.7,1.1-1.4c-0.1-0.7-0.7-1.3-1.4-1.2
			C44.7,26.6,44.2,27.2,44.3,27.9L44.3,27.9z"/>
	</g>
</g>
<g id="Calque_3">
</g>
</svg>
