<?xml version="1.0" encoding="utf-8"?>
<!-- Generator: Adobe Illustrator 23.1.0, SVG Export Plug-In . SVG Version: 6.00 Build 0)  -->
<svg version="1.1" id="Calque_2" xmlns="http://www.w3.org/2000/svg" xmlns:xlink="http://www.w3.org/1999/xlink" x="0px" y="0px"
	 viewBox="0 0 78 82.7" style="enable-background:new 0 0 78 82.7;" xml:space="preserve">
<style type="text/css">
	.st0{fill:#FEBA1B;}
	.st1{fill:#C54141;}
</style>
<g transform="translate(-317.56 1048.9)">
	<g transform="matrix(2.0086 0 0 2.0086 -1890.9 644.28)">
		<path class="st0" d="M1107-839.6c0,0-0.1,0-0.1,0c0,0,0,0,0,0c-0.1,0-0.1,0.2-0.1,0.3c0.1,0.1,8.3,17.6,11.1,22.2
			c0.6-0.5,1.2-1,1.8-1.3c0.5-0.3,0.9-0.5,1.3-0.6c0.1,0,0.1,0,0.2-0.1c-2.6-4.6-13.9-20.4-14-20.5
			C1107.1-839.6,1107-839.6,1107-839.6L1107-839.6z M1121.5-818.4c-0.1,0-0.2,0.1-0.3,0.1c-0.4,0.1-0.9,0.3-1.3,0.6
			c-0.5,0.3-1,0.7-1.6,1.2c0.1,0.1,0.1,0.2,0.2,0.3c1.6,2,3.3,4.6,4.1,5.5c0.4-0.6,1.1-1,1.9-1.1c-0.4-1.1-1.8-3.9-2.8-6.2
			C1121.6-818.2,1121.5-818.3,1121.5-818.4L1121.5-818.4z"/>
		<path class="st1" d="M1125-805.7c1.9,0.6,4.5,0.6,6.7,0.6c0.2,0,0.3-0.4,0-0.4c-1.9-0.3-2.8-1.1-3.4-2.4c0,0,0,0-0.1,0
			c0,0-0.1,0.1-0.1,0.1c0,0-0.1,0.1-0.1,0.1c0,0-0.1,0.1-0.1,0.1c0,0-0.1,0.1-0.1,0.1c0,0,0,0.1-0.1,0.1c0,0,0,0.1-0.1,0.1
			c0,0,0,0.1,0,0.1c0,0,0,0.1,0,0.1c0,0,0,0.1,0,0.1c0,0,0,0.1,0,0.1c0,0,0,0.1,0,0.1c0,0,0,0.1,0,0.1c0,0,0,0.1,0,0.1
			c0,0,0,0.1-0.1,0.1c0,0-0.1,0.1-0.1,0.1c0,0-0.1,0.1-0.1,0.1c0,0-0.1,0.1-0.1,0.1c0,0-0.1,0-0.1,0.1c0,0-0.1,0-0.1,0.1
			s-0.1,0-0.2,0.1c-0.1,0-0.2,0.1-0.3,0.1c-0.1,0-0.2,0.1-0.4,0.1c-0.1,0-0.2,0-0.4,0.1c-0.1,0-0.2,0-0.4,0
			C1125.3-805.8,1125.2-805.7,1125-805.7C1125-805.7,1125-805.7,1125-805.7L1125-805.7z"/>
		<path class="st1" d="M1125.1-811.6c-1.6,0-2.8,1.3-2.8,2.8c0,0.5,0.1,0.9,0.3,1.3c0.5,0.8,1.4,1.4,2.5,1.7c0,0,0,0,0,0
			c0.1,0,0.2,0,0.4,0s0.2,0,0.4,0c0.1,0,0.2,0,0.4-0.1s0.2,0,0.4-0.1s0.2-0.1,0.3-0.1c0.1,0,0.1,0,0.2-0.1s0.1,0,0.1-0.1
			c0,0,0.1,0,0.1-0.1c0,0,0.1-0.1,0.1-0.1c0,0,0.1-0.1,0.1-0.1c0,0,0.1-0.1,0.1-0.1c0,0,0-0.1,0.1-0.1c0,0,0-0.1,0-0.1
			c0,0,0-0.1,0-0.1c0,0,0-0.1,0-0.1c0,0,0-0.1,0-0.1s0-0.1,0-0.1s0-0.1,0-0.1c0,0,0-0.1,0-0.1c0,0,0-0.1,0.1-0.1c0,0,0-0.1,0.1-0.1
			c0,0,0.1-0.1,0.1-0.1c0,0,0.1-0.1,0.1-0.1c0,0,0.1-0.1,0.1-0.1c0,0,0.1-0.1,0.1-0.1c0,0,0,0,0,0c-0.2-0.4-0.3-0.8-0.4-1.3
			C1127.6-810.6,1126.5-811.6,1125.1-811.6L1125.1-811.6z"/>
	</g>
</g>
</svg>
