<?xml version="1.0" encoding="utf-8"?>
<!-- Generator: Adobe Illustrator 23.1.0, SVG Export Plug-In . SVG Version: 6.00 Build 0)  -->
<svg version="1.1" id="Calque_1" xmlns="http://www.w3.org/2000/svg" xmlns:xlink="http://www.w3.org/1999/xlink" x="0px" y="0px"
	 viewBox="0 0 78 82.7" style="enable-background:new 0 0 78 82.7;" xml:space="preserve">
<style type="text/css">
	.st0{fill:#C54141;}
	.st1{fill:#FEBA1B;}
	.st2{clip-path:url(#SVGID_2_);}
	.st3{fill:none;stroke:#F19D06;stroke-miterlimit:10;}
	.st4{clip-path:url(#SVGID_2_);fill:none;stroke:#F19D06;stroke-miterlimit:10;}
</style>
<g transform="matrix(.18865 0 0 .18865 -2638.4 1046.2)">
	<path color-rendering="auto" image-rendering="auto" class="st0" d="M14192.4-5469.7c-50.2,0-90.9,40.7-90.9,90.9c0,0,0,0,0,0
		c0,12,2.4,23.9,7.1,35c4.9,1.6,11.3,3.4,15.6,3.4c7.8,0,14.9-5.9,22.7-5.9c7.8,0,14.9,5.9,22.7,5.9s14.9-5.9,22.7-5.9
		c7.8,0,14.9,5.9,22.7,5.9s14.9-5.9,22.7-5.9c7.8,0,14.9,5.9,22.7,5.9c4.3,0,10.8-1.8,15.7-3.4c4.6-11.1,7-23,7-35
		C14283.3-5429,14242.6-5469.7,14192.4-5469.7C14192.4-5469.7,14192.4-5469.7,14192.4-5469.7L14192.4-5469.7z"/>
	<path color-rendering="auto" image-rendering="auto" class="st1" d="M14283.3-5341.9l-90.8,234.6l-90.9-234.6
		c0,0,14.9,5.9,22.7,5.9c7.8,0,14.9-5.9,22.7-5.9c7.8,0,14.9,5.9,22.7,5.9s14.9-5.9,22.7-5.9c7.8,0,14.9,5.9,22.7,5.9
		c7.8,0,14.9-5.9,22.7-5.9c7.8,0,14.9,5.9,22.7,5.9C14268.4-5336,14283.3-5341.9,14283.3-5341.9z"/>
	<path color-rendering="auto" image-rendering="auto" class="st1" d="M14192.4-5543.1c-50.2,0-90.9,40.7-90.9,90.9c0,0,0,0,0,0
		c0,12,2.4,23.9,7.1,35c4.9,1.6,11.3,3.4,15.6,3.4c7.8,0,14.9-5.9,22.7-5.9c7.8,0,14.9,5.9,22.7,5.9s14.9-5.9,22.7-5.9
		c7.8,0,14.9,5.9,22.7,5.9s14.9-5.9,22.7-5.9c7.8,0,14.9,5.9,22.7,5.9c4.3,0,10.8-1.8,15.7-3.4c4.6-11.1,7-23,7-35
		C14283.3-5502.4,14242.6-5543.1,14192.4-5543.1C14192.4-5543.1,14192.4-5543.1,14192.4-5543.1L14192.4-5543.1z"/>
	<g>
		<defs>
			<path id="SVGID_1_" color-rendering="auto" image-rendering="auto" d="M14283.3-5341.9l-90.8,234.6l-90.9-234.6
				c0,0,14.9,5.9,22.7,5.9c7.8,0,14.9-5.9,22.7-5.9c7.8,0,14.9,5.9,22.7,5.9s14.9-5.9,22.7-5.9c7.8,0,14.9,5.9,22.7,5.9
				c7.8,0,14.9-5.9,22.7-5.9c7.8,0,14.9,5.9,22.7,5.9C14268.4-5336,14283.3-5341.9,14283.3-5341.9z"/>
		</defs>
		<clipPath id="SVGID_2_">
			<use xlink:href="#SVGID_1_"  style="overflow:visible;"/>
		</clipPath>
		<g class="st2">
			<line class="st3" x1="14153.6" y1="-5125.1" x2="14313.8" y2="-5320.2"/>
			<line class="st3" x1="14173.6" y1="-5108.7" x2="14333.9" y2="-5303.7"/>
			<line class="st3" x1="14194.2" y1="-5091.8" x2="14354.4" y2="-5286.8"/>
		</g>
		<g class="st2">
			<line class="st3" x1="14308.8" y1="-5150.2" x2="14051.8" y2="-5361.3"/>
			<line class="st3" x1="14325.3" y1="-5170.2" x2="14068.3" y2="-5381.4"/>
			<line class="st3" x1="14342.1" y1="-5190.8" x2="14085.1" y2="-5401.9"/>
		</g>
		<line class="st4" x1="14349.2" y1="-5214.6" x2="14092.2" y2="-5425.7"/>
		<line class="st4" x1="14365.6" y1="-5234.6" x2="14108.6" y2="-5445.8"/>
		<line class="st4" x1="14382.5" y1="-5255.2" x2="14125.5" y2="-5466.3"/>
		<line class="st4" x1="14261.5" y1="-5090.2" x2="14004.5" y2="-5301.3"/>
		<line class="st4" x1="14278" y1="-5110.2" x2="14021" y2="-5321.4"/>
		<line class="st4" x1="14294.9" y1="-5130.8" x2="14037.9" y2="-5341.9"/>
		<line class="st4" x1="14121.5" y1="-5207" x2="14281.7" y2="-5402"/>
		<line class="st4" x1="14141.5" y1="-5190.5" x2="14301.8" y2="-5385.6"/>
		<line class="st4" x1="14162.1" y1="-5173.7" x2="14322.3" y2="-5368.7"/>
		<line class="st4" x1="14020.8" y1="-5207.2" x2="14181.1" y2="-5402.2"/>
		<line class="st4" x1="14040.9" y1="-5190.7" x2="14201.1" y2="-5385.8"/>
		<line class="st4" x1="14061.4" y1="-5173.9" x2="14221.6" y2="-5368.9"/>
	</g>
</g>
</svg>
