<?xml version="1.0" encoding="utf-8"?>
<!-- Generator: Adobe Illustrator 23.1.0, SVG Export Plug-In . SVG Version: 6.00 Build 0)  -->
<svg version="1.1" id="Calque_3" xmlns="http://www.w3.org/2000/svg" xmlns:xlink="http://www.w3.org/1999/xlink" x="0px" y="0px"
	 viewBox="0 0 78 82.7" style="enable-background:new 0 0 78 82.7;" xml:space="preserve">
<style type="text/css">
	.st0{fill:#C54141;}
</style>
<g>
	<path class="st0" d="M46.2,58.8c-14.2,0-25.8-11.5-25.9-25.7c0-0.1,0-0.2,0-0.4c0-6.9,2.6-13.4,7.4-18.3C32.6,9.4,39.1,6.7,46,6.6
		c0.1,0,0.1,0,0.2,0c14.2,0,25.8,11.5,25.9,25.7c0,0.1,0,0.2,0,0.4c0.1,14.3-11.4,26-25.7,26.1C46.3,58.8,46.3,58.8,46.2,58.8z
		 M46.2,9.6c-0.1,0-0.1,0-0.2,0C33.4,9.7,23.2,20.1,23.3,32.7c0,0,0,0,0,0c0,0.1,0,0.2,0,0.3c0.1,12.6,10.4,22.7,22.9,22.7
		c0.1,0,0.1,0,0.2,0C59,55.7,69.2,45.3,69.1,32.7c0,0,0,0,0,0c0-0.1,0-0.2,0-0.3C69,19.8,58.8,9.6,46.2,9.6z"/>
	<g>
		<rect x="21.8" y="32.1" class="st0" width="48.8" height="1.3"/>
		<g>
			<rect x="22.2" y="31.2" class="st0" width="4.4" height="2.9"/>
			<rect x="65.9" y="31.2" class="st0" width="4.4" height="2.9"/>
		</g>
		<g>
			<rect x="29" y="31.2" class="st0" width="1.3" height="2.9"/>
			<rect x="34.5" y="31.2" class="st0" width="1.3" height="2.9"/>
			<rect x="40.1" y="31.2" class="st0" width="1.3" height="2.9"/>
			<rect x="51.1" y="31.2" class="st0" width="1.3" height="2.9"/>
			<rect x="56.7" y="31.2" class="st0" width="1.3" height="2.9"/>
			<rect x="62.2" y="31.2" class="st0" width="1.3" height="2.9"/>
			<rect x="45.6" y="31.2" class="st0" width="1.3" height="2.9"/>
			<rect x="45.6" y="8.3" class="st0" width="1.3" height="48.8"/>
		</g>
		<g>
			<rect x="44.8" y="8.7" class="st0" width="2.9" height="4.4"/>
			<rect x="44.8" y="52.4" class="st0" width="2.9" height="4.4"/>
		</g>
		<g>
			<rect x="44.8" y="15.5" class="st0" width="2.9" height="1.3"/>
			<rect x="44.8" y="21" class="st0" width="2.9" height="1.3"/>
			<rect x="44.8" y="26.5" class="st0" width="2.9" height="1.3"/>
			<rect x="44.8" y="37.6" class="st0" width="2.9" height="1.3"/>
			<rect x="44.8" y="43.1" class="st0" width="2.9" height="1.3"/>
			<rect x="44.8" y="48.7" class="st0" width="2.9" height="1.3"/>
			<rect x="44.8" y="32.1" class="st0" width="2.9" height="1.3"/>
		</g>
	</g>
</g>
</svg>
