<?xml version="1.0" encoding="utf-8"?>
<!-- Generator: Adobe Illustrator 23.1.0, SVG Export Plug-In . SVG Version: 6.00 Build 0)  -->
<svg version="1.1" id="Calque_2" xmlns="http://www.w3.org/2000/svg" xmlns:xlink="http://www.w3.org/1999/xlink" x="0px" y="0px"
	 viewBox="0 0 78 82.7" style="enable-background:new 0 0 78 82.7;" xml:space="preserve">
<style type="text/css">
	.st0{fill:#C54141;}
	.st1{fill:#013183;}
	.st2{fill:#2F5699;}
	.st3{fill:url(#SVGID_1_);}
	.st4{fill:#FF9191;}
	.st5{fill:#FEBA1B;}
	.st6{fill:#F19D06;}
</style>
<g transform="matrix(.30267 -.04723 -.00103 .29919 -28.489 -44.568)">
	<path class="st0" d="M314.8,221.3c-14.1-9.2-27.9-12.5-30.8-7.3c-0.2,0.4-0.4,0.7-0.4,1.1l-18.4,32.9l4.6,3l18,11.8l5.8,3.8
		l22.6,14.8l19-34c0,0,0-0.1-0.1-0.1l0,0l0,0C337.8,242,328.8,230.5,314.8,221.3L314.8,221.3z"/>
	<path class="st1" d="M270.2,239.3L253,270l-2,3.5l4.6,3L302,307l19.2-34.3l-25.5-16.7l-20.9-13.7L270.2,239.3L270.2,239.3z"/>
	<path class="st2" d="M315,283.8l-51.1-33.4l-1.4,2.5l-0.7,1.2l51.1,33.4l0.7-1.2L315,283.8L315,283.8z"/>
	<path class="st2" d="M318.5,277.6l-51.1-33.4l-1.4,2.5l-0.7,1.2l51.1,33.4l0.7-1.2L318.5,277.6L318.5,277.6z"/>
	<path class="st2" d="M311.5,290l-51.1-33.4l-1.4,2.5l-0.7,1.2l51.1,33.4l0.7-1.2L311.5,290L311.5,290z"/>
	
		<linearGradient id="SVGID_1_" gradientUnits="userSpaceOnUse" x1="1675.2803" y1="146.2348" x2="1692.5798" y2="146.2348" gradientTransform="matrix(0.8096 0.7337 0.5266 -0.9501 -1224.7067 -741.0073)">
		<stop  offset="0" style="stop-color:#FFFFFF"/>
		<stop  offset="1" style="stop-color:#FFDD7C"/>
	</linearGradient>
	<path class="st3" d="M255.5,265.5l-65.8,117.8l-2.2,66.4l4.8-3l48.5-30l65.8-117.8l-9.9-6.5l-3.5-2.3l-9.3-6.1l-1.2-0.8l-3.5-2.3
		l-1.2-0.8l-9.3-6.1l-3.5-2.3l-5.3-3.5L255.5,265.5L255.5,265.5z"/>
	<path class="st1" d="M208.4,436.8l-10-6.6l-10-6.6l-0.9,26.1L208.4,436.8L208.4,436.8z"/>
	<path class="st4" d="M335.2,247.4c0,0,0,0.1,0.1,0.1l0-0.1L335.2,247.4L335.2,247.4z"/>
	<path class="st5" d="M255.5,265.5l-65.8,117.8l20-4.5l5.6,21.2l20-4.5l5.6,21.2l65.8-117.8l-12.8-8.3l-12.8-8.3l-12.8-8.3
		L255.5,265.5L255.5,265.5z"/>
	<path class="st6" d="M255.5,265.5l-65.8,117.8l20-4.5l58.6-104.9L255.5,265.5L255.5,265.5z"/>
	<path class="st5" d="M235.1,395.5l5.6,21.2l65.8-117.8l-12.8-8.3L235.1,395.5L235.1,395.5z"/>
	<path class="st6" d="M215.2,400l20-4.5l58.6-104.9l-12.8-8.3L215.2,400L215.2,400z"/>
</g>
</svg>
