<?xml version="1.0" encoding="utf-8"?>
<!-- Generator: Adobe Illustrator 23.1.0, SVG Export Plug-In . SVG Version: 6.00 Build 0)  -->
<svg version="1.1" xmlns="http://www.w3.org/2000/svg" xmlns:xlink="http://www.w3.org/1999/xlink" x="0px" y="0px"
	 viewBox="0 0 166 157" style="enable-background:new 0 0 166 157;" xml:space="preserve">
<style type="text/css">
	.st0{display:none;opacity:0.47;}
	.st1{display:none;}
	.st2{display:inline;fill:#C54141;}
	.st3{display:inline;fill:none;stroke:#000000;stroke-width:3;stroke-linecap:round;stroke-linejoin:round;stroke-miterlimit:10;}
	.st4{display:inline;}
	.st5{fill:none;stroke:#FFFFFF;stroke-width:3;stroke-linecap:round;stroke-linejoin:round;stroke-miterlimit:10;}
	.st6{fill:#FBB03B;stroke:#FFFFFF;stroke-width:3;stroke-linecap:round;stroke-linejoin:round;stroke-miterlimit:10;}
	.st7{fill:none;stroke:#013183;stroke-width:3;stroke-linecap:round;stroke-linejoin:round;stroke-miterlimit:10;}
	.st8{fill:#FBB03B;stroke:#013183;stroke-width:3;stroke-linecap:round;stroke-linejoin:round;stroke-miterlimit:10;}
	.st9{fill:none;stroke:#FEBA1B;stroke-width:3;stroke-linecap:round;stroke-linejoin:round;stroke-miterlimit:10;}
	.st10{fill:none;stroke:#C54141;stroke-width:3;stroke-linecap:round;stroke-linejoin:round;stroke-miterlimit:10;}
</style>
<g id="Calque_1" class="st0">
	
		<image style="display:inline;overflow:visible;" width="626" height="626" xlink:href="B1241478.jpg"  transform="matrix(1 0 0 1 -232.4521 -195.8904)">
	</image>
</g>
<g id="FOND" class="st1">
	<rect x="-0.5" y="0.5" class="st2" width="166.5" height="157"/>
</g>
<g id="LOGO_-_copie" class="st1">
	<g id="Calque_2_-_copie_2_1_">
		<polygon class="st3" points="83,25 34,56 34,130 133,130 133,56 		"/>
	</g>
	<g id="Calque_2_-_copie_2" class="st4">
		<polyline class="st5" points="133,82 133,56 83,25 34,56 34,82 		"/>
	</g>
	<g id="Calque_7_-_copie" class="st4">
		<path class="st5" d="M83,62.6c0,0,5.6-9,4.8-11.6c-0.9-2.6-3-4.7-5-4.1c-1.9,0.6-3.8,3.4-3.8,3.4s-3.2-1.1-5.2-0.4
			c-1.9,0.6-2.4,3.7-1.5,6.2c0.6,1.8,5.7,4.3,8.7,5.6L83,62.6z"/>
	</g>
	<g id="Calque_3_-_copie" class="st4">
		<path class="st6" d="M83.5,122.8"/>
		<path class="st5" d="M34,100c0-16.6,13.4-30,30-30s28,13.4,28,30v0.5c0,5.8-2.7,15.5-8.5,15.5s-8.5-9.7-8.5-15.5V100
			c0-16.6,11.4-30,28-30s30,13.4,30,30v30H34C34,130,34,100,34,100z"/>
	</g>
	<g id="Calque_4_-_copie" class="st4">
		<line class="st5" x1="44.5" y1="90.5" x2="44.5" y2="94.5"/>
		<line class="st5" x1="59.4" y1="91" x2="59.4" y2="95"/>
		<path class="st5" d="M44.5,105c0,6.7,15,6.7,15,0"/>
	</g>
	<g id="Calque_5_-_copie" class="st4">
		<path class="st5" d="M105.5,92.8c0,0,1.7-2.3,4,0"/>
		<path class="st5" d="M120.3,93.3c0,0,1.8-2.2,4,0"/>
		<path class="st5" d="M120.4,108.9c-3.3,2.2-9.8,1.9-12.1-1"/>
	</g>
</g>
<g id="LOGO">
	<g id="Calque_2" class="st1">
		<polygon class="st3" points="83,25 34,56 34,130 133,130 133,56 		"/>
	</g>
	<g id="Calque_2_-_copie">
		<polyline class="st7" points="133,82 133,56 83,25 34,56 34,82 		"/>
		<polyline class="st7" points="34,100 34,130 133,130 133,100 		"/>
	</g>
	<g id="Calque_7">
		<path class="st7" d="M83,62.6c0,0,5.6-9,4.8-11.6c-0.9-2.6-3-4.7-5-4.1c-1.9,0.6-3.8,3.4-3.8,3.4s-3.2-1.1-5.2-0.4
			c-1.9,0.6-2.4,3.7-1.5,6.2c0.6,1.8,5.7,4.3,8.7,5.6L83,62.6z"/>
	</g>
	<g id="Calque_3">
		<path class="st8" d="M83.5,122.8"/>
		<path class="st7" d="M133,100c0-16.6-13.4-30-30-30s-28,13.4-28,30v0.5c0,5.8,2.7,15.5,8.5,15.5s8.5-9.7,8.5-15.5V100
			c0-16.6-11.4-30-28-30s-30,13.4-30,30"/>
	</g>
	<g id="Calque_4">
		<line class="st7" x1="44.5" y1="90.5" x2="44.5" y2="94.5"/>
		<line class="st7" x1="59.4" y1="91" x2="59.4" y2="95"/>
		<path class="st7" d="M44.5,105c0,6.7,15,6.7,15,0"/>
	</g>
	<g id="Calque_5">
		<path class="st7" d="M105.5,92.8c0,0,1.7-2.3,4,0"/>
		<path class="st7" d="M120.3,93.3c0,0,1.8-2.2,4,0"/>
		<path class="st7" d="M120.4,108.9c-3.3,2.2-9.8,1.9-12.1-1"/>
	</g>
</g>
<g id="LOGO_-_copie_2" class="st1">
	<g id="Calque_2_-_copie_3_1_">
		<polygon class="st3" points="83,25 34,56 34,130 133,130 133,56 		"/>
	</g>
	<g id="Calque_2_-_copie_3" class="st4">
		<polyline class="st9" points="133,82 133,56 83,25 34,56 34,82 		"/>
		<polyline class="st7" points="34,100 34,130 133,130 133,100 		"/>
	</g>
	<g id="Calque_7_-_copie_2" class="st4">
		<path class="st10" d="M83,62.6c0,0,5.6-9,4.8-11.6c-0.9-2.6-3-4.7-5-4.1c-1.9,0.6-3.8,3.4-3.8,3.4s-3.2-1.1-5.2-0.4
			c-1.9,0.6-2.4,3.7-1.5,6.2c0.6,1.8,5.7,4.3,8.7,5.6L83,62.6z"/>
	</g>
	<g id="Calque_3_-_copie_2" class="st4">
		<path class="st8" d="M83.5,122.8"/>
		<path class="st7" d="M133,100c0-16.6-13.4-30-30-30s-28,13.4-28,30v0.5c0,5.8,2.7,15.5,8.5,15.5s8.5-9.7,8.5-15.5V100
			c0-16.6-11.4-30-28-30s-30,13.4-30,30"/>
	</g>
	<g id="Calque_4_-_copie_2" class="st4">
		<line class="st7" x1="44.5" y1="90.5" x2="44.5" y2="94.5"/>
		<line class="st7" x1="59.4" y1="91" x2="59.4" y2="95"/>
		<path class="st7" d="M44.5,105c0,6.7,15,6.7,15,0"/>
	</g>
	<g id="Calque_5_-_copie_2" class="st4">
		<path class="st7" d="M105.5,92.8c0,0,1.7-2.3,4,0"/>
		<path class="st7" d="M120.3,93.3c0,0,1.8-2.2,4,0"/>
		<path class="st7" d="M120.4,108.9c-3.3,2.2-9.8,1.9-12.1-1"/>
	</g>
</g>
<g id="Calque_9">
</g>
</svg>
