<?xml version="1.0" encoding="utf-8"?>
<!-- Generator: Adobe Illustrator 23.1.0, SVG Export Plug-In . SVG Version: 6.00 Build 0)  -->
<svg version="1.1" id="Calque_1" xmlns="http://www.w3.org/2000/svg" xmlns:xlink="http://www.w3.org/1999/xlink" x="0px" y="0px"
	 viewBox="0 0 78.7 78.7" style="enable-background:new 0 0 78.7 78.7;" xml:space="preserve">
<style type="text/css">
	.st0{fill:#C54141;}
	.st1{fill:#D84E4E;}
	.st2{fill:#FF6060;}
	.st3{opacity:0.2;enable-background:new    ;}
	.st4{fill:#FBBEBE;}
	.st5{fill:#2F2E41;}
</style>
<g>
	<circle class="st0" cx="39" cy="37.6" r="37"/>
	<ellipse class="st1" cx="39" cy="37.6" rx="30.4" ry="30.4"/>
	<circle class="st2" cx="39" cy="37.6" r="24.6"/>
</g>
<g>
	<path class="st3" d="M31.4,74.9c-0.2,0-0.4-0.1-0.6-0.2c0.1-4.1,0-12.5-1.2-21.3c-0.7-4.8-1.6-9.8-3.2-14.3
		c-0.5-1.6-1.1-3.1-1.8-4.6c-1.6-3.4-3.6-6.3-6-8.3l0.4-0.5c2.1,1.7,3.9,4,5.4,6.9c0.5,0.9,0.9,1.8,1.3,2.8c0.5,1.1,0.9,2.2,1.3,3.4
		c0.3,0.8,0.5,1.5,0.7,2.3c1,3.5,1.8,7.4,2.4,11.9c0.1,1,0.3,2,0.4,3C31.4,64,31.4,71.3,31.4,74.9z"/>
	<path class="st3" d="M23.3,72.1c-0.2-0.1-0.4-0.2-0.7-0.3c-0.1-2.4-0.4-5.5-1-8.3c-0.3-1.3-0.6-2.6-1.1-3.8c-0.7-2-1.8-3.8-3.1-4.9
		l0.4-0.5c1.4,1.2,2.5,3,3.3,5c0.9,2.3,1.4,5,1.7,7.6C23.2,68.7,23.3,70.5,23.3,72.1z"/>
	<path class="st3" d="M15,26.1c1.8,0.1,3.3-1.3,3.4-3c0.1-1.8-1.3-3.3-3-3.4c-1.8-0.1-3.3,1.3-3.4,3C11.9,24.5,13.2,26,15,26.1z"/>
	<path class="st3" d="M14.6,53.7c1.8,0.1,3.3-1.3,3.4-3c0.1-1.8-1.3-3.3-3-3.4c-1.8-0.1-3.3,1.3-3.4,3S12.8,53.6,14.6,53.7z"/>
	<path class="st3" d="M27.6,28.9c-0.9,3.8,0.4,7.3,0.4,7.3s2.7-2.6,3.6-6.4c0.9-3.8-0.4-7.3-0.4-7.3S28.5,25.1,27.6,28.9z"/>
	<path class="st3" d="M16.5,37.4c3.6,1.5,7.3,0.9,7.3,0.9s-2.1-3.1-5.7-4.7c-3.6-1.5-7.3-0.9-7.3-0.9S12.9,35.9,16.5,37.4z"/>
	<path class="st3" d="M14.6,61.8c2.5,1.1,5.1,0.6,5.1,0.6s-1.5-2.2-4-3.3c-2.5-1.1-5.1-0.6-5.1-0.6S12.1,60.8,14.6,61.8z"/>
	<path class="st4" d="M39,47.8c7.8,0.4,14.4-5.6,14.8-13.3c0.4-7.8-5.6-14.4-13.3-14.8c-7.8-0.4-14.4,5.6-14.8,13.3
		C25.3,40.8,31.2,47.4,39,47.8z"/>
	<path class="st4" d="M33.7,44.2c0,0,1.3,8.4,1.3,9.3c0,0.9,8.1,5.3,8.1,5.3l7.5-0.9l3-7.8c0,0-4-6.8-3.9-9.4L33.7,44.2z"/>
	<path class="st5" d="M28.1,21.8c0,0,5-9.4,13.4-6.8c8.4,2.7,13.1,6.3,13.3,9.6C55,28,54.2,33,54.2,33s-0.6-6.9-6.6-5.7
		c-6,1.2-15.2-0.4-15.2-0.4l-2.2,13.3c0,0-1.5-2.5-3.5-1.1C24.7,40.4,22,24.5,28.1,21.8z"/>
	<path class="st5" d="M72.3,57.1l1,1.3c-3.6,7.2-10.7,11.9-18,15.4c-7.3,3.4-15.5,4.3-23.4,2.5c-0.2,0-0.4-0.1-0.6-0.2
		c-2.2-0.5-4.3-1.3-6.4-2.3c-0.3-0.2-0.7-0.3-1-0.5c-0.2-0.1-0.4-0.2-0.7-0.3c-2-1.1-5.3-2.4-7.1-3.8l-3-2.1l1.7-1.7l1.3-1l1-0.7
		l2-1.4l2.1-1.5l0.6-0.4l8.4-5.7l0.6-0.4l4.3-3l0,0c0,0,4.1,7.6,10.8,5.8c6.7-1.8,6.9-8.1,6.9-8.1L72.3,57.1z"/>
</g>
</svg>
