<?xml version="1.0" encoding="utf-8"?>
<!-- Generator: Adobe Illustrator 23.1.0, SVG Export Plug-In . SVG Version: 6.00 Build 0)  -->
<svg version="1.1" id="Calque_1" xmlns="http://www.w3.org/2000/svg" xmlns:xlink="http://www.w3.org/1999/xlink" x="0px" y="0px"
	 viewBox="0 0 760 824" style="enable-background:new 0 0 760 824;" xml:space="preserve">
<style type="text/css">
	.st0{fill:#CCCCCC;}
	.st1{fill:#ED3E48;}
	.st2{clip-path:url(#SVGID_2_);}
	.st3{fill:#FFFFFF;}
	.st4{fill:#A91F30;}
	.st5{fill:#6400D7;}
	.st6{fill:#B2B2B2;}
</style>
<g id="ROUGE_CORNES">
	<g id="Calque_5">
		<g>
			<path class="st0" d="M330.5,369.8c-23.6,11.1-50,17.3-77.8,17.3c-79,0-146.3-50-172-120.2c-2.3-6.2-11-6.6-13.8-0.6
				C57.1,287.7,51,311.2,49.5,336c-7,116.3,89.5,213.5,205.8,207.5c54.1-2.8,102.4-27.6,136.2-65.6c-22.6-25.4-38.7-56.8-45.6-91.5
				C340,381.7,334.8,376.1,330.5,369.8z"/>
			<path class="st0" d="M733.5,336c-1.5-24.7-7.6-48.2-17.4-69.7c-2.8-6-11.5-5.7-13.8,0.6c-25.7,70.1-93,120.2-172,120.2
				c-26.6,0-51.9-5.7-74.7-15.9c-5.3,7.3-11.8,13.7-19.2,18.7c-7.3,33.3-23,63.5-44.8,88.1c33.7,38,82,62.7,136.1,65.5
				C644,549.5,740.5,452.2,733.5,336z"/>
			<path class="st0" d="M393.5,403c-18,0-34.5-6.2-47.6-16.6c6.9,34.7,23,66.1,45.6,91.5c21.8-24.6,37.6-54.8,44.8-88.1
				C424.2,398.1,409.4,403,393.5,403z"/>
		</g>
	</g>
	<g id="PIEDS">
		<g>
			<path class="st0" d="M498,787L498,787c-20.4,0-37,16.6-37,37l0,0h74l0,0C535,803.6,518.4,787,498,787z"/>
			<rect x="461" y="640" class="st0" width="24" height="184"/>
		</g>
		<g>
			<path class="st0" d="M265,787L265,787c20.4,0,37,16.6,37,37l0,0h-74l0,0C228,803.6,244.6,787,265,787z"/>
			<rect x="278" y="640" class="st0" width="24" height="184"/>
		</g>
	</g>
	<g id="CORPS">
		<g id="tete">
			<circle class="st1" cx="382" cy="539" r="198"/>
		</g>
		<g>
			<g>
				<path class="st1" d="M367.3,364.2c-18.4-18.4-18.4-48.1,0-66.5s48.1-18.4,66.5,0L367.3,364.2z"/>
			</g>
			<g>
				<path class="st1" d="M383.4,369.2c-8.2-17.6-0.6-38.5,17-46.7s38.5-0.6,46.7,17L383.4,369.2z"/>
			</g>
		</g>
		<g>
			<g>
				<path class="st1" d="M515.1,552.7c-3.9-25.7,13.7-49.7,39.3-53.6c25.7-3.9,49.7,13.7,53.6,39.3L515.1,552.7z"/>
			</g>
			<g>
				<path class="st1" d="M525.2,555.3c3.8-19,22.3-31.4,41.3-27.6c19,3.8,31.4,22.3,27.6,41.3L525.2,555.3z"/>
			</g>
		</g>
		<g>
			<g>
				<path class="st1" d="M274.3,649.3c-5.6-25.4-30.6-41.4-56-35.8s-41.4,30.6-35.8,56L274.3,649.3z"/>
			</g>
			<g>
				<path class="st1" d="M265.8,655.4c-10.4-16.4-32.1-21.2-48.5-10.8s-21.2,32.1-10.8,48.5L265.8,655.4z"/>
			</g>
		</g>
	</g>
	<g id="VISAGE">
		<g id="DENTS">
			<g>
				<defs>
					<rect id="SVGID_1_" x="159" y="484" width="457" height="139"/>
				</defs>
				<clipPath id="SVGID_2_">
					<use xlink:href="#SVGID_1_"  style="overflow:visible;"/>
				</clipPath>
				<g class="st2">
					<ellipse class="st3" cx="243.5" cy="638.9" rx="38.5" ry="101.1"/>
					<ellipse class="st3" cx="526" cy="635.8" rx="36" ry="68.2"/>
					<ellipse class="st3" cx="340.1" cy="623.6" rx="19.9" ry="38.6"/>
					<ellipse class="st3" cx="461.7" cy="621.6" rx="19.9" ry="38.6"/>
				</g>
			</g>
		</g>
		<g id="BOUCHE">
			<path class="st4" d="M583.1,636H176.9c-6.6,0-11.9-5.3-11.9-11.9v-0.2c0-6.6,5.3-11.9,11.9-11.9h406.2c6.6,0,11.9,5.3,11.9,11.9
				v0.2C595,630.7,589.7,636,583.1,636z"/>
			<path class="st4" d="M438.1,677H325.8c-5.5,0-9.9-4.4-9.9-9.9v-0.2c0-5.5,4.4-9.9,9.9-9.9h112.3c5.5,0,9.9,4.4,9.9,9.9v0.2
				C448,672.6,443.6,677,438.1,677z"/>
		</g>
		<g id="YEUX">
			<path class="st4" d="M460.8,414.7c-27.4,0-50.6,18.1-58.4,42.9c-4.6-40.9-39.3-72.6-81.5-72.6c-45.3,0-82,36.7-82,82
				s36.7,82,82,82c38.6,0,70.9-26.6,79.6-62.5c5.1,28.7,30.1,50.5,60.2,50.5c33.8,0,61.2-27.4,61.2-61.2S494.6,414.7,460.8,414.7z"
				/>
			<circle class="st3" cx="316" cy="461" r="82"/>
			<circle class="st3" cx="455.8" cy="469.9" r="61.2"/>
			<circle class="st5" cx="455.7" cy="469.9" r="50"/>
			<circle class="st5" cx="316" cy="461" r="65"/>
			<circle cx="456" cy="470" r="40"/>
			<circle cx="317" cy="461" r="50"/>
			<circle class="st3" cx="276" cy="421" r="18"/>
			<circle class="st3" cx="426" cy="440" r="15"/>
		</g>
	</g>
	<g id="Calque_6">
		<circle class="st6" cx="172" cy="420" r="18"/>
		<circle class="st6" cx="616" cy="477" r="18"/>
		<circle class="st6" cx="679" cy="440" r="13"/>
		<circle class="st6" cx="119" cy="470" r="13"/>
		<circle class="st6" cx="82" cy="341" r="8"/>
		<circle class="st6" cx="684" cy="325" r="8"/>
	</g>
</g>
</svg>
