<?xml version="1.0" encoding="utf-8"?>
<!-- Generator: Adobe Illustrator 23.1.0, SVG Export Plug-In . SVG Version: 6.00 Build 0)  -->
<svg version="1.1" id="Calque_1" xmlns="http://www.w3.org/2000/svg" xmlns:xlink="http://www.w3.org/1999/xlink" x="0px" y="0px"
	 viewBox="0 0 760 824" style="enable-background:new 0 0 760 824;" xml:space="preserve">
<style type="text/css">
	.st0{fill:#FFCF00;}
	.st1{fill:#FF7F00;}
	.st2{fill:none;stroke:#FF7F00;stroke-width:10;stroke-miterlimit:10;}
	.st3{fill:#F7A100;}
	.st4{display:none;fill:#FF7F00;}
	.st5{display:none;fill:#F7A100;}
	.st6{display:none;fill:none;stroke:#FFCF00;stroke-miterlimit:10;}
	.st7{fill:#FFFFFF;}
	.st8{fill:#ED3E48;}
</style>
<g id="LION">
	<g id="PATTES">
		<g>
			<path class="st0" d="M464.8,788L464.8,788c-20.4,0-37,16.6-37,37l0,0h74l0,0C501.8,804.5,485.2,788,464.8,788z"/>
			<rect x="427.8" y="712" class="st0" width="35" height="113"/>
			<path class="st1" d="M464.8,788L464.8,788c-20.4,0-6.7,37-6.7,37h43.7l0,0C501.8,804.5,485.2,788,464.8,788z"/>
		</g>
		<g>
			<path class="st0" d="M293.8,788L293.8,788c20.4,0,37,16.6,37,37l0,0h-74l0,0C256.8,804.5,273.4,788,293.8,788z"/>
			<rect x="295.8" y="711.9" class="st0" width="35" height="113"/>
			<path class="st1" d="M293.8,788L293.8,788c20.4,0,7.8,37,7.8,37h-44.8l0,0C256.8,804.5,273.4,788,293.8,788z"/>
		</g>
	</g>
	<g id="QUEUE">
		<path class="st2" d="M654,606c9,127-113,127-113,127"/>
		<path class="st0" d="M621.7,586.8l30.3-37.9l27.9,39.7c7,7.4,6.5,22.3-0.9,29.2l-12,18.1c-10.1,9.5-26,9-35.4-1.1L620.8,616
			C613.8,608.6,614.3,593.7,621.7,586.8z"/>
	</g>
	<g id="JAMBES_ARR">
		<g>
			
				<ellipse transform="matrix(0.1996 -0.9799 0.9799 0.1996 -275.4543 1099.1539)" class="st3" cx="535.1" cy="718.2" rx="97.8" ry="53.4"/>
			<path class="st3" d="M545.1,776c33.6,0,60.9,13.6,60.9,24.2s-27.2,14.2-60.9,14.2s-60.9-3.6-60.9-14.2
				C484.3,789.6,511.5,776,545.1,776z"/>
		</g>
		<g>
			
				<ellipse transform="matrix(0.9799 -0.1996 0.1996 0.9799 -138.9196 59.0108)" class="st3" cx="223.2" cy="718.5" rx="53.4" ry="97.8"/>
			<path class="st3" d="M213.1,776.3c-33.6,0-60.9,13.6-60.9,24.2c0,10.6,27.2,14.2,60.9,14.2c33.6,0,60.9-3.6,60.9-14.2
				C273.9,789.9,246.7,776.3,213.1,776.3z"/>
		</g>
	</g>
	<g id="CORPS_3_">
		<polyline class="st1" points="247.4,778.4 273.5,544 486,544 511.8,776 		"/>
		<polygon class="st4" points="452,785 461,582 387,576 304,574 296.2,621 309,785 		"/>
		<g>
			<ellipse class="st3" cx="379.5" cy="680.5" rx="77.5" ry="118.5"/>
			<ellipse class="st3" cx="382" cy="780.5" rx="73" ry="26.5"/>
		</g>
		<circle class="st5" cx="380" cy="343" r="300"/>
		<circle class="st6" cx="380" cy="343" r="245"/>
		<path class="st0" d="M396.5,58.8l26.4,31.4c4.5,5.3,12.2,6.7,18.2,3.2l34.7-19.8c7.9-4.5,17.9-0.7,20.8,7.8l15.3,44.6
			c2,6,7.7,9.9,14,9.8l58.4-1.6c8.9-0.2,15.9,7.6,14.7,16.4l-7.7,55.9c-1,7,3.3,13.7,10.1,15.8l41.3,12.6c9,2.7,13,13.2,8.1,21.3
			l-19.6,32.4c-3.6,6-2.4,13.8,2.9,18.4l32.7,28.4c6.7,5.8,6.6,16.2-0.2,22L632,386.5c-4.7,4-6.4,10.5-4.2,16.2l18.8,49.2
			c3.1,8.2-1.7,17.2-10.1,19.2l-44.9,10.7c-7,1.7-11.7,8.2-11,15.4l4.6,50.5c0.8,8.9-6.6,16.4-15.5,15.7l-56-4.4
			c-6.9-0.5-13.2,3.9-15,10.5l-10.2,36.7c-2.6,9.3-13.4,13.5-21.6,8.4l-28.6-17.9c-6.6-4.1-15.2-2.3-19.6,4.1l-17.2,25.1
			c-5.9,8.6-18.6,8.3-24.2-0.5l-14.9-23.8c-4.3-7-13.6-8.9-20.4-4.3l-32.6,22.2c-8.4,5.7-19.8,1.2-22.2-8.6l-6.7-28
			c-2.1-8.7-11.5-13.5-19.7-9.9l-28.2,12c-9.6,4.1-20.2-3-20.1-13.4l0.2-24.5c0.1-8-6.3-14.5-14.3-14.6l-34.3-0.3
			c-9.9-0.1-16.8-9.9-13.5-19.3l11.6-32.5c3.1-8.8-2.7-18.2-12-19.2l-27.8-3.1c-10.4-1.2-16.1-12.6-10.9-21.6l17.3-30
			c3.5-6.1,2.1-13.9-3.4-18.4L92,360.7c-6.7-5.4-7.1-15.4-1-21.5l36.1-35.5c5.1-5,5.8-13,1.6-18.8l-16.8-23.1
			c-6-8.2-1.8-19.9,8.1-22.5l24.7-6.4c8.1-2.1,12.7-10.5,10.1-18.4L143.3,179c-3-9.4,4-19,13.9-18.9l36.3,0.3
			c8.8,0.1,15.6-7.7,14.4-16.4l-3.3-24.5c-1.4-10.4,8.4-18.7,18.4-15.8l42.9,12.7c7.1,2.1,14.7-1.5,17.5-8.4l13.9-34.3
			c4-9.9,17-12.1,24.1-4.2l13.8,15.3c6.3,7,17.5,6.2,22.8-1.6L373.5,60C378.8,52,390.3,51.4,396.5,58.8z"/>
		<g id="Calque_76">
			<path class="st3" d="M538.2,244.2l-53.5-53.5l22.8-38.8c12.8-12.8,36.6-9.8,53,6.6l9.8,9.8c16.5,16.5,19.4,40.2,6.6,53
				L538.2,244.2z"/>
			<path class="st1" d="M532.1,238.1l-41.2-41.2l17.6-29.9c9.9-9.9,28.1-7.6,40.8,5.1l7.5,7.5c12.7,12.7,15,31,5.1,40.8L532.1,238.1
				z"/>
		</g>
		<g id="Calque_76_-_copie">
			<path class="st3" d="M249.7,225.9l53.5-53.5l-22.8-38.8c-12.8-12.8-36.6-9.8-53,6.6l-9.8,9.8c-16.5,16.5-19.4,40.2-6.6,53
				L249.7,225.9z"/>
			<path class="st1" d="M255.8,219.7l41.2-41.2l-17.6-29.9c-9.9-9.9-28.1-7.6-40.8,5.1l-7.5,7.5c-12.7,12.7-15,31-5.1,40.8
				L255.8,219.7z"/>
		</g>
		<circle class="st3" cx="380" cy="343" r="200"/>
	</g>
	<g id="VISAGE_1_">
		<path d="M391.9,495h-23.8c-18.1,0-32.8-14.7-32.8-32.8v-7.9c0-11.8,9.5-21.3,21.3-21.3h46.8c11.8,0,21.3,9.5,21.3,21.3v7.9
			C424.7,480.3,410,495,391.9,495z"/>
		<g id="YEUX_1_">
			<g>
				<circle class="st1" cx="288" cy="310" r="70"/>
				<circle class="st1" cx="478.7" cy="310.1" r="70"/>
			</g>
		</g>
		<g id="YEUX_-_copie_7">
			<g>
				<circle class="st7" cx="284" cy="306" r="70"/>
				<circle class="st8" cx="284" cy="306" r="55.5"/>
				<circle cx="284.9" cy="306" r="34.1"/>
				<circle class="st7" cx="249.9" cy="271.9" r="15.4"/>
			</g>
			<g>
				<circle class="st7" cx="474.7" cy="306.1" r="70"/>
				<circle class="st8" cx="474.5" cy="306.1" r="57.2"/>
				<circle cx="474.9" cy="306.2" r="34.3"/>
				<circle class="st7" cx="440.6" cy="271.9" r="17.2"/>
			</g>
		</g>
		<g>
			<path d="M304,495c0.2,4.1,2.3,7.7,5.1,10.4c2.9,2.7,6.4,4.5,10,5.9c3.7,1.4,7.5,2.3,11.4,2.9c3.9,0.6,7.8,0.9,11.7,0.8
				c7.8-0.2,15.7-1.3,22.7-4.3c3.4-1.5,6.7-3.5,9-6.2c2.3-2.6,3.6-5.9,3.5-9.4h5c0,3.5,1.2,6.9,3.4,9.7c2.3,2.8,5.4,4.9,8.8,6.5
				c3.4,1.7,7.2,2.8,11,3.6c3.8,0.7,7.8,1.2,11.7,1.3c3.9,0.1,7.9-0.2,11.8-0.8s7.7-1.6,11.4-3.1c3.6-1.5,7-3.6,9.7-6.4
				s4.4-6.6,4.7-10.7c0.1,2-0.1,4.1-0.7,6.1s-1.6,3.9-2.9,5.5c-2.6,3.4-6.1,5.9-9.8,7.8c-7.5,3.7-15.9,5.3-24.2,5.6
				c-4.2,0.1-8.4-0.2-12.5-0.9s-8.2-1.8-12.2-3.6c-3.9-1.8-7.7-4.2-10.6-7.7c-1.5-1.8-2.6-3.8-3.5-6c-0.8-2.2-1.2-4.5-1.2-6.8h5
				c0,2.3-0.4,4.6-1.3,6.8c-0.8,2.2-2.1,4.2-3.6,5.9c-3,3.4-6.9,5.7-10.8,7.3c-4,1.6-8.1,2.6-12.2,3.2c-4.1,0.6-8.3,0.8-12.4,0.6
				c-8.2-0.3-16.5-1.9-24-5.3c-3.7-1.8-7.3-4-10.1-7.2c-1.4-1.6-2.5-3.3-3.2-5.3C304.2,499.1,303.9,497,304,495z"/>
		</g>
	</g>
	<g>
		<path class="st0" d="M549.1,816.8c1.2-2.1,1.9-4.4,1.9-7V803c0-0.3,0-0.7,0-1C550.9,807.2,550.2,812.2,549.1,816.8z"/>
		<path class="st0" d="M419,803v6.9c0,4,1.7,7.6,4.4,10.2c-2.3-6.1-3.8-12.9-4.2-20.2C419.1,800.9,419,802,419,803z"/>
		<path class="st0" d="M476.3,762c-1.7-2.8-3.7-5.3-5.8-7.5c-5.3-5.4-11.6-8.5-18.5-8.5c-18.2,0-33,22.2-33,49.5
			c0,1.5,0.1,2.9,0.1,4.3c0.4,7.3,1.9,14.2,4.2,20.2c2.5,2.4,6,3.9,9.8,3.9H462h17c3.8-8.1,6-17.9,6-28.5
			C485,782.6,481.7,770.8,476.3,762z"/>
		<path class="st1" d="M518,751c-3.9,0-7.7,1-11.1,2.9c2.4,2.3,4.6,5.1,6.5,8.3c5.4,8.8,8.6,20.5,8.6,33.3c0,10.6-2.2,20.4-6,28.5
			h20.9c5.3,0,9.8-2.9,12.3-7.2c1.1-4.7,1.7-9.6,1.8-14.8c0-0.5,0-1,0-1.5C551,773.2,536.2,751,518,751z"/>
		<path class="st3" d="M513.4,762.2c-1.9-3.2-4.1-5.9-6.5-8.3c-5.2-5-11.3-7.9-17.9-7.9c-6.9,0-13.2,3.1-18.5,8.5
			c2.1,2.2,4.1,4.7,5.8,7.5c5.4,8.8,8.7,20.6,8.7,33.5c0,10.6-2.2,20.4-6,28.5h10h27c3.8-8.1,6-17.9,6-28.5
			C522,782.7,518.7,770.9,513.4,762.2z"/>
	</g>
	<g>
		<path class="st0" d="M212.3,816.4c-1.2-2.1-1.9-4.4-1.9-7v-6.9c0-0.3,0-0.7,0-1C210.6,806.8,211.2,811.7,212.3,816.4z"/>
		<path class="st0" d="M342.4,802.6v6.9c0,4-1.7,7.6-4.4,10.2c2.3-6.1,3.8-12.9,4.2-20.2C342.4,800.4,342.4,801.5,342.4,802.6z"/>
		<path class="st0" d="M285.2,761.6c1.7-2.8,3.7-5.3,5.8-7.5c5.3-5.4,11.6-8.5,18.5-8.5c18.2,0,33,22.2,33,49.5
			c0,1.5-0.1,2.9-0.1,4.3c-0.4,7.3-1.9,14.2-4.2,20.2c-2.5,2.4-6,3.9-9.8,3.9h-28.9h-16.9c-3.8-8.1-6-17.9-6-28.5
			C276.4,782.1,279.7,770.4,285.2,761.6z"/>
		<path class="st1" d="M243.4,750.6c3.9,0,7.7,1,11.1,2.9c-2.4,2.3-4.6,5.1-6.5,8.3c-5.4,8.8-8.6,20.5-8.6,33.3
			c0,10.6,2.2,20.4,6,28.5h-20.9c-5.3,0-9.8-2.9-12.3-7.2c-1.1-4.7-1.7-9.6-1.8-14.8c0-0.5,0-1,0-1.5
			C210.4,772.7,225.2,750.6,243.4,750.6z"/>
		<path class="st3" d="M248.1,761.7c1.9-3.2,4.1-5.9,6.5-8.3c5.2-5,11.3-7.9,17.9-7.9c6.9,0,13.2,3.1,18.5,8.5
			c-2.1,2.2-4.1,4.7-5.8,7.5c-5.4,8.8-8.7,20.6-8.7,33.5c0,10.6,2.2,20.4,6,28.5h-10h-27c-3.8-8.1-6-17.9-6-28.5
			C239.4,782.2,242.7,770.5,248.1,761.7z"/>
	</g>
</g>
</svg>
