<?xml version="1.0" encoding="utf-8"?>
<!-- Generator: Adobe Illustrator 23.1.0, SVG Export Plug-In . SVG Version: 6.00 Build 0)  -->
<svg version="1.1" id="Calque_1" xmlns="http://www.w3.org/2000/svg" xmlns:xlink="http://www.w3.org/1999/xlink" x="0px" y="0px"
	 viewBox="0 0 760 824" style="enable-background:new 0 0 760 824;" xml:space="preserve">
<style type="text/css">
	.st0{fill:#F7A100;}
	.st1{fill:#3D7FDF;}
	.st2{fill:#FFCF00;}
	.st3{clip-path:url(#SVGID_2_);fill:#FFCF00;}
	.st4{clip-path:url(#SVGID_4_);fill:#FFCF00;}
	.st5{fill:#FFFFFF;}
	.st6{stroke:#F7A100;stroke-width:12;stroke-miterlimit:10;}
</style>
<g id="JAUNE_CYCLOPE_CORNES_BRAS">
	<g id="PIEDS_-_copie_4">
		<g>
			<path class="st0" d="M468,787L468,787c-20.4,0-37,16.6-37,37l0,0h74l0,0C505,803.6,488.4,787,468,787z"/>
			<rect x="431" y="711" class="st0" width="35" height="113"/>
			<path class="st1" d="M468,787L468,787c-20.4,0-6.7,37-6.7,37H505l0,0C505,803.6,488.4,787,468,787z"/>
		</g>
		<g>
			<path class="st0" d="M297,787L297,787c20.4,0,37,16.6,37,37l0,0h-74l0,0C260,803.6,276.6,787,297,787z"/>
			<rect x="299" y="711" class="st0" width="35" height="113"/>
			<path class="st1" d="M297,787L297,787c20.4,0,7.8,37,7.8,37H260l0,0C260,803.6,276.6,787,297,787z"/>
		</g>
	</g>
	<g id="CORNES_-_copie">
		<g>
			<path class="st1" d="M449.1,221.9c36.8-20.3,55.2-60.8,49.2-100c-0.5-3.5,3.4-5.9,6.3-3.8c10.1,7.4,18.9,16.8,26,28
				c33,52.3,13.1,122.3-42.6,149.3c-49.5,24-109.6,5.3-136.5-43.4c-5.4-9.8-9.1-20.1-11.1-30.5c-0.7-3.8,3.5-6.7,6.7-4.5
				C376.5,237.1,415.8,240.3,449.1,221.9z"/>
		</g>
		<g>
			<path class="st1" d="M314.9,222.3c-36.8-20.3-55.2-60.8-49.2-100c0.5-3.5-3.4-5.9-6.3-3.8c-10.1,7.4-18.9,16.8-26,28
				c-33,52.3-13.1,122.3,42.6,149.3c49.5,24,109.6,5.3,136.5-43.4c5.4-9.8,9.1-20.1,11.1-30.5c0.7-3.8-3.5-6.7-6.7-4.5
				C387.5,237.5,348.1,240.7,314.9,222.3z"/>
		</g>
	</g>
	<g id="BRAS_-_copie_2_1_">
		<g id="Calque_28_-_copie_2_1_">
			<circle class="st2" cx="96.1" cy="291" r="15"/>
			<circle class="st2" cx="48.1" cy="349" r="15"/>
			<circle class="st2" cx="59.1" cy="309" r="15"/>
		</g>
		<path class="st0" d="M59.4,308.4L59.4,308.4c17.8-20,48.4-21.8,68.5-4.1l127.9,113.5c20,17.8,21.8,48.4,4.1,68.5l0,0
			c-17.8,20-48.4,21.8-68.5,4.1L63.5,376.9C43.5,359.1,41.7,328.5,59.4,308.4z"/>
		
			<ellipse transform="matrix(0.8569 -0.5155 0.5155 0.8569 -158.7854 95.2118)" class="st2" cx="92.1" cy="333.6" rx="38.3" ry="30.7"/>
	</g>
	<g id="BRAS_-_copie_3">
		<g id="Calque_28_-_copie_3">
			<circle class="st2" cx="665.1" cy="291" r="15"/>
			<circle class="st2" cx="713.1" cy="349" r="15"/>
			<circle class="st2" cx="702.1" cy="309" r="15"/>
		</g>
		<path class="st0" d="M701.7,308.4L701.7,308.4c-17.8-20-48.4-21.8-68.5-4.1L505.4,417.9c-20,17.8-21.8,48.4-4.1,68.5l0,0
			c17.8,20,48.4,21.8,68.5,4.1L697.7,377C717.7,359.1,719.5,328.5,701.7,308.4z"/>
		
			<ellipse transform="matrix(0.5155 -0.8569 0.8569 0.5155 38.3323 734.9398)" class="st2" cx="669.1" cy="333.6" rx="30.7" ry="38.3"/>
	</g>
	<g id="CORPS_2_">
		<g>
			<path id="SVGID_17_" class="st2" d="M380,780L380,780c-109.4,0-198-89-198-198s50-181,50-181c0-109.4,38.6-198,148-198l0,0
				c109.4,0,148,88.6,148,198c0,0,50,74,50,181S489.4,780,380,780z"/>
		</g>
		<g>
			<defs>
				<path id="SVGID_1_" d="M380,780L380,780c-109.4,0-198-89-198-198s50-181,50-181c0-109.4,38.6-198,148-198l0,0
					c109.4,0,148,88.6,148,198c0,0,50,74,50,181S489.4,780,380,780z"/>
			</defs>
			<clipPath id="SVGID_2_">
				<use xlink:href="#SVGID_1_"  style="overflow:visible;"/>
			</clipPath>
			<rect x="114" y="128" class="st3" width="632" height="750"/>
		</g>
		<g>
			<defs>
				<path id="SVGID_3_" d="M380,780L380,780c-109.4,0-198-89-198-198s50-181,50-181c0-109.4,38.6-198,148-198l0,0
					c109.4,0,148,88.6,148,198c0,0,50,74,50,181S489.4,780,380,780z"/>
			</defs>
			<clipPath id="SVGID_4_">
				<use xlink:href="#SVGID_3_"  style="overflow:visible;"/>
			</clipPath>
			<ellipse class="st4" cx="380" cy="816" rx="198" ry="156"/>
		</g>
	</g>
	<g id="FINITIONS_-_copie">
		<circle class="st0" cx="272" cy="412" r="18"/>
		<circle class="st0" cx="524" cy="635" r="13"/>
		<circle class="st0" cx="280" cy="533" r="8"/>
		<circle class="st0" cx="239" cy="581" r="18"/>
		<circle class="st0" cx="505" cy="460" r="8"/>
		<circle class="st0" cx="221" cy="533" r="8"/>
		<circle class="st0" cx="493" cy="680" r="18"/>
		<circle class="st0" cx="475" cy="599" r="18"/>
	</g>
	<g id="YEUX_-_copie_4">
		<circle class="st0" cx="383" cy="370" r="82"/>
		<circle class="st5" cx="378" cy="364" r="82"/>
		<circle class="st1" cx="378" cy="364" r="65"/>
		<circle cx="379" cy="364" r="50"/>
		<circle class="st5" cx="338" cy="324" r="18"/>
	</g>
	<path id="bouche" class="st6" d="M466,514.8c0,33.6-37.2,60.8-83,60.8s-83-27.2-83-60.8S466,481.2,466,514.8z"/>
	<path id="antenne" class="st2" d="M380,153L380,153c-7.7,0-14,6.3-14,14c0,0,0,29.7,0,32.3c0,2.7-3,4.2-3,4.2l3,9.5h28l3-9.5
		c0,0-3-1.9-3-4.2s0-32.3,0-32.3C394,159.3,387.7,153,380,153z"/>
</g>
</svg>
