<?xml version="1.0" encoding="utf-8"?>
<!-- Generator: Adobe Illustrator 23.1.0, SVG Export Plug-In . SVG Version: 6.00 Build 0)  -->
<svg version="1.1" id="Calque_1" xmlns="http://www.w3.org/2000/svg" xmlns:xlink="http://www.w3.org/1999/xlink" x="0px" y="0px"
	 viewBox="0 0 142 103" style="enable-background:new 0 0 142 103;" xml:space="preserve">
<style type="text/css">
	.st0{opacity:0.1;fill:#013183;enable-background:new    ;}
	.st1{fill:#3F3D56;}
	.st2{fill:none;stroke:#3F3D56;stroke-width:2;stroke-miterlimit:10;}
	.st3{fill:#F2F2F2;}
	.st4{fill:#FEBA1B;}
	.st5{fill:#2F2E41;}
	.st6{fill:#FFFFFF;}
	.st7{opacity:0.1;fill:#FEBA1B;enable-background:new    ;}
	.st8{fill:url(#SVGID_1_);}
	.st9{fill:#F6F7F9;}
	.st10{fill:#534D72;}
	.st11{opacity:0.2;}
	.st12{opacity:0.2;fill:#FEBA1B;enable-background:new    ;}
	.st13{fill:url(#SVGID_2_);}
	.st14{fill:url(#SVGID_3_);}
	.st15{opacity:0.1;}
	.st16{opacity:0.1;fill:url(#SVGID_4_);enable-background:new    ;}
	.st17{fill:url(#SVGID_5_);}
	.st18{opacity:0.1;fill:url(#SVGID_6_);enable-background:new    ;}
	.st19{opacity:0.1;fill:url(#SVGID_7_);enable-background:new    ;}
	.st20{opacity:0.1;fill:url(#SVGID_8_);enable-background:new    ;}
	.st21{opacity:0.1;fill:url(#SVGID_9_);enable-background:new    ;}
	.st22{opacity:0.1;fill:url(#SVGID_10_);enable-background:new    ;}
	.st23{opacity:0.1;fill:url(#SVGID_11_);enable-background:new    ;}
	.st24{opacity:0.1;fill:url(#SVGID_12_);enable-background:new    ;}
	.st25{opacity:0.1;fill:url(#SVGID_13_);enable-background:new    ;}
	.st26{opacity:0.1;fill:url(#SVGID_14_);enable-background:new    ;}
	.st27{opacity:0.1;fill:url(#SVGID_15_);enable-background:new    ;}
	.st28{opacity:0.1;fill:url(#SVGID_16_);enable-background:new    ;}
	.st29{opacity:0.1;fill:url(#SVGID_17_);enable-background:new    ;}
	.st30{fill:url(#SVGID_18_);}
	.st31{opacity:0.1;fill:url(#SVGID_19_);enable-background:new    ;}
	.st32{fill:url(#SVGID_20_);}
	.st33{fill:url(#SVGID_21_);}
	.st34{opacity:3.000000e-02;}
	.st35{opacity:3.000000e-02;fill:url(#SVGID_22_);enable-background:new    ;}
	.st36{fill:url(#SVGID_23_);}
	.st37{fill:url(#SVGID_24_);}
	.st38{opacity:0.1;fill:url(#SVGID_25_);enable-background:new    ;}
	.st39{fill:url(#SVGID_26_);}
	.st40{fill:url(#SVGID_27_);}
	.st41{opacity:0.1;fill:url(#SVGID_28_);enable-background:new    ;}
	.st42{fill:url(#SVGID_29_);}
	.st43{opacity:0.1;fill:url(#SVGID_30_);enable-background:new    ;}
	.st44{opacity:0.1;fill:url(#SVGID_31_);enable-background:new    ;}
	.st45{fill:url(#SVGID_32_);}
	.st46{opacity:0.1;fill:url(#SVGID_33_);enable-background:new    ;}
	.st47{fill:url(#SVGID_34_);}
	.st48{fill:url(#SVGID_35_);}
	.st49{fill:url(#SVGID_36_);}
	.st50{opacity:0.1;fill:url(#SVGID_37_);enable-background:new    ;}
	.st51{opacity:0.1;fill:url(#SVGID_38_);enable-background:new    ;}
	.st52{fill:url(#SVGID_39_);}
	.st53{opacity:0.1;fill:url(#SVGID_40_);enable-background:new    ;}
	.st54{opacity:0.1;fill:url(#SVGID_41_);enable-background:new    ;}
	.st55{fill:url(#SVGID_42_);}
	.st56{fill:url(#SVGID_43_);}
	.st57{opacity:0.1;fill:url(#SVGID_44_);enable-background:new    ;}
	.st58{fill:url(#SVGID_45_);}
	.st59{opacity:0.1;fill:url(#SVGID_46_);enable-background:new    ;}
	.st60{fill:url(#SVGID_47_);}
	.st61{opacity:0.1;fill:url(#SVGID_48_);enable-background:new    ;}
	.st62{opacity:0.1;fill:url(#SVGID_49_);enable-background:new    ;}
	.st63{opacity:0.1;fill:url(#SVGID_50_);enable-background:new    ;}
	.st64{opacity:0.1;fill:url(#SVGID_51_);enable-background:new    ;}
	.st65{opacity:0.1;fill:url(#SVGID_52_);enable-background:new    ;}
	.st66{opacity:0.1;fill:url(#SVGID_53_);enable-background:new    ;}
	.st67{opacity:0.1;fill:url(#SVGID_54_);enable-background:new    ;}
	.st68{fill:url(#SVGID_55_);}
	.st69{opacity:0.1;fill:url(#SVGID_56_);enable-background:new    ;}
	.st70{opacity:0.1;fill:url(#SVGID_57_);enable-background:new    ;}
	.st71{opacity:0.1;fill:url(#SVGID_58_);enable-background:new    ;}
	.st72{opacity:0.1;fill:url(#SVGID_59_);enable-background:new    ;}
	.st73{fill:url(#SVGID_60_);}
	.st74{opacity:0.1;fill:url(#SVGID_61_);enable-background:new    ;}
	.st75{opacity:0.1;fill:url(#SVGID_62_);enable-background:new    ;}
	.st76{opacity:0.1;fill:url(#SVGID_63_);enable-background:new    ;}
	.st77{opacity:0.1;fill:url(#SVGID_64_);enable-background:new    ;}
	.st78{opacity:0.1;fill:url(#SVGID_65_);enable-background:new    ;}
	.st79{opacity:0.1;fill:url(#SVGID_66_);enable-background:new    ;}
	.st80{opacity:0.1;fill:url(#SVGID_67_);enable-background:new    ;}
	.st81{opacity:0.1;fill:url(#SVGID_68_);enable-background:new    ;}
	.st82{opacity:0.1;fill:url(#SVGID_69_);enable-background:new    ;}
	.st83{opacity:0.1;fill:url(#SVGID_70_);enable-background:new    ;}
	.st84{opacity:0.1;fill:url(#SVGID_71_);enable-background:new    ;}
	.st85{opacity:0.1;fill:url(#SVGID_72_);enable-background:new    ;}
	.st86{opacity:0.1;fill:url(#SVGID_73_);enable-background:new    ;}
	.st87{opacity:0.1;fill:url(#SVGID_74_);enable-background:new    ;}
	.st88{opacity:0.1;fill:url(#SVGID_75_);enable-background:new    ;}
	.st89{opacity:0.1;fill:url(#SVGID_76_);enable-background:new    ;}
	.st90{opacity:0.1;fill:url(#SVGID_77_);enable-background:new    ;}
	.st91{opacity:0.1;fill:url(#SVGID_78_);enable-background:new    ;}
	.st92{opacity:0.1;fill:url(#SVGID_79_);enable-background:new    ;}
	.st93{opacity:0.1;fill:url(#SVGID_80_);enable-background:new    ;}
	.st94{fill:url(#SVGID_81_);}
	.st95{opacity:0.1;fill:url(#SVGID_82_);enable-background:new    ;}
	.st96{fill:url(#SVGID_83_);}
	.st97{opacity:0.1;fill:url(#SVGID_84_);enable-background:new    ;}
	.st98{opacity:0.1;fill:url(#SVGID_85_);enable-background:new    ;}
	.st99{fill:url(#SVGID_86_);}
	.st100{opacity:0.1;fill:url(#SVGID_87_);enable-background:new    ;}
	.st101{opacity:0.1;fill:url(#SVGID_88_);enable-background:new    ;}
	.st102{opacity:0.1;fill:url(#SVGID_89_);enable-background:new    ;}
	.st103{opacity:0.1;fill:url(#SVGID_90_);enable-background:new    ;}
	.st104{opacity:0.1;fill:url(#SVGID_91_);enable-background:new    ;}
	.st105{opacity:0.1;fill:url(#SVGID_92_);enable-background:new    ;}
	.st106{opacity:0.1;fill:url(#SVGID_93_);enable-background:new    ;}
	.st107{opacity:0.1;fill:url(#SVGID_94_);enable-background:new    ;}
	.st108{opacity:0.1;fill:url(#SVGID_95_);enable-background:new    ;}
	.st109{opacity:0.1;fill:url(#SVGID_96_);enable-background:new    ;}
	.st110{opacity:0.1;fill:url(#SVGID_97_);enable-background:new    ;}
	.st111{fill:url(#SVGID_98_);}
	.st112{opacity:0.1;fill:url(#SVGID_99_);enable-background:new    ;}
	.st113{opacity:0.1;fill:url(#SVGID_100_);enable-background:new    ;}
	.st114{opacity:0.1;fill:url(#SVGID_101_);enable-background:new    ;}
	.st115{opacity:0.1;fill:url(#SVGID_102_);enable-background:new    ;}
	.st116{fill:#9D9CB5;}
	.st117{fill:#E4E3F9;}
	.st118{opacity:0.1;enable-background:new    ;}
	.st119{fill:#535461;}
	.st120{fill:#5E52AD;}
	.st121{opacity:3.000000e-02;enable-background:new    ;}
	.st122{fill:#784D55;}
	.st123{fill:#F8BDC5;}
	.st124{fill:#EB6475;}
	.st125{fill:#FFC075;}
	.st126{opacity:0.1;fill:none;stroke:#000000;stroke-miterlimit:10;enable-background:new    ;}
	.st127{opacity:0.5;fill:#FFFFFF;enable-background:new    ;}
	.st128{opacity:0.2;enable-background:new    ;}
	.st129{opacity:0.5;fill:#FEBA1B;enable-background:new    ;}
	.st130{opacity:0.8;fill:#FEBA1B;enable-background:new    ;}
	.st131{opacity:0.95;fill:#FEBA1B;enable-background:new    ;}
	.st132{opacity:0.6;fill:#FEBA1B;enable-background:new    ;}
	.st133{fill:#FDC2CC;}
	.st134{fill:#DFE6F5;}
	.st135{fill:#53526B;}
	.st136{fill:#865A61;}
	.st137{opacity:0.1;fill:none;stroke:#535461;stroke-width:2;stroke-miterlimit:10;enable-background:new    ;}
	.st138{fill:url(#SVGID_103_);}
	.st139{fill:#FBBEBE;}
	.st140{fill:#013183;fill-opacity:8.000000e-02;}
</style>
<g>
	<path class="st0" d="M82.8,92.4C77,88.8,69.5,89.1,63,90.9c-6.6,1.9-12.6,5.2-19,7.6c-5.4,2-11,3.3-16.7,3.9
		c-8.1,0.8-17.2-0.2-22.9-6c-6.3-6.5-5.8-18.2,1-24.2c3.5-3,8-4.5,12-6.9c4-2.4,7.6-6.3,7.3-10.9c-0.3-4.2-3.9-7.5-7.7-9.5
		c-2.9-1.6-6.5-3.3-6.8-6.6c-0.3-3.2,2.7-5.6,5.5-7c9.4-4.6,20.9-4.6,30.3,0.1c3.3,1.7,6.4,3.9,9.9,5.2c9.2,3.4,19.3,0,29-1.3
		c8.3-1.1,16.6-0.5,24.7,1.6c4.8,1.3,9.6,3.2,13,6.8c2.4,2.6,4,5.9,5.4,9.2c1.5,3.5,3,7,4.4,10.5c0.8,2.1,1.7,4.3,1.9,6.6
		c0.4,4.1-1.3,8.2-3.5,11.7c-5.4,8.2-14.4,14-24.2,15.5c-9.8,1.5-20.2-1.4-27.8-7.7"/>
	<path class="st1" d="M87,40.8c0,0-0.3-6.7-7-5.9L87,40.8z"/>
	<path class="st1" d="M87,56.8c0,0-0.3-5.6-7-4.9L87,56.8z"/>
	<path class="st2" d="M86.9,74.8c0,0,1.4-10.5-6.9-11"/>
	<path class="st1" d="M92,65.8c1.1,0,2-1.1,2-2.5c0-1.4-0.9-2.5-2-2.5c-1.1,0-2,1.1-2,2.5C90,64.7,90.9,65.8,92,65.8z"/>
	<path class="st2" d="M87.1,74.8c0,0-1-10.5,4.9-11"/>
	<path class="st1" d="M92,46.8c1.1,0,2-0.7,2-1.5s-0.9-1.5-2-1.5c-1.1,0-2,0.7-2,1.5S90.9,46.8,92,46.8z"/>
	<path class="st2" d="M87.1,55.8c0,0-1-9.5,4.9-10"/>
	<path class="st2" d="M73,75.8v-27"/>
	<path class="st1" d="M73.5,49.8c0.8,0,1.5-0.9,1.5-2s-0.7-2-1.5-2s-1.5,0.9-1.5,2S72.7,49.8,73.5,49.8z"/>
	<path class="st1" d="M73,55.8c0,0-0.2-5.6-5-4.9L73,55.8z"/>
	<path class="st2" d="M73.9,74.8c0,0,1.2-10.5-5.9-11"/>
	<path class="st1" d="M68,65.8c1.1,0,2-1.1,2-2.5c0-1.4-0.9-2.5-2-2.5s-2,1.1-2,2.5C66,64.7,66.9,65.8,68,65.8z"/>
	<path class="st2" d="M53,75.8h39"/>
	<path class="st3" d="M69.8,88.8c24,0,43.5-5,43.5-11.3S93.8,66.3,69.8,66.3c-24,0-43.5,5-43.5,11.3S45.8,88.8,69.8,88.8z"/>
	<path class="st4" d="M86.3,38.3c4.1,0,7.4-3.3,7.4-7.4c0-4.1-3.3-7.4-7.4-7.4c-4.1,0-7.4,3.3-7.4,7.4C78.9,35,82.3,38.3,86.3,38.3z
		"/>
	<path class="st4" d="M73.7,55.8c4.1,0,7.4-3.3,7.4-7.4S77.8,41,73.7,41s-7.4,3.3-7.4,7.4S69.6,55.8,73.7,55.8z"/>
	<path class="st2" d="M73.8,86.5c24,0,43.5-5,43.5-11.3C117.3,69,97.8,64,73.8,64c-24,0-43.5,5-43.5,11.3
		C30.3,81.5,49.8,86.5,73.8,86.5z"/>
	<path class="st5" d="M41.4,71.5c5.3,0,9.6-4.3,9.6-9.6c0-5.3-4.3-9.6-9.6-9.6c-5.3,0-9.6,4.3-9.6,9.6
		C31.8,67.3,36.1,71.5,41.4,71.5z"/>
	<path class="st5" d="M39.9,69.5H37v5.2h2.9V69.5z"/>
	<path class="st5" d="M45.8,69.5h-2.9v5.2h2.9V69.5z"/>
	<path class="st5" d="M39.5,75.7c1.3,0,2.4-0.4,2.4-0.9c0-0.5-1.1-0.9-2.4-0.9c-1.3,0-2.4,0.4-2.4,0.9C37,75.3,38.1,75.7,39.5,75.7z
		"/>
	<path class="st5" d="M45.3,75.5c1.3,0,2.4-0.4,2.4-0.9s-1.1-0.9-2.4-0.9s-2.4,0.4-2.4,0.9S43.9,75.5,45.3,75.5z"/>
	<path class="st6" d="M41.6,62.8c1.8,0,3.3-1.5,3.3-3.3s-1.5-3.3-3.3-3.3c-1.8,0-3.3,1.5-3.3,3.3S39.8,62.8,41.6,62.8z"/>
	<path class="st1" d="M41.6,60.6c0.6,0,1.1-0.5,1.1-1.1c0-0.6-0.5-1.1-1.1-1.1s-1.1,0.5-1.1,1.1C40.6,60.2,41,60.6,41.6,60.6z"/>
	<path class="st4" d="M32.1,53.1c-0.8-3.5,1.7-7,5.5-7.8c3.8-0.9,7.5,1.3,8.3,4.7c0.8,3.5-1.8,4.7-5.6,5.6
		C36.6,56.4,32.9,56.5,32.1,53.1z"/>
	<path class="st5" d="M50.4,60.1c2.4-1,4.1-2.5,3.8-3.3c-0.3-0.8-2.6-0.5-5,0.5c-2.4,1-4.1,2.5-3.8,3.3C45.7,61.3,48,61.1,50.4,60.1
		z"/>
	<path class="st5" d="M32.4,66.5c2.4-1,4.1-2.5,3.8-3.3c-0.3-0.8-2.6-0.5-5,0.5c-2.4,1-4.1,2.5-3.8,3.3C27.8,67.8,30,67.5,32.4,66.5
		z"/>
	<path class="st6" d="M47,64.8c0,0.9-2.4,2.8-5.1,2.8c-2.7,0-5.2-1.7-5.2-2.7c0-0.9,2.5-0.7,5.2-0.7C44.6,64.2,47,63.8,47,64.8z"/>
	<path class="st4" d="M59.6,69.7c4.1,0,7.4-3.3,7.4-7.4c0-4.1-3.3-7.4-7.4-7.4c-4.1,0-7.4,3.3-7.4,7.4
		C52.1,66.4,55.5,69.7,59.6,69.7z"/>
	<path class="st2" d="M59.6,75.7V62.3"/>
	<path class="st1" d="M59.6,64.2c1.1,0,1.9-0.9,1.9-1.9c0-1.1-0.9-1.9-1.9-1.9c-1.1,0-1.9,0.9-1.9,1.9
		C57.7,63.3,58.5,64.2,59.6,64.2z"/>
	<path class="st1" d="M59.6,70.6c0,0-0.3-5.8-5.8-5.2L59.6,70.6z"/>
	<path class="st2" d="M86.4,75.8V30.9"/>
	<path class="st1" d="M86.4,32.8c1.1,0,1.9-0.9,1.9-1.9c0-1.1-0.9-1.9-1.9-1.9s-1.9,0.9-1.9,1.9C84.4,32,85.3,32.8,86.4,32.8z"/>
	<path class="st1" d="M80.5,65.3c1.1,0,1.9-0.9,1.9-1.9c0-1.1-0.9-1.9-1.9-1.9c-1.1,0-1.9,0.9-1.9,1.9
		C78.6,64.4,79.5,65.3,80.5,65.3z"/>
	<path class="st3" d="M106.5,55.8c2.5,0,4.5-1.6,4.5-3.5s-2-3.5-4.5-3.5s-4.5,1.6-4.5,3.5S104,55.8,106.5,55.8z"/>
	<path class="st3" d="M45.5,31.8c1.9,0,3.5-1.8,3.5-4s-1.6-4-3.5-4s-3.5,1.8-3.5,4S43.6,31.8,45.5,31.8z"/>
	<path class="st3" d="M84.5,17.8c1.9,0,3.5-1.8,3.5-4s-1.6-4-3.5-4s-3.5,1.8-3.5,4S82.6,17.8,84.5,17.8z"/>
</g>
</svg>
