<?xml version="1.0" encoding="utf-8"?>
<!-- Generator: Adobe Illustrator 23.1.0, SVG Export Plug-In . SVG Version: 6.00 Build 0)  -->
<svg version="1.1" id="CONDITIONS" xmlns="http://www.w3.org/2000/svg" xmlns:xlink="http://www.w3.org/1999/xlink" x="0px" y="0px"
	 viewBox="0 0 217 234.1" style="enable-background:new 0 0 217 234.1;" xml:space="preserve">
<style type="text/css">
	.st0{clip-path:url(#SVGID_2_);}
	.st1{fill:#E6E6E6;}
	.st2{fill:#FFB8B8;}
	.st3{fill:#2F2E41;}
	.st4{fill:#013183;}
	.st5{fill:#3F3D56;}
</style>
<g>
	<defs>
		<rect id="SVGID_1_" x="-70" y="-13.8" width="360" height="640"/>
	</defs>
	<clipPath id="SVGID_2_">
		<use xlink:href="#SVGID_1_"  style="overflow:visible;"/>
	</clipPath>
	<g class="st0">
		<path class="st1" d="M89.7,70.4H80v9.7h9.7V70.4z"/>
		<path class="st1" d="M105.3,70.4h-9.7v9.7h9.7V70.4z"/>
		<path class="st1" d="M121,70.4h-9.7v9.7h9.7V70.4z"/>
		<path class="st1" d="M90,92.6h-9.7v9.7H90V92.6z"/>
		<path class="st1" d="M105.6,92.6h-9.7v9.7h9.7V92.6z"/>
		<path class="st1" d="M121.3,92.6h-9.7v9.7h9.7V92.6z"/>
		<path class="st1" d="M90.2,114.7h-9.7v9.7h9.7V114.7z"/>
		<path class="st1" d="M105.9,114.7h-9.7v9.7h9.7V114.7z"/>
		<path class="st1" d="M121.5,114.7h-9.7v9.7h9.7V114.7z"/>
		<path class="st1" d="M90.5,136.8h-9.7v9.7h9.7V136.8z"/>
		<path class="st1" d="M106.1,136.8h-9.7v9.7h9.7V136.8z"/>
		<path class="st1" d="M121.8,136.8h-9.7v9.7h9.7V136.8z"/>
		<path class="st1" d="M90.5,136.8h-9.7v9.7h9.7V136.8z"/>
		<path class="st1" d="M106.1,136.8h-9.7v9.7h9.7V136.8z"/>
		<path class="st1" d="M121.8,136.8h-9.7v9.7h9.7V136.8z"/>
		<path class="st2" d="M141.9,224.2l-2.7,0.3c-2.1,1.3-4.6,1.7-7.3,1.6c-0.4,0-0.8-0.1-1.1-0.3c-0.3-0.2-0.6-0.5-0.8-0.8
			c-0.2-0.3-0.2-0.6-0.3-1c0-0.3,0.1-0.7,0.2-1c0.1-0.3,0.3-0.6,0.6-0.8c0.3-0.2,0.6-0.4,0.9-0.4l2-0.5l4.9-4.8l2.9-5.3l4.3,0.5
			l0.9,6.8c0.1,1.4-0.3,2.7-1.2,3.7C144.5,223.3,143.2,224,141.9,224.2z"/>
		<path class="st2" d="M100.5,220.7l-2.6,0.6c-1.9,1.5-4.3,2.2-7.1,2.5c-0.4,0-0.8,0-1.1-0.2c-0.3-0.2-0.6-0.4-0.9-0.7
			c-0.2-0.3-0.3-0.6-0.4-0.9c-0.1-0.3,0-0.7,0.1-1c0.1-0.3,0.3-0.6,0.5-0.8c0.2-0.2,0.5-0.4,0.8-0.5l2-0.7l4.3-5.3l2.3-5.6h4.3
			l1.7,6.6c0.3,1.3,0,2.7-0.7,3.8C103,219.6,101.9,220.4,100.5,220.7z"/>
		<path class="st3" d="M98.4,208.4l4.9,0.7l7.7-38.7l13.3-22.6l16.1,65.7l6,1.1c-0.7-37,2.6-83.6-4.9-89.3l-32.5,3.7l-14.2,38.1
			L98.4,208.4z"/>
		<path class="st2" d="M121.9,67.9c6.2,0,11.2-5,11.2-11.2s-5-11.2-11.2-11.2c-6.2,0-11.2,5-11.2,11.2S115.8,67.9,121.9,67.9z"/>
		<path class="st2" d="M137.6,73.9l-13.4,2.2l-3.4-12l9.7-3L137.6,73.9z"/>
		<path class="st4" d="M143.2,127l-35.9,3.4c2.9-10,5.5-20,3.4-29.9c-2.7-8.9-0.1-14.1,7.1-18.3l4.9-10.8l13.1-1.5
			c3.5,5.6,4.9,12.2,4,18.7C137.9,102.6,138.4,115.7,143.2,127z"/>
		<path class="st3" d="M121.7,43.5c-3.7,0.9-8,2.1-8.2,3.2c-3.8,1-6.8,3.3-7.3,6.8c-0.1,0.3,0,0.6,0.1,0.9c0.1,0.3,0.2,0.6,0.4,0.8
			s0.5,0.4,0.7,0.5c0.3,0.1,0.6,0.2,0.9,0.2c2.1,0,5.2-0.2,7.3-1.1c6,3.9,7,14,4.4,20.9l4.1-0.4l4.3-12.5l1.1,12l9.4-1.2l-1.2-15.4
			c-0.4-3.6-1.6-7.1-3.6-10.1c-0.2-0.3-0.4-0.6-0.7-0.9c-1.4-1.6-3.3-2.8-5.4-3.5C126,43.1,123.8,43,121.7,43.5z"/>
		<path class="st2" d="M98,228c0,0.2,0,0.4,0.1,0.5c0.1,0.2,0.1,0.3,0.3,0.5c0.1,0.1,0.3,0.2,0.4,0.3c0.2,0.1,0.3,0.1,0.5,0.1l4.2,0
			c0.2,0,0.4-0.1,0.6-0.3c0.2-0.2,0.2-0.4,0.2-0.6c0-0.2-0.1-0.4-0.2-0.5c-0.1-0.1-0.2-0.3-0.4-0.3l-1.2-0.5l-1.8-2.5h-1.4
			C98.5,225.7,98.1,226.8,98,228L98,228L98,228z"/>
		<path class="st2" d="M87.9,228c0,0.2,0,0.4-0.1,0.5c-0.1,0.2-0.1,0.3-0.3,0.5c-0.1,0.1-0.3,0.2-0.4,0.3c-0.2,0.1-0.3,0.1-0.5,0.1
			l-4.2,0c-0.2,0-0.4-0.1-0.6-0.3c-0.2-0.2-0.2-0.4-0.2-0.6c0-0.2,0.1-0.4,0.2-0.5c0.1-0.1,0.2-0.3,0.4-0.3l1.2-0.5l1.8-2.5h1.4
			C87.3,225.7,87.8,226.8,87.9,228L87.9,228z"/>
		<path class="st5" d="M84.8,224.8H87l7.6-32.8l4,33.2h2.5l3.4-42.7L87,182.2L84.8,224.8z"/>
		<path class="st2" d="M75.1,164.5H78v-6.9l0.7-1.3c0.1-0.3,0.2-0.6,0.2-0.8c0-0.3-0.1-0.6-0.2-0.8c-0.1-0.3-0.3-0.5-0.6-0.7
			c-0.2-0.2-0.5-0.3-0.8-0.3c-0.3,0-0.5,0-0.8,0.1s-0.5,0.2-0.7,0.4c-0.2,0.2-0.4,0.4-0.5,0.6c-0.1,0.2-0.2,0.5-0.2,0.8V164.5z"/>
		<path class="st2" d="M92.2,147.6c3.7,0,6.7-3,6.7-6.7s-3-6.7-6.7-6.7c-3.7,0-6.7,3-6.7,6.7S88.5,147.6,92.2,147.6z"/>
		<path class="st2" d="M89.5,152.3h6.9v-7.9h-6.9V152.3z"/>
		<path class="st4" d="M86.3,183.3c6.1,3.7,12.5,3.4,19.1,0.4l-1.4-33.5l-7.6-0.4l-7.9,1.1l-4,3.2L86.3,183.3z"/>
		<path class="st4" d="M79,171.4l7.9-6.1l-2.5-11.2l-4.7,8.7l-1.4-1.4l-4.3,3.2L79,171.4z"/>
		<path class="st2" d="M114.3,150.7l-2.5,1.4l-3.3-6l-1.2-0.8c-0.2-0.2-0.4-0.4-0.6-0.6c-0.1-0.3-0.2-0.5-0.2-0.8
			c0-0.3,0.1-0.6,0.2-0.9c0.1-0.3,0.3-0.5,0.5-0.7c0.2-0.2,0.5-0.3,0.7-0.3c0.3-0.1,0.5-0.1,0.8,0c0.3,0.1,0.5,0.2,0.7,0.3
			c0.2,0.2,0.4,0.4,0.5,0.6l1,1.9L114.3,150.7z"/>
		<path class="st4" d="M100.1,160.8l9.6-5.1l5-2.7l0.7-4.3l-3.2-3.2l-4,2.5l0.4,2.9l-4.7-0.7L100.1,160.8z"/>
		<path class="st3" d="M93.7,146.3c4.4,0,7.9-3.6,7.9-7.9c0-4.4-3.6-7.9-7.9-7.9s-7.9,3.6-7.9,7.9C85.7,142.8,89.3,146.3,93.7,146.3
			z"/>
		<path class="st3" d="M98,133c2,0,3.6-1.6,3.6-3.6c0-2-1.6-3.6-3.6-3.6s-3.6,1.6-3.6,3.6C94.4,131.4,96,133,98,133z"/>
		<path class="st3" d="M97.8,132.4c0.7,0.4,1.5,0.5,2.3,0.3c0.8-0.1,1.5-0.6,2-1.2c0.5-0.6,0.8-1.4,0.9-2.2c0-0.8-0.2-1.6-0.6-2.3
			c0.4,0.3,0.8,0.7,1,1.2c0.2,0.5,0.4,1,0.4,1.5c0,0.5-0.1,1-0.2,1.5c-0.2,0.5-0.5,0.9-0.9,1.3c-0.4,0.4-0.8,0.6-1.3,0.8
			c-0.5,0.2-1,0.2-1.5,0.2c-0.5-0.1-1-0.2-1.5-0.5s-0.8-0.6-1.1-1.1C97.5,132.2,97.6,132.3,97.8,132.4z"/>
		<path class="st2" d="M120.1,138.2l0.2,8.7c0,1.2-0.4,2.4-1.2,3.3c-0.8,0.9-1.9,1.5-3.1,1.6c-0.8,0.1-1.5,0-2.2-0.3
			c-0.7-0.3-1.3-0.7-1.8-1.3c-0.5-0.6-0.8-1.3-1-2c-0.2-0.7-0.1-1.5,0.1-2.3l1.9-7.2l5.6-30.6L118.2,90l12-0.4l-2.2,20.2
			L120.1,138.2z"/>
		<path class="st4" d="M130.9,91.5c-4.3-1.6-9.1-1.6-13.4,0l0.7-14.9c0-1.6,0.6-3.1,1.8-4.2c1.1-1.1,2.6-1.8,4.2-1.8
			c1.6,0,3.1,0.6,4.2,1.8c1.1,1.1,1.8,2.6,1.8,4.2L130.9,91.5z"/>
	</g>
</g>
</svg>
