<?xml version="1.0" encoding="utf-8"?>
<!-- Generator: Adobe Illustrator 23.1.0, SVG Export Plug-In . SVG Version: 6.00 Build 0)  -->
<svg version="1.1" id="CONTROL_PARENTAL" xmlns="http://www.w3.org/2000/svg" xmlns:xlink="http://www.w3.org/1999/xlink" x="0px"
	 y="0px" viewBox="0 0 217 234.1" style="enable-background:new 0 0 217 234.1;" xml:space="preserve">
<style type="text/css">
	.st0{clip-path:url(#SVGID_2_);}
	.st1{fill:#2F2E41;}
	.st2{fill:#9F616A;}
	.st3{fill:#F2F2F2;}
	.st4{opacity:0.1;enable-background:new    ;}
	.st5{fill:#FFB8B8;}
	.st6{fill:#013183;}
	.st7{fill:#963737;}
</style>
<g>
	<defs>
		<rect id="SVGID_1_" x="-70" y="-13.8" width="360" height="640"/>
	</defs>
	<clipPath id="SVGID_2_">
		<use xlink:href="#SVGID_1_"  style="overflow:visible;"/>
	</clipPath>
	<g class="st0">
		<path class="st1" d="M94.2,76.8c0,0,1,1.1-0.7,3.3s-0.3,6.9,2.9,7c3.2,0.1,4.8,1.5,4,3.2c-0.8,1.8-1.7,6,1.8,5.3
			c3.5-0.6,4.6,0.7,4,1.8c-0.6,1.1,1.6-2.1,1.6-2.1s1.9,2.9,4.3,0.9c2.4-2,3.3-20.4-1.5-20.7C105.6,75.3,94.2,76.8,94.2,76.8z"/>
		<path class="st2" d="M118.9,164.1l1.1,7.7h5l-1.7-8.9L118.9,164.1z"/>
		<path class="st3" d="M125.5,167.1c0,0,6.6,6.1,5,6.6c-1.7,0.6-7.8,7.2-8.9,7.7c-1,0.5-11.6,3.9-10,0s5.5-6.1,5.5-6.1l1.1-6.6
			L125.5,167.1z"/>
		<path class="st4" d="M125.5,167.1c0,0,6.6,6.1,5,6.6c-1.7,0.6-7.8,7.2-8.9,7.7c-1,0.5-11.6,3.9-10,0s5.5-6.1,5.5-6.1l1.1-6.6
			L125.5,167.1z"/>
		<path class="st2" d="M125.5,158.3l1.1,7.7h5l-1.7-8.9L125.5,158.3z"/>
		<path class="st5" d="M104.7,137.7l7.3-24c0,0-12.2-11.1-3.9-14.4c8.3-3.3,10.5,13.3,10.5,13.3l-2.8,28.8h-11.1L104.7,137.7z"/>
		<path class="st6" d="M121.6,120.1c0,0-14.3,18.3-12.1,21.1c2.2,2.7,6.1,19.3,6.1,19.3s-0.6,6.6,1.7,6.6c2.2,0,7.8-1.1,7.8-2.8
			c0-1.7-5-22.7-5-22.7l14.4-18.8L121.6,120.1z"/>
		<path class="st6" d="M122.7,121.2l14.4-7.7c0,0,10,5,7.2,9.4c-2.8,4.4-15.5,16-15.5,16s3.9,18.8,3.3,19.4
			c-0.6,0.6-6.6,2.8-8.3,2.2c-1.7-0.6-10.5-22.1-8.3-23.2c2.2-1.1,9.4-12.7,9.4-12.7L122.7,121.2z"/>
		<path class="st5" d="M76.8,137.8c6.7,0,12.2-5.5,12.2-12.2c0-6.7-5.5-12.2-12.2-12.2s-12.2,5.4-12.2,12.2
			C64.6,132.3,70,137.8,76.8,137.8z"/>
		<path class="st2" d="M104.5,91.3c5.5,0,10-4.5,10-10c0-5.5-4.5-10-10-10c-5.5,0-10,4.5-10,10C94.5,86.8,98.9,91.3,104.5,91.3z"/>
		<path class="st5" d="M85.1,125.6c0,0,6.6,12.2,10,12.2c3.3,0-13.3,12.7-13.3,12.7s-5.5-16-6.6-16.6
			C74,133.4,85.1,125.6,85.1,125.6z"/>
		<path class="st6" d="M87.3,136.7c0,0-14.4,5-13.8,6.6c0.6,1.7-3.9,5.5-3.9,7.2c0,1.7-1.1,16.6,5.5,28.8s17.2,21,12.2,26.6
			c0.7,6.3-2.1,2.3,3.2,9.8c11.2,2,6,1,23.5,0c10.4-4.5,12-14.8,12-14.8s1.7-12.7-1.7-16.6c-3.3-3.9-15-31.5-15-34.9
			s-11.1-16-13.8-16C92.8,133.4,87.3,136.7,87.3,136.7z"/>
		<path class="st2" d="M107.2,87.4c0,0,4.5,8.6,4.7,10.1c0.2,1.5,8-10.1,8-10.1l-8.9-6.1L107.2,87.4z"/>
		<path class="st3" d="M108.9,94.1l9.4-10l11.1,5c0,0,10.3,22.7,11,24.3c0.6,1.7-16.5,9.4-18.2,9.4s-13.3-17.2-13.3-17.2
			S106.1,97.4,108.9,94.1z"/>
		<path class="st2" d="M104.5,107.3v10h6.6l-2.2-10H104.5z"/>
		<path class="st2" d="M108.2,114.8c-0.8,0-1.7,0.2-2.4,0.7c-0.7,0.5-1.2,1.1-1.5,1.9c-0.4,1.2-0.3,2.4,1.8,2.9c4.4,1.1,5,0,5,0
			s7.7-1.1,6.1-3.3c-1.6-2.2-6.1-2.2-6.1-2.2H108.2z"/>
		<path class="st3" d="M132.1,162.7c0,0,6.6,6.1,5,6.6c-1.7,0.6-7.8,7.2-8.9,7.7c-1,0.5-11.6,3.9-10,0c1.7-3.9,5.5-6.1,5.5-6.1
			l1.1-6.6L132.1,162.7z"/>
		<path class="st1" d="M72.4,116.2c0.8-0.4,1.7-1,1.7-1.9c0-0.3-0.1-0.6-0.3-0.9c-0.2-0.3-0.5-0.5-0.8-0.6c-0.6-0.2-1.3-0.3-1.9-0.3
			c-0.2,0-0.5,0-0.7,0.1c-0.6,0.2-1,0.8-1.5,1.3c-0.7,0.6-1.7,0.8-2.6,1.1c-1.6,0.4-3,1-4.4,1.8c-0.3,0.1-0.5,0.3-0.7,0.6
			c-0.2,0.4-0.3,0.9-0.3,1.4c-0.1,1.9-1.3,3.5-2.1,5.2c-0.8,1.7-1.4,3.8-0.4,5.4c0.4,0.5,0.8,1,1.1,1.6c0.7,1.5-0.2,3.2,0.3,4.8
			c0.2,0.6,0.6,1.1,1.1,1.6c1,1,2.2,1.7,3.5,2.1c1.3,0.4,2.8,0.6,3.3,1.9c0.2,0.5,0.2,1.1,0.5,1.6c0.4,0.6,1.1,0.8,1.8,0.9
			c0.8,0.2,1.6,0.2,2.4,0.2c0.4,0,0.8-0.1,1.1-0.3c0.3-0.2,0.7-0.4,0.9-0.8c0.2-0.4,0.5-0.8,0.8-1.2c0.8-0.7,2-0.1,3-0.3
			c0.4-0.1,0.8-0.3,1.1-0.6c0.3-0.3,0.5-0.7,0.6-1.1c0-0.4,0.1-0.9,0.4-1.3c0.6-0.8,2.3-0.2,2.7-1.2c0.3-0.6-0.3-1.3-0.9-1.7
			c-0.9-0.6-1.9-1.1-2.7-1.8c-0.8-0.7-1.4-1.9-1.2-2.9c0.4-1.6,2.5-2.5,2.5-4.1c0-0.9-0.6-1.8-1.4-2.3c-0.8-0.6-1.6-1-2.3-1.6
			c-0.5-0.5-0.9-1.1-1.4-1.5c-1-0.8-2.3-0.9-3.6-1c-0.7-0.1-3.3-0.4-3.2-1.4C69,118.1,71.7,116.6,72.4,116.2z"/>
		<path class="st3" d="M108.9,93.5c0,0-6.1,2.2-6.1,5s-2.8,11.6,0,11.6c2.8,0,8.3-2.1,8.3-2.1L108.9,93.5z"/>
		<path class="st5" d="M107.2,133.4c0,0,16.1-5.5,16.6-5.5s8.3-4.4,7.8-6.1l-2.2-13.8c0,0-8.9-18.3-2.8-18.3S136,104,136,104
			s13.3,24.9,6.1,30.4c-7.2,5.5-37.1,15.5-38.8,13.8C101.7,146.6,107.2,133.4,107.2,133.4z"/>
		<path class="st2" d="M122.7,97.4l3.7,3.6l-4.8,4.7c0,0-6.6-2.8-6.1-1.1s3.9,6.6,6.1,6.6s13.7-7.2,13.8-9.4
			c0.1-2.2-7.1-10-8.8-10.5C124.9,90.7,122.7,97.4,122.7,97.4z"/>
		<path class="st3" d="M115.7,93.5c0,0,8.1,7.2,9.2,7.2c1.1,0,3.1-10.8,3.1-10.8s-6.6-4.3-9-3.1C116.6,88,115.7,93.5,115.7,93.5z"/>
		<path class="st6" d="M87.3,140c0,0,0-7.7,16.6-7.7h7.2l-3.3,18.3l-11.1,3.3L87.3,140z"/>
		<path class="st1" d="M123.6,77.3c-1.6,0-3.3-0.1-4.9-0.3c-1.3-3.1-2.9-5.6-4.6-6.6c-1.2-1.1-3.2-1.9-4.7-2.6
			c-3.7-1.6-9.8-0.6-10.2,1.2c-7.3,3.5-5.4,9.6-5.4,9.6c1.1,2.4,3.7,1.3,5.8,0.2c0.5,1.7,1.8,3.2,3.7,3.3c3.5,0.1,5.3,1.6,4.4,3.6
			c-0.9,2-1.9,6.6,2,5.9c3.9-0.7,5.1,0.8,4.4,2c-0.7,1.2,1.7-2.3,1.7-2.3s2.2,3.2,4.8,1c0.3-0.3,0.5-0.6,0.6-0.9
			c1.2,0.5,2.2,0.7,2.8,0.5c3.2-1.4,1.2-4.7,1.2-4.7s4.2-0.6,2.9-0.5c-1.4,0.1-2.2-1.7,0.1-4.8C130.4,78.5,125.7,77.4,123.6,77.3z"
			/>
		<path class="st7" d="M102.2,74.8l-1.6-0.5L99,79l1.6,0.5L102.2,74.8z"/>
	</g>
</g>
</svg>
