<?xml version="1.0" encoding="utf-8"?>
<!-- Generator: Adobe Illustrator 23.1.0, SVG Export Plug-In . SVG Version: 6.00 Build 0)  -->
<svg version="1.1" id="LOGIN" xmlns="http://www.w3.org/2000/svg" xmlns:xlink="http://www.w3.org/1999/xlink" x="0px" y="0px"
	 viewBox="0 0 217 234.1" style="enable-background:new 0 0 217 234.1;" xml:space="preserve">
<style type="text/css">
	.st0{clip-path:url(#SVGID_2_);}
	.st1{fill:#FBBEBE;}
	.st2{fill:#2F2E41;}
	.st3{fill:#3F3D56;}
	.st4{opacity:0.1;enable-background:new    ;}
	.st5{fill:#013183;}
</style>
<g>
	<defs>
		<rect id="SVGID_1_" x="-143" y="-13.8" width="360" height="640"/>
	</defs>
	<clipPath id="SVGID_2_">
		<use xlink:href="#SVGID_1_"  style="overflow:visible;"/>
	</clipPath>
	<g class="st0">
		<path class="st1" d="M102.8,212c0,0,2.5,9,2.5,10.3c0,1.2,4,0.9,4,0.9l3.1-5c0,0-2.5-5-3.1-7.5C108.7,208.2,102.8,212,102.8,212z"
			/>
		<path class="st2" d="M107.5,220.4c0,0,3.7,0.9,3.7-1.9c0-2.8,1.6-1.6,1.6-1.6s3.7,2.2,2.2,4.4c-1.6,2.2-4.4,4.7-5.3,6.8
			c-0.9,2.2-3.7,8.1-6.8,6.8c-3.1-1.2-0.9-4-0.9-4s2.5-3.7,1.9-6.8c-0.6-3.1-0.9-4.7,0-4.7c0.9,0,2.5-0.9,2.5,0.3
			C106.3,221,107.5,220.4,107.5,220.4z"/>
		<path class="st2" d="M107.3,104.7c6.5,0,11.8-5.3,11.8-11.8c0-6.5-5.3-11.8-11.8-11.8c-6.5,0-11.8,5.3-11.8,11.8
			C95.5,99.5,100.8,104.7,107.3,104.7z"/>
		<path class="st2" d="M106.1,93.5c5.8,0,10.6-4.7,10.6-10.6c0-5.8-4.7-10.6-10.6-10.6c-5.8,0-10.6,4.7-10.6,10.6
			C95.5,88.8,100.3,93.5,106.1,93.5z"/>
		<path class="st3" d="M100.5,145.5l-6.2-0.6l-2.5-6.2l0.4-5.6h8.4V145.5z"/>
		<path class="st4" d="M100.5,145.5l-6.2-0.6l-2.5-6.2l0.4-5.6h8.4V145.5z"/>
		<path class="st1" d="M101,100.9c0,0-0.3,7.8-1.6,8.7c-1.2,0.9,1.9,4.7,1.9,4.7l5-1.2l3.7-3.4l-1.6-0.3c0,0,0-4.4,0.9-5.6
			C110.3,102.4,101,100.9,101,100.9z"/>
		<path class="st4" d="M101,100.9c0,0-0.3,7.8-1.6,8.7c-1.2,0.9,1.9,4.7,1.9,4.7l5-1.2l3.7-3.4l-1.6-0.3c0,0,0-4.4,0.9-5.6
			C110.3,102.4,101,100.9,101,100.9z"/>
		<path class="st1" d="M92.3,131.4c0,0,3.1,8.1,2.5,14.9c-0.6,6.8,14,0.9,14,0.9l4.4-2.8c0,0,1.2-8.4,0-10.3
			c-1.2-1.9-3.7-8.4-3.7-8.4l-6.5-0.9L92.3,131.4z"/>
		<path class="st1" d="M144.6,167.1c0,0,5.3-5.9,6.2-6.4c0.9-0.6-1.2-3.3-1.2-3.3l-5,0c0,0-2.4,4-3.9,5.6
			C139.2,164.6,144.6,167.1,144.6,167.1z"/>
		<path class="st2" d="M148.5,160c0,0-1-3.1-3-1.8c-2,1.3-1.8-0.4-1.8-0.4s-0.1-3.7,2.1-3.5c2.3,0.1,5.3,1,7.3,0.7
			c2-0.3,7.5-1,8,1.8c0.5,2.8-2.5,2.5-2.5,2.5s-3.8-0.1-5.7,1.8c-1.9,1.9-2.9,2.8-3.3,2.1s-1.8-1.4-0.9-1.9
			C149.5,160.6,148.5,160,148.5,160z"/>
		<path class="st1" d="M97.5,106.5c0,0-3.7-2.2-4.7-8.4c-0.9-6.2-7.5-28-7.5-28s-4.4-14.9-5.9-10c-1.6,5,1.9,10.6,1.9,10.6l4.4,20.2
			c0,0,3.7,26.1,5.6,27.4C93.2,119.5,97.5,106.5,97.5,106.5z"/>
		<path class="st1" d="M112.7,107.7c0,0,4.3,0,8.2-5c3.9-4.9,20.3-20.7,20.3-20.7s11.2-10.8,10.1-5.7c-1.1,5.1-6.9,8.3-6.9,8.3
			L130.7,100c0,0-16.2,20.9-18.4,21C110,121.2,112.7,107.7,112.7,107.7z"/>
		<path class="st1" d="M106.3,105.8c4.3,0,7.8-3.5,7.8-7.8c0-4.3-3.5-7.8-7.8-7.8c-4.3,0-7.8,3.5-7.8,7.8
			C98.5,102.4,102,105.8,106.3,105.8z"/>
		<path class="st2" d="M113.7,139.5c0,0-10.8,7.7-14.9,6.5c-4-1.2-4.7-2.2-4.7-2.2s-3.7,25.5-0.9,35.5c0,0,0.3,10,3.1,13.7l6.5,21.5
			c0,0,7.2-0.3,7.2-2.8c0,0-0.9-5.3-0.9-9c0-3.7-5-13.1-5-13.1l3.4-26.1c0,0,13.1,26.1,18.4,24.3c5.3-1.9,20.2-21.5,20.2-21.5
			l-4.7-4.4c0,0-13.1,7.8-14.6,11.8C126.8,173.7,116.4,141.8,113.7,139.5z"/>
		<path class="st5" d="M105.3,110.5c0,0,4-3.1,4.7-3.1h4c0,0,3.1,7.5,1.9,10.6c0,0-1.6,8.1-1.9,8.7c-0.3,0.6,0,2.5,0.6,4.4
			c0.6,1.9,2.5,5.9,1.6,6.8c-0.9,0.9-1.9,3.4-2.5,3.4c-0.6,0-5.6-4.7-6.5-7.8c-0.9-3.1-0.9-4-3.1-2.8c-2.2,1.2-11.8,0.6-11.2,5.6
			c0.3,2.5,0.7,5,1.2,7.5c0,0-3.7,1.2-4.4-4.7c-0.6-5.9-1.2-6.2,0.6-8.4c1.9-2.2-0.6-11.2-0.6-11.2s3.1-5.3,3.7-8.1
			c0.6-2.8,3.1-5.6,3.1-5.6s1.6-0.9,2.5-0.3c0.9,0.6,1.4,0.3,1.4,0.3s-1.7,4.4,0.1,4.4C102.5,110.2,105.3,110.5,105.3,110.5z"/>
		<path class="st4" d="M100.7,144.3c0.3,0,0.5-0.4,0.5-0.9c0-0.5-0.2-0.9-0.5-0.9c-0.3,0-0.5,0.4-0.5,0.9
			C100.2,143.9,100.4,144.3,100.7,144.3z"/>
		<path class="st2" d="M107,97c5.2,0,9.3-2.6,9.3-5.9s-4.2-5.9-9.3-5.9c-5.2,0-9.3,2.6-9.3,5.9S101.9,97,107,97z"/>
	</g>
</g>
</svg>
