<?xml version="1.0" encoding="utf-8"?>
<!-- Generator: Adobe Illustrator 23.1.0, SVG Export Plug-In . SVG Version: 6.00 Build 0)  -->
<svg version="1.1" id="Calque_1" xmlns="http://www.w3.org/2000/svg" xmlns:xlink="http://www.w3.org/1999/xlink" x="0px" y="0px"
	 viewBox="0 0 166 157" style="enable-background:new 0 0 166 157;" xml:space="preserve">
<style type="text/css">
	.st0{display:none;opacity:0.47;}
	.st1{display:none;}
	.st2{display:inline;fill:#C54141;}
	.st3{display:inline;}
	.st4{fill:none;stroke:#000000;stroke-width:3;stroke-linecap:round;stroke-linejoin:round;stroke-miterlimit:10;}
	.st5{fill:none;stroke:#FFFFFF;stroke-width:3;stroke-linecap:round;stroke-linejoin:round;stroke-miterlimit:10;}
	.st6{fill:#FBB03B;stroke:#FFFFFF;stroke-width:3;stroke-linecap:round;stroke-linejoin:round;stroke-miterlimit:10;}
	.st7{fill:#C54141;}
	.st8{fill:#C54141;stroke:#013183;stroke-width:3;stroke-linecap:round;stroke-linejoin:round;stroke-miterlimit:10;}
	.st9{fill:none;stroke:#FEBA1B;stroke-width:3;stroke-linecap:round;stroke-linejoin:round;stroke-miterlimit:10;}
	.st10{fill:none;stroke:#013183;stroke-width:3;stroke-linecap:round;stroke-linejoin:round;stroke-miterlimit:10;}
	.st11{fill:none;stroke:#C54141;stroke-width:3;stroke-linecap:round;stroke-linejoin:round;stroke-miterlimit:10;}
	.st12{fill:#FBB03B;stroke:#013183;stroke-width:3;stroke-linecap:round;stroke-linejoin:round;stroke-miterlimit:10;}
</style>
<g class="st0">
</g>
<g id="FOND" class="st1">
	<rect x="-0.5" y="0.5" class="st2" width="166.5" height="157"/>
</g>
<g id="LOGO_-_copie" class="st1">
	<g id="Calque_2_-_copie_2_1_" class="st3">
		<polygon class="st4" points="83,25 34,56 34,130 133,130 133,56 		"/>
	</g>
	<g id="Calque_2_-_copie_2" class="st3">
		<polyline class="st5" points="133,82 133,56 83,25 34,56 34,82 		"/>
	</g>
	<g id="Calque_7_-_copie" class="st3">
		<path class="st5" d="M83,62.6c0,0,5.6-9,4.8-11.6c-0.9-2.6-3-4.7-5-4.1c-1.9,0.6-3.8,3.4-3.8,3.4s-3.2-1.1-5.2-0.4
			c-1.9,0.6-2.4,3.7-1.5,6.2c0.6,1.8,5.7,4.3,8.7,5.6L83,62.6z"/>
	</g>
	<g id="Calque_3_-_copie" class="st3">
		<path class="st6" d="M83.5,122.8"/>
		<path class="st5" d="M34,100c0-16.6,13.4-30,30-30s28,13.4,28,30v0.5c0,5.8-2.7,15.5-8.5,15.5s-8.5-9.7-8.5-15.5V100
			c0-16.6,11.4-30,28-30s30,13.4,30,30v30H34V100z"/>
	</g>
	<g id="Calque_4_-_copie" class="st3">
		<line class="st5" x1="44.5" y1="90.5" x2="44.5" y2="94.5"/>
		<line class="st5" x1="59.4" y1="91" x2="59.4" y2="95"/>
		<path class="st5" d="M44.5,105c0,6.7,15,6.7,15,0"/>
	</g>
	<g id="Calque_5_-_copie" class="st3">
		<path class="st5" d="M105.5,92.8c0,0,1.7-2.3,4,0"/>
		<path class="st5" d="M120.3,93.3c0,0,1.8-2.2,4,0"/>
		<path class="st5" d="M120.4,108.9c-3.3,2.2-9.8,1.9-12.1-1"/>
	</g>
</g>
<g id="LOGO">
	<g class="st1">
		<path class="st2" d="M133,131.5H34c-0.8,0-1.5-0.7-1.5-1.5V56c0-0.5,0.3-1,0.7-1.3l49-31c0.5-0.3,1.1-0.3,1.6,0l50,31
			c0.4,0.3,0.7,0.8,0.7,1.3v74C134.5,130.8,133.8,131.5,133,131.5z M35.5,128.5h96V56.8L83,26.8l-47.5,30V128.5z"/>
	</g>
	<g id="Calque_2_-_copie">
		<path class="st7" d="M133,83.5c-0.8,0-1.5-0.7-1.5-1.5V56.8L83,26.8l-47.5,30V82c0,0.8-0.7,1.5-1.5,1.5s-1.5-0.7-1.5-1.5V56
			c0-0.5,0.3-1,0.7-1.3l49-31c0.5-0.3,1.1-0.3,1.6,0l50,31c0.4,0.3,0.7,0.8,0.7,1.3v26C134.5,82.8,133.8,83.5,133,83.5z"/>
		<path class="st7" d="M133,131.5H34c-0.8,0-1.5-0.7-1.5-1.5v-30c0-0.8,0.7-1.5,1.5-1.5s1.5,0.7,1.5,1.5v28.5h96V100
			c0-0.8,0.7-1.5,1.5-1.5s1.5,0.7,1.5,1.5v30C134.5,130.8,133.8,131.5,133,131.5z"/>
	</g>
	<g id="Calque_7">
		<path class="st7" d="M83,64.1c-0.2,0-0.4,0-0.6-0.1l-2-0.9c-5.7-2.5-8.9-4.7-9.5-6.5c-0.7-2-0.7-4.3,0.1-6
			c0.5-1.1,1.3-1.8,2.3-2.1c1.7-0.6,3.8-0.2,5.1,0.1c0.8-1,2.3-2.6,3.9-3.1c3-0.9,5.8,1.9,6.9,5c0.9,3-3.2,10-4.9,12.9
			C84,63.8,83.5,64.1,83,64.1z M75.4,51.2c-0.4,0-0.8,0-1.1,0.1c-0.3,0.1-0.4,0.3-0.6,0.6c-0.4,0.9-0.4,2.4,0,3.7
			c0.3,0.6,2.6,2.4,7.9,4.7l0.8,0.4c2.4-4.1,4.2-8.3,4-9.2c-0.7-1.9-2.1-3.4-3.1-3.1c-1,0.3-2.5,2-3,2.8c-0.4,0.6-1.1,0.8-1.7,0.6
			C77.8,51.5,76.5,51.2,75.4,51.2z"/>
	</g>
	<g id="Calque_3">
		<path class="st8" d="M83.5,122.8"/>
		<path class="st7" d="M83.5,117.5c-6.8,0-10-10.1-10-17V100c0-8.7,2.9-16.3,7.9-21.9C76.8,74,70.8,71.5,64,71.5
			c-15.7,0-28.5,12.8-28.5,28.5c0,0.8-0.7,1.5-1.5,1.5s-1.5-0.7-1.5-1.5c0-17.4,14.1-31.5,31.5-31.5c7.6,0,14.4,2.8,19.5,7.5
			c5.1-4.7,11.9-7.5,19.5-7.5c17.4,0,31.5,14.1,31.5,31.5c0,0.8-0.7,1.5-1.5,1.5s-1.5-0.7-1.5-1.5c0-15.7-12.8-28.5-28.5-28.5
			c-6.8,0-12.8,2.5-17.4,6.6c4.9,5.6,7.9,13.2,7.9,21.9v0.5C93.5,107.4,90.3,117.5,83.5,117.5z M83.5,80.3c-4.4,5-7,11.9-7,19.7v0.5
			c0,5.8,2.7,14,7,14s7-8.2,7-14V100C90.5,92.2,87.9,85.3,83.5,80.3z"/>
	</g>
	<g id="Calque_4">
		<path class="st7" d="M44.5,96c-0.8,0-1.5-0.7-1.5-1.5v-4c0-0.8,0.7-1.5,1.5-1.5s1.5,0.7,1.5,1.5v4C46,95.3,45.3,96,44.5,96z"/>
		<path class="st7" d="M59.4,96.5c-0.8,0-1.5-0.7-1.5-1.5v-4c0-0.8,0.7-1.5,1.5-1.5s1.5,0.7,1.5,1.5v4
			C60.9,95.8,60.2,96.5,59.4,96.5z"/>
		<path class="st7" d="M52,111.5c-2.2,0-4.3-0.5-5.9-1.5c-2-1.2-3.1-3-3.1-5.1c0-0.8,0.7-1.5,1.5-1.5s1.5,0.7,1.5,1.5
			c0,2.3,3,3.5,6,3.5s6-1.2,6-3.5c0-0.8,0.7-1.5,1.5-1.5s1.5,0.7,1.5,1.5C61,108.8,57.3,111.5,52,111.5z"/>
	</g>
	<g id="Calque_5">
		<path class="st7" d="M105.5,94.3c-0.3,0-0.6-0.1-0.9-0.3c-0.7-0.5-0.8-1.4-0.3-2.1c0.1-0.2,1.1-1.5,2.9-1.6
			c0.8-0.1,2.1,0.1,3.4,1.5c0.6,0.6,0.6,1.5,0,2.1s-1.5,0.6-2.1,0c-0.2-0.2-0.7-0.6-1-0.6c-0.4,0-0.7,0.4-0.7,0.4
			C106.4,94.1,106,94.3,105.5,94.3z"/>
		<path class="st7" d="M120.3,94.8c-0.3,0-0.7-0.1-0.9-0.3c-0.6-0.5-0.7-1.5-0.2-2.1c0.1-0.1,1.2-1.4,3-1.5c0.8,0,2,0.2,3.3,1.4
			c0.6,0.6,0.6,1.5,0,2.1s-1.5,0.6-2.1,0c-0.3-0.3-0.6-0.6-1-0.5c-0.4,0-0.8,0.4-0.8,0.4C121.2,94.6,120.7,94.8,120.3,94.8z"/>
		<path class="st7" d="M114.8,111.9c-3,0-6-1-7.7-3c-0.5-0.6-0.4-1.6,0.2-2.1s1.6-0.4,2.1,0.2c1.7,2.2,7.3,2.6,10.1,0.7
			c0.7-0.5,1.6-0.3,2.1,0.4c0.5,0.7,0.3,1.6-0.4,2.1C119.6,111.3,117.2,111.9,114.8,111.9z"/>
	</g>
</g>
<g id="LOGO_-_copie_2" class="st1">
	<g id="Calque_2_-_copie_3_1_" class="st3">
		<polygon class="st4" points="83,25 34,56 34,130 133,130 133,56 		"/>
	</g>
	<g id="Calque_2_-_copie_3" class="st3">
		<polyline class="st9" points="133,82 133,56 83,25 34,56 34,82 		"/>
		<polyline class="st10" points="34,100 34,130 133,130 133,100 		"/>
	</g>
	<g id="Calque_7_-_copie_2" class="st3">
		<path class="st11" d="M83,62.6c0,0,5.6-9,4.8-11.6c-0.9-2.6-3-4.7-5-4.1c-1.9,0.6-3.8,3.4-3.8,3.4s-3.2-1.1-5.2-0.4
			c-1.9,0.6-2.4,3.7-1.5,6.2c0.6,1.8,5.7,4.3,8.7,5.6L83,62.6z"/>
	</g>
	<g id="Calque_3_-_copie_2" class="st3">
		<path class="st12" d="M83.5,122.8"/>
		<path class="st10" d="M133,100c0-16.6-13.4-30-30-30s-28,13.4-28,30v0.5c0,5.8,2.7,15.5,8.5,15.5s8.5-9.7,8.5-15.5V100
			c0-16.6-11.4-30-28-30s-30,13.4-30,30"/>
	</g>
	<g id="Calque_4_-_copie_2" class="st3">
		<line class="st10" x1="44.5" y1="90.5" x2="44.5" y2="94.5"/>
		<line class="st10" x1="59.4" y1="91" x2="59.4" y2="95"/>
		<path class="st10" d="M44.5,105c0,6.7,15,6.7,15,0"/>
	</g>
	<g id="Calque_5_-_copie_2" class="st3">
		<path class="st10" d="M105.5,92.8c0,0,1.7-2.3,4,0"/>
		<path class="st10" d="M120.3,93.3c0,0,1.8-2.2,4,0"/>
		<path class="st10" d="M120.4,108.9c-3.3,2.2-9.8,1.9-12.1-1"/>
	</g>
</g>
<g id="Calque_9">
</g>
</svg>
