<svg width="260" height="237" viewBox="0 0 260 237" fill="none" xmlns="http://www.w3.org/2000/svg">
<g clip-path="url(#clip0)">
<path d="M41.2237 135.146L0 88.3394L123.341 0L246.682 88.3394L204.799 135.146H41.2237Z" fill="#013183"/>
<path d="M41.2237 135.146L0 88.3394L123.341 0L246.682 88.3394L204.799 135.146H41.2237Z" fill="#514ABF"/>
<path d="M240.746 94.2727H0V199.423H240.746V94.2727Z" fill="#013183"/>
<path d="M240.746 94.2727H0V199.423H240.746V94.2727Z" fill="url(#paint0_linear)"/>
<path d="M246.682 237H0V88.3394L123.341 162.834L246.682 88.3394V237Z" fill="#013183"/>
<path d="M215.215 38.506L189.053 18.4556L119.751 108.79L81.261 79.2911L61.2002 105.44L112.768 144.902L125.992 154.808L215.215 38.506Z" fill="#FEBA1B"/>
<path d="M19.4861 38.1104L24.7772 43.0138L0.794922 54.9308L13.5574 38.5814L19.4861 38.1104Z" fill="#F19D06"/>
<path opacity="0.2" d="M19.6911 38L24.9823 42.9035L1 54.8204L13.7625 38.471L19.6911 38Z" fill="#F19D06"/>
<path d="M13.3144 32.8503L0.794922 54.9306L19.4861 38.1102L13.3144 32.8503Z" fill="#FEBA1B"/>
<path d="M24.9312 46.81L0.820312 54.7705L20.9754 39.7327L24.9312 46.81Z" fill="#FEBA1B"/>
<path d="M226.552 12.7664L221.27 21.9197L260 28.2231L235.055 10.8608L226.552 12.7664Z" fill="#F19D06"/>
<path opacity="0.2" d="M227.282 12.9056L222 22.0589L260.73 28.3623L235.785 11L227.282 12.9056Z" fill="#F19D06"/>
<path d="M232.913 2.73364L260 28.2232L226.552 12.7664L232.913 2.73364Z" fill="#FEBA1B"/>
<path d="M222.698 27.3L259.895 28.0103L225.17 15.6824L222.698 27.3Z" fill="#FEBA1B"/>
</g>
<defs>
<linearGradient id="paint0_linear" x1="120.373" y1="199.423" x2="120.373" y2="94.2727" gradientUnits="userSpaceOnUse">
<stop stop-opacity="0.12"/>
<stop offset="0.55135" stop-opacity="0.09"/>
<stop offset="1" stop-opacity="0.02"/>
</linearGradient>
<clipPath id="clip0">
<rect width="260" height="237" fill="white"/>
</clipPath>
</defs>
</svg>
