<?xml version="1.0" encoding="utf-8"?>
<!-- Generator: Adobe Illustrator 23.1.0, SVG Export Plug-In . SVG Version: 6.00 Build 0)  -->
<svg version="1.1" id="LOGIN" xmlns="http://www.w3.org/2000/svg" xmlns:xlink="http://www.w3.org/1999/xlink" x="0px" y="0px"
	 viewBox="0 0 217 234.1" style="enable-background:new 0 0 217 234.1;" xml:space="preserve">
<style type="text/css">
	.st0{fill:#013183;}
	.st1{opacity:0.1;enable-background:new    ;}
	.st2{fill:#444053;}
	.st3{fill:#3F3D56;}
	.st4{fill:#F6F8FB;}
	.st5{fill:#FFC1C7;}
	.st6{opacity:5.000000e-02;enable-background:new    ;}
	.st7{fill:#575A89;}
	.st8{fill:#FEBA1B;}
	.st9{fill:#F2F2F2;}
	.st10{opacity:3.000000e-02;enable-background:new    ;}
</style>
<g>
	<path class="st0" d="M193.5,146.2c-2.9-5.1-15.1-3.6-27.2,3.4c-2.1,1.2-4.1,2.5-6,4c-1.1-13.2-7.1-25.6-16.9-34.5
		c-9.8-8.9-22.7-13.8-35.9-13.7c-13.3,0.2-26,5.4-35.6,14.6c-9.6,9.2-15.3,21.7-16,34.9c-2.4-2-5-3.8-7.7-5.3
		c-12-6.9-24.2-8.4-27.1-3.3c-2.9,5.1,4.4,14.9,16.5,21.8c7.8,4.5,15.6,6.7,21,6.3c3.1,9.1,8.6,17.2,16,23.4
		c-10.6,1.5-18.3,6.4-18.3,12.3c0,7,11.1,12.7,24.9,12.7c13.8,0,24.9-5.7,24.9-12.7c0,0,0,0,0-0.1c0.7,0,1.5,0,2.2,0.1
		c0.7,0,1.5,0,2.2-0.1c0,0,0,0,0,0.1c0,7,11.1,12.7,24.9,12.7c13.8,0,24.9-5.7,24.9-12.7c0-5.9-7.8-10.8-18.3-12.3
		c7.4-6.2,12.9-14.3,15.9-23.4c5.2-0.1,12.3-2.3,19.3-6.4C189,161.1,196.4,151.3,193.5,146.2z"/>
	<path class="st1" d="M20.9,148.9c2.9-5.1,15.1-3.6,27.2,3.4c2.7,1.5,5.2,3.3,7.6,5.2c0.1-2.5,0.1,0.2,0.1-2.6c-2.4-2-5-3.8-7.7-5.3
		c-12-7-24.2-8.5-27.2-3.4c-0.6,1.1-0.8,2.5-0.5,4C20.5,149.8,20.7,149.3,20.9,148.9z"/>
	<path class="st1" d="M193.5,148.9c-2.9-5.1-15.1-3.6-27.2,3.4c-2.8,1.6-3.9,2.2-6.1,4c-0.1-2.5-0.1,0.2-0.1-2.6
		c2.3-1.9,3.4-2.5,6.2-4.1c12.1-7,24.2-8.5,27.2-3.4c0.6,1.1,0.8,2.5,0.5,4C193.9,149.8,193.7,149.3,193.5,148.9z"/>
	<path class="st2" d="M94,154.7c3,0,5.4-3.2,5.4-7.1c0-3.9-2.4-7.1-5.4-7.1s-5.4,3.2-5.4,7.1C88.6,151.5,91,154.7,94,154.7z"/>
	<path class="st2" d="M122.1,154.7c3,0,5.4-3.2,5.4-7.1c0-3.9-2.4-7.1-5.4-7.1c-3,0-5.4,3.2-5.4,7.1
		C116.7,151.5,119.1,154.7,122.1,154.7z"/>
	<path class="st3" d="M141.8,170c0,10.2-17.1,27.4-34.3,27.4s-33.6-17.6-33.6-27.8s16.1-0.9,33.3-0.9
		C124.4,168.7,141.8,159.8,141.8,170z"/>
	<path class="st4" d="M79.3,171.7c0,0,30.9,6.9,56.9,0.2c0,0,3.2,0,1,3.7c-0.6,1-1.4,1.7-2.4,2.2c-5,2.6-23.6,10.1-53.2,0.5
		c-0.9-0.3-1.8-0.8-2.4-1.5c-0.7-0.7-1.2-1.5-1.4-2.5C77.5,173.1,77.6,171.9,79.3,171.7z"/>
	<path class="st1" d="M107.9,112.3c13.4,0,26.2,5.1,35.9,14.3c9.7,9.2,15.6,21.7,16.4,35c0.1-1.3,0.1-2.6,0.1-4
		c-0.1-13.8-5.7-27-15.5-36.8c-9.8-9.7-23.1-15.2-36.9-15.2s-27.1,5.5-36.9,15.2c-9.8,9.7-15.4,23-15.5,36.8c0,1,0,2.1,0.1,3.1
		c1-13.2,6.9-25.5,16.6-34.5C81.9,117.3,94.7,112.3,107.9,112.3z"/>
	<path class="st3" d="M113.8,44.6c0,0.9-0.2,1.8-0.5,2.6c-0.3,0.8-0.8,1.6-1.5,2.2c-0.6,0.6-1.4,1.1-2.2,1.5
		c-0.8,0.3-1.7,0.5-2.6,0.5c-0.9,0-1.8-0.2-2.6-0.5c-0.8-0.3-1.6-0.8-2.2-1.5c-0.6-0.6-1.1-1.4-1.5-2.2c-0.3-0.8-0.5-1.7-0.5-2.6
		c0-0.1,0-0.2,0-0.3c0.1-1.7,0.8-3.3,2.1-4.5c1.2-1.2,2.9-1.8,4.6-1.8c1.7,0,3.4,0.7,4.6,1.8c1.2,1.2,2,2.8,2.1,4.5
		C113.8,44.4,113.8,44.5,113.8,44.6z"/>
	<path class="st1" d="M113.8,44.6c0,0.9-0.2,1.8-0.5,2.6c-0.3,0.8-0.8,1.6-1.5,2.2c-0.6,0.6-1.4,1.1-2.2,1.5
		c-0.8,0.3-1.7,0.5-2.6,0.5c-0.9,0-1.8-0.2-2.6-0.5c-0.8-0.3-1.6-0.8-2.2-1.5c-0.6-0.6-1.1-1.4-1.5-2.2c-0.3-0.8-0.5-1.7-0.5-2.6
		c0-0.1,0-0.2,0-0.3c1.9-1.5,4.3-2.4,6.7-2.4c2.4,0,4.8,0.8,6.7,2.4C113.8,44.4,113.8,44.5,113.8,44.6z"/>
	<path class="st3" d="M107.1,63.7c5.9,0,10.6-4.7,10.6-10.6s-4.7-10.6-10.6-10.6s-10.6,4.7-10.6,10.6S101.2,63.7,107.1,63.7z"/>
	<path class="st3" d="M100.7,43.1c0-1.6,0.6-3.2,1.7-4.4c1.1-1.2,2.5-2,4.2-2.2c-0.9-0.1-1.9,0-2.8,0.2c-0.9,0.3-1.8,0.7-2.5,1.4
		c-0.7,0.6-1.3,1.4-1.7,2.3c-0.4,0.9-0.6,1.8-0.6,2.8c0,1,0.2,1.9,0.6,2.8c0.4,0.9,1,1.6,1.7,2.3c0.7,0.6,1.6,1.1,2.5,1.4
		c0.9,0.3,1.9,0.4,2.8,0.2c-1.6-0.2-3.1-1-4.2-2.2C101.3,46.3,100.7,44.7,100.7,43.1z"/>
	<path class="st3" d="M95.1,57.4c-1.2-1.1-2-2.6-2.2-4.2c-0.2-1.6,0.2-3.2,1.1-4.6c-0.7,0.6-1.3,1.3-1.7,2.2
		c-0.4,0.8-0.6,1.7-0.7,2.6c0,0.9,0.1,1.8,0.5,2.7c0.3,0.9,0.8,1.6,1.5,2.3c0.6,0.7,1.4,1.2,2.3,1.5c0.9,0.3,1.8,0.5,2.7,0.5
		c0.9,0,1.8-0.2,2.7-0.6c0.8-0.4,1.6-0.9,2.2-1.6c0.2-0.2,0.4-0.5,0.5-0.7c-1.2,1.1-2.8,1.6-4.4,1.6C97.9,59.1,96.3,58.5,95.1,57.4z
		"/>
	<path class="st5" d="M101.5,66.5c-0.5,0.2-1.1,0.2-1.6,0.5c-0.9,0.6-0.9,1.9-0.6,3c0.6,2.4,2.1,4.7,4.3,5.6
		c1.4,0.6,2.9,0.6,4.4,0.6c1.6,0,3.4-0.2,4.4-1.5c0.5-0.6,0.7-1.4,0.9-2.2c0.5-1.9,1-3.9,0.8-5.9c-1,0.1-2.1,0.1-2.8-0.5
		c-0.7-0.6-0.9-1.8-1.3-2.8c0-0.2-0.1-0.3-0.2-0.4c-0.1-0.1-0.3-0.1-0.4-0.1c-1,0-2,0-3.1-0.2c-0.6-0.1-2.2-0.7-2.7-0.2
		c-0.3,0.4-0.1,1.6-0.4,2.2c-0.2,0.4-0.4,0.7-0.7,1C102.3,66.2,101.9,66.4,101.5,66.5z"/>
	<path class="st6" d="M101.5,66.5c-0.5,0.2-1.1,0.2-1.6,0.5c-0.9,0.6-0.9,1.9-0.6,3c0.6,2.4,2.1,4.7,4.3,5.6
		c1.4,0.6,2.9,0.6,4.4,0.6c1.6,0,3.4-0.2,4.4-1.5c0.5-0.6,0.7-1.4,0.9-2.2c0.5-1.9,1-3.9,0.8-5.9c-1,0.1-2.1,0.1-2.8-0.5
		c-0.7-0.6-0.9-1.8-1.3-2.8c0-0.2-0.1-0.3-0.2-0.4c-0.1-0.1-0.3-0.1-0.4-0.1c-1,0-2,0-3.1-0.2c-0.6-0.1-2.2-0.7-2.7-0.2
		c-0.3,0.4-0.1,1.6-0.4,2.2c-0.2,0.4-0.4,0.7-0.7,1C102.3,66.2,101.9,66.4,101.5,66.5z"/>
	<path class="st2" d="M46.2,135.7c-2.4,0.1-4.8,0-7.1,0.5c-0.4,0.1-0.9,0.3-1.2,0.6c-0.3,0.5-0.2,1.2,0.1,1.7c0.6,1.2,1.7,2.1,3,2.5
		c1.4,0.5,2.9,0.3,4.4,0.3c2,0.1,4,0.5,5.8,1.4c0.4,0.2,0.9,0.4,1.3,0.3c0.7-0.1,1.1-0.8,1.3-1.4c0.3-0.7,0.5-1.5,0.7-2.3
		c0.3-1.5,0.4-4.3-1.6-4.7c-0.9-0.2-2,0.5-2.9,0.6C48.7,135.5,47.5,135.7,46.2,135.7z"/>
	<path class="st2" d="M167.7,136.4c0.6-0.2,1.1-0.6,1.4-1.1c0.9-1.3,0.9-2.8,1.4-4.3c0.6-1.8,1.9-3.4,2.7-5.1c0.7-1.6,1.1-3.3,1-5
		c0-0.1,0-0.2-0.1-0.4c-0.1-0.1-0.1-0.2-0.2-0.3c-0.1-0.1-0.2-0.1-0.3-0.2c-0.1,0-0.2,0-0.4,0c-1.1,0.2-2.1,1-2.8,2
		c-0.9,1.2-1.5,2.6-2.5,3.8c-0.9,1.2-2.3,2.1-3.4,3.2c-1.4,1.4-2.5,2.8-1.3,4.6C164.2,135,165.6,137,167.7,136.4z"/>
	<path class="st7" d="M95.1,97.5c-7.5,9.7-16.7,17.9-27.3,24.1c-3.2,1.9-6.6,3.6-9.5,6c-2.2,1.8-4,4-5.9,6.2
		c-0.2,0.2-0.4,0.5-0.4,0.8c0,0.2,0,0.4,0.1,0.6c0.6,1.7,1.3,3.6,2.9,4.6c4.1-5.9,12.3-7.5,18.5-11c2.9-1.7,5.6-3.7,8.2-5.7
		c3.9-2.9,7.8-5.7,11.9-8.3c2.7-1.8,5.4-3.5,8.5-4.4c6.5-2,13.6,0,19.7,3.2c6,3.2,11.3,7.6,17.2,11c8,4.6,17,7.4,25.8,10
		c0.3-2.1,0.5-4.2,1-6.3c-2.2-0.3-4.3-1.2-6.4-2c-2.3-1-4.6-1.9-6.7-3.3c-1.4-0.9-2.6-2-4-3c-2.9-2.1-6.4-3.4-9.3-5.4
		c-3.9-2.6-6.9-6.3-10.5-9.4c-1.6-1.3-3.2-2.5-4.8-3.7c-1.7-1.2-3.4-2.5-5.4-3.3c-2.3-0.9-4.9-1.1-7.4-1.3
		C105.8,96.3,100.4,95.8,95.1,97.5z"/>
	<path class="st5" d="M106.9,65.6c4.1,0,7.4-3.3,7.4-7.4s-3.3-7.4-7.4-7.4c-4.1,0-7.4,3.3-7.4,7.4S102.8,65.6,106.9,65.6z"/>
	<path class="st8" d="M106.7,73.6c-1.3-0.2-2.6-0.6-3.7-1.4c-1.1-0.7-1.9-1.9-2.3-3.2c-0.2-1-0.1-2.2-0.5-3.2
		c-1.3,0.7-2.7,1.2-4.2,1.7c-0.8,0.3-1.6,0.5-2.3,1c-1.4,1.1-1.5,3.2-1.4,5c0,0.4,0,0.7,0.1,1.1c0.1,0.3,0.3,0.6,0.6,0.9
		c1.5,1.6,3.9,2.3,5.3,4c-0.8,0.8-1.2,1.9-1.4,3c0,0.5-0.1,0.9-0.2,1.3c-0.1,0.4-0.3,0.7-0.4,1.1c-0.9,2.1-0.9,4.5-1,6.9
		c-0.1,2.3-0.5,4.8-2.1,6.5c0.6,0.7,1.5,0.9,2.4,1c0.9,0.1,1.9,0,2.8,0c2.5,0.1,4.8,1.1,7.2,1.7c2.4,0.7,5.1,0.9,7.2-0.4
		c0.7-0.5,1.4-1.1,2.1-1.5c0.9-0.5,1.9-0.8,3-1l0.4-12.4c0-0.9,0.1-1.7,0.2-2.6c0.5-3.4,2.7-6.3,4.8-9c-0.1-1.2-0.5-2.4-1.2-3.5
		c-0.7-1.1-1.5-2-2.6-2.6c-0.9-0.6-1.9-1-3-1.4l-2.4-0.9c-0.2-0.1-0.5-0.1-0.7-0.1c-0.5,0.1-0.7,0.7-0.8,1.3c0,0.8,0.1,1.7,0,2.5
		c0,0.8-0.2,1.7-0.8,2.3c-0.4,0.4-0.9,0.7-1.5,0.8C109.1,73.2,108,73.8,106.7,73.6z"/>
	<path class="st5" d="M96.9,104.7c0.1,1.7,0.2,3.3-0.1,5c-0.3,1.6-1,3.2-2.2,4.3c-1,0.8-2.3,1.5-2.5,2.7c-0.1,0.3,0,0.6,0.1,0.8
		c0.3,0.6,1,0.9,1.7,0.8c0.7-0.2,1.3-0.5,1.8-0.9c1-0.8,2-1.7,2.9-2.7c0.8-0.8,1.7-1.7,2-2.8c0.1-0.5,0.2-1.1,0.2-1.6
		c0.2-3,0.2-5.9,0.3-8.9c0-2.2,0.1-4.4-0.7-6.4c0.1,0.3-2.8,0.6-3,0.6c-1.2,0.1-1,0.6-0.9,1.8C96.6,99.9,96.7,102.3,96.9,104.7z"/>
	<path class="st5" d="M118.4,104.7c-0.1,1.7-0.2,3.3,0.1,5c0.3,1.6,1,3.2,2.2,4.3c1,0.8,2.3,1.5,2.5,2.7c0.1,0.3,0,0.6-0.1,0.8
		c-0.3,0.6-1,0.9-1.7,0.8c-0.7-0.2-1.3-0.5-1.8-0.9c-1-0.8-2-1.7-2.9-2.7c-0.8-0.8-1.7-1.7-2-2.8c-0.1-0.5-0.2-1.1-0.2-1.6
		c-0.2-3-0.2-5.9-0.3-8.9c0-2.2-0.1-4.4,0.7-6.4c-0.1,0.3,2.8,0.6,3,0.6c1.2,0.1,1,0.6,0.9,1.8C118.7,99.9,118.6,102.3,118.4,104.7z
		"/>
	<path class="st1" d="M93.1,72.6c-1,3.1-0.6,6.5,0.4,9.6c0.3,0.8,0.6,1.5,0.4,2.3c-0.1,0.4-0.2,0.8-0.4,1.2
		c-0.3,0.9-0.4,1.9-0.2,2.9c0,0.3,0.2,0.6,0.3,0.8c0.1,0.1,0.2,0.2,0.3,0.3c0.4,0.6-0.4,1.4-0.3,2.2c0.1,0.6,0.7,1,1.1,1.4
		c1.2,1.3,1,3.3,0.7,5.1c1.5-0.1,2.8-1.4,4.3-1.3c0.5,0,1,0.2,1.4,0.5c0.4,0.3,0.7,0.7,0.9,1.2c-0.1-1.5,0.5-2.7,0.6-4.2
		c0.2-1.9-1.1-3.6-1.7-5.4c-0.9-2.6-0.4-5.5-0.6-8.3c-0.1-1-0.2-2.1-0.5-3.1c-0.3-1.4-0.7-2.9-1.8-3.7
		C96.8,73.1,94.5,73.8,93.1,72.6z"/>
	<path class="st8" d="M92.8,72c-1,3.1-0.6,6.5,0.4,9.6c0.3,0.8,0.6,1.5,0.4,2.3c-0.1,0.4-0.2,0.8-0.4,1.2C93.1,86,93,87,93.2,88
		c0,0.3,0.2,0.6,0.3,0.8c0.1,0.1,0.2,0.2,0.3,0.3c0.4,0.6-0.4,1.4-0.3,2.2c0.1,0.6,0.7,1,1.1,1.4c1.2,1.3,1,3.3,0.7,5.1
		c1.5-0.1,2.8-1.4,4.3-1.3c0.5,0,1,0.2,1.4,0.5c0.4,0.3,0.7,0.7,0.9,1.2c-0.1-1.5,0.5-2.7,0.6-4.2c0.2-1.9-1.1-3.6-1.7-5.4
		c-0.9-2.6-0.4-5.5-0.6-8.3c-0.1-1-0.2-2.1-0.5-3.1c-0.3-1.4-0.7-2.9-1.8-3.7C96.5,72.5,94.2,73.3,92.8,72z"/>
	<path class="st1" d="M122.2,72.6c1,3.1,0.6,6.5-0.4,9.6c-0.3,0.8-0.6,1.5-0.4,2.3c0.1,0.4,0.2,0.8,0.4,1.2c0.3,0.9,0.4,1.9,0.2,2.9
		c0,0.3-0.2,0.6-0.3,0.8c-0.1,0.1-0.2,0.2-0.3,0.3c-0.4,0.6,0.4,1.4,0.3,2.2c-0.1,0.6-0.7,1-1.1,1.4c-1.2,1.3-1,3.3-0.7,5.1
		c-1.5-0.1-2.8-1.4-4.3-1.3c-0.5,0-1,0.2-1.4,0.5c-0.4,0.3-0.7,0.7-0.9,1.2c0.1-1.5-0.5-2.7-0.6-4.2c-0.2-1.9,1.1-3.6,1.7-5.4
		c0.9-2.6,0.4-5.5,0.6-8.3c0.1-1,0.2-2.1,0.4-3.1c0.3-1.4,0.7-2.9,1.8-3.7C118.6,73.1,120.8,73.8,122.2,72.6z"/>
	<path class="st8" d="M122.5,72c1,3.1,0.6,6.5-0.4,9.6c-0.3,0.8-0.6,1.5-0.4,2.3c0.1,0.4,0.2,0.8,0.4,1.2c0.3,0.9,0.4,1.9,0.2,2.9
		c0,0.3-0.2,0.6-0.3,0.8c-0.1,0.1-0.2,0.2-0.3,0.3c-0.4,0.6,0.4,1.4,0.3,2.2c-0.1,0.6-0.7,1-1.1,1.4c-1.2,1.3-1,3.3-0.7,5.1
		c-1.5-0.1-2.8-1.4-4.3-1.3c-0.5,0-1,0.2-1.4,0.5c-0.4,0.3-0.7,0.7-0.9,1.2c0.1-1.5-0.5-2.7-0.6-4.2c-0.2-1.9,1.1-3.6,1.7-5.4
		c0.9-2.6,0.4-5.5,0.6-8.3c0.1-1,0.2-2.1,0.4-3.1c0.3-1.4,0.7-2.9,1.8-3.7C118.9,72.5,121.1,73.3,122.5,72z"/>
	<path class="st3" d="M106.8,57.2c4.9,0,8.9-2.7,8.9-5.9c0-3.3-4-5.9-8.9-5.9c-4.9,0-8.9,2.7-8.9,5.9
		C97.9,54.5,101.9,57.2,106.8,57.2z"/>
	<path class="st1" d="M106.8,56.6c-4.8,0-8.7-2.5-8.9-5.6c0,0.1,0,0.2,0,0.3c0,3.3,4,5.9,8.9,5.9s8.9-2.7,8.9-5.9c0-0.1,0-0.2,0-0.3
		C115.4,54.1,111.5,56.6,106.8,56.6z"/>
	<path class="st9" d="M54.3,36.3l-4.6,2.9l2.8-5.1c-0.8-0.6-1.8-1-2.8-1h-0.1c-0.3,0-0.6,0-1-0.1l-1.6,1l0.7-1.2
		c-1.1-0.4-2.1-1.1-2.7-2.1l-2.8,1.8l1.8-3.2c-1.6-2-3.8-3.2-6.3-3.2c-2.9,0-5.5,1.7-7.2,4.4c-0.5,0.8-1.2,1.5-2,1.9
		s-1.8,0.7-2.7,0.6h-0.2c-3.2,0-5.8,3.6-5.8,8.1c0,4.5,2.6,8.1,5.8,8.1c0.7,0,1.4-0.2,2-0.5c2.1-1.1,4.8-1.1,7-0.1
		c0.9,0.4,2,0.6,3,0.6c1,0,2-0.2,3-0.6c1.1-0.5,2.3-0.7,3.5-0.7c1.2,0,2.4,0.3,3.5,0.8c0.6,0.3,1.3,0.5,2,0.5c3.2,0,5.8-3.6,5.8-8.1
		C55.5,39.5,55.1,37.8,54.3,36.3z"/>
	<path class="st10" d="M45.6,48.2c-1.7-0.3-3.4-0.1-5,0.5c-0.9,0.4-2,0.6-3,0.6c-1,0-2-0.2-3-0.6c-1.1-0.5-2.3-0.7-3.5-0.7
		c-1.2,0-2.4,0.3-3.5,0.8c-0.6,0.3-1.3,0.5-2,0.5c-2.8,0-5.2-2.9-5.7-6.6c0.6-0.4,1.1-0.9,1.4-1.5c1.7-2.7,4.3-4.4,7.2-4.4
		c2.9,0,5.5,1.7,7.1,4.4c0.5,0.8,1.2,1.5,2,1.9c0.8,0.5,1.8,0.7,2.7,0.7h0.1C42.7,43.7,44.7,45.5,45.6,48.2z"/>
	<path class="st9" d="M211.4,87.2l-2.3,1.5l1.4-2.5c-0.4-0.3-0.9-0.5-1.4-0.5h0c-0.2,0-0.3,0-0.5,0l-0.8,0.5l0.3-0.6
		c-0.6-0.2-1-0.6-1.4-1l-1.4,0.9l0.9-1.6c-0.4-0.5-0.8-0.9-1.4-1.1c-0.5-0.3-1.1-0.4-1.7-0.4c-1.4,0-2.7,0.9-3.6,2.2
		c-0.2,0.4-0.6,0.7-1,1c-0.4,0.2-0.9,0.3-1.4,0.3h-0.1c-1.6,0-2.9,1.8-2.9,4c0,2.2,1.3,4,2.9,4c0.4,0,0.7-0.1,1-0.3
		c0.5-0.3,1.1-0.4,1.7-0.4c0.6,0,1.2,0.1,1.8,0.4c0.5,0.2,1,0.3,1.5,0.3s1-0.1,1.5-0.3c0.6-0.2,1.1-0.4,1.7-0.3
		c0.6,0,1.2,0.2,1.7,0.4c0.3,0.2,0.6,0.2,1,0.2c1.6,0,2.9-1.8,2.9-4C212,88.8,211.8,87.9,211.4,87.2z"/>
	<path class="st10" d="M207.1,93.1c-0.8-0.2-1.7-0.1-2.5,0.3c-0.5,0.2-1,0.3-1.5,0.3c-0.5,0-1-0.1-1.5-0.3c-0.6-0.2-1.2-0.4-1.8-0.4
		c-0.6,0-1.2,0.2-1.7,0.4c-0.3,0.2-0.7,0.3-1,0.3c-1.4,0-2.6-1.4-2.8-3.3c0.3-0.2,0.5-0.5,0.7-0.8c0.8-1.3,2.1-2.2,3.6-2.2
		c1.4,0,2.7,0.9,3.6,2.2c0.3,0.4,0.6,0.7,1,1c0.4,0.2,0.9,0.3,1.4,0.3h0C205.6,90.9,206.6,91.8,207.1,93.1z"/>
	<path class="st9" d="M164.3,53.4l3.7,2.3l-2.2-4.1c0.6-0.5,1.4-0.8,2.2-0.8h0.1c0.3,0,0.5,0,0.8-0.1l1.2,0.8l-0.5-1
		c0.9-0.3,1.7-0.9,2.2-1.7l2.2,1.4l-1.4-2.6c1.3-1.6,3.1-2.5,5-2.5c2.3,0,4.4,1.4,5.7,3.5c0.4,0.6,1,1.2,1.6,1.5
		c0.7,0.4,1.4,0.5,2.2,0.5h0.1c2.6,0,4.6,2.9,4.6,6.5s-2.1,6.5-4.6,6.5c-0.6,0-1.1-0.1-1.6-0.4c-0.9-0.4-1.8-0.7-2.8-0.7
		c-1,0-1.9,0.2-2.8,0.6c-0.8,0.3-1.6,0.5-2.4,0.5c-0.8,0-1.6-0.2-2.4-0.5c-0.9-0.4-1.8-0.6-2.8-0.6c-1,0-1.9,0.2-2.8,0.7
		c-0.5,0.3-1,0.4-1.6,0.4c-2.6,0-4.6-2.9-4.6-6.5C163.3,56,163.7,54.6,164.3,53.4z"/>
	<path class="st10" d="M171.3,62.9c1.3-0.3,2.7-0.1,4,0.4c0.8,0.3,1.6,0.5,2.4,0.5c0.8,0,1.6-0.2,2.4-0.5c0.9-0.4,1.9-0.6,2.8-0.6
		c1,0,1.9,0.2,2.8,0.7c0.5,0.3,1.1,0.4,1.6,0.4c2.3,0,4.2-2.3,4.6-5.3c-0.5-0.3-0.8-0.8-1.1-1.2c-1.3-2.2-3.4-3.5-5.7-3.5
		c-2.3,0-4.4,1.4-5.7,3.5c-0.4,0.6-1,1.2-1.6,1.5c-0.7,0.4-1.4,0.5-2.2,0.5h-0.1C173.6,59.3,172,60.8,171.3,62.9z"/>
</g>
</svg>
