<?xml version="1.0" encoding="utf-8"?>
<!-- Generator: Adobe Illustrator 23.1.0, SVG Export Plug-In . SVG Version: 6.00 Build 0)  -->
<svg version="1.1" id="REGISTER" xmlns="http://www.w3.org/2000/svg" xmlns:xlink="http://www.w3.org/1999/xlink" x="0px" y="0px"
	 viewBox="0 0 217 234.1" style="enable-background:new 0 0 217 234.1;" xml:space="preserve">
<style type="text/css">
	.st0{clip-path:url(#SVGID_2_);}
	.st1{fill:#F2F2F2;}
	.st2{fill:none;stroke:#3F3D56;stroke-miterlimit:10;}
	.st3{fill:#A0616A;}
	.st4{fill:#013183;}
	.st5{fill:#2F2E41;}
	.st6{opacity:0.1;enable-background:new    ;}
	.st7{fill:#F19D06;}
	.st8{fill:#444053;}
	.st9{fill:#3F3D56;}
	.st10{fill:#F6F8FB;}
</style>
<g>
	<defs>
		<rect id="SVGID_1_" x="-143" y="-13.8" width="360" height="739"/>
	</defs>
	<clipPath id="SVGID_2_">
		<use xlink:href="#SVGID_1_"  style="overflow:visible;"/>
	</clipPath>
	<g class="st0">
		<path class="st1" d="M118.5,11.7C91.7,11.7,70,26.2,70,44c0,7.9,4.3,15.2,11.5,20.8v23.4l15.4-15.4c7,2.3,14.3,3.4,21.6,3.4
			c26.8,0,48.5-14.4,48.5-32.2S145.3,11.7,118.5,11.7z"/>
		<path class="st2" d="M121.9,7.2c-26.8,0-48.5,14.4-48.5,32.2c0,7.9,4.3,15.2,11.5,20.8v23.4l15.4-15.4c7,2.3,14.3,3.4,21.6,3.4
			c26.8,0,48.5-14.4,48.5-32.2S148.7,7.2,121.9,7.2z"/>
		<path class="st3" d="M100.8,90.5c0,0-1-13.1-0.5-15.5c0.5-2.4,0.9-9.2-1.6-7c-2.5,2.2-1.6,7.3-1.6,7.3s-2.4,13.9-0.2,15.8
			C99.1,93,100.8,90.5,100.8,90.5z"/>
		<path class="st4" d="M102.7,103.5c0,0-7.5-6.7-7.1-12.4c0,0,4.5-3.5,5.5-1.6c1,1.8,8.4,9,7.1,11.4
			C106.9,103.3,102.7,103.5,102.7,103.5z"/>
		<path class="st3" d="M129.3,91.5c0,0,4.5-12.4,4.7-14.8c0.2-2.4,1.6-9.1,3.5-6.3c1.8,2.8-0.4,7.5-0.4,7.5s-1.4,14-4.1,15.2
			C130.3,94.4,129.3,91.5,129.3,91.5z"/>
		<path class="st3" d="M117.1,153.7h12l0.6,6.1l-2.8,0.6c0,0-6.7-2-10.6-1.4C112.4,159.6,117.1,153.7,117.1,153.7z"/>
		<path class="st5" d="M125,152.9c0,0,5.7-3.9,6.7-0.6c1,3.2,4.7,15,3.5,16.2c-1.2,1.2-2.6-1-2.6-1s-2.4-5.1-4.3-5.3
			s-2.8-1.8-2.8-1.8S130.7,156.3,125,152.9z"/>
		<path class="st3" d="M114,184.3c0,0,2.2,9.1,1.8,10.6c-0.4,1.4,6.5,0.6,6.5,0.6l0.4-2.6c0,0-4.1-6.5-4.1-9.3
			C118.7,180.7,114,184.3,114,184.3z"/>
		<path class="st5" d="M122.4,191c0,0,5.5,4.1,2.6,6.1c-2.8,2-13.4,7.3-13.4,7.3s-3.9,0.6-1-2.8c2.8-3.5,3.7-4.1,3.9-5.9
			c0.2-1.2,0.6-2.4,1.3-3.4C115.7,192.3,118.5,197.9,122.4,191z"/>
		<path class="st5" d="M105.7,142.3c0,0-2.2,21.1,1.2,27.8c3.5,6.7,7.5,15.8,7.3,16.2c-0.2,0.4,5.9-0.6,5.9-2.4
			c0-1.8-6.7-20.1-6.7-20.1s2.8-23.8,5.1-25.4C120.7,136.8,105.7,142.3,105.7,142.3z"/>
		<path class="st6" d="M105.7,142.3c0,0-2.2,21.1,1.2,27.8c3.5,6.7,7.5,15.8,7.3,16.2c-0.2,0.4,5.9-0.6,5.9-2.4
			c0-1.8-6.7-20.1-6.7-20.1s2.8-23.8,5.1-25.4C120.7,136.8,105.7,142.3,105.7,142.3z"/>
		<path class="st5" d="M110.3,82.7c-1.5,0.3-2.9,1.1-3.6,2.4c-0.7,1.3-0.7,3-1.8,3.9c-0.6,0.5-1.5,0.7-2.2,1.1
			c-0.5,0.3-0.9,0.8-1.2,1.3c-0.3,0.5-0.4,1.1-0.4,1.7c0.1,1.1,0.6,2.2,0.6,3.3c0,1.5-1,2.7-2,3.7l3.1,0.6c0.5,0.1,1,0.1,1.5,0
			c0.5-0.2,1-0.6,1.5-0.7c0.8-0.2,1.6,0.3,2.3,0.7c2,1.2,4.1,2.1,6.3,3c0.6,0.3,1.3,0.5,2,0.2c0.5-0.2,0.8-0.8,1.3-1.1
			c0.8-0.5,1.9-0.1,2.9,0.1c2.1,0.6,4.4,0.4,6.4-0.5c-0.4-0.5-1-0.9-1.5-1.3c-0.5-0.5-0.8-1.1-0.7-1.8c0.1-0.7,0.7-1.1,1.1-1.7
			c0.3-0.4,0.5-0.9,0.6-1.5c0.1-0.5,0.1-1.1,0-1.6c-0.2-1-0.7-2-1.4-2.7c-0.4-0.4-0.8-0.8-1.2-1.3c-0.7-1-0.9-2.3-1.2-3.6
			c-0.2-1.2-0.6-2.6-1.6-3.3c-1.5-1.2-4-0.8-5.8-0.9C113.6,82.7,112,82.7,110.3,82.7z"/>
		<path class="st5" d="M100.2,127.9l3.9,9.5c0,0-17.7,19.3-7.7,21.9s13.4-2,19.7,1.6c0,0,3-4.7,2.6-7.5c0,0-8.7-1.6-13.4-1.4
			c0,0,12.6-11,13.8-11.4c1.2-0.4,5.3-6.9-1-12.2c-6.3-5.3-4.7-8.1-4.7-8.1L100.2,127.9z"/>
		<path class="st3" d="M109.4,94.8c0,0,0.6,6.3-2,7.1c-2.6,0.8,10.4,0.6,10.4,0.6s-3-1.8-1.6-5.7C117.5,93,109.4,94.8,109.4,94.8z"
			/>
		<path class="st6" d="M109.4,94.8c0,0,0.6,6.3-2,7.1c-2.6,0.8,10.4,0.6,10.4,0.6s-3-1.8-1.6-5.7C117.5,93,109.4,94.8,109.4,94.8z"
			/>
		<path class="st4" d="M123.2,105.7c0,0-1.2-6.3-3.7-5.9c-2.4,0.4-7.3,0.8-7.9,1.2c-0.6,0.4-3.9,1.2-3.9,1.2s1.2-1.4,0-1.6
			c-1.2-0.2-5.1,0.8-5.5,1.6c-0.4,0.8-2,2.4-2,5.3c0,2.8-1.2,7.7-0.8,9.7c0.4,2-0.2,6.7-1.4,9.3c-1.2,2.6-0.2,5.3,1.8,2.6
			c2-2.6,1,0,2.6,0.2c1.6,0.2,8.9-7.3,11-5.5c2,1.8,4.1,3,4.5,2c0.4-1-1.6-2.8-1.6-3.7c0-0.8-3.2,2.6,0.2-4.5
			C119.9,110.8,116.7,108.8,123.2,105.7z"/>
		<path class="st4" d="M121.5,105.3l1.6,0.4c0,0,5.9-4.3,7.5-7.3c1.6-3,2.8-5.5,2.8-5.5s-2.6-3.2-4.3-2c-1.6,1.2-8.9,9.5-8.9,9.5
			L121.5,105.3z"/>
		<path class="st3" d="M114,99c3.5,0,6.3-2.8,6.3-6.3s-2.8-6.3-6.3-6.3c-3.5,0-6.3,2.8-6.3,6.3S110.6,99,114,99z"/>
		<path class="st5" d="M108.5,90.9c1.1-0.9,2.4-1.3,3.8-1.3c2.4,0.1,4.5,1.9,7,1.9c-0.1-0.5,0-1.1,0.2-1.5c0.2-0.4,0.5-0.8,0.4-1.2
			c-0.1-0.3-0.3-0.6-0.5-0.9c-1.4-1.3-3.3-2-5.3-2.1c-1.3-0.1-3.8,0-4.8,1C108.5,87.7,108.6,89.8,108.5,90.9z"/>
		<path class="st7" d="M121.9,58.6c7.3,0,13.2-5.9,13.2-13.2s-5.9-13.2-13.2-13.2c-7.3,0-13.2,5.9-13.2,13.2S114.6,58.6,121.9,58.6z
			"/>
		<path class="st8" d="M118.7,42.1c0.7,0,1.3-0.7,1.3-1.7c0-0.9-0.6-1.7-1.3-1.7c-0.7,0-1.3,0.7-1.3,1.7
			C117.4,41.3,118,42.1,118.7,42.1z"/>
		<path class="st8" d="M125.2,42.1c0.7,0,1.3-0.7,1.3-1.7c0-0.9-0.6-1.7-1.3-1.7s-1.3,0.7-1.3,1.7C124,41.3,124.5,42.1,125.2,42.1z"
			/>
		<path class="st9" d="M129.8,45.6c0,2.4-4,6.4-8,6.4c-4,0-7.8-4.1-7.8-6.5c0-2.4,3.7-0.2,7.8-0.2C125.8,45.3,129.8,43.2,129.8,45.6
			z"/>
		<path class="st10" d="M115.3,46c0,0,7.2,1.6,13.3,0c0,0,0.7,0,0.2,0.9c-0.1,0.2-0.3,0.4-0.6,0.5c-1.2,0.6-5.5,2.4-12.4,0.1
			c-0.2-0.1-0.4-0.2-0.6-0.3c-0.2-0.2-0.3-0.4-0.3-0.6C114.8,46.4,114.9,46.1,115.3,46z"/>
	</g>
</g>
</svg>
