<?xml version="1.0" encoding="utf-8"?>
<!-- Generator: Adobe Illustrator 23.1.0, SVG Export Plug-In . SVG Version: 6.00 Build 0)  -->
<svg version="1.1" id="TROPHIES" xmlns="http://www.w3.org/2000/svg" xmlns:xlink="http://www.w3.org/1999/xlink" x="0px" y="0px"
	 viewBox="0 0 217 234.1" style="enable-background:new 0 0 217 234.1;" xml:space="preserve">
<style type="text/css">
	.st0{fill:url(#SVGID_1_);}
	.st1{fill:#BE6F72;}
	.st2{fill:#3F3D56;}
	.st3{fill:#65617D;}
	.st4{opacity:0.1;enable-background:new    ;}
	.st5{fill:#E3E8F4;}
	.st6{opacity:0.1;}
	.st7{fill:#013183;}
	.st8{opacity:0.1;fill:#FFFFFF;enable-background:new    ;}
	.st9{fill:url(#SVGID_2_);}
	.st10{fill:#F86D70;}
	.st11{fill:#FBBEBE;}
	.st12{fill:#444053;}
	.st13{fill:#E8E8F0;}
	.st14{opacity:0.1;fill:#013183;enable-background:new    ;}
</style>
<g>
	
		<linearGradient id="SVGID_1_" gradientUnits="userSpaceOnUse" x1="174.5222" y1="532.9471" x2="174.5222" y2="635.4464" gradientTransform="matrix(1 0 0 -1 0 712.2488)">
		<stop  offset="0" style="stop-color:#808080;stop-opacity:0.25"/>
		<stop  offset="0.54" style="stop-color:#808080;stop-opacity:0.12"/>
		<stop  offset="1" style="stop-color:#808080;stop-opacity:0.1"/>
	</linearGradient>
	<path class="st0" d="M206.6,132.2c-0.4-0.3-0.8-0.5-1.2-0.5c-0.5-0.1-1-0.2-1.4-0.3l-6.3-0.9c-0.6-0.1-1.3-0.2-1.9-0.1
		c-0.3,0-0.6,0.1-0.9,0.3c-0.3,0.1-0.5,0.4-0.7,0.6c-0.2,0.2-0.3,0.5-0.3,0.8c0,0.3,0.1,0.6,0.3,0.8c0.1,0.1,0.1,0.2,0.2,0.4
		c0.1,0.3,0.1,0.6,0.2,0.9c0,0.1,0.1,0.1,0.1,0.2c0,0,0,0,0,0c-0.1,0.4,0.2,0.7,0.1,1.1c-0.1,0.3-0.4,0.5-0.5,0.7
		c-0.1,0.2-0.2,0.4-0.2,0.6c0,0.2,0.1,0.4,0.2,0.6c0.2,0.3,0.5,0.5,0.6,0.8c0.1,0.4-0.2,0.9-0.5,1.2c-0.6,0.6-1.1,1.3-1.6,2
		c-0.1,0.2-0.2,0.4-0.3,0.6c0,0.4,0.4,0.8,0.3,1.3c-0.1,0.3-0.4,0.6-0.7,0.8c-1.1,0.7-2,1.9-2,3.2c-0.3-2.1-1.1-4-2.5-5.6
		c-0.4-0.4-0.8-0.9-0.9-1.4c-0.1-0.2-0.1-0.5-0.1-0.7c-0.3-0.7-1.1-1-1.4-1.6c-0.3-0.4-0.3-1-0.6-1.4c-0.3-0.4-0.8-0.5-1.1-0.8
		c-0.1-0.3-0.3-0.5-0.3-0.8c-0.1-0.2-0.3-0.4-0.5-0.6c0,0-0.1-0.1-0.1-0.1c0,0,0.1-0.1,0.1-0.1c0-0.1,0-0.1,0-0.2
		c0-0.3-0.3-0.5-0.6-0.6c-0.3-0.2-0.7-0.4-1-0.6c0.3-0.2,0.6-0.4,0.9-0.7c0.3-0.5,0.4-1,0.3-1.5c0-0.4-0.2-0.8-0.5-1.2
		c-0.2-0.2-0.4-0.3-0.5-0.5c-0.4-0.4-0.6-1.1-0.8-1.6c-0.2-0.8-0.6-1.6-1.3-2c-0.3-0.2-0.7-0.3-1.1-0.5c-0.3-0.2-0.6-0.6-0.5-1
		c0.1-0.3,0.3-0.4,0.5-0.6c0.2-0.3,0.3-0.6,0.2-1c-0.1-0.3-0.3-0.6-0.5-0.8c-0.2-0.1-0.4-0.2-0.5-0.4c-0.1,0-0.3-0.1-0.4-0.2
		c-0.1-0.1-0.2-0.2-0.2-0.4c-0.1-0.3-0.1-0.6,0-0.9c0.1-0.5,0.1-0.9,0.2-1.4c0.1,0,0.2,0.1,0.4,0.1c0.1,0,0.2,0,0.4-0.1
		c0.2,0.4,0.5,0.7,0.8,1c0.8,0.9,1.4,2,1.8,3.1c0.1,0.4,0.3,0.9,0.7,1.1c0.1,0.1,0.3,0.1,0.4,0.2c0.2,0.1,0.3,0.2,0.4,0.4
		c0.3,0.4,0.6,0.8,0.9,1.2l0,0.1c0,0,0,0.1,0,0.1c0.1,0.1,0.1,0.1,0.2,0.1c0.9,0.2,2,0.4,2.8-0.1c0.7-0.5,1.1-1.4,1.7-2
		c0.4-0.4,1.1-0.8,1.2-1.4c-0.1,0-0.3-0.1-0.4-0.2c0.1-0.1,0.3-0.3,0.4-0.4c0.3-0.2,0.5-0.5,0.7-0.8c0.2-0.4,0.4-0.7,0.5-1.1
		c0.5-1.4,1-2.8,1.5-4.2c0.2-0.7,0.5-1.3,0.8-2c0.3-0.7,0.7-1.4,1-2.1c0.9-1.8,1.5-3.7,2-5.6c0.1-0.3,0.1-0.5,0.1-0.8
		c-0.1-0.4-0.4-0.8-0.7-1.1c-0.3-0.3-0.7-0.6-1.1-0.9c-0.2-0.1-0.4-0.2-0.7-0.2c-0.2,0-0.5,0-0.7,0c-0.7,0.2-1.1,0.9-1.2,1.5
		c-0.1,0.7-0.1,1.4-0.2,2c-0.1,1-0.4,1.9-0.5,2.9c0,0.6,0,1.1-0.1,1.7c-0.1,0.7-0.4,1.5-0.8,2.1c-0.8,1.6-1.9,2.9-3.3,4.1
		c-0.2,0.1-0.3,0.3-0.5,0.4c0-0.1,0-0.2,0-0.3c-0.1,0-0.2,0.1-0.3,0.1c0-0.1,0-0.3,0-0.4c-0.2-0.6-1.1-0.8-1.3-1.4
		c0-0.2,0-0.3,0-0.5c-0.1-0.5-0.4-1-0.6-1.5c-0.1-0.5,0-1-0.3-1.5c-0.2-0.3-0.4-0.5-0.7-0.8c-0.3-0.4-0.5-0.8-0.6-1.2
		c0-0.1-0.1-0.3-0.1-0.4c0-0.3,0-0.6-0.1-0.8c-0.2-0.6-0.8-0.9-1-1.5c-0.2-0.5-0.1-1-0.4-1.4c-0.2-0.2-0.4-0.3-0.6-0.4
		c-1.2-0.5-2.4-0.7-3.6-0.9c-0.7-0.1-1.5-0.1-2-0.6c-0.6-0.6-0.6-1.6-1.3-2c-0.6-0.4-1.5-0.1-1.9,0.4c-0.1,0.1-0.1,0.2-0.2,0.3
		c-0.1-0.3-0.1-0.7-0.1-1c0-0.1,0-0.2,0-0.3c1.1-0.4,2.1-1.1,2.8-2.2c0,0,0,0,0,0l0,0.1c0.1,0.2,0.2,0.4,0.4,0.4
		c0.1,0,0.2,0,0.3-0.1c0.2-0.1,0.3-0.2,0.4-0.4c0.1-0.1,0.1-0.1,0.2-0.2c0.1-0.2,0.2-0.3,0.3-0.5c0.1-0.3,0.2-0.6,0.3-0.9
		c0-0.3,0.1-0.6,0.1-0.9c0-0.2,0.1-0.5,0.2-0.7c0-0.1,0.1-0.1,0.1-0.2c0-0.1,0.1-0.2,0.1-0.3c0.2-0.5,0.2-1.1,0.3-1.6
		c0-0.1,0-0.2,0-0.3c0-0.4-0.1-0.7-0.2-1c-0.1-0.3-0.4-0.6-0.6-0.9c-0.4-0.4-1-0.5-1.3-1c-0.2-0.3-0.3-0.7-0.4-1.1
		c-0.1-0.5-0.4-0.9-0.7-1.2c-0.4-0.3-0.8-0.5-1.3-0.6c-0.6-0.1-1.1,0.1-1.6,0.4l0,0c-0.3,0.2-0.5,0.4-0.6,0.7
		c-0.3-0.1-0.6-0.3-0.9-0.5c-0.3-0.2-0.5-0.5-0.7-0.8c-0.2-0.2-0.5-0.4-0.9-0.4c-0.3-0.1-0.6,0-1,0.1c-0.3,0.1-0.6,0.3-0.8,0.6
		c-0.2,0.3-0.4,0.6-0.5,0.9c-0.1,0.5-0.1,1.1-0.4,1.6c-0.2,0.3-0.6,0.5-0.9,0.8c-0.2,0.2-0.3,0.4-0.3,0.7c0,0.1,0,0.3,0,0.4
		c0,0.1,0,0.1,0,0.2c0,0,0,0,0,0c0,0.1,0,0.1,0,0.2c0.1,0.3,0.2,0.5,0.4,0.7c0.2,0.2,0.4,0.3,0.6,0.4c0.1,0,0.2,0.1,0.3,0.1l0.3,0.1
		l0.1,0c-0.4,0.7-0.6,1.4-0.6,2.2c0,0.8,0.1,1.6,0.5,2.3c0,0.1,0,0.1,0,0.2c0,1,0,2,0.1,3c0,0.4,0.1,0.8-0.2,1.1
		c-0.1,0.1-0.2,0.2-0.4,0.3c0.1-0.2,0.3-0.4,0.4-0.5c-0.4-0.4-0.9-0.4-1.4-0.4c-1,0.1-1.9,0.4-2.8,0.9c-0.6,0.3-1.2,0.8-1.8,0.7
		c-0.4,0-0.8-0.3-1.1-0.2c-0.2,0.1-0.4,0.2-0.6,0.3c-0.1,0.1-0.3,0.2-0.5,0.1c-0.4-0.5-1-0.8-1.5-1.2c-0.5-0.5-1-1-1.5-1.6
		c-0.8-1-1.6-2-2.5-3c-0.7-0.8-1.4-1.8-1.5-2.8c0-0.1,0-0.2,0-0.3c0-0.5,0.1-1,0.2-1.5c0-0.1,0-0.2,0-0.4c-0.1-0.3-0.4-0.3-0.6-0.4
		c0-0.2,0.1-0.4,0.1-0.6c0.1-2.2,0-4.4,0.5-6.6c0.2-0.8,0.5-1.7,1.1-2.3c0.9-0.9,2.5-1.2,3.2-2.3c0.6-0.9,0.4-2.2-0.4-3.1
		c-0.7-0.8-1.9-1.2-3-1.1c-0.3,0-0.6,0.1-0.9,0.2c-0.2,0.2-0.4,0.5-0.5,0.8l-1.1,2.7c-0.3,0.7-0.6,1.4-0.8,2.1
		c-0.3,1.1-0.4,2.3-0.6,3.4c0,0.9-0.6,1.9-0.9,2.7c-0.3,0.9-0.7,1.8-1,2.7c-0.1,0.2-0.3,0.9-0.5,1.5c-0.1,0-0.1,0.1-0.2,0.1
		c-0.1,0.2-0.3,0.3-0.4,0.5c-0.2,0.3-0.6,0.5-0.9,0.8c-0.3,0.3-0.3,0.8,0,1c0.1,0,0.1,0,0.2,0c0,0,0.1,0,0.1,0
		c0.4,0.1,0.5,0.6,0.5,1c-0.1,0.4-0.3,0.8-0.3,1.2c-0.1,0.7,0.3,1.4,0.7,1.9c0.4,0.6,0.9,1.3,1.4,1.8c0.4,0.4,0.8,0.8,1.1,1.2
		c1.4,1.4,2.5,3.1,3.7,4.6c0.4,0.6,1,1.1,1.5,1.6c0.4,0.3,0.7,0.5,1.1,0.8l2.1,1.3c0.2,0.2,0.5,0.3,0.8,0.4c0.1,0,0.2,0,0.3,0
		c0,0.1,0,0.1,0,0.2c0.2,0.7,0.5,1.3,0.6,2c0,0.7,0,1.4,0,2.1c0,0.6,0.2,1.3,0.2,1.9c0.1,1.2-0.2,2.4-0.5,3.6
		c-0.4,1.7-0.7,3.5-1.5,5c-0.2,0.4-0.5,0.9-0.5,1.4c0,0.1,0,0.1,0,0.2l-0.4,0.2c-0.1,0.1-0.2,0.1-0.3,0.2c-0.5,0.3-1,0.7-1.2,1.2
		c-0.2,0.4-0.1,0.9-0.3,1.4c0,0,0,0,0,0.1c-0.2,0.4-0.6,0.7-0.7,1.1c-0.1,0.3,0.1,0.7,0,1c0,0,0,0,0,0c-0.1,0.2-0.1,0.3-0.1,0.5
		c0,0.1,0,0.1,0,0.2c0,0.2,0.2,0.4,0.3,0.5c0.1,0.1,0.2,0.2,0.3,0.2c0.1,0.1,0.2,0.1,0.3,0.2l0.1,0c0.1,0.1,0.2,0.1,0.3,0.1l0.1,0
		c0.1,0.1,0.2,0.1,0.3,0.1l0.1,0c0.1,0,0.2,0.1,0.3,0.1l0.1,0l0.1,0l0.3,0.1l0.1,0c0.1,0,0.2,0,0.3,0h0.1c0.1,0,0.2,0,0.3,0h0.1
		c0.1,0,0.2,0,0.3,0h0.1c0.1,0,0.2,0,0.4,0h0c0.1,0,0.2,0,0.3-0.1l0.1,0c0.1,0,0.2,0,0.3-0.1l0.1,0c0.1,0,0.2-0.1,0.4-0.1
		c0.4-0.2,0.8-0.4,1.2-0.6c0.3-0.1,0.5-0.3,0.8-0.4c0.2-0.1,0.4-0.2,0.6-0.3c0.5-0.2,1-0.3,1.5-0.3c0.3,0,0.5,0.1,0.8,0.2
		c0,0,0,0.1,0,0.1c0.2,1.2,0.4,2.4,0.6,3.7c0.3-0.2,0.7-0.5,1.1-0.6c-0.1,0.2-0.1,0.4-0.1,0.6c0,0.2,0,0.3,0,0.5
		c0,0.2,0.1,0.5-0.1,0.7c-0.1,0.1-0.3,0.2-0.3,0.3c0,0.1,0,0.3,0,0.4c0,0.2-0.1,0.3-0.2,0.4c-0.1,0.1-0.3,0.2-0.4,0.2
		c0.1,0.2,0.1,0.4,0,0.6c-0.1,0.2-0.2,0.4-0.4,0.5c-0.1,0.1-0.2,0.1-0.3,0.2c-0.1,0.1-0.1,0.2-0.2,0.4c-0.3,1.3-1,2.4-2,3.3
		c-0.4,0.3-0.7,0.6-1,1c-0.2,0.3-0.3,0.6-0.4,0.9c-0.7,1.7-1.4,3.3-2.1,5c-0.4,0.9-0.8,1.9-0.9,2.9c-0.3,2.7-2.8,5.1-2.3,7.8
		c0.1,0.7,0.4,1.3,0.8,1.9c0.5,0.6,1.3,1,2,1.3c2,0.8,4,1.2,6.1,1.6l3.2,0.7c0.6,0.1,1.3,0.2,1.9,0.3c0.8,0.1,1.6,0,2.3,0.2
		c0.5,0.1,0.9,0.3,1.4,0.4c0.4,0,0.9-0.1,1.2,0.3c0.2,0.3,0.1,0.8,0.3,1.1c0.4,0.5,1.3,0,1.7,0.5c0.1,0.2,0.2,0.4,0.3,0.6
		c0.1,0.1,0.1,0.2,0.3,0.3c0,0.1,0,0.3,0,0.4c-0.1,0.6-0.2,1.2-0.4,1.7c-0.3,1-0.6,2.1-0.9,3.1c-0.1,0.4-0.2,0.7-0.3,1.1
		c0,0.2,0,0.4,0,0.6c0.1,0.6,0.4,1.1,0.9,1.3c0.4,0.1,0.9,0.1,1.2-0.2c0.4-0.2,0.7-0.4,1-0.7c0.6-0.4,1.1-0.9,1.5-1.5
		c1.3-1.9,0.9-4.5,1.8-6.6c0.6-1.4,1.8-2.5,2.1-4c0.1-0.3,0.1-0.6,0-0.9c-0.2-0.5-0.7-0.8-1.2-1h0c-0.4-0.1-0.8-0.3-1.3-0.4
		c-0.1,0-0.2,0-0.3-0.1c-0.2-0.2-0.4-0.4-0.6-0.7c0-0.2-0.1-0.3-0.1-0.4c0-0.1-0.1-0.1-0.2-0.1c-0.1,0-0.1-0.1-0.2-0.1
		c-0.3,0-0.6,0.1-0.9,0c-0.6,0-0.9-0.6-1.5-0.9c-0.5-0.3-1.1-0.2-1.6-0.2c-0.2,0-0.4,0-0.6,0c-0.2-0.1-0.4-0.2-0.6-0.4
		c-0.3-0.2-0.7-0.4-1.1-0.5c-0.4-0.1-0.8-0.1-1.2,0c-0.2,0.1-0.5,0.2-0.8,0.2c-0.5,0-0.8-0.5-1.2-0.8c-1-0.9-2.4-1.2-3.7-1.8
		c-0.2-0.1-0.3-0.2-0.4-0.4c-0.1-0.3,0.2-0.7,0.5-0.9l2.1-1.7c2.3-1.9,5.2-3.3,6.2-6.1c0.1-0.4,0.3-0.7,0.5-1
		c0.1-0.1,0.2-0.2,0.3-0.3c0.5-0.3,1-0.4,1.6-0.3c0.7,0.1,1.3,0.4,1.8,0.8c0.9,0.6,1.8,1.1,2.7,1.8c0.9,0.6,1.7,1.3,2.4,2
		c1.3,1.3,2.5,2.8,3.7,4.2c1.2,1.4,2.7,2.7,4.4,3.3c1.7,0.7,3.8,0.6,5.3-0.5c1.7-1.3,2.3-3.6,2.7-5.6c1-0.9,1.2-2.3,1.7-3.6
		c0.3-0.8,0.7-1.5,1-2.3c0.4-0.9,0.7-1.9,1-2.8c0.3-1,0.6-1.9,0.7-2.9c0.1-1.6-0.3-3.3,0.1-4.8c0.6-0.1,1.1-0.5,1.7-0.7
		c0.9-0.3,1.8-0.2,2.7-0.2h0.1c0.3,0,0.6,0,0.9-0.2c0.3-0.3,0.4-0.7,0.4-1.1C207.4,133.9,207.3,132.8,206.6,132.2z M169.6,88.7
		c-0.2,0.1-0.4,0.1-0.6,0L169.6,88.7z"/>
	<path class="st1" d="M170.7,104.9c-0.3,0.3-0.7,0.5-1.1,0.6l-1.8,0.6c-1,0.4-2,0.7-3,0.6c-0.6-0.1-3.1-0.4-3.4-0.9
		c-0.6-0.7,1.4-1.7,2.1-2.3c0.2-0.1,0.3-0.2,0.4-0.4c0.3-0.3,0.2-0.7,0.2-1.1c-0.1-1-0.2-2-0.1-3c0-0.2,0.1-0.5,0.1-0.7
		c0.3-1.2,1.3-0.7,2.2-0.4c1,0.3,2,0.8,3,1.3c0.3,0.2,0.5,0.4,0.7,0.6c0.4,0.6,0.2,1.3,0.2,2c-0.1,0.6-0.1,1.1,0.3,1.5
		c0.2,0.2,0.3,0.3,0.5,0.5c0.1,0.2,0.1,0.4,0.1,0.6C170.9,104.5,170.8,104.7,170.7,104.9z"/>
	<path class="st1" d="M145.7,86.5c0.3-1.1,0.3-2.3,0.6-3.4c0.2-0.7,0.5-1.4,0.8-2.1l1.1-2.6c0.1-0.3,0.3-0.6,0.5-0.8
		c0.3-0.2,0.6-0.2,0.9-0.2c1.1,0,2.3,0.3,3,1.1c0.7,0.8,1,2.1,0.4,3c-0.7,1.1-2.3,1.3-3.2,2.3c-0.6,0.6-0.9,1.4-1.1,2.3
		c-0.5,2.1-0.3,4.4-0.5,6.5c0,0.7-0.2,1.5-0.8,1.8c-0.4,0.2-0.7,0.3-1.1,0.2l-1.7,0c-0.3,0-1.3,0.2-1.5,0c-0.3-0.4,0.4-2.2,0.6-2.6
		c0.3-0.9,0.7-1.8,1-2.7C145.1,88.4,145.7,87.4,145.7,86.5z"/>
	<path class="st2" d="M180.2,166.5c-0.4,1.5-1.5,2.6-2.1,4c-0.9,2.1-0.5,4.7-1.8,6.6c-0.4,0.6-0.9,1.1-1.5,1.5
		c-0.3,0.3-0.7,0.5-1,0.7c-0.4,0.2-0.8,0.3-1.2,0.2c-0.5-0.2-0.9-0.8-0.9-1.3c0-0.2,0-0.4,0-0.6c0.1-0.4,0.1-0.8,0.3-1.1
		c0.3-1,0.6-2.1,0.9-3.1c0.2-0.6,0.3-1.1,0.4-1.7c0-0.6-0.4-1.5-0.2-2.1c0.1-0.3,0.4-0.5,0.5-0.7c0.2-0.3,0.3-0.7,0.4-1
		c0.2-0.7,0.4-1.5,0.8-2.1c0.3-0.4,0.6-0.7,1-0.9c0.3-0.2,0.6-0.4,0.9-0.5c0.3-0.1,0.7,0,1,0c0.4,0.1,0.9,0.2,1.3,0.4h0
		c0.5,0.2,1,0.5,1.2,1C180.3,165.9,180.3,166.2,180.2,166.5z"/>
	<path class="st2" d="M207.3,135.2c0,0.4-0.1,0.8-0.4,1.1c-0.3,0.2-0.6,0.2-0.9,0.2H206c-0.9,0-1.8-0.1-2.7,0.2
		c-0.7,0.2-1.3,0.6-1.9,0.7c-0.9,0.1-1.8-0.4-2.7-0.9c-0.8-0.4-1.6-0.8-2.4-1.1c-0.5-0.2-1.6-0.4-1.9-1c-0.1-0.3-0.2-0.6-0.2-0.9
		c0-0.1-0.1-0.3-0.2-0.4c-0.2-0.3-0.3-0.5-0.3-0.8c0-0.3,0.1-0.6,0.3-0.8c0.2-0.2,0.5-0.4,0.7-0.6c0.3-0.1,0.6-0.2,0.9-0.3
		c0.6,0,1.3,0,1.9,0.1l6.3,0.9c0.5,0.1,1,0.1,1.4,0.3c0.5,0.1,0.9,0.3,1.2,0.5C207.3,133.2,207.4,134.2,207.3,135.2z"/>
	<path class="st3" d="M201.8,136.8c-0.8,1.6-0.2,3.5-0.4,5.3c-0.1,1-0.3,2-0.7,2.9c-0.3,0.9-0.6,1.9-1,2.8c-0.3,0.8-0.7,1.5-1,2.3
		c-0.5,1.2-0.8,2.6-1.7,3.6c-0.4,2.1-1,4.4-2.7,5.6c-1.5,1.1-3.6,1.1-5.3,0.5c-1.7-0.7-3.2-1.9-4.4-3.3s-2.4-2.9-3.7-4.1
		c-0.8-0.7-1.6-1.4-2.4-2c-0.9-0.6-1.8-1.2-2.7-1.8c-0.6-0.4-1.2-0.7-1.8-0.8c-0.5-0.1-1.1,0-1.6,0.3c-0.1,0.1-0.2,0.2-0.3,0.3
		c-0.2,0.3-0.4,0.7-0.5,1c-1.1,2.8-3.9,4.2-6.2,6.1l-2.1,1.7c-0.3,0.2-0.6,0.6-0.5,0.9c0.1,0.2,0.3,0.3,0.4,0.4
		c1.2,0.6,2.6,0.8,3.7,1.8c0.4,0.3,0.7,0.8,1.2,0.8c0.3,0,0.5-0.1,0.8-0.2c0.4-0.1,0.8-0.1,1.2,0c0.4,0.1,0.8,0.2,1.1,0.5
		c0.2,0.2,0.4,0.3,0.6,0.4c0.2,0.1,0.4,0.1,0.6,0c0.5,0,1.1-0.1,1.6,0.2c0.5,0.2,0.9,0.8,1.5,0.9c0.3,0,0.6-0.1,0.9,0
		c0.1,0,0.1,0,0.2,0.1c0.1,0,0.1,0.1,0.2,0.1c0.1,0.1,0.1,0.3,0.1,0.4c0.1,0.4,0.5,0.6,0.7,0.9c0.4,0.5,0.4,1.1,0.4,1.6
		c-0.1,1.8-0.9,3.5-2.2,4.7c-0.4,0.4-0.9,0.6-1.4,0.8c-0.3,0.1-0.5,0-0.8-0.1c-0.2-0.1-0.4-0.3-0.6-0.5c-0.1-0.2-0.1-0.4-0.3-0.6
		c-0.4-0.5-1.3,0-1.7-0.5c-0.2-0.3-0.1-0.8-0.3-1.1c-0.2-0.3-0.8-0.3-1.2-0.3c-0.5,0-0.9-0.3-1.4-0.4c-0.8-0.2-1.6-0.1-2.3-0.2
		c-0.7-0.1-1.3-0.2-1.9-0.3l-3.2-0.7c-2.1-0.4-4.1-0.8-6.1-1.6c-0.8-0.3-1.5-0.6-2-1.2c-0.4-0.5-0.7-1.2-0.8-1.9
		c-0.5-2.7,2-5,2.3-7.8c0.1-1,0.5-1.9,0.9-2.9c0.7-1.7,1.4-3.3,2.1-5c0.1-0.3,0.3-0.6,0.4-0.9c0.3-0.4,0.6-0.7,1-1
		c1-0.9,1.7-2,2-3.3c0-0.1,0.1-0.3,0.2-0.4c0.1-0.1,0.2-0.1,0.3-0.2c0.2-0.1,0.3-0.3,0.4-0.5c0.1-0.2,0.1-0.4,0-0.6
		c0.2,0,0.3-0.1,0.4-0.2c0.1-0.1,0.2-0.3,0.2-0.4c0-0.1,0-0.3,0-0.4c0.1-0.1,0.2-0.2,0.3-0.3c0.1-0.2,0.1-0.5,0.1-0.7
		c0-0.2,0-0.3,0-0.5c0.1-0.5,0.3-1,0.7-1.4c0.6-0.6,1.5-0.4,2.3-0.6c0.8-0.2,1.7-0.4,2.4-0.8c2.2-0.9,4.5-1.4,6.9-1.6
		c2.4-0.2,4.8,0.2,7,1.1c0.3,0.1,0.6,0.3,0.9,0.5c0.2,0.2,0.4,0.3,0.5,0.6c0.1,0.3,0.2,0.5,0.3,0.8c0.3,0.4,0.8,0.5,1.1,0.8
		c0.3,0.4,0.3,0.9,0.6,1.4c0.4,0.6,1.2,0.9,1.4,1.6c0.1,0.2,0.1,0.4,0.1,0.7c0.1,0.6,0.5,1,0.9,1.4c1.3,1.6,2.2,3.5,2.5,5.6
		c0.1-1.3,1-2.4,2-3.1c0.3-0.2,0.6-0.4,0.7-0.7c0.1-0.4-0.4-0.8-0.3-1.3c0-0.2,0.1-0.4,0.3-0.6c0.5-0.7,1-1.4,1.6-2
		c0.3-0.3,0.7-0.8,0.5-1.2c-0.1-0.3-0.4-0.5-0.6-0.8c-0.1-0.2-0.2-0.4-0.2-0.6c0-0.2,0.1-0.4,0.2-0.6c0.2-0.2,0.5-0.4,0.5-0.7
		c0.1-0.3-0.1-0.7-0.1-1.1c0.1-0.3,0.3-0.5,0.5-0.7c0.3-0.3,0.7-0.6,1.1-0.7c0.7-0.3,1.4-0.2,2.1-0.1c1.2,0.2,2.5,0.4,3.2,1.4
		C201.9,135.2,202.1,136.2,201.8,136.8z"/>
	<path class="st4" d="M207.3,135.2c0,0.4-0.1,0.8-0.4,1.1c-0.3,0.2-0.6,0.2-0.9,0.2H206c0.1-0.5,0.7-0.8,0.9-1.4c0-0.2,0-0.3,0-0.5
		c0-0.2-0.1-0.3-0.2-0.4c-0.5-0.7-1.4-1.1-2.3-1.4c-2.5-0.8-5.1-1-7.7-0.6c-0.7,0.1-1.4,0.3-2,0.6c-0.2,0.1-0.4,0.3-0.6,0.4
		c-0.2-0.3-0.3-0.5-0.3-0.8c0-0.3,0.1-0.6,0.3-0.8c0.2-0.2,0.5-0.4,0.7-0.6c0.3-0.1,0.6-0.2,0.9-0.3c0.6,0,1.3,0,1.9,0.1l6.3,0.9
		c0.5,0.1,1,0.1,1.4,0.3c0.5,0.1,0.9,0.3,1.2,0.5C207.3,133.2,207.4,134.2,207.3,135.2z"/>
	<path class="st4" d="M180.2,166.5c-0.4,1.5-1.5,2.6-2.1,4c-0.9,2.1-0.5,4.7-1.8,6.6c-0.4,0.6-0.9,1.1-1.5,1.5
		c-0.3,0.3-0.7,0.5-1,0.7c-0.4,0.2-0.8,0.3-1.2,0.2c-0.5-0.2-0.9-0.8-0.9-1.3c0-0.2,0-0.4,0-0.6l0,0c0.2,0.5,0.6,1.1,1.2,1.2
		c0.2,0,0.4,0,0.6-0.1c0.2-0.1,0.4-0.2,0.5-0.3c0.8-0.7,1.3-1.7,1.8-2.7c0.4-0.7,0.7-1.4,0.9-2.2c0.1-0.4,0.2-0.9,0.3-1.3
		c0.5-2.1,2.1-3.8,2.5-6c0-0.1,0-0.3,0-0.4c0-0.2-0.1-0.4-0.2-0.6c-0.1-0.2-0.2-0.4-0.2-0.6c0.5,0.2,1,0.5,1.2,1
		C180.3,165.9,180.3,166.2,180.2,166.5z"/>
	<path class="st4" d="M176.4,162.9c-0.2,0.6-0.6,1.2-1.1,1.6c-0.7,0.6-1.6,0.9-2.5,1.1c-0.4,0.1-0.9,0.1-1.3,0
		c-0.6-0.2-1-0.7-1.6-0.9c-0.4-0.1-0.9,0-1.3-0.1c-0.8-0.1-1.3-0.7-1.9-1.1c-1.9-1.4-4.3-1.8-6.2-3.2c-0.1-0.1-0.2-0.1-0.2-0.2
		c0-0.1,0-0.2,0-0.3c0-0.8,0.2-1.7,0.6-2.4c0.3-0.5,0.6-1,1-1.5c1.7-2,3.3-4.1,5.3-5.8c0.8-0.7,1.7-1.4,2.8-1.7
		c0.6-0.2,1.7-0.4,2.5,0c-0.1,0.1-0.2,0.2-0.3,0.3c-0.2,0.3-0.4,0.7-0.5,1c-1.1,2.8-3.9,4.2-6.2,6.1l-2.1,1.7
		c-0.3,0.2-0.6,0.6-0.5,0.9c0.1,0.2,0.3,0.3,0.4,0.4c1.2,0.6,2.6,0.8,3.7,1.8c0.4,0.3,0.7,0.8,1.2,0.8c0.3,0,0.5-0.1,0.8-0.2
		c0.4-0.1,0.8-0.1,1.2,0c0.4,0.1,0.8,0.2,1.1,0.5c0.2,0.2,0.4,0.3,0.6,0.4c0.2,0.1,0.4,0.1,0.6,0c0.5,0,1.1-0.1,1.6,0.2
		c0.5,0.2,0.9,0.8,1.5,0.9C175.8,162.9,176.1,162.8,176.4,162.9z"/>
	<path class="st2" d="M152.9,128.3c-0.5,0.3-1,0.7-1.2,1.2c-0.2,0.4-0.1,0.9-0.3,1.4c-0.2,0.4-0.6,0.7-0.7,1.2c-0.1,0.3,0.1,0.7,0,1
		c-0.1,0.2-0.1,0.3-0.1,0.5c0,0.4,0.3,0.7,0.6,0.9c0.7,0.4,1.5,0.7,2.3,0.8c0.8,0.1,1.6,0,2.4-0.3c0.7-0.3,1.3-0.7,1.9-1
		c0.6-0.4,1.4-0.5,2.1-0.5c0.4,0,0.8,0.2,1.2,0.3c0.2,0,0.4,0,0.6,0c0.2-0.1,0.4-0.2,0.5-0.3c0.1-0.2,0.2-0.4,0.3-0.6
		c0.4-1.4,0.2-2.9-0.1-4.3c-0.3-1.4-0.8-2.8-1.2-4.2c-0.3-1-0.5-2.1-0.9-3.1c-0.4-1-1.1-1.9-2.1-2.3c-0.1,0-0.2-0.1-0.3,0
		c-0.1,0-0.1,0.1-0.2,0.1c-0.8,0.8-1.4,1.8-1.7,2.9c-0.4,1.2-0.5,2.5-0.9,3.7c-0.2,0.5-0.4,1.2-0.8,1.6
		C154,127.8,153.4,128,152.9,128.3z"/>
	<path class="st4" d="M162.5,132.8c0,0.2-0.1,0.4-0.3,0.6c-0.2,0.1-0.3,0.3-0.5,0.3c-0.2,0.1-0.4,0.1-0.6,0
		c-0.4-0.1-0.8-0.2-1.2-0.3c-0.7,0-1.5,0.1-2.1,0.5c-0.7,0.3-1.3,0.7-1.9,1c-1,0.4-2.1,0.4-3.1,0.2c-0.5-0.1-1.1-0.4-1.5-0.7
		c-0.3-0.2-0.6-0.5-0.6-0.9c0-0.2,0.1-0.4,0.1-0.5c0.1-0.3-0.1-0.7,0-1c0.1-0.5,0.5-0.8,0.7-1.2c0.2-0.4,0.1-0.9,0.3-1.4
		c0.2-0.5,0.7-0.9,1.2-1.2c0.5-0.3,1.1-0.6,1.4-0.9c0-0.1,0.1-0.1,0.1-0.2c0.3-0.4,0.5-0.9,0.6-1.4c0.4-1.2,0.5-2.5,0.9-3.7
		c0.4-1.1,1-2.1,1.8-2.9c0-0.1,0.1-0.1,0.2-0.1c0.1,0,0.2,0,0.3,0c1,0.4,1.7,1.3,2.1,2.3s0.6,2,0.9,3.1c0.4,1.4,0.9,2.8,1.2,4.2
		C162.7,129.9,162.9,131.4,162.5,132.8z"/>
	<path class="st4" d="M170.1,101.7c-1.2,0.4-2.5,0.3-3.6-0.2c-1.1-0.5-2.1-1.4-2.6-2.6c0-0.2,0.1-0.5,0.1-0.7
		c0.3-1.2,1.3-0.7,2.2-0.4c1,0.3,2,0.8,3,1.3c0.3,0.2,0.5,0.4,0.7,0.6C170.3,100.3,170.2,101,170.1,101.7z"/>
	<path class="st1" d="M168.6,101.7c2.8,0,5.1-2.3,5.1-5.1c0-2.8-2.3-5.1-5.1-5.1c-2.8,0-5.1,2.3-5.1,5.1
		C163.5,99.4,165.8,101.7,168.6,101.7z"/>
	<path class="st4" d="M182.4,134.7c0,0.4-0.6,0.6-1,0.5c-1.5-0.1-3-0.5-4.5-0.4c-1.9,0.2-3.7,1.2-5.6,1.3c-0.7,0-1.5-0.1-2.2,0.1
		c-0.9,0.2-1.8,0.7-2.7,0.8c-0.8,0.1-1.7-0.2-2.5-0.2c-0.6,0-1.2,0.2-1.7,0.5c0.1-0.5,0.3-1,0.7-1.4c0.6-0.6,1.5-0.4,2.3-0.6
		c0.8-0.2,1.7-0.4,2.4-0.8c2.2-0.9,4.5-1.4,6.9-1.6c2.4-0.2,4.8,0.2,7,1.1c0.3,0.1,0.6,0.3,0.9,0.5
		C182.4,134.6,182.4,134.7,182.4,134.7z"/>
	<path class="st5" d="M166.2,105.9l-2.1-0.8l-0.9-0.3c-0.4-0.1-0.7-0.2-1.1-0.3c-1-0.1-1.9,0.6-2.5,1.4c-0.5,0.8-0.7,1.9-0.9,2.8
		c-0.2,1.3-0.4,2.7-0.6,4.1c-0.2,1.2-0.3,2.5-0.3,3.7c0.1,3.2,0.7,6.3,1.5,9.3c0.4,1.4,0.6,2.7,0.8,4.1c0.1,0.6,0.1,1.2,0.1,1.7
		c0.1,0.6,0.2,1.3,0.3,1.9l0.6,3.7c0.8-0.5,1.6-1,2.6-1c0.8,0,1.7,0.3,2.5,0.2c1-0.1,1.8-0.7,2.7-0.8c0.7-0.1,1.5,0,2.2-0.1
		c1.9-0.1,3.7-1.2,5.6-1.3c1.5-0.1,3,0.3,4.5,0.4c0.4,0,1-0.1,1-0.5c0-0.3-0.3-0.5-0.6-0.6c-1.2-0.7-2.4-1.6-3.5-2.5
		c-1-0.8-2-1.6-2.7-2.7c-1.7-2.6-1.1-6.1-2.5-8.8c-1.2-2.2,0-5.1,0-7.6c0-1.2,0-2.5-0.3-3.7c-0.2-0.7-0.4-1.3-0.7-2l-1-2.5
		c0-0.1-0.1-0.1-0.1-0.2c-0.1,0-0.1-0.1-0.2-0.1c-0.6,0-1.2,0.2-1.6,0.5c-0.5,0.4-0.8,0.9-1.2,1.3
		C167.5,105.8,166.8,106.2,166.2,105.9z"/>
	<path class="st2" d="M169.6,104.5c0.2-0.7,0.3-1.4,0.8-2c0.5-0.5,1.3-0.8,1.9-0.4c0.7,0.4,0.7,1.5,1.3,2c0.5,0.5,1.3,0.5,2,0.6
		c1.2,0.1,2.5,0.4,3.6,0.9c0.2,0.1,0.4,0.2,0.6,0.4c0.3,0.4,0.3,0.9,0.4,1.4c0.2,0.6,0.8,1,1,1.5c0.3,0.6,0,1.4-0.2,2
		c-0.4,1.2-0.6,2.4-1,3.6c-0.4,1.2-0.9,2.4-1.8,3.3c-0.4,0.4-1,0.8-1.5,0.5l-0.2,1.4c-0.1,0.3-0.1,0.6,0,0.9c0,0.2,0.1,0.3,0.2,0.4
		c0.1,0.1,0.2,0.2,0.4,0.2c0,0.2,0.3,0.3,0.5,0.4c0.1,0.1,0.3,0.2,0.3,0.4c0.1,0.1,0.2,0.3,0.2,0.5c0,0.2,0,0.3,0,0.5
		c0,0.2-0.1,0.3-0.2,0.5c-0.2,0.2-0.4,0.4-0.5,0.6c-0.1,0.4,0.2,0.8,0.5,1s0.7,0.3,1.1,0.5c0.7,0.4,1.1,1.2,1.3,2
		c0.2,0.6,0.3,1.2,0.8,1.6c0.2,0.2,0.4,0.3,0.5,0.5c0.3,0.3,0.4,0.7,0.5,1.2c0.1,0.5,0,1.1-0.3,1.5c-0.5,0.7-1.5,0.9-2.3,1.3
		c-1.4,0.6-2.5,1.5-3.7,2.4c-0.5,0.4-1.1,0.7-1.7,0.8c-0.8,0.1-1.6-0.3-2.5-0.3c-0.5,0-1,0.1-1.5,0.2l-1.5,0.3
		c0.1-1.2-0.6-2.4-0.9-3.5c-0.7-2.1-0.8-4.4-0.7-6.6c0.2-2.2,0.6-4.4,1.1-6.6c0.3-1.5,0.3-3.1,0.8-4.6c0.5-1.4,1.1-2.8,1.3-4.3
		C170.6,108.9,169,106.9,169.6,104.5z"/>
	<path class="st2" d="M181.1,109.2c0.1,0.3,0.2,0.5,0.3,0.8c0.1,0.4,0.3,0.9,0.6,1.2c0.3,0.2,0.5,0.5,0.7,0.8c0.2,0.4,0.1,1,0.3,1.5
		c0.1,0.5,0.5,1,0.6,1.5c0,0.2,0,0.3,0,0.5c0.2,0.6,1.1,0.8,1.3,1.4c0.1,0.4-0.1,0.8-0.1,1.3c0,0.1,0,0.3,0,0.4
		c-0.1,0.2-0.2,0.3-0.3,0.4c-0.8,0.8-1.4,1.8-1.7,3c-0.2,1.1-0.4,2.3-0.4,3.4l-1-1.3c-0.1-0.2-0.2-0.3-0.4-0.4
		c-0.1-0.1-0.3-0.1-0.4-0.2c-0.4-0.2-0.5-0.7-0.7-1.1c-0.4-1.1-1-2.2-1.8-3.1c-0.4-0.5-0.9-1-1-1.6c0-0.3,0-0.6,0-0.9
		c0.3-1.7,0.5-3.4,1.3-4.9c0.4-0.7,0.9-1.3,1.2-2C180.1,109.4,180.5,108.2,181.1,109.2z"/>
	<path class="st2" d="M156,110.8c0,0.2,0,0.4-0.2,0.6c-0.1,0.1-0.2,0.2-0.4,0.2c-0.1,0-0.3,0-0.4,0c-0.3-0.1-0.6-0.2-0.8-0.4
		c-0.7-0.4-1.4-0.9-2.1-1.3c-0.4-0.2-0.8-0.5-1.1-0.8c-0.6-0.5-1.1-1-1.5-1.6c-1.2-1.5-2.3-3.2-3.7-4.6c-0.4-0.4-0.8-0.7-1.1-1.1
		c-0.5-0.6-0.9-1.2-1.4-1.8c-0.4-0.6-0.8-1.2-0.7-1.9c0-0.4,0.2-0.8,0.3-1.2c0.1-0.4-0.1-0.9-0.5-1c0,0-0.1,0-0.1,0
		c-0.1,0-0.1,0-0.2,0c-0.4-0.1-0.3-0.7,0-1s0.6-0.4,0.9-0.8c0.1-0.2,0.2-0.4,0.4-0.5c0.2-0.1,0.4-0.2,0.6-0.3c1.5-0.4,3-0.5,4.5-0.2
		c0.3,0.1,0.5,0.2,0.6,0.4c0,0.1,0,0.2,0,0.4c-0.1,0.5-0.2,1-0.2,1.5c0,0.1,0,0.2,0,0.3c0.1,1.1,0.8,2,1.5,2.8c0.8,1,1.6,2,2.5,3
		c0.4,0.6,0.9,1.1,1.5,1.6c0.5,0.4,1.2,0.8,1.6,1.3c0.3,0.4,0.2,1,0.3,1.6C156.1,107.6,156.1,109.2,156,110.8z"/>
	<path class="st1" d="M188.4,121.4c0.3-0.2,0.5-0.5,0.7-0.8c0.2-0.4,0.4-0.7,0.5-1.1l1.5-4.2c0.2-0.7,0.5-1.3,0.8-2
		c0.3-0.7,0.7-1.4,1-2c0.9-1.8,1.5-3.6,2-5.5c0.1-0.3,0.1-0.5,0.1-0.8c-0.1-0.4-0.4-0.8-0.7-1.1c-0.3-0.3-0.7-0.6-1.1-0.9
		c-0.2-0.1-0.4-0.2-0.7-0.2c-0.2,0-0.5,0-0.7,0c-0.7,0.2-1.1,0.9-1.2,1.5s-0.1,1.4-0.2,2c-0.1,1-0.4,1.9-0.5,2.9
		c0,0.6,0,1.1-0.1,1.7c-0.1,0.7-0.4,1.5-0.8,2.1c-0.8,1.6-1.9,2.9-3.3,4.1c-0.4,0.3-0.7,0.6-1,0.9c-0.2,0.4-0.4,0.8-0.5,1.2
		c-0.2,0.6-0.1,1.3,0.2,1.9c0.4,0.7,1.2,1,2,1.2C187.4,122.5,187.7,122.2,188.4,121.4z"/>
	<path class="st2" d="M168.6,89.2c0.2-0.4,0.6-0.8,1-1c0.4-0.2,0.9-0.3,1.3-0.3c0.5,0.1,0.9,0.3,1.3,0.6c0.4,0.3,0.6,0.7,0.7,1.2
		c0.1,0.4,0.2,0.8,0.4,1.1c0.3,0.5,0.9,0.6,1.3,1c0.3,0.2,0.5,0.5,0.6,0.9c0.1,0.3,0.2,0.7,0.2,1c0,0.7-0.1,1.5-0.3,2.1
		c-0.1,0.3-0.2,0.6-0.3,0.9c-0.1,0.3-0.1,0.6-0.1,0.9c-0.1,0.4-0.2,0.8-0.4,1.1c-0.2,0.3-0.5,0.6-0.8,0.8c-0.1,0.1-0.2,0.1-0.3,0.1
		c-0.2,0-0.3-0.3-0.4-0.5c-0.4-1.2-0.3-2.6-1.1-3.5c-0.3-0.4-0.8-0.7-1.2-0.9c-0.2-0.1-0.4-0.2-0.6-0.2c-0.3,0-0.6,0.1-0.9,0.3
		c-0.5,0.4-1.1,0.6-1.8,0.8c-0.3,0.1-0.6,0.1-1,0s-0.6-0.2-0.9-0.4c-0.4-0.3-0.6-0.7-1-1c-0.4-0.2-0.8-0.2-1.2-0.4
		c-0.2-0.1-0.5-0.3-0.6-0.5c-0.2-0.2-0.3-0.4-0.4-0.7c-0.1-0.3-0.1-0.5,0-0.8c0.1-0.3,0.2-0.5,0.3-0.7c0.3-0.3,0.6-0.5,0.9-0.8
		c0.3-0.4,0.3-1,0.4-1.6c0.1-0.3,0.2-0.6,0.5-0.9c0.2-0.3,0.5-0.5,0.8-0.6c0.3-0.1,0.6-0.1,1-0.1c0.3,0.1,0.6,0.2,0.9,0.4
		c0.3,0.2,0.5,0.5,0.7,0.8C168,88.9,168.3,89.1,168.6,89.2c0.4,0,0.7,0,1-0.1"/>
	<path class="st4" d="M172.8,126.7c-0.1,0.1-0.3,0.3-0.3,0.5c0,0.2,0,0.4,0,0.6c0.1,0.1,2.7-0.4,3-0.4c0.7-0.1,1.9-0.1,2.4-0.7
		c0.8-1.1-1.7-0.9-2.2-0.8C174.8,126,173.5,126.1,172.8,126.7z"/>
	<path class="st2" d="M148.9,93.9c-0.1,0.5-0.2,1-0.2,1.5c-0.8,0.2-1.6-0.1-2.3-0.4l-2.1-0.7c-0.1-0.1-0.3-0.1-0.4-0.1
		c-0.1,0-0.3,0.1-0.4,0.2c-0.3,0.4-0.8,1-1.3,1.4c-0.1,0-0.1,0-0.2,0c-0.4-0.1-0.3-0.7,0-1c0.3-0.3,0.6-0.4,0.9-0.8
		c0.1-0.2,0.2-0.4,0.4-0.5c0.2-0.1,0.4-0.2,0.6-0.3c1.5-0.4,3-0.5,4.5-0.2c0.3,0.1,0.5,0.2,0.6,0.4
		C148.9,93.6,148.9,93.8,148.9,93.9z"/>
	<path class="st4" d="M148.9,93.9c-0.1,0.5-0.2,1-0.2,1.5c-0.8,0.2-1.6-0.1-2.3-0.4l-2.1-0.7c-0.1-0.1-0.3-0.1-0.4-0.1
		c-0.1,0-0.3,0.1-0.4,0.2c-0.3,0.4-0.8,1-1.3,1.4c-0.1,0-0.1,0-0.2,0c-0.4-0.1-0.3-0.7,0-1c0.3-0.3,0.6-0.4,0.9-0.8
		c0.1-0.2,0.2-0.4,0.4-0.5c0.2-0.1,0.4-0.2,0.6-0.3c1.5-0.4,3-0.5,4.5-0.2c0.3,0.1,0.5,0.2,0.6,0.4
		C148.9,93.6,148.9,93.8,148.9,93.9z"/>
	<path class="st4" d="M168.2,142.2c0.4,0.1,0.8,0.3,0.9,0.7l-2.9-0.7l-1.5-0.4c-0.3-0.1-1.2-0.1-1.4-0.4c-0.3-0.3,0.6-0.1,0.8-0.1
		c0.5,0.1,1,0.2,1.5,0.2C166.4,141.7,167.3,142,168.2,142.2z"/>
	<path class="st4" d="M169.3,144.9c-0.3-0.2-1-0.2-1.3-0.2c-0.5-0.1-0.9-0.3-1.4-0.4c-0.9-0.3-1.8-0.6-2.8-0.9c-0.2,0-0.8,0-0.7-0.3
		c0-0.2,0.6-0.3,0.7-0.3c0.8-0.1,1.9,0.3,2.6,0.6C167.5,143.8,168.4,144.2,169.3,144.9z"/>
	<path class="st4" d="M167.4,139.9c-0.9-0.3-1.8-0.8-2.7-0.9c-0.3,0-0.5-0.1-0.7-0.2c-0.1-0.1-0.2-0.3-0.2-0.4c0.6,0,1.4,0.2,2,0.5
		c0.3,0.1,0.6,0.3,0.9,0.5C166.9,139.5,167.2,139.8,167.4,139.9z"/>
	<path class="st2" d="M185.2,117.1c-0.2,1.1,0.1,2.1,0.6,3c0.6,0.9,1.5,1.6,2.5,1.9c-0.1,0.6-0.7,0.9-1.2,1.4
		c-0.6,0.6-0.9,1.5-1.7,2c-0.8,0.5-1.9,0.3-2.8,0.1c-0.1,0-0.2-0.1-0.2-0.1c0,0,0-0.1,0-0.1c-0.3-1.1-0.5-2.3-0.2-3.5
		c0.3-1,0.9-1.8,1.4-2.6C184.1,118.3,184.1,117.4,185.2,117.1z"/>
	<path class="st2" d="M162.5,102.5c-1,0.1-1.9,0.4-2.8,0.9c-0.6,0.3-1.2,0.8-1.8,0.7c-0.4,0-0.8-0.3-1.1-0.2
		c-0.2,0.1-0.4,0.2-0.6,0.3c-0.1,0.1-0.2,0.1-0.3,0.1c-0.1,0-0.2,0-0.3,0l-0.3,3.5c-0.1,1.3-0.2,2.7,0.1,4c0.2,0.7,0.5,1.3,0.6,2
		c0,0.7,0,1.4,0,2.1c0,0.6,0.2,1.3,0.2,1.9c0.1,1.2-0.2,2.4-0.5,3.5c-0.4,1.7-0.7,3.5-1.5,5c-0.2,0.4-0.5,0.9-0.5,1.4
		c0,0.1,0,0.1,0,0.2c-0.3,0.1-0.5,0.3-0.7,0.4c-0.5,0.3-1,0.7-1.2,1.2c-0.2,0.4-0.1,0.9-0.3,1.4c-0.2,0.4-0.6,0.7-0.7,1.2
		c-0.1,0.3,0.1,0.7,0,1c-0.1,0.2-0.1,0.3-0.1,0.5c0,0.4,0.3,0.7,0.6,0.9c0.5,0.3,1,0.5,1.5,0.7l1.5-6c1.4-2.6,2.5-5.2,3.4-8
		c0.3-0.9,0.6-1.8,1-2.6c0.3-0.5,0.5-1,0.8-1.5c0.2-0.6,0.3-1.3,0.4-2c0.1-0.8,0.3-1.6,0.6-2.3c0.3-0.8,0.6-1.6,0.6-2.5
		c0.1-1.2-0.4-2.5,0.1-3.7c0.2-0.4,0.5-0.8,0.8-1.2c0.7-0.8,1.3-1.6,1.9-2.5C163.5,102.5,163,102.5,162.5,102.5z"/>
	<g class="st6">
		<path class="st4" d="M169.7,88.4l-0.3,0l0,0C169.4,88.5,169.5,88.4,169.7,88.4z"/>
		<path class="st4" d="M175.5,93.7c-0.1,0.5-0.2,1-0.3,1.5c-0.1,0.3-0.2,0.6-0.3,0.9c-0.1,0.3-0.1,0.6-0.1,0.9
			c-0.1,0.4-0.2,0.8-0.4,1.1c-0.2,0.3-0.5,0.6-0.8,0.8c-0.1,0.1-0.2,0.1-0.3,0.1c-0.2,0-0.3-0.3-0.4-0.5c-0.4-1.2-0.3-2.6-1.1-3.5
			c-0.3-0.4-0.8-0.7-1.2-0.9c-0.2-0.1-0.4-0.2-0.6-0.2c-0.3,0-0.6,0.1-0.9,0.3c-0.5,0.4-1.1,0.6-1.8,0.8c-0.3,0.1-0.6,0.1-1,0
			s-0.6-0.2-0.9-0.4c-0.4-0.3-0.6-0.7-1-1c-0.4-0.2-0.8-0.2-1.2-0.4c-0.2-0.1-0.5-0.3-0.6-0.5c-0.2-0.2-0.3-0.4-0.4-0.7
			c0,0,0-0.1,0-0.1c-0.1,0.3-0.1,0.6,0,0.9c0.1,0.3,0.2,0.5,0.4,0.7c0.2,0.2,0.4,0.4,0.6,0.5c0.4,0.2,0.8,0.2,1.2,0.4
			c0.4,0.2,0.6,0.7,1,1c0.3,0.2,0.6,0.3,0.9,0.4s0.6,0.1,1,0c0.6-0.2,1.2-0.4,1.8-0.8c0.3-0.2,0.6-0.3,0.9-0.3
			c0.2,0,0.4,0.1,0.6,0.2c0.5,0.2,0.9,0.5,1.2,0.9c0.7,0.9,0.6,2.4,1.1,3.5c0.1,0.2,0.2,0.4,0.4,0.5c0.1,0,0.2,0,0.3-0.1
			c0.3-0.2,0.6-0.5,0.8-0.8c0.2-0.3,0.3-0.7,0.4-1.1c0-0.3,0.1-0.6,0.1-0.9c0.1-0.3,0.2-0.6,0.3-0.9c0.2-0.7,0.4-1.4,0.3-2.1
			C175.5,93.8,175.5,93.7,175.5,93.7z"/>
	</g>
	<path class="st7" d="M159.4,114.1l-0.2,2.3c0,0.3-0.6,7.8-5.1,16.6c-3.8,7.5-11.3,17.4-25.3,22.9c-1.1,0.4-2.2,0.8-3.4,1.2
		l-1.3-4.1c3.3-1,6.5-2.4,9.5-4.1c7.2-4.1,12.7-10,16.6-17.6c2.1-4,3.5-8.4,4.4-12.8h-16v-4.3H159.4z"/>
	<path class="st8" d="M127.1,156c14-5.5,21.5-15.3,25.3-22.9c4.5-8.8,5.1-16.3,5.1-16.6l0.2-2.3h1.8l-0.2,2.3
		c0,0.3-0.6,7.8-5.1,16.6c-3.8,7.5-11.3,17.4-25.3,22.9c-1.1,0.4-2.2,0.8-3.4,1.2l-0.2-0.5C125.9,156.4,126.5,156.2,127.1,156z"/>
	<path class="st7" d="M99,153l-1.3,4.1c-1.2-0.4-2.3-0.8-3.4-1.2c-14-5.5-21.5-15.3-25.3-22.9c-4.5-8.8-5.1-16.3-5.1-16.6l-0.2-2.3
		h20.8v4.3h-16c0.8,4.5,2.3,8.8,4.4,12.8c3.9,7.6,9.4,13.5,16.6,17.6C92.5,150.6,95.7,152,99,153z"/>
	<path class="st8" d="M96,156c-14-5.5-21.5-15.3-25.3-22.9c-4.5-8.8-5.1-16.3-5.1-16.6l-0.2-2.3h-1.8l0.2,2.3
		c0,0.3,0.6,7.8,5.1,16.6c3.8,7.5,11.3,17.4,25.3,22.9c1.1,0.4,2.2,0.8,3.4,1.2l0.2-0.5C97.2,156.4,96.6,156.2,96,156z"/>
	<path class="st7" d="M135.6,192.9v23.4H87.5v-23.4l1.5-2c15.6-5.5,18.7-19.9,19.4-25.6c0.1-0.8,0.1-1.6,0.2-2.4h5.9
		c0,0.8,0.1,1.6,0.2,2.4c0.6,5.7,3.8,20.1,19.4,25.6L135.6,192.9z"/>
	<path class="st4" d="M135.6,192.9H87.5v2.9h48.1V192.9z"/>
	<path class="st8" d="M91.6,190.9c15.6-5.5,18.7-19.9,19.4-25.6c0.1-0.8,0.1-1.6,0.2-2.4h-2.5c0,0.8-0.1,1.6-0.2,2.4
		c-0.6,5.7-3.8,20.1-19.4,25.6l-1.5,2v23.4H90v-23.4L91.6,190.9z"/>
	<path class="st4" d="M80.2,114.1h4.3v4.3h-3.9C80.4,117,80.3,115.6,80.2,114.1z"/>
	<path class="st4" d="M99,153l-1.3,4.1c-1.2-0.4-2.3-0.8-3.4-1.2c-1.8-2.2-3.4-4.6-4.8-7.1C92.5,150.6,95.7,152,99,153z"/>
	<path class="st4" d="M124.1,153c3.3-1,6.5-2.4,9.5-4.1c-1.4,2.5-3,4.9-4.8,7.1c-1.1,0.4-2.2,0.8-3.4,1.2L124.1,153z"/>
	<path class="st4" d="M142.9,114.1c-0.1,1.5-0.2,2.9-0.4,4.3h-3.9v-4.3H142.9z"/>
	<path class="st4" d="M114.7,165.3c-2.1,0.4-4.2,0.4-6.3,0c0.1-0.8,0.1-1.6,0.2-2.4h5.9C114.5,163.7,114.6,164.5,114.7,165.3z"/>
	<path class="st7" d="M80.7,107c0.1,32.1,13.9,58.1,30.8,58.1c17,0,30.7-26,30.8-58.1H80.7z"/>
	<path class="st8" d="M86.2,107h-5.5c0.1,32.1,13.9,58.1,30.8,58.1c0.9,0,1.8-0.1,2.7-0.2C98.6,162.2,86.3,137.3,86.2,107z"/>
	<path class="st2" d="M127.9,201.9H95.2v8.4h32.7V201.9z"/>
	<path class="st8" d="M96.7,203h31.2v-1.1H95.2v8.4h1.5V203z"/>
	
		<linearGradient id="SVGID_2_" gradientUnits="userSpaceOnUse" x1="10120.4951" y1="556.7083" x2="22702.5957" y2="556.7083" gradientTransform="matrix(1 0 0 -1 0 712.2488)">
		<stop  offset="0" style="stop-color:#808080;stop-opacity:0.25"/>
		<stop  offset="0.54" style="stop-color:#808080;stop-opacity:0.12"/>
		<stop  offset="1" style="stop-color:#808080;stop-opacity:0.1"/>
	</linearGradient>
	<path class="st9" d="M63.3,138c-0.6-0.2-4.1-2.9-4.3-4.2c-0.3-1.2,1.8-12.8,1.8-12.8s-0.2,0-0.5,0v-0.2l0.4-15.2
		c0,0,1.8-10.2-1.6-9.6c-3.3,0.6-1.2,9.6-1.2,9.6s-0.4,4.6-0.6,5.9c-0.3,1.3-1.4,6.7-0.6,8.4c0,0.1,0.1,0.1,0.1,0.2
		c0,0,0.1,5.7-1.3,6.5c-1.4,0.7-1.9,4.5-2,4.8l-0.1,0c-0.4-0.3-0.8-0.6-1.1-1c0,0-0.1-0.1-0.1-0.1c0.9-1.1,1.4-2.4,1.4-3.8
		c0-1.4-0.6-2.8-1.6-3.8c-0.5-0.5-1-0.9-1.6-1.2c0-0.5-0.1-1-0.3-1.4c-0.7-1.4-4.3-3.3-6.9-3.3c-1.2,0-2.2,0.3-2.5,1.2
		c-0.2,0.5-0.1,1-0.2,1.5c-0.2,1-0.8,1.8-1.6,2.5c-0.3-0.4-0.7-0.7-1.1-1.1c-0.9-0.7-2.5-2.8-2.5-2.8s-5.3-5.5-5.7-7
		c-0.4-1.5-5.7-10.5-6.9-9c-1.2,1.6,4.1,8.4,4.1,8.4s1,2.5,1.8,3.3c0.8,0.8,6.6,9.3,6.6,9.3l0.3,0.6c-1.2,0.7-2.4,1.5-2.8,2.8
		c-0.6,1.9,0.7,3.8,1.6,5.6c1.7,3.5,2,7.9-0.3,11.1c-2,2.8-5.5,4.1-8.7,5.3c1.6,1.2,3.5,1.9,5.5,1.8c-0.7,2.2-3.4,2.9-5.7,3.3
		c1.2,1.1,2.9,1.6,4.5,1.8c0.8,0.1,1.6,0.2,2.4,0.2h0.2l0.2,0c0.3,0,0.6-0.1,0.8-0.1c1.2-0.2,2.3-0.9,2.9-1.9
		c0.5-0.9,0.7-2.1,1.6-2.5c0.2-0.1,0.5-0.2,0.8-0.2h0c0.2,0,0.4,0,0.5,0l3.9,0c0.2,0,0.3,0,0.5,0c1.1,0,2.3-0.2,2.8-1.1
		c0.2-0.4,0.3-0.9,0.3-1.4c0.1-1.2,0-2.5,0-3.7c0.3,2.2,0.7,5.7-0.1,7c-0.7,1-1.5,1.8-2.4,2.6c-0.2,0.2-0.4,0.4-0.6,0.6
		c-0.1,0.1-0.2,0.1-0.2,0.1l-0.1,0.2c-0.3,0.4-0.5,0.9-0.6,1.4c0,0.1-0.1,0.3,0,0.4c0.1,0.2-0.6,0.9-0.4,1.2
		c-1.8,2.1-2.2,5.4-2.2,5.4l-3.3,5c-1.7,4.5-4.2,4.9-4.2,4.9s-6-4-6.1-4.2c-0.2-0.2-2.5-1.2-2.5-1.2c-0.3-0.5-0.7-0.8-1.2-1.1
		c-0.8-0.3-0.9-1.5-0.9-1.5c-0.1-2.8-1.8-3.1-1.8-3.1c-1.3-0.1-2.4,0.1-3.2,0.6l-0.2,0c-1.2,0.1-2.5,0.2-4.1,0.3
		c-4.3,0.3-5.3,3-5.3,3s-0.5,0.6,0.2,1.2c0.7,0.6,5.1,0,5.3,0c-0.3,0-0.7,0-1-0.1c0.7,0,1.6-0.1,2.5-0.1h0.2
		c-0.1,0.4-0.1,0.9-0.1,1.3c0,0.8,2.3,1.3,2.3,1.3l6.9,6.1c0,0,4.3,1.9,7.1,4.7c2.7,2.8,5.2,0.4,5.2,0.4
		c2.9-0.7,11.3-10.8,11.3-10.8c0,0.3,0.2,10.1,0.5,12.1c0,0.1,0,0.2,0.1,0.3c0.4,0.8-0.1,3.2-0.4,4.1c-0.1,0.8-0.2,1.7-0.2,2.5
		c0,0-3.1,12-2.9,13c0.3,1.1-1.7,5.9-1.7,5.9v4.1l0.3,0c0,0.1-0.1,0.1-0.1,0.2l0,0c0,0,2.1,0.5,3.5,0.3c1.4-0.1,3.8,1.1,3.8,1.1
		s0.8,0.4,3.3,0.6c2.5,0.2,2.5-1.1,2.5-1.1c-0.3-1.7-4.3-2.3-4.4-2.3c-0.3-0.2-0.6-0.4-0.9-0.6l-0.1,0c0,0,0-0.1,0-0.1
		c0.4-1.7-1.9-2.5-1.9-2.5V208c1.5-0.8,1.8-6.2,1.8-6.2s2.3-6.7,2.6-7.8c0.3-1.1,0-2.8,0-2.8l0.2-1.4c0,0,0.5-1,0.5-1.2
		c0.1-0.5,0.3-1,0.6-1.4c0.4-0.4-0.4-1.4-0.4-1.4l0.7-1.7v-1.9l1.5-6.8c0,0,1.6-7.9,1-10.4c-0.6-2.6,0.7-3.9,0.7-3.9
		c-0.1,0.1-0.2,0.1-0.3,0.2c0.2-0.4,0.3-0.7,0.4-1.1l3.4,0.4v0.1h1.2c0,0-0.4-4.8-0.4-6.8c0-2,1.3-9,1.3-9S63.9,138.2,63.3,138z
		 M48,132.3c0,0.2,0,0.4,0,0.6l-0.1,0.1l-0.1-0.1l-0.2,0.2l0,0c-0.3-0.2-0.5-1.2-0.8-1l0,0c-0.1-0.1-0.1-0.1-0.2,0l-0.1,0
		c0-0.1,0-0.2,0-0.2C47,132.2,47.5,132.2,48,132.3C48,132.3,48,132.3,48,132.3z M59.4,154.9L59.4,154.9l0,0.3
		C59.4,155.1,59.4,155,59.4,154.9z M46.9,212.6l-0.5-0.1l0.3,0L46.9,212.6L46.9,212.6L46.9,212.6z M51.7,211.9
		c-0.2-0.1-0.3-0.2-0.5-0.3C51.3,211.7,51.5,211.8,51.7,211.9z"/>
	<path class="st10" d="M61.1,150l-3.1,8h0.7l-2.9,2.3l5.2,0.7V150z"/>
	<path class="st4" d="M61.1,150l-3.1,8l-0.8-0.2l-1.4,2.5l5.2,0.7V150z"/>
	<path class="st10" d="M56.3,155.2h4.8l1.8-14.6h-6.6V155.2z"/>
	<path class="st4" d="M56.3,155.2h4.8l1.8-14.6h-6.6V155.2z"/>
	<path class="st11" d="M46.9,144l1-0.2l2.4-0.4c0,0,7.2-1.6,8.7-1.8c0.9-0.1,1.8-0.4,2.6-0.7c0.4-0.2,0.6-0.3,0.6-0.3l-2.6-4.7l-4-3
		c0,0-2.5-0.5-3.6-2c-0.2-0.3-0.4-0.7-0.5-1.1c-0.1-0.4,0-0.8,0.1-1.2c0.7-2-3.9,1.9-3.9,1.9s0,1,0,2.2c0,0.2,0,0.5,0,0.7
		c0,0.2,0,0.3,0,0.5c-0.1,1.2-0.3,2.5-0.8,3.2C45.7,139,46.9,144,46.9,144z"/>
	<path class="st4" d="M47.7,132.9h0.1c0.2,0,0.3-0.4,0.5-0.4c1.4-0.1,2.7-0.4,3.7-1.5c-0.2-0.3-0.4-0.7-0.5-1.1
		c-0.1-0.4,0-0.8,0.1-1.2c0.7-2-3.9,1.9-3.9,1.9S47.8,131.6,47.7,132.9z"/>
	<path class="st11" d="M42.2,127.1c0,0.7,0.1,1.5,0.4,2.1c0.3,0.7,0.7,1.3,1.2,1.8c0.5,0.5,1.1,0.9,1.8,1.2c0.7,0.3,1.4,0.4,2.1,0.4
		c0.2,0,0.4,0,0.5,0c1.1-0.1,2.1-0.5,2.9-1.2c0.8-0.7,1.5-1.6,1.8-2.6c0.3-1,0.4-2.1,0.1-3.2c-0.3-1-0.8-2-1.6-2.7
		c-0.8-0.7-1.8-1.2-2.9-1.4c-1.1-0.2-2.2,0-3.2,0.4c-1,0.4-1.8,1.2-2.4,2.1C42.5,125,42.2,126,42.2,127.1z"/>
	<path class="st2" d="M40.4,118.6c-0.2,0.5-0.1,1-0.2,1.5c-0.3,1.8-2.1,2.9-3.8,3.7s-3.5,1.7-4.1,3.4c-0.6,1.9,0.7,3.8,1.6,5.6
		c1.7,3.5,2,7.9-0.3,11c-2,2.8-5.4,4.1-8.6,5.3c1.6,1.2,3.5,1.9,5.5,1.8c-0.7,2.2-3.4,2.9-5.6,3.3c1.2,1.1,2.9,1.5,4.5,1.8
		c1.2,0.2,2.4,0.3,3.6,0.1c1.2-0.2,2.3-0.9,2.9-1.9c0.5-0.9,0.7-2.1,1.6-2.5c0.4-0.2,0.9-0.2,1.3-0.2l3.8,0c1.2,0,2.6-0.1,3.2-1.1
		c0.2-0.4,0.3-0.9,0.3-1.4c0.2-2.5-0.3-5.2,0.7-7.4c0.3-0.7-1.7-1.8-1.5-2.5c0.7-2.5,0.9-4.5,0.9-7.1c0-2,1.3-3.8,2.4-5.5
		c1.1-1.7,2-3.9,1.1-5.7C48.9,118.6,41.6,115.7,40.4,118.6z"/>
	<path class="st11" d="M45.5,211.9l1,0.6l0.2,0.1l0,0l1.2,0.8l2.7,0.5l2.4-0.2c0,0,0.7-1.4-0.4-1.4c-0.3,0-0.7-0.1-1-0.3l-0.1-0.1
		c-0.2-0.1-0.3-0.2-0.5-0.3c-0.3-0.2-0.6-0.4-0.9-0.6c-0.4-0.3-0.6-0.5-0.6-0.5L45.5,211.9z"/>
	<path class="st4" d="M46.5,212.5l0.2,0.1l0,0l1.2,0.8l2.7,0.5l2.4-0.2c0,0,0.7-1.4-0.4-1.4c-0.3,0-0.7-0.1-1-0.3
		c0.2,0.1,0.3,0.3,0.4,0.4c0,0.4-1.8,1-1.8,1l-2.5-0.7C47.6,212.8,47.2,212.7,46.5,212.5L46.5,212.5L46.5,212.5z"/>
	<path class="st2" d="M42.2,213.2c0,0,2.1,0.5,3.5,0.3c1.4-0.1,3.8,1.1,3.8,1.1s0.8,0.4,3.3,0.5c2.5,0.2,2.5-1.1,2.5-1.1
		c-0.3-1.7-4.2-2.3-4.4-2.3c0,0,0.3,0.1,0.5,0.3c0.3,0.2,0.6,0.4,0.6,0.6c0,0.4-1.8,1-1.8,1l-2.5-0.7c0,0-0.4-0.1-1-0.3h-0.1
		c-0.9-0.2-1.8-0.4-2.7-0.5C42.9,212,42.3,212.9,42.2,213.2C42.2,213.1,42.2,213.1,42.2,213.2z"/>
	<path class="st11" d="M9.5,167.3l1.1,0.8c0,0,0.3,0,0.8,0h0.2c0.7,0,1.6-0.1,2.4-0.1c0.5,0,1,0,1.6,0.1C16,168.4,17,165,17,165
		l-1.1-0.3l-0.4-0.1l-0.3-0.1l-0.9-0.2l-2.7,0.3L9.8,166L9.5,167.3z"/>
	<path class="st4" d="M9.5,167.3l1.1,0.8c0,0,0.3,0,0.8,0c-0.2-0.1-0.4-0.2-0.5-0.5c-0.7-2,2.8-2.8,2.8-2.8l1.6-0.1l0.3,0h0.3
		l-0.4-0.1l-0.3-0.1l-0.9-0.2l-2.7,0.3L9.7,166L9.5,167.3z"/>
	<path class="st2" d="M7.3,168.2c0.7,0.6,5,0,5.2,0c-0.3,0-0.7,0-1-0.1c-0.2,0-0.3-0.1-0.4-0.2s-0.2-0.2-0.3-0.4
		c-0.7-2,2.8-2.8,2.8-2.8l1.6-0.1l0.3,0l4-0.2l0.2-1.1c0,0-1.3,0.1-3.3,0.3c-1.1,0.1-2.5,0.2-4.1,0.3c-4.2,0.3-5.2,3-5.2,3
		S6.6,167.6,7.3,168.2z"/>
	<path class="st11" d="M56.3,120.4c0,0.1,0.1,0.1,0.1,0.2l1,1.4l2.5,0.3l0-1l0.4-15.1c0,0,1.8-10.1-1.6-9.5
		c-3.3,0.6-1.2,9.5-1.2,9.5s-0.4,4.5-0.6,5.9C56.7,113.4,55.5,118.8,56.3,120.4z"/>
	<path class="st11" d="M50.6,157.9l0.7,1.2l1.6,2.8c0,0,2.9,1.1,3.7,0.3c0.4-0.4,0.9-2,1.2-3.3c0.3-1.1,0.4-2,0.4-2L50.6,157.9z"/>
	<path class="st4" d="M50.6,157.9l0.7,1.2c0,0,0.1-0.1,0.1-0.1c0.8-1,4.4-0.2,6.3-0.2c0.3-1.1,0.4-2,0.4-2L50.6,157.9z"/>
	<path class="st4" d="M13.9,168.1c0.5,0,1,0,1.6,0.1C16,168.4,17,165,17,165l-1.5-0.3l4-0.2l0.2-1.1c0,0-1.3,0.1-3.3,0.3
		c-0.4,0.2-0.8,0.6-1.1,0.9l-0.1,0.1C14.4,165.8,14.1,167.1,13.9,168.1z"/>
	<path class="st4" d="M45.5,211.9l1.1,0.7c1.7-0.3,3.2-0.8,3.4-1.5c0,0,0,0,0,0c-0.4-0.3-0.6-0.5-0.6-0.5L45.5,211.9z"/>
	<path class="st4" d="M42.2,213.1c1.5-0.1,3-0.2,4.4-0.5c-0.9-0.2-1.8-0.4-2.7-0.6C42.9,212,42.3,212.9,42.2,213.1z"/>
	<path class="st2" d="M14.1,169.4c0,0.8,2.2,1.3,2.2,1.3l6.8,6.1c0,0,4.3,1.9,7,4.7c2.7,2.8,5.1,0.4,5.1,0.4
		c2.9-0.7,11.2-10.8,11.2-10.8s0.2,11.5,0.6,12.3s-0.1,3.1-0.4,4.1c-0.1,0.8-0.2,1.6-0.2,2.5c0,0-3.1,11.9-2.9,13
		c0.3,1-1.7,5.9-1.7,5.9v4.1c0,0,7.6-0.3,8.1-2c0.4-1.7-1.9-2.5-1.9-2.5V208c1.5-0.8,1.8-6.1,1.8-6.1s2.3-6.6,2.6-7.7
		c0.3-1.1,0-2.8,0-2.8l0.2-1.4c0,0,0.5-1,0.5-1.2c0.1-0.5,0.3-1,0.6-1.4c0.4-0.4-0.4-1.4-0.4-1.4l0.6-1.7v-1.9l1.5-6.7
		c0,0,1.6-7.8,1-10.4c-0.6-2.6,0.6-3.9,0.6-3.9c-2.6,1.4-3.9-1.7-4.4-3c-0.1-0.3-0.2-0.6-0.2-0.6s-3.6-1.3-6.9-1
		c-0.7,0.1-1.3,0.2-2,0.4c-3.7,1.3-4.3,6.9-4.3,6.9l-3.3,5c-1.7,4.4-4.2,4.9-4.2,4.9s-5.9-4-6.1-4.2c-0.2-0.2-2.4-1.2-2.4-1.2
		c-0.3-0.5-0.7-0.8-1.2-1.1c-0.8-0.3-0.8-1.5-0.8-1.5c-0.1-2.8-1.8-3.1-1.8-3.1C14,162.6,14.1,168.6,14.1,169.4z"/>
	<path class="st10" d="M47.1,153.5h3.5v-10.9h-3.5V153.5z"/>
	<path class="st4" d="M47.1,153.5h3.5v-10.9h-3.5V153.5z"/>
	<path class="st4" d="M56.3,120.4C56.3,120.4,56.3,120.4,56.3,120.4c0,0.1,0.1,0.1,0.1,0.2l1,1.4l2.5,0.3l0-1
		C59.1,121.2,57.3,121,56.3,120.4z"/>
	<path class="st10" d="M56.4,120.6c0,0,0.1,5.7-1.3,6.5c-1.4,0.8-2,4.8-2,4.8s4.3,2.8,5.3,4.1c1,1.3,3.2,4.2,2.7,5
		c-0.5,0.7,1.1,4,1.1,4s-2.9,5.8-2.2,8.1c0.6,2.2,0.7,8.1,0.7,8.1H62c0,0-0.4-4.8-0.4-6.8c0-1.9,1.3-8.9,1.3-8.9s0.6-6.8,0-7
		c-0.6-0.2-4-2.9-4.3-4.2c-0.3-1.2,1.8-12.7,1.8-12.7S57.8,121.4,56.4,120.6z"/>
	<path class="st4" d="M47,141.6c0.1,0.8,0.4,1.6,0.8,2.2l2.4-0.4c0,0,7.2-1.6,8.7-1.8c0.9-0.1,1.8-0.4,2.6-0.7
		c-0.6-2-1.7-3.9-3.2-5.3l-0.9-0.8c-1.3-1.3-2.9-2.2-4.6-2.9c0.1,0.1,7.7,6.5,6,7.8c-1.7,1.3-6.1-1.8-6.1-1.8l-5.1-4.4l-0.2-0.2
		l-0.3,0.5c0.1,0.1,0.3,0.1,0.4,0.2c1.7,0.9,3,2.5,3.6,4.4C52.2,142,47,141.6,47,141.6z"/>
	<path class="st12" d="M45.5,157.9c0,0,4.8,2.7,6,1.2c0.3-0.3,0.8-0.5,1.5-0.5c-0.1-0.3-0.2-0.6-0.2-0.6s-3.6-1.3-6.9-1
		C45.6,157.5,45.5,157.9,45.5,157.9z"/>
	<path class="st13" d="M47.7,133.4l5.3,4.5c0,0,4.4,3.1,6.1,1.8c1.7-1.3-6-7.8-6-7.8c1.7,0.7,3.3,1.7,4.6,2.9l0.9,0.8
		c2.4,2.2,2.9,2.2,3,5.5c0,0.8-0.3,2-0.5,2.2c-0.8,0.8-1.3,6.3-1.2,7c0.1,0.6-1.5,6.3-0.9,7.8c0.5,1.6-6.4-0.8-7.5,0.7
		c-1.2,1.5-6-1.2-6-1.2s2.7-6.8,3.3-7.3c0.6-0.5,1.4-4,0-5.6c-1.4-1.6-1.6-3.2-1.6-3.2s5.2,0.3,4.2-3.2c-0.3-1-0.8-2-1.5-2.8
		c-0.7-0.8-1.5-1.4-2.5-1.9L47.7,133.4z"/>
	<path class="st4" d="M54.7,144.9c0,0-2,3.8-4.6,4.8c-0.1,0-0.2,0.1-0.3,0.1C47.1,150.5,54.9,146,54.7,144.9z"/>
	<path class="st11" d="M26.5,111.2c0,0,1,2.5,1.8,3.3c0.8,0.8,6.6,9.3,6.6,9.3l0.5,1l0.4,0.9l3.7-0.4l0.3-1.5l-0.1-0.2
		c-0.4-0.4-1.4-1.6-2.1-2.2c-0.8-0.6-2.5-2.8-2.5-2.8s-5.3-5.5-5.6-6.9c-0.4-1.5-5.6-10.4-6.8-8.9C21.3,104.4,26.5,111.2,26.5,111.2
		z"/>
	<g class="st6">
		<path class="st4" d="M37.3,151.4c-0.4,0-0.9,0-1.3,0.2c-0.9,0.4-1.1,1.6-1.6,2.5c-0.6,1-1.7,1.7-2.9,1.9c-0.2,0-0.5,0.1-0.7,0.1
			c0.7,0.1,1.5,0,2.2-0.1c1.2-0.2,2.3-0.9,2.9-1.9c0.5-0.9,0.7-2.1,1.6-2.5c0.2-0.1,0.5-0.2,0.8-0.2L37.3,151.4z"/>
		<path class="st4" d="M46.3,131.9c0-2,1.3-3.8,2.4-5.5c1.1-1.7,2-3.9,1.1-5.7c-0.7-1.6-5.2-3.7-7.7-3.3c2.5,0.3,5.6,2,6.2,3.3
			c0.9,1.8-0.1,4-1.1,5.7c-1.1,1.7-2.4,3.5-2.4,5.5c0,2.6-0.2,4.6-0.9,7.1c-0.2,0.7,1.8,1.8,1.5,2.5c-1,2.3-0.5,4.9-0.7,7.4
			c0,0.5-0.1,1-0.3,1.4c-0.5,0.8-1.6,1.1-2.6,1.1h0.9c1.2,0,2.6-0.1,3.2-1.1c0.2-0.4,0.3-0.9,0.3-1.4c0.2-2.5-0.3-5.2,0.7-7.4
			c0.3-0.7-1.7-1.8-1.5-2.5C46.1,136.5,46.3,134.5,46.3,131.9z"/>
	</g>
	<path class="st4" d="M35.3,124.9l0.4,0.9l3.7-0.4l0.3-1.5l-0.1-0.2C39.2,123.9,36.2,125.3,35.3,124.9z"/>
	<path class="st4" d="M49,134.6c0,0-0.9-1.4-1.4-1c-0.5,0.4-0.7-1.2-1-0.9c-0.3,0.3-1.2,1-1.5,0c-0.3-0.8-3.4-5.9-4.6-7.9
		c-0.3-0.5-0.5-0.9-0.5-0.9s-3.5,1.8-4.3,1.2v1.2l0.7,0.1l3.8,7.1c0,0,1.2,1.9,1.1,2.6c-0.1,0.7,1.5,3.6,1.8,3.8
		c0.3,0.2,3.1,3.4,3.1,3.4s1.4,7,0.2,9c-1.2,1.9-3.4,3.4-3.4,3.4s-0.6,1.9-0.6,2.1c0.1,0.2-0.7,1-0.4,1.3c0.4,0.3,0.9,2.1,0.9,2.1
		s1.8-2.9,2.8-3.4c1-0.5,2.2-6.4,2.2-6.4s0.4-3.5,0.4-5.8C48.3,143.2,48.2,134.6,49,134.6z"/>
	<path class="st10" d="M48.8,134.6c0,0-0.9-1.4-1.4-1c-0.5,0.4-0.7-1.2-1-0.9c-0.3,0.3-1.2,1-1.5,0c-0.3-0.8-3.4-5.9-4.6-7.9
		l-0.5-0.9c0,0-3.5,1.8-4.4,1.2v1.2l0.7,0.1l3.8,7.1c0,0,1.2,1.9,1.1,2.6c-0.1,0.7,1.5,3.6,1.8,3.8c0.3,0.2,3.1,3.4,3.1,3.4
		s1.4,7,0.2,9c-0.7,1-1.4,1.9-2.4,2.6c-0.8,0.6-1.3,1.5-1.5,2.4c0,0.1-0.1,0.3,0,0.4c0.1,0.2-0.7,1-0.4,1.3c0.4,0.3,0.9,2.1,0.9,2.1
		s1.8-2.9,2.8-3.4c1-0.5,2.2-6.4,2.2-6.4s0.4-3.5,0.4-5.8C48.2,143.2,48,134.6,48.8,134.6z"/>
	<path class="st4" d="M39.9,164.2c0,0,2.7,0.5,3.8,1.3c1.1,0.8-4.2-1.2-4.2-1.2L39.9,164.2z"/>
	<path class="st4" d="M46.5,171.1c0,0,2.8,2.4,2.3,4.5c-0.5,2.1-1.8,7.5-1.8,7.5L46.5,171.1z"/>
	<path class="st4" d="M21.6,166.5c0,0-4,0.4-3.8,1c0.3,0.5,3.8-0.5,3.8-0.5V166.5z"/>
	<path class="st4" d="M52.4,186.2c0,0,0.3,0.3-1.2,0c-1.5-0.3-0.4-1.3-0.4-1.3L52.4,186.2z"/>
	<path class="st4" d="M51.9,190.7c0,0-2,0.3-3.1,0C47.6,190.4,51.9,190.7,51.9,190.7z"/>
	<path class="st4" d="M47.7,208.3c0,0-0.4-0.4-2.1,0.3c-1.8,0.7-2.5,0.7-3,0.5C42,208.9,47.7,208.3,47.7,208.3z"/>
	<path class="st4" d="M49.6,166l-2.5,3.5C47.1,169.5,48.5,166.4,49.6,166z"/>
	<path class="st4" d="M44.7,133.6c0,0-0.1,1.2-1.7,1.6c-1.6,0.5-1.9,0.8-1.9,0.8"/>
	<path class="st4" d="M40.5,125.1c0,0-2.2,1.5-4.4,1.2L40.5,125.1z"/>
	<path class="st4" d="M42.1,157.8c0,0,0.6,0.4,2.1-1.3L42.1,157.8z"/>
	<path class="st4" d="M57.8,139.5c0.1-0.3-0.2-0.6-0.4-0.9l-0.4-0.5c-0.1-0.1-0.2-0.2-0.3-0.3c-0.3-0.2-0.6-0.3-0.8-0.4"/>
	<path class="st14" d="M194.6,50.7c0,0-21.4-1.3-18.9,13.7c0,0-0.5,2.7,1.9,3.9c0,0,0-1.1,2.2-0.7c0.8,0.1,1.6,0.2,2.3,0.1
		c1.1-0.1,2.1-0.5,2.8-1.2c0,0,6-2.5,8.4-12.3c0,0,1.7-2.2,1.7-2.7l-3.6,1.5c0,0,1.2,2.6,0.3,4.8c0,0-0.1-4.7-0.8-4.6
		c-0.1,0-1.9,0.9-1.9,0.9s2.1,4.5,0.5,7.9c0,0,0.6-5.6-1.2-7.5l-2.5,1.5c0,0,2.5,4.7,0.8,8.5c0,0,0.4-5.9-1.3-8.2l-2.3,1.8
		c0,0,2.3,4.6,0.9,7.8c0,0-0.2-6.8-1.4-7.4c0,0-2,1.8-2.3,2.5c0,0,1.6,3.4,0.6,5.1c0,0-0.6-4.6-1.1-4.6c0,0-2,3-2.2,5.1
		c0,0,0.1-3.1,1.7-5.4c0,0-1.9,0.3-3.1,1.6c0,0,0.3-2.1,3.6-2.3c0,0,1.7-2.3,2.1-2.4c0,0-3.2-0.3-5.2,0.6c0,0,1.7-2,5.8-1.1l2.3-1.9
		c0,0-4.3-0.6-6.1,0.1c0,0,2.1-1.8,6.7-0.5l2.5-1.5c0,0-3.6-0.8-5.8-0.5c0,0,2.3-1.2,6.5,0.1l1.8-0.8c0,0-2.7-0.5-3.5-0.6
		s-0.8-0.3-0.8-0.3c1.7-0.3,3.4-0.1,5,0.6C190.9,52.3,194.7,51,194.6,50.7z"/>
	<path class="st14" d="M168.1,54.5c0,0-9.7-0.6-8.5,6.2c0,0-0.2,1.2,0.9,1.7c0,0,0-0.5,1-0.3c0.3,0.1,0.7,0.1,1.1,0.1
		c0.5,0,0.9-0.2,1.3-0.5c0,0,2.7-1.1,3.8-5.6c0,0,0.8-1,0.8-1.2l-1.6,0.7c0,0,0.6,1.2,0.1,2.2c0,0-0.1-2.1-0.4-2.1
		c-0.1,0-0.9,0.4-0.9,0.4s1,2.1,0.2,3.6c0,0,0.3-2.5-0.5-3.4l-1.2,0.7c0,0,1.1,2.1,0.4,3.9c0,0,0.2-2.7-0.6-3.7l-1,0.8
		c0,0,1.1,2.1,0.4,3.5c0,0-0.1-3.1-0.6-3.3c0,0-0.9,0.8-1.1,1.1c0,0,0.7,1.5,0.3,2.3c0,0-0.3-2.1-0.5-2.1c0,0-0.9,1.4-1,2.3
		c0-0.9,0.3-1.7,0.8-2.4c-0.5,0.1-1,0.3-1.4,0.7c0,0,0.1-1,1.6-1c0,0,0.8-1,1-1.1c0,0-1.5-0.1-2.4,0.3c0,0,0.8-0.9,2.6-0.5l1-0.8
		c0,0-1.9-0.3-2.8,0c0,0,0.9-0.8,3-0.2L165,56c0,0-1.6-0.4-2.6-0.2c0,0,1-0.6,3,0l0.8-0.4c0,0-1.2-0.2-1.6-0.3
		c-0.4,0-0.4-0.1-0.4-0.1c0.8-0.1,1.5,0,2.3,0.3C166.4,55.3,168.2,54.6,168.1,54.5z"/>
</g>
</svg>
