<svg width="360" height="274" viewBox="0 0 360 274" fill="none" xmlns="http://www.w3.org/2000/svg">
<path opacity="0.1" d="M259.398 82.9427C259.703 82.5088 259.871 81.9939 259.88 81.4639C259.88 78.2528 253.338 75.6543 245.268 75.6543C237.198 75.6543 230.657 78.2528 230.657 81.4639C230.671 82.0643 230.883 82.6433 231.259 83.1117C222.273 84.1151 216.221 85.9953 216.221 88.1536C216.221 91.3612 229.6 93.9632 246.149 93.9632C262.697 93.9632 276.077 91.3612 276.077 88.1536C276.059 85.8826 269.257 83.8933 259.398 82.9427Z" fill="#013183"/>
<g opacity="0.2">
<path opacity="0.2" d="M300.434 251.321C300.308 252.237 300.257 253.163 300.283 254.088C306.419 254.187 312.581 254.393 318.771 254.708C318.813 254.468 318.856 254.218 318.891 253.968C319.288 251.388 318.99 248.748 318.028 246.321C316.754 243.212 314.377 240.99 311.402 240.564C308.427 240.138 305.525 241.599 303.431 244.208C301.815 246.269 300.78 248.725 300.434 251.321Z" fill="#3F3D56"/>
<path opacity="0.2" d="M321.032 239.219C321.991 232.547 318.637 226.545 313.54 225.813C308.443 225.08 303.534 229.894 302.575 236.565C301.616 243.237 304.971 249.239 310.067 249.971C315.164 250.704 320.073 245.89 321.032 239.219Z" fill="#3F3D56"/>
<path opacity="0.2" d="M323.153 224.457C324.111 217.786 320.757 211.784 315.66 211.051C310.563 210.319 305.654 215.133 304.695 221.804C303.736 228.475 307.091 234.477 312.188 235.21C317.284 235.943 322.194 231.128 323.153 224.457Z" fill="#3F3D56"/>
<path opacity="0.2" d="M325.274 209.692C326.233 203.021 322.878 197.019 317.781 196.286C312.685 195.554 307.775 200.368 306.816 207.039C305.857 213.711 309.212 219.713 314.309 220.445C319.405 221.178 324.315 216.364 325.274 209.692Z" fill="#3F3D56"/>
<path opacity="0.2" d="M327.395 194.927C328.354 188.256 325 182.254 319.903 181.521C314.806 180.789 309.897 185.603 308.938 192.274C307.979 198.945 311.333 204.948 316.43 205.68C321.527 206.413 326.436 201.599 327.395 194.927Z" fill="#3F3D56"/>
<path opacity="0.2" d="M367.213 97.5263C368.705 96.0973 370.096 94.568 371.379 92.9491L347.704 85.4953L373.9 89.4599C377.203 84.3462 379.428 78.6123 380.438 72.609C381.448 66.6058 381.223 60.4595 379.776 54.5463L341.975 67.7392L377.843 48.5607C375.557 42.8727 372.125 37.7163 367.759 33.4126C363.394 29.1088 358.189 25.75 352.469 23.5453C346.749 21.3405 340.636 20.3371 334.512 20.5975C328.387 20.8578 322.381 22.3764 316.869 25.0586C311.357 27.7409 306.456 31.5293 302.472 36.188C298.487 40.8466 295.505 46.2758 293.71 52.1373C291.915 57.9988 291.346 64.1671 292.038 70.258C292.731 76.3489 294.67 82.2321 297.735 87.541C295.412 89.7573 293.334 92.2173 291.538 94.8786L320.663 115.751L288.725 99.6671C285.367 106.293 283.715 113.652 283.918 121.077C284.121 128.503 286.173 135.76 289.887 142.193C283.822 147.975 279.506 155.348 277.434 163.467C275.361 171.587 275.615 180.125 278.167 188.107C280.718 196.089 285.464 203.192 291.862 208.604C298.26 214.015 306.052 217.517 314.347 218.709C322.641 219.901 331.104 218.735 338.767 215.345C346.43 211.954 352.984 206.475 357.681 199.535C362.377 192.595 365.025 184.473 365.323 176.098C365.621 167.724 363.556 159.435 359.365 152.178C366.611 145.268 371.325 136.122 372.749 126.211C374.173 116.3 372.224 106.197 367.217 97.5263H367.213Z" fill="#013183"/>
<path opacity="0.1" d="M284.351 113.508C282.91 123.42 284.859 133.528 289.882 142.193C283.817 147.975 279.502 155.348 277.429 163.467C275.357 171.586 275.611 180.125 278.162 188.107C280.714 196.089 285.46 203.192 291.858 208.603C298.256 214.015 306.048 217.517 314.342 218.709C322.637 219.901 331.1 218.735 338.763 215.345C346.426 211.954 352.98 206.475 357.676 199.535C362.372 192.595 365.021 184.473 365.319 176.098C365.617 167.724 363.552 159.435 359.361 152.178C366.364 145.51 285.062 108.547 284.351 113.508Z" fill="black"/>
</g>
<g opacity="0.2">
<path opacity="0.2" d="M38.6101 238.269C38.7491 239.064 38.9553 239.846 39.2262 240.607C44.2283 238.996 49.282 237.471 54.3874 236.029C54.3592 235.818 54.3275 235.6 54.2888 235.382C53.9272 233.139 52.9825 231.031 51.5495 229.269C49.6869 227.04 47.1659 225.85 44.6379 226.319C42.1099 226.787 40.1452 228.783 39.1417 231.544C38.3821 233.701 38.1989 236.019 38.6101 238.269Z" fill="#3F3D56"/>
<path opacity="0.2" d="M45.9194 234.508C50.2678 233.82 53.0467 228.546 52.1263 222.729C51.206 216.911 46.9348 212.753 42.5864 213.44C38.238 214.128 35.459 219.402 36.3794 225.22C37.2998 231.038 41.571 235.196 45.9194 234.508Z" fill="#3F3D56"/>
<path opacity="0.2" d="M44.7712 221.946C49.1297 221.242 51.8989 215.944 50.9565 210.113C50.0141 204.281 45.7169 200.125 41.3585 200.83C37 201.534 34.2308 206.832 35.1732 212.663C36.1156 218.495 40.4128 222.651 44.7712 221.946Z" fill="#3F3D56"/>
<path opacity="0.2" d="M41.4814 208.825C45.8298 208.137 48.6088 202.863 47.6884 197.045C46.768 191.228 42.4968 187.069 38.1484 187.757C33.8 188.445 31.021 193.719 31.9414 199.537C32.8618 205.354 37.133 209.513 41.4814 208.825Z" fill="#3F3D56"/>
<path opacity="0.2" d="M39.2661 195.981C43.6145 195.293 46.3934 190.019 45.473 184.202C44.5526 178.384 40.2814 174.225 35.933 174.913C31.5846 175.601 28.8057 180.875 29.7261 186.693C30.6465 192.51 34.9177 196.669 39.2661 195.981Z" fill="#3F3D56"/>
<path opacity="0.2" d="M51.7644 92.1711C52.5943 90.5786 53.3154 88.9317 53.9228 87.2418L32.7268 87.5727L55.0354 83.6399C56.435 78.1792 56.6606 72.4838 55.6973 66.9295C54.857 62.0142 53.091 57.3031 50.4934 53.0465L23.3435 74.4221L47.3281 48.603C38.8497 38.3254 25.3927 32.8434 11.5061 35.3995C-9.2498 39.2092 -23.0765 59.5179 -19.4112 80.7492C-17.9645 89.3258 -13.6912 97.1722 -7.27104 103.04C-8.5691 105.524 -9.59949 108.138 -10.3448 110.839L18.8508 120.138L-11.3624 115.592C-11.9917 119.805 -11.9418 124.092 -11.2145 128.289C-9.76777 136.865 -5.49442 144.712 0.925695 150.58C-3.12731 158.334 -4.50968 167.209 -3.00719 175.828C0.658106 197.063 20.4422 211.179 41.184 207.358C61.9259 203.538 75.7666 183.233 72.1014 161.998C70.6531 153.423 66.38 145.578 59.9612 139.711C64.0135 131.955 65.3957 123.079 63.8941 114.459C62.4487 105.885 58.1793 98.0402 51.7644 92.1711Z" fill="#013183"/>
<path opacity="0.1" d="M-11.2045 128.289C-9.75777 136.865 -5.48442 144.712 0.935691 150.58C-3.11732 158.334 -4.49968 167.209 -2.99719 175.828C0.6681 197.063 20.4522 211.179 41.194 207.358C61.9359 203.538 75.7766 183.233 72.1113 161.998C70.6631 153.423 66.39 145.578 59.9712 139.711C63.8759 132.239 -11.9509 123.976 -11.2045 128.289Z" fill="black"/>
</g>
<path d="M20.0864 208.922C20.0864 227.34 31.6386 242.24 45.916 242.24L20.0864 208.922Z" fill="#46455B"/>
<path d="M45.9165 242.24C45.9165 223.618 58.8102 208.548 74.7459 208.548L45.9165 242.24Z" fill="#013183"/>
<path d="M29.4453 210.591C29.4453 228.086 36.8111 242.24 45.9162 242.24L29.4453 210.591Z" fill="#013183"/>
<path d="M45.9165 242.24C45.9165 218.446 60.8206 199.19 79.2386 199.19L45.9165 242.24Z" fill="#46455B"/>
<path opacity="0.1" d="M42.9345 246.969C46.567 246.969 49.5116 246.471 49.5116 245.856C49.5116 245.242 46.567 244.744 42.9345 244.744C39.3021 244.744 36.3574 245.242 36.3574 245.856C36.3574 246.471 39.3021 246.969 42.9345 246.969Z" fill="#013183"/>
<path d="M38.5146 240.688C38.5146 240.688 42.268 240.575 43.3982 239.769C44.5284 238.962 49.1655 238.008 49.4471 239.293C49.7288 240.578 55.0806 245.715 50.8555 245.747C46.6304 245.779 41.018 245.089 39.8878 244.402C38.7576 243.715 38.5146 240.688 38.5146 240.688Z" fill="#A8A8A8"/>
<path opacity="0.2" d="M50.9259 245.3C46.7008 245.332 41.0849 244.638 39.9582 243.951C39.0991 243.43 38.7541 241.55 38.6414 240.684H38.5146C38.5146 240.684 38.7541 243.712 39.8808 244.399C41.0075 245.085 46.6163 245.779 50.8485 245.744C52.0702 245.744 52.4928 245.3 52.4716 244.656C52.3026 245.05 51.8343 245.293 50.9259 245.3Z" fill="black"/>
<path d="M222.075 70.0384C217.022 45.1384 195.369 26.3789 169.025 26.3789C148.093 26.3789 130.048 38.2867 121.024 55.6026C99.3705 57.768 82.4102 76.1719 82.4102 98.558C82.4102 122.374 101.895 141.865 125.718 141.865H219.551C239.398 141.865 255.64 125.623 255.64 105.776C255.678 96.6562 252.22 87.8687 245.976 81.2211C239.733 74.5736 231.179 70.5716 222.075 70.0384ZM180.57 91.3225V118.751H157.473V91.3225H132.932L169.022 55.2505L205.111 91.3401L180.57 91.3225Z" fill="#013183"/>
<path d="M133.728 87.203C133.376 85.1925 133.549 83.0271 132.626 81.2174C132.537 81.0038 132.392 80.8178 132.207 80.6787C131.977 80.5545 131.718 80.4949 131.457 80.5061C130.623 80.4745 129.792 80.4639 128.957 80.485C128.725 80.485 128.45 80.5202 128.331 80.7244C128.317 80.7462 128.306 80.7699 128.299 80.7949C127.345 79.7386 126.623 78.4041 125.595 77.4183C125.743 77.369 125.887 77.3232 126.039 77.2845C126.039 77.1824 126.003 77.0873 125.982 76.9887C125.982 76.957 125.965 76.9289 125.958 76.9007C125.951 76.8725 125.926 76.7669 125.905 76.7C125.884 76.6331 125.884 76.6331 125.87 76.6014C125.852 76.5382 125.83 76.4759 125.806 76.4148C125.806 76.3831 125.782 76.3514 125.767 76.3198L125.694 76.1331L125.651 76.0451C125.623 75.9817 125.595 75.9184 125.563 75.8585L125.521 75.7811C125.489 75.7142 125.454 75.6473 125.419 75.5804L125.384 75.517C125.345 75.4466 125.303 75.3762 125.264 75.3022C125.254 75.2907 125.245 75.2776 125.239 75.2635C125.194 75.1825 125.144 75.1015 125.095 75.0241C124.694 74.3692 124.25 73.7248 123.923 73.0523C123.349 71.8693 123.158 70.5349 122.775 69.2744C122.391 68.0139 121.718 66.7323 120.578 66.1302C120.025 65.8485 119.285 65.5985 119.233 64.9753C119.231 64.775 119.273 64.5767 119.356 64.3944C119.514 63.9906 119.706 63.6007 119.93 63.2289C120.014 63.0951 120.102 62.9613 120.19 62.8275L120.261 62.7325C120.331 62.6339 120.405 62.5353 120.479 62.4438L120.571 62.3276C120.645 62.236 120.722 62.1515 120.799 62.0635L120.895 61.9614C121.004 61.8452 121.113 61.7325 121.229 61.6093C121.336 61.5269 121.421 61.4192 121.475 61.2959C121.506 61.1739 121.512 61.0471 121.493 60.9227C121.437 59.9157 121.965 58.9756 122.549 58.1658C123.134 57.356 123.824 56.5884 124.158 55.6413C124.197 55.5322 124.229 55.423 124.257 55.3103C124.267 55.2745 124.276 55.238 124.282 55.2012C124.299 55.1273 124.313 55.0533 124.327 54.9759L124.349 54.8491C124.349 54.7787 124.366 54.7083 124.373 54.6414V54.5041V54.2963V54.159C124.373 54.0921 124.373 54.0217 124.373 53.9513C124.373 53.8808 124.373 53.8632 124.373 53.8175C124.373 53.7717 124.373 53.6696 124.356 53.5957V53.4759C124.356 53.3914 124.331 53.3034 124.32 53.2189C124.32 53.1907 124.32 53.1626 124.32 53.1344C124.304 53.0194 124.283 52.902 124.257 52.7823C124.089 52.0343 123.873 51.298 123.609 50.5782C123.469 50.1361 123.29 49.7072 123.074 49.2966C123.204 49.2719 123.338 49.2438 123.468 49.2086C123.365 49.0468 123.27 48.8799 123.183 48.7086C123.994 47.5149 124.602 46.1956 124.982 44.8039C125.184 43.8097 125.302 42.8004 125.334 41.7864C125.528 38.7373 125.725 35.6741 125.472 32.632V32.5123C125.567 31.859 125.574 31.1958 125.493 30.5406C125.411 29.2589 125.033 28.0137 124.387 26.9035C123.704 25.8261 122.578 24.8754 121.324 24.7487C121.117 24.9814 120.889 25.1936 120.641 25.3824C120.264 25.051 119.987 24.6204 119.842 24.1395C121.305 23.9098 122.653 23.206 123.678 22.1361C124.702 21.0662 125.348 19.6894 125.514 18.2173C125.514 18.1082 125.539 17.9955 125.546 17.8864C125.546 17.8406 125.546 17.7948 125.546 17.749C125.546 17.7033 125.546 17.6188 125.546 17.5554C125.546 17.492 125.546 17.4392 125.546 17.3793V17.235C125.546 17.1681 125.546 17.0977 125.546 17.0308C125.546 16.9639 125.546 16.9568 125.546 16.9216C125.546 16.8864 125.546 16.7667 125.525 16.6928C125.526 16.6658 125.526 16.6387 125.525 16.6118L125.493 16.3653V16.3125C125.493 16.2245 125.465 16.1365 125.447 16.0484V16.0203C125.429 15.9252 125.408 15.8337 125.384 15.7386C125.226 15.0977 124.976 14.4833 124.641 13.9147C124.916 13.2927 125.097 12.6328 125.176 11.9571C125.176 11.8339 125.201 11.7142 125.208 11.605C125.215 11.4959 125.208 11.4501 125.208 11.3726C125.208 11.2952 125.208 11.2952 125.208 11.26C125.208 11.1579 125.208 11.0557 125.208 10.9572C125.206 10.9467 125.206 10.936 125.208 10.9255C125.157 9.23342 124.481 7.62025 123.31 6.39755C123.444 6.17439 123.556 5.93852 123.644 5.69337C123.673 5.61943 123.697 5.54549 123.718 5.46803C123.739 5.39409 123.761 5.32367 123.778 5.24973V5.23212L123.82 5.03143C123.818 5.01978 123.818 5.00787 123.82 4.99622C123.82 4.91876 123.845 4.83778 123.856 4.7568C123.866 4.67582 123.856 4.59131 123.877 4.51033C123.877 4.48569 123.877 4.45752 123.877 4.43287C123.877 4.40823 123.877 4.31668 123.877 4.26035V4.17585C123.877 4.11951 123.877 4.05965 123.877 4.00332C123.877 3.94698 123.877 3.95402 123.877 3.92938C123.817 2.88336 123.366 1.89812 122.613 1.17006C121.859 0.442001 120.859 0.0245956 119.812 0.00105279C118.764 -0.02249 117.747 0.349559 116.961 1.04304C116.176 1.73651 115.681 2.70048 115.574 3.74277C115.524 4.16835 115.537 4.59915 115.613 5.02087C114.59 5.52013 113.707 6.26804 113.047 7.1962C112.387 8.12436 111.971 9.20316 111.835 10.334C111.791 10.7125 111.778 11.0941 111.796 11.4747C111.189 12.428 110.826 13.5165 110.74 14.6436C110.74 14.6858 110.74 14.7281 110.74 14.7703C110.74 14.9112 110.723 15.0555 110.723 15.1964C110.719 16.2392 110.955 17.2689 111.411 18.2069C111.867 19.1448 112.531 19.9661 113.353 20.608C113.696 21.1629 114.149 21.642 114.684 22.0164C114.78 22.3032 114.852 22.5976 114.898 22.8966C114.938 23.2986 114.885 23.7043 114.745 24.083C114.605 24.4618 114.38 24.8037 114.089 25.0831C113.937 25.2099 113.768 25.3155 113.61 25.4352C113.45 25.3895 113.28 25.3895 113.12 25.4352C111.303 26.0056 109.564 27.1358 108.73 28.8646C108.545 29.2579 108.398 29.6683 108.293 30.0899L108.195 30.2413C107.091 31.9683 106.297 33.8748 105.85 35.8748C105.621 36.8994 105.476 37.9627 104.998 38.8958C104.883 39.0905 104.789 39.2971 104.719 39.5119C104.679 39.84 104.665 40.1709 104.677 40.5013C104.628 41.0999 104.279 41.6315 104.163 42.2195C104.093 42.5716 104.107 42.9237 104.047 43.2758C103.879 43.8807 103.659 44.4698 103.388 45.0363C103.015 46.0714 103.019 47.2087 102.741 48.2755C102.707 48.4513 102.632 48.6165 102.522 48.7579C102.302 48.9296 102.054 49.0629 101.79 49.1522C101.596 49.2735 101.431 49.4344 101.304 49.6244C101.177 49.8143 101.092 50.029 101.054 50.2543C100.981 50.7085 100.972 51.1709 101.029 51.6275L101.167 53.4126L99.1668 54.0182L95.8853 55.0216C94.9237 55.2648 94.0048 55.653 93.1601 56.173C92.4074 56.6974 91.813 57.4184 91.4419 58.2574C91.1091 59.1321 90.8948 60.0475 90.8046 60.9791C90.4875 63.5853 89.9227 66.1555 89.1181 68.6547C89.0512 68.8448 88.9808 69.0385 88.9104 69.2286L88.6885 69.7884C88.6709 69.8272 88.6533 69.8659 88.6393 69.9046L88.4491 70.3518C88.3646 70.5419 88.2766 70.7285 88.1851 70.9151L95.8713 73.4784C95.8713 73.5699 95.8889 73.6685 95.9029 73.7776C96.1705 75.6649 96.0403 77.5803 96.2867 79.471C96.3186 79.7853 96.3908 80.0941 96.5015 80.39C96.3063 80.559 96.1655 80.7819 96.0966 81.0308C96.0097 81.4335 95.9966 81.8486 96.0579 82.2561C96.1459 83.2208 96.2304 84.1855 96.3184 85.1503C96.3601 85.5011 96.3601 85.8557 96.3184 86.2065C96.2233 86.8438 95.8572 87.4036 95.6565 88.0128C95.4558 88.6219 95.4663 89.4035 95.9698 89.7732C96.1456 89.8933 96.3492 89.9664 96.5612 89.9856C96.7732 90.0047 96.9866 89.9691 97.181 89.8824C97.5692 89.704 97.9122 89.4404 98.1845 89.1113C99.7302 87.3931 100.424 85.0728 101.624 83.0905C101.934 82.6335 102.209 82.1545 102.448 81.6575C102.614 81.2737 102.719 80.8653 102.853 80.4674C103.038 79.9376 103.259 79.4212 103.515 78.9217C103.66 78.6365 104.219 77.95 104.093 77.6331C103.895 77.0873 101.786 76.6085 101.276 76.4395C100.95 76.2941 100.582 76.2778 100.244 76.3937C100.194 76.418 100.146 76.4487 100.103 76.4852L99.9238 74.1579C100.237 74.1297 100.547 74.091 100.853 74.0382C100.853 73.6016 100.843 73.1615 100.822 72.7178C100.822 72.3165 100.804 71.9116 100.794 71.5066C100.772 70.5208 100.751 69.5349 100.727 68.5667C100.72 67.9959 100.684 67.4259 100.617 66.859C100.498 65.9964 100.234 65.1514 100.149 64.2817C100.276 64.1809 100.426 64.1132 100.586 64.0845C100.833 64.045 101.083 64.0355 101.332 64.0563H101.529C102.622 64.0404 103.692 63.7446 104.638 63.1972C105.607 62.6937 106.504 62.0635 107.455 61.5459L107.807 61.3593L107.941 61.2924L108.166 61.1797L108.353 61.0917L108.395 61.0706C108.955 60.803 109.522 60.5425 110.064 60.2502C110.101 60.3099 110.141 60.3675 110.184 60.4227C110.315 60.6017 110.497 60.7377 110.705 60.8135C110.914 60.8893 111.141 60.9016 111.356 60.8488C110.691 62.4508 109.909 64 109.712 65.7323C109.423 68.2357 110.416 70.6616 111.406 72.9925L114.536 80.3864C114.888 81.2033 115.342 82.1187 116.198 82.3124C116.741 82.3856 117.294 82.2753 117.768 81.999C119.201 81.316 120.49 80.3371 121.803 79.4217L121.856 79.4639C123.042 80.4005 123.785 81.7068 124.606 82.9567L126.799 86.5621C126.784 86.7428 126.814 86.9243 126.887 87.0903C127.047 87.3888 127.255 87.6589 127.503 87.8895C128.898 89.3911 129.816 91.2715 130.144 93.2942C130.173 93.8121 130.322 94.3162 130.581 94.7659C131.169 95.5828 132.422 95.53 133.306 95.0652C133.579 94.9403 133.814 94.7461 133.989 94.5019C134.137 94.2394 134.231 93.9495 134.264 93.6498C134.425 92.9043 134.513 92.1449 134.528 91.3823C134.513 89.9986 133.982 88.6219 133.728 87.203ZM121.134 20.8615C121.288 20.7604 121.436 20.6511 121.578 20.5341C121.28 21.428 120.801 22.2504 120.169 22.9495C120.021 23.1114 119.863 23.2628 119.701 23.4107V23.298C119.683 22.9459 119.701 22.5551 119.701 22.1819C120.265 21.8465 120.754 21.3967 121.134 20.8615ZM108.702 48.6452L108.723 48.5783C108.847 48.6684 108.956 48.7791 109.043 48.9058C108.958 49.0948 108.918 49.3012 108.926 49.5084C108.935 49.7156 108.992 49.918 109.092 50.0994C109.275 50.4092 109.606 50.6979 109.536 51.0535C109.466 51.4092 109.015 51.55 108.649 51.6098C108.166 51.6873 107.691 51.7753 107.216 51.8704C107.216 51.8704 107.216 51.8704 107.216 51.8458C107.226 51.449 107.173 51.0531 107.057 50.6733C107.878 50.3212 108.385 49.4832 108.702 48.6452Z" fill="url(#paint0_linear)"/>
<path d="M123.356 7.65454C123.672 7.11971 123.865 6.52116 123.92 5.90242C123.976 5.28368 123.893 4.66033 123.677 4.07771C123.462 3.4951 123.119 2.96788 122.674 2.53442C122.229 2.10096 121.693 1.77216 121.105 1.57194C120.516 1.37173 119.891 1.30513 119.274 1.377C118.657 1.44887 118.064 1.6574 117.537 1.98742C117.011 2.31743 116.565 2.76063 116.232 3.28477C115.898 3.8089 115.686 4.40079 115.61 5.01736C115.557 5.43816 115.57 5.86459 115.648 6.28138C114.452 6.84829 113.451 7.75748 112.771 8.89382C112.092 10.0302 111.765 11.3426 111.832 12.6648C111.266 13.5416 110.912 14.5382 110.798 15.5756C110.684 16.613 110.813 17.6626 111.176 18.6413C111.538 19.6199 112.124 20.5007 112.886 21.2137C113.648 21.9268 114.566 22.4524 115.566 22.7491C116.567 23.0458 117.623 23.1052 118.65 22.9228C119.678 22.7404 120.649 22.3211 121.486 21.6981C122.323 21.0752 123.004 20.2657 123.474 19.334C123.944 18.4022 124.19 17.3737 124.194 16.3301C124.194 16.221 124.194 16.1153 124.194 16.0097C125.026 14.7307 125.397 13.2067 125.248 11.6883C125.099 10.1699 124.438 8.74734 123.373 7.65454H123.356Z" fill="#46455B"/>
<g opacity="0.1">
<path opacity="0.1" d="M115.599 5.22161L115.655 5.18992C115.641 5.11774 115.631 5.04487 115.624 4.97162C115.622 4.98683 115.622 5.00218 115.624 5.01739C115.612 5.08497 115.604 5.15314 115.599 5.22161Z" fill="black"/>
<path opacity="0.1" d="M125.215 12.0592C125.093 13.0806 124.738 14.0601 124.176 14.9218C124.176 15.0274 124.176 15.133 124.176 15.2386C124.168 16.9678 123.493 18.6273 122.293 19.8716C121.092 21.116 119.457 21.8494 117.73 21.9193C116.002 21.9891 114.314 21.39 113.016 20.2467C111.719 19.1033 110.913 17.5038 110.765 15.7809C110.765 15.964 110.74 16.133 110.74 16.3301C110.74 18.1118 111.448 19.8206 112.708 21.0804C113.968 22.3403 115.676 23.0481 117.458 23.0481C119.24 23.0481 120.949 22.3403 122.208 21.0804C123.468 19.8206 124.176 18.1118 124.176 16.3301C124.176 16.221 124.176 16.1154 124.176 16.0097C124.739 15.1487 125.095 14.1689 125.215 13.1472C125.27 12.6975 125.279 12.2431 125.239 11.7917C125.25 11.8797 125.229 11.9712 125.215 12.0592Z" fill="black"/>
<path opacity="0.1" d="M123.908 4.96806C123.834 5.53291 123.646 6.07681 123.355 6.56657C123.475 6.68628 123.584 6.81303 123.708 6.93979C123.815 6.64273 123.888 6.33443 123.926 6.02082C123.966 5.67063 123.96 5.31672 123.908 4.96806Z" fill="black"/>
</g>
<path d="M96.2867 79.728C96.3187 80.1102 96.4226 80.4829 96.593 80.8265C96.6788 80.9982 96.8045 81.1469 96.9594 81.2602C97.1144 81.3736 97.2942 81.4482 97.4838 81.4779C97.832 81.4801 98.1733 81.381 98.4662 81.1927C99.0612 80.8793 99.6844 80.5167 99.9942 79.9181C100.304 79.3195 100.255 78.6506 100.202 77.9992L99.8006 72.8762C98.8359 72.8481 97.8641 72.8481 96.8958 72.9009C95.9276 72.9537 95.7691 73.179 95.9029 74.1156C96.167 75.9747 96.0261 77.8654 96.2867 79.728Z" fill="#FBBEBE"/>
<path d="M124.673 83.1891L126.972 86.9072C127.072 87.1241 127.253 87.2934 127.476 87.379C127.64 87.4037 127.808 87.3741 127.954 87.2945C128.699 86.9046 129.353 86.3623 129.873 85.703C130.29 85.3151 130.607 84.8318 130.796 84.2947C130.87 83.9968 130.868 83.6848 130.787 83.3883C130.707 83.0919 130.553 82.8209 130.338 82.6011C130.072 82.3643 129.783 82.1544 129.476 81.9744C127.655 80.7456 126.835 78.4147 125.039 77.1542C124.939 77.0696 124.817 77.0148 124.687 76.9958C124.554 77.0052 124.425 77.0488 124.314 77.1225L121.849 78.4675C120.793 79.0485 121.12 79.1189 121.93 79.7456C123.11 80.6681 123.842 81.9568 124.673 83.1891Z" fill="#FBBEBE"/>
<path d="M101.283 76.7634C100.956 76.6216 100.587 76.609 100.251 76.7282C100.102 76.8187 99.9762 76.9424 99.8827 77.0895C99.7893 77.2367 99.7311 77.4034 99.7126 77.5768C99.6492 77.9289 99.6562 78.281 99.5612 78.6084C99.349 79.154 99.0041 79.638 98.5577 80.0168C98.3894 80.2157 98.1722 80.3674 97.9275 80.4569C97.593 80.5414 97.2409 80.3865 96.9029 80.4569C96.7064 80.5082 96.5276 80.612 96.3855 80.7571C96.2435 80.9022 96.1436 81.0833 96.0966 81.2808C96.0079 81.6773 95.9947 82.0871 96.0578 82.4885L96.3184 85.3404C96.3612 85.6912 96.3612 86.0459 96.3184 86.3967C96.2233 87.027 95.8572 87.5762 95.6565 88.1783C95.4558 88.7804 95.4628 89.5479 95.9698 89.9388C96.1472 90.0568 96.3514 90.1283 96.5637 90.1467C96.7759 90.1652 96.9894 90.13 97.1845 90.0444C97.5721 89.8699 97.9152 89.6099 98.188 89.2839C99.7372 87.5938 100.431 85.3017 101.635 83.3511C101.943 82.9019 102.218 82.4313 102.459 81.9427C102.624 81.5625 102.73 81.1611 102.864 80.7703C103.049 80.2469 103.272 79.7374 103.529 79.2457C103.67 78.964 104.233 78.288 104.107 77.9746C103.92 77.4043 101.804 76.9289 101.283 76.7634Z" fill="#46455B"/>
<path d="M129.242 84.6397C128.894 85.2977 128.311 85.8004 127.609 86.0481C127.406 86.1036 127.218 86.2007 127.056 86.3333C126.949 86.4632 126.883 86.6215 126.866 86.7885C126.848 86.9556 126.88 87.1242 126.957 87.2734C127.119 87.5688 127.328 87.8353 127.577 88.0621C128.967 89.5356 129.887 91.3904 130.218 93.3892C130.25 93.9015 130.4 94.3993 130.658 94.8434C131.246 95.6497 132.503 95.5969 133.39 95.1356C133.661 95.0121 133.896 94.8219 134.073 94.5828C134.221 94.3241 134.315 94.0377 134.348 93.7413C134.509 93.0066 134.597 92.2577 134.612 91.5055C134.612 90.0972 134.062 88.7275 133.809 87.3332C133.457 85.3509 133.626 83.2137 132.703 81.4251C132.616 81.211 132.474 81.0239 132.291 80.8829C132.06 80.761 131.8 80.7027 131.538 80.7139C130.707 80.6822 129.869 80.6751 129.034 80.6928C128.802 80.6928 128.527 80.728 128.408 80.9286C128.366 81.0407 128.352 81.1614 128.368 81.2799C128.384 81.3985 128.429 81.5113 128.499 81.6082C129.01 82.6187 129.848 83.4179 129.242 84.6397Z" fill="#46455B"/>
<path d="M109.434 49.1136C109.201 49.3065 109.044 49.5749 108.988 49.8721C108.933 50.1693 108.984 50.4765 109.131 50.7403C109.318 51.0466 109.649 51.3318 109.575 51.6839C109.501 52.036 109.054 52.1697 108.688 52.2296C105.455 52.7437 102.308 53.6908 99.1811 54.6344L95.8926 55.6238C94.9298 55.8615 94.0086 56.2437 93.1603 56.7575C92.4092 57.2702 91.8146 57.9806 91.4421 58.8102C91.1082 59.6714 90.8926 60.574 90.8013 61.4932C90.3084 64.8557 89.6781 68.2463 88.1782 71.2955L96.1461 73.9115C96.9197 74.1946 97.7211 74.3952 98.5368 74.5101C99.3141 74.5764 100.097 74.5385 100.864 74.3974C100.815 72.6193 100.783 70.7849 100.734 69.0033C100.729 68.4407 100.693 67.8788 100.625 67.3203C100.505 66.4683 100.241 65.6373 100.156 64.7782C100.509 64.4754 101.061 64.5529 101.537 64.5634C102.631 64.5486 103.703 64.2593 104.656 63.7219C105.621 63.222 106.522 62.6023 107.473 62.0917C109.075 61.2432 110.899 60.6834 112.124 59.3348C111.501 61.7115 110.012 63.7818 109.74 66.2218C109.469 68.6618 110.445 71.0983 111.441 73.3763L114.578 80.6576C114.93 81.4604 115.384 82.3653 116.24 82.5554C116.784 82.6265 117.337 82.5177 117.814 82.2456C120.701 80.8935 123.011 78.3479 126.095 77.5381C125.863 76.01 124.659 74.746 123.983 73.3622C123.405 72.1968 123.219 70.88 122.835 69.6371C122.451 68.3942 121.778 67.1302 120.631 66.5387C120.078 66.2605 119.335 66.0141 119.286 65.3979C119.281 65.1996 119.323 65.0029 119.409 64.824C119.821 63.7846 120.462 62.8518 121.286 62.0953C121.39 62.0121 121.475 61.9061 121.532 61.7854C121.559 61.6701 121.565 61.5508 121.55 61.4333C121.49 60.4404 122.021 59.5144 122.606 58.7152C123.19 57.9159 123.884 57.1589 124.218 56.2259C124.792 54.6168 124.218 52.8493 123.655 51.2402C123.47 50.5725 123.149 49.9503 122.712 49.4129C121.972 48.6242 120.824 48.3953 119.747 48.2756C116.279 47.8813 112.198 46.9693 109.434 49.1136Z" fill="#46455B"/>
<g opacity="0.1">
<path opacity="0.1" d="M122.616 56.1588C122.024 56.9581 121.493 57.8841 121.56 58.877C121.575 58.9944 121.569 59.1137 121.542 59.2291C121.485 59.3498 121.4 59.4558 121.296 59.5389C120.472 60.2955 119.831 61.2283 119.419 62.2676C119.334 62.4467 119.291 62.6432 119.296 62.8415C119.332 63.0279 119.416 63.2017 119.54 63.346C119.663 63.4904 119.821 63.6004 120 63.6654C120.358 63.0793 120.797 62.5461 121.303 62.081C121.407 61.9979 121.492 61.8919 121.549 61.7712C121.576 61.6558 121.582 61.5366 121.567 61.4191C121.507 60.4262 122.039 59.5002 122.623 58.7009C123.207 57.9017 123.901 57.1447 124.236 56.2116C124.524 55.2987 124.553 54.3235 124.32 53.3949C124.297 53.4864 124.268 53.578 124.236 53.6695C123.894 54.6026 123.211 55.3631 122.616 56.1588Z" fill="black"/>
<path opacity="0.1" d="M109.071 49.5958C109.188 49.5722 109.296 49.5176 109.385 49.4376C109.473 49.3577 109.539 49.2555 109.574 49.1416C109.581 49.0961 109.581 49.0498 109.574 49.0043L109.423 49.1134C109.268 49.2427 109.147 49.4084 109.071 49.5958Z" fill="black"/>
<path opacity="0.1" d="M98.5365 71.9678C97.7208 71.8529 96.9194 71.6523 96.1458 71.3692L89.1039 69.0595C88.8378 69.8227 88.5263 70.5693 88.1709 71.2953L96.1458 73.9114C96.9194 74.1944 97.7208 74.395 98.5365 74.5099C99.3139 74.5762 100.097 74.5384 100.864 74.3972C100.839 73.5628 100.822 72.7142 100.8 71.8657C100.053 71.9981 99.2924 72.0325 98.5365 71.9678Z" fill="black"/>
<path opacity="0.1" d="M117.824 79.7033C117.348 79.9755 116.795 80.0843 116.251 80.0132C115.395 79.8231 114.934 78.9182 114.589 78.1154L111.452 70.8341C110.747 69.2321 110.061 67.5667 109.807 65.859C109.786 65.9788 109.769 66.0985 109.751 66.2111C109.466 68.6758 110.455 71.0876 111.452 73.3657L114.589 80.647C114.941 81.4497 115.395 82.3546 116.251 82.5447C116.795 82.6158 117.348 82.507 117.824 82.2349C120.712 80.8829 123.021 78.3372 126.106 77.5274C125.945 76.7277 125.623 75.9693 125.159 75.2987C122.532 76.3303 120.409 78.4886 117.824 79.7033Z" fill="black"/>
<path opacity="0.1" d="M112.134 56.7926C110.909 58.1305 109.085 58.7009 107.483 59.5494C106.522 60.06 105.62 60.6797 104.666 61.1796C103.714 61.7181 102.641 62.0086 101.547 62.0247C101.071 62.0247 100.536 61.9331 100.167 62.2359C100.244 63.0281 100.473 63.7992 100.603 64.5844C100.916 64.5421 101.232 64.535 101.547 64.5633C102.641 64.5484 103.713 64.2591 104.666 63.7217C105.631 63.2218 106.532 62.6021 107.483 62.0916C108.539 61.5317 109.691 61.0951 110.705 60.4754C111.268 59.2833 111.746 58.0526 112.134 56.7926Z" fill="black"/>
</g>
<path d="M114.93 23.9142C114.969 24.3109 114.916 24.7111 114.776 25.0841C114.635 25.4571 114.411 25.7929 114.12 26.0655C113.927 26.231 113.698 26.3542 113.511 26.5267C113.343 26.6985 113.215 26.9047 113.135 27.1311C113.055 27.3574 113.026 27.5985 113.048 27.8375C113.071 28.0765 113.146 28.3076 113.267 28.5148C113.388 28.722 113.553 28.9002 113.751 29.0372C114.384 29.4245 115.191 29.3188 115.923 29.1921C116.9 29.0573 117.857 28.808 118.775 28.4492C119.699 28.0871 120.485 27.4426 121.021 26.6077C120.636 26.3616 120.317 26.0237 120.094 25.6243C119.871 25.2249 119.75 24.7765 119.743 24.3191C119.694 23.4072 119.944 22.372 119.366 21.6643C118.789 20.9566 117.764 20.9883 116.902 21.2207C116.476 21.3404 116.064 21.5024 115.638 21.6186C115.42 21.6749 114.708 21.6784 114.582 21.8369C114.335 22.1256 114.905 23.453 114.93 23.9142Z" fill="#FBBEBE"/>
<path opacity="0.1" d="M114.93 23.9142C114.969 24.3109 114.916 24.7111 114.776 25.0841C114.635 25.4571 114.411 25.7929 114.12 26.0655C113.927 26.231 113.698 26.3542 113.511 26.5267C113.343 26.6985 113.215 26.9047 113.135 27.1311C113.055 27.3574 113.026 27.5985 113.048 27.8375C113.071 28.0765 113.146 28.3076 113.267 28.5148C113.388 28.722 113.553 28.9002 113.751 29.0372C114.384 29.4245 115.191 29.3188 115.923 29.1921C116.9 29.0573 117.857 28.808 118.775 28.4492C119.699 28.0871 120.485 27.4426 121.021 26.6077C120.636 26.3616 120.317 26.0237 120.094 25.6243C119.871 25.2249 119.75 24.7765 119.743 24.3191C119.694 23.4072 119.944 22.372 119.366 21.6643C118.789 20.9566 117.764 20.9883 116.902 21.2207C116.476 21.3404 116.064 21.5024 115.638 21.6186C115.42 21.6749 114.708 21.6784 114.582 21.8369C114.335 22.1256 114.905 23.453 114.93 23.9142Z" fill="black"/>
<path d="M117.377 23.8649C119.984 23.8649 122.098 21.751 122.098 19.1433C122.098 16.5357 119.984 14.4218 117.377 14.4218C114.769 14.4218 112.655 16.5357 112.655 19.1433C112.655 21.751 114.769 23.8649 117.377 23.8649Z" fill="#FBBEBE"/>
<path d="M102.469 55.3596C102.386 55.7356 102.236 56.0934 102.026 56.4159C101.474 57.3932 101.275 58.5308 101.462 59.6376C101.561 60.1862 101.794 60.7019 102.14 61.1392C102.485 61.5765 102.934 61.9218 103.445 62.1445C103.658 62.2509 103.896 62.2991 104.134 62.2842C104.372 62.2694 104.602 62.192 104.8 62.06C104.17 61.2396 104.135 60.1199 104.174 59.0848C104.162 58.8918 104.208 58.6997 104.304 58.532C104.33 58.4926 104.364 58.459 104.404 58.4332C104.444 58.4073 104.488 58.3897 104.535 58.3815C104.582 58.3733 104.63 58.3746 104.676 58.3853C104.722 58.3961 104.766 58.416 104.804 58.444C104.786 59.096 104.912 59.744 105.173 60.3417C105.272 60.5706 105.441 60.8241 105.695 60.8171C106.047 60.8171 106.149 60.3206 106.135 59.9615C106.082 58.4968 106.008 56.9722 105.304 55.6906C104.994 55.2511 104.756 54.765 104.6 54.2505C104.594 54.0674 104.53 53.8908 104.416 53.747C104.339 53.6859 104.249 53.6437 104.152 53.6238C103.748 53.5076 102.783 53.152 102.448 53.5323C102.114 53.9125 102.533 54.8737 102.469 55.3596Z" fill="#FBBEBE"/>
<path d="M109.48 30.28C108.937 30.2167 108.511 30.7131 108.216 31.1708C107.109 32.8743 106.313 34.76 105.864 36.741C105.635 37.7515 105.494 38.8007 105.012 39.7197C104.897 39.9107 104.804 40.1138 104.733 40.3253C104.694 40.65 104.68 40.9772 104.691 41.3041C104.642 41.8921 104.293 42.4167 104.177 42.9977C104.107 43.3497 104.121 43.7018 104.057 44.0539C103.952 44.6595 103.617 45.2018 103.402 45.7827C103.026 46.8038 103.029 47.9234 102.751 48.9762C102.717 49.1487 102.642 49.3105 102.533 49.448C102.346 49.6557 102.043 49.705 101.8 49.8388C101.607 49.957 101.441 50.1152 101.313 50.3028C101.186 50.4905 101.1 50.7032 101.061 50.9268C100.988 51.3739 100.979 51.8293 101.036 52.2788L101.255 55.0709C101.477 54.9759 101.607 54.7188 101.811 54.5674C102.163 54.2858 102.652 54.3491 103.089 54.4266L103.726 54.5428C104.378 54.659 105.085 54.8104 105.487 55.3244C105.818 54.8033 105.631 54.0393 106.138 53.6943C106.304 53.5816 106.511 53.5464 106.684 53.4478C106.848 53.3412 106.985 53.1966 107.082 53.0263C107.178 52.8559 107.233 52.6648 107.24 52.469C107.251 52.0768 107.197 51.6855 107.082 51.3106C107.899 50.9585 108.406 50.1381 108.726 49.3107C109.077 48.309 109.332 47.2763 109.487 46.2263C110.223 42.0752 110.895 37.8958 110.965 33.6813C111.012 32.9773 110.934 32.2706 110.737 31.5934C110.518 30.9244 110.18 30.3575 109.48 30.28Z" fill="#013183"/>
<path opacity="0.1" d="M109.48 30.28C108.937 30.2167 108.511 30.7131 108.216 31.1708C107.109 32.8743 106.313 34.76 105.864 36.741C105.635 37.7515 105.494 38.8007 105.012 39.7197C104.897 39.9107 104.804 40.1138 104.733 40.3253C104.694 40.65 104.68 40.9772 104.691 41.3041C104.642 41.8921 104.293 42.4167 104.177 42.9977C104.107 43.3497 104.121 43.7018 104.057 44.0539C103.952 44.6595 103.617 45.2018 103.402 45.7827C103.026 46.8038 103.029 47.9234 102.751 48.9762C102.717 49.1487 102.642 49.3105 102.533 49.448C102.346 49.6557 102.043 49.705 101.8 49.8388C101.607 49.957 101.441 50.1152 101.313 50.3028C101.186 50.4905 101.1 50.7032 101.061 50.9268C100.988 51.3739 100.979 51.8293 101.036 52.2788L101.255 55.0709C101.477 54.9759 101.607 54.7188 101.811 54.5674C102.163 54.2858 102.652 54.3491 103.089 54.4266L103.726 54.5428C104.378 54.659 105.085 54.8104 105.487 55.3244C105.818 54.8033 105.631 54.0393 106.138 53.6943C106.304 53.5816 106.511 53.5464 106.684 53.4478C106.848 53.3412 106.985 53.1966 107.082 53.0263C107.178 52.8559 107.233 52.6648 107.24 52.469C107.251 52.0768 107.197 51.6855 107.082 51.3106C107.899 50.9585 108.406 50.1381 108.726 49.3107C109.077 48.309 109.332 47.2763 109.487 46.2263C110.223 42.0752 110.895 37.8958 110.965 33.6813C111.012 32.9773 110.934 32.2706 110.737 31.5934C110.518 30.9244 110.18 30.3575 109.48 30.28Z" fill="black"/>
<path d="M121.377 25.7592C120.598 26.5761 119.603 27.1549 118.508 27.4281C117.417 27.697 116.302 27.8609 115.18 27.9175C114.836 27.9736 114.482 27.9433 114.152 27.8295C113.99 27.7668 113.856 27.646 113.777 27.4906C113.699 27.3352 113.68 27.1561 113.726 26.988C113.786 26.8869 113.828 26.776 113.849 26.6605C113.849 26.3718 113.42 26.3472 113.145 26.4317C111.328 26.995 109.585 28.1076 108.748 29.8153C108.325 30.8051 108.061 31.8556 107.966 32.9278C107.572 35.7445 107.177 38.5859 107.705 41.378C107.991 42.8603 108.533 44.3004 108.564 45.8074C108.586 46.6524 108.441 47.4939 108.448 48.3389C108.424 48.6348 108.504 48.9298 108.674 49.1734C108.804 49.3248 109.001 49.4198 109.093 49.5994C109.244 49.8952 109.04 50.3036 109.24 50.5747C109.49 50.9057 110.004 50.6663 110.346 50.4339C112.059 49.2711 114.128 48.7511 116.187 48.9656C118.652 49.2297 121.117 50.5501 123.518 49.8881C123.394 49.7087 123.288 49.5177 123.201 49.3177C122.004 45.3884 122.085 40.9907 123.877 37.2937C124.486 36.0297 125.285 34.8291 125.532 33.4418C125.626 32.7944 125.635 32.1373 125.556 31.4877C125.473 30.2214 125.093 28.9924 124.447 27.8999C123.768 26.819 122.638 25.8859 121.377 25.7592Z" fill="#013183"/>
<path d="M109.958 56.5744C109.767 57.0889 109.675 57.6348 109.687 58.1835C109.67 58.707 109.696 59.231 109.764 59.7503C109.806 60.1948 109.965 60.6202 110.226 60.9826C110.358 61.1609 110.541 61.296 110.75 61.3705C110.959 61.4451 111.186 61.4559 111.402 61.4016C111.57 61.3306 111.721 61.223 111.843 61.0866C111.964 60.9502 112.054 60.7884 112.106 60.6129C112.207 60.2598 112.282 59.8997 112.331 59.5355C112.535 58.4792 113.099 57.4582 113.109 56.3667C113.116 56.2371 113.096 56.1075 113.049 55.9864C112.845 55.5392 111.842 55.0358 111.352 55.1097C110.747 55.2048 110.183 56.0568 109.958 56.5744Z" fill="#FBBEBE"/>
<path opacity="0.1" d="M123.581 29.7449C123.49 30.685 124.398 31.3927 124.757 32.2623C124.903 32.6701 124.986 33.0974 125.004 33.5299C125.257 36.5332 125.06 39.5507 124.863 42.554C124.834 43.5542 124.716 44.5499 124.511 45.5292C124.004 47.5819 122.75 49.3635 121.536 51.0888C121.352 51.3713 121.138 51.6334 120.898 51.8704C120.54 52.161 120.142 52.3982 119.715 52.5746L115.525 54.6062C115 54.8378 114.501 55.1246 114.036 55.4618C113.496 55.8844 113.073 56.4368 112.804 57.0673C111.99 56.6518 111.145 56.2786 110.339 55.8632C110.149 55.7646 109.934 55.6378 109.903 55.4266C109.86 55.1449 110.156 54.9442 110.36 54.7224C110.74 54.3456 110.857 53.7858 111.064 53.2929C111.74 51.6732 113.434 50.6381 114.047 48.9973C114.283 48.3671 114.353 47.6523 114.772 47.1242C115.01 46.8596 115.279 46.6233 115.571 46.42C116.214 45.8721 116.803 45.265 117.332 44.6067C117.572 44.3584 117.768 44.0716 117.913 43.7582C118.047 43.2751 118.093 42.7719 118.05 42.2724C118.082 40.6316 118.825 39.1035 119.279 37.5261C119.705 36.0438 119.884 34.4876 120.444 33.0475C121.004 31.6074 122.081 30.1322 123.581 29.7449Z" fill="black"/>
<path d="M124.127 29.7449C124.035 30.685 124.94 31.3927 125.299 32.2623C125.446 32.6699 125.53 33.0972 125.549 33.5299C125.799 36.5332 125.605 39.5507 125.408 42.554C125.374 43.5548 125.25 44.5504 125.038 45.5292C124.531 47.5819 123.278 49.3635 122.063 51.0888C121.879 51.3713 121.666 51.6334 121.426 51.8704C121.068 52.161 120.669 52.3982 120.243 52.5746L116.05 54.6062C115.525 54.8393 115.026 55.126 114.56 55.4618C114.022 55.8854 113.598 56.4374 113.328 57.0673C112.515 56.6518 111.673 56.2786 110.863 55.8632C110.673 55.7646 110.458 55.6378 110.427 55.4266C110.381 55.1449 110.677 54.9442 110.881 54.7224C111.265 54.3456 111.381 53.7858 111.585 53.2929C112.258 51.6732 113.955 50.6381 114.567 48.9973C114.803 48.3671 114.874 47.6523 115.293 47.1242C115.529 46.8579 115.798 46.6214 116.092 46.42C116.734 45.8721 117.324 45.265 117.852 44.6067C118.092 44.3584 118.288 44.0716 118.433 43.7582C118.566 43.2748 118.612 42.7718 118.571 42.2724C118.602 40.6316 119.342 39.1035 119.796 37.5261C120.225 36.0438 120.401 34.4876 120.961 33.0475C121.521 31.6074 122.634 30.1322 124.127 29.7449Z" fill="#013183"/>
<path d="M119.715 11.8445C118.261 11.6678 116.789 11.9733 115.525 12.7141C115.712 12.7141 115.898 12.7141 116.085 12.7564C117.482 12.9252 118.79 13.5283 119.826 14.4807C120.862 15.4331 121.572 16.6866 121.857 18.0644C122.142 19.4422 121.988 20.8748 121.415 22.16C120.842 23.4452 119.881 24.5182 118.666 25.2275C120.392 25.2828 122.073 24.6709 123.361 23.519C124.648 22.3671 125.442 20.7637 125.578 19.0418C125.714 17.3198 125.181 15.6117 124.091 14.2721C123 12.9324 121.436 12.0643 119.722 11.848L119.715 11.8445Z" fill="#46455B"/>
<path d="M121.782 15.5802C121.945 15.9493 122.034 16.3472 122.043 16.7509C122.052 17.1546 121.981 17.556 121.835 17.9322C121.803 17.8371 121.768 17.742 121.726 17.647C120.895 15.7985 118.338 15.0344 116.011 15.9393C115.392 16.159 114.827 16.5069 114.352 16.9601C113.877 17.4133 113.503 17.9617 113.254 18.5694C112.663 16.7808 113.863 14.7316 116.071 13.8725C118.395 12.9676 120.951 13.7317 121.782 15.5802Z" fill="#46455B"/>
<g opacity="0.1">
<path opacity="0.1" d="M121.796 17.7877C121.689 16.4908 121.208 15.2528 120.411 14.2241C119.614 13.1953 118.535 12.42 117.306 11.9922C116.682 12.1399 116.082 12.3771 115.525 12.6964C115.712 12.6964 115.898 12.6964 116.085 12.7387C117.436 12.9021 118.706 13.4725 119.726 14.3742C120.746 15.2759 121.468 16.4664 121.796 17.7877Z" fill="black"/>
<path opacity="0.1" d="M122.883 12.8831C122.775 11.5865 122.294 10.3489 121.497 9.32033C120.7 8.29172 119.622 7.51619 118.394 7.08765C117.769 7.24367 117.169 7.48789 116.612 7.81296C116.799 7.81296 116.986 7.81296 117.176 7.85521C118.524 8.01736 119.791 8.58477 120.81 9.48248C121.83 10.3802 122.552 11.566 122.883 12.8831Z" fill="black"/>
<path opacity="0.1" d="M122.912 5.56306C122.845 4.78377 122.553 4.04065 122.073 3.42338C121.592 2.80611 120.943 2.34107 120.204 2.08438C119.826 2.17613 119.463 2.322 119.127 2.51746C119.24 2.51746 119.352 2.51746 119.479 2.54562C120.289 2.64437 121.049 2.98526 121.662 3.52367C122.274 4.06207 122.71 4.77289 122.912 5.56306Z" fill="black"/>
<path opacity="0.1" d="M125.425 16.8723C125.555 18.4832 125.1 20.0869 124.145 21.3902C123.189 22.6936 121.797 23.6095 120.221 23.9705C119.768 24.4631 119.243 24.8855 118.665 25.2239C119.707 25.2619 120.743 25.057 121.692 24.6254C122.641 24.1938 123.476 23.5473 124.132 22.7371C124.788 21.9269 125.246 20.9752 125.47 19.9573C125.695 18.9394 125.679 17.8832 125.425 16.8723Z" fill="black"/>
</g>
<path d="M184.997 87.1889C184.566 86.8331 184.032 86.6261 183.474 86.5988C182.917 86.5715 182.365 86.7254 181.902 87.0375C181.198 87.5586 180.891 88.4247 180.603 89.2416C180.18 90.4493 179.497 91.6217 179.384 92.8998C179.071 96.4208 176.603 99.3819 175.863 102.832C175.592 104.065 175.539 105.36 175.029 106.512C174.784 107.017 174.502 107.503 174.184 107.966C172.946 109.912 171.885 111.966 171.015 114.103C170.402 114.29 169.899 114.877 169.409 115.346C168.782 115.946 168.031 116.403 167.209 116.684C166.874 116.759 166.561 116.912 166.297 117.131C165.945 117.504 165.945 118.106 165.653 118.539C165.445 118.823 165.169 119.049 164.85 119.198C164.828 119.098 164.812 118.997 164.801 118.895C164.727 118.356 164.667 117.817 164.61 117.279C165.43 116.083 165.797 114.633 165.645 113.191C165.492 111.749 164.831 110.408 163.779 109.409C163.714 108.569 163.739 107.724 163.853 106.889C163.905 106.688 163.9 106.476 163.838 106.278C163.775 106.08 163.659 105.904 163.501 105.769C163.329 105.66 163.118 105.635 162.934 105.544C162.669 105.365 162.444 105.134 162.273 104.864C161.778 104.303 161.101 103.936 160.361 103.826C159.621 103.717 158.867 103.872 158.23 104.265C157.245 104.924 156.724 106.093 155.882 106.934C155.445 107.367 154.928 107.709 154.495 108.142C153.629 109.071 153.066 110.241 152.882 111.497C152.701 112.747 152.651 114.012 152.731 115.272C152.722 115.654 152.777 116.035 152.893 116.399C153.018 116.697 153.192 116.973 153.407 117.215C154.438 118.561 155.802 119.615 157.364 120.275C157.375 120.35 157.381 120.425 157.382 120.5C157.382 120.617 157.382 120.733 157.354 120.853L157.181 120.824C156.547 120.747 155.879 120.824 155.291 120.581C154.287 120.148 153.882 118.874 152.893 118.374C152.811 118.331 152.725 118.295 152.636 118.268C152.401 116.627 151.918 115.031 151.203 113.536C150.851 112.832 150.453 112.099 150.411 111.304C150.432 110.564 150.599 109.836 150.9 109.16C151.696 106.741 152.324 104.27 152.78 101.766C153.099 100.195 153.421 98.6249 153.745 97.0545C154.182 96.657 154.568 96.2064 154.893 95.7131C155.571 94.7318 155.968 93.5836 156.04 92.3928C156.072 91.799 155.985 91.2049 155.786 90.6447C155.587 90.0845 155.278 89.5693 154.879 89.1289C154.702 88.9143 154.482 88.7403 154.232 88.6187C153.982 88.4972 153.709 88.431 153.431 88.4247C153.192 88.453 152.961 88.53 152.753 88.6512C152.544 88.7723 152.363 88.9349 152.22 89.1289C151.79 89.731 151.479 90.4098 151.305 91.1288C150.953 92.2978 150.601 93.516 150.759 94.7272C150.903 95.7307 151.393 96.8186 150.893 97.6989C149.245 100.583 148.108 103.825 146.886 106.917C146.571 107.658 146.314 108.424 146.118 109.205C145.874 110.465 145.831 111.756 145.992 113.029C146.282 115.417 146.742 117.781 147.368 120.103C147.625 121.159 147.928 122.275 148.534 123.145C148.319 124.324 148.267 125.528 148.379 126.722C148.393 126.998 148.465 127.268 148.59 127.514C148.792 127.798 149.037 128.048 149.315 128.257C149.693 128.608 149.991 129.037 150.19 129.513C150.389 129.989 150.483 130.502 150.467 131.017C150.484 131.982 150.671 132.935 151.02 133.834C151.861 136.345 152.706 138.855 153.442 141.401C153.602 141.872 153.689 142.365 153.703 142.862C153.703 143.566 153.368 144.27 153.523 144.974C153.641 145.293 153.738 145.618 153.812 145.95C153.817 146.206 153.784 146.461 153.713 146.707C153.255 148.696 151.932 153.284 152.16 155.315L152.615 155.157C152.421 157.847 151.59 160.481 151.287 163.171C151.088 165.129 151.11 167.104 151.351 169.058C151.482 169.931 151.557 170.812 151.576 171.695C151.576 172.487 151.449 173.269 151.417 174.057C151.402 175.117 151.464 176.176 151.604 177.226C151.742 178.874 152.004 180.509 152.389 182.117C153.122 184.849 152.629 187.694 152.71 190.525C152.804 192.499 152.784 194.478 152.65 196.45C152.576 197.285 152.46 198.116 152.435 198.954C152.361 201.44 153.097 203.915 152.836 206.387C152.713 207.545 152.417 208.851 153.146 209.763C153.379 210.048 153.692 210.253 153.938 210.524C154.073 210.65 154.171 210.809 154.225 210.985C154.279 211.161 154.286 211.348 154.245 211.527C154.15 211.805 153.893 212.009 153.833 212.302C153.766 212.759 154.269 213.076 154.706 213.224L154.829 213.259C154.82 213.412 154.843 213.565 154.897 213.708C154.951 213.851 155.035 213.982 155.143 214.09C155.416 214.299 155.741 214.428 156.083 214.464L161.716 215.555C162.973 215.798 164.339 216.027 165.519 215.601C165.564 215.771 165.656 215.926 165.783 216.048C166.055 216.256 166.379 216.385 166.719 216.421L172.353 217.513C173.79 217.791 175.367 218.048 176.648 217.337C177.018 217.139 177.33 216.849 177.553 216.495C177.733 216.16 177.837 215.789 177.859 215.409C177.88 215.028 177.818 214.648 177.677 214.295C177.569 213.932 177.349 213.613 177.05 213.383C176.65 213.163 176.195 213.065 175.74 213.101C175.354 213.129 174.967 213.07 174.606 212.928C174.496 212.871 174.4 212.789 174.325 212.689C174.606 212.337 174.877 211.985 175.134 211.633C174.892 211.576 174.782 211.242 174.723 210.995C173.997 207.341 175.015 203.601 175.163 199.869C175.238 198.001 175.091 196.13 174.726 194.296C174.589 193.591 174.423 192.923 174.325 192.225C173.807 188.588 175.191 184.895 174.751 181.247C174.543 179.543 175.275 177.761 175.536 176.064C175.765 174.557 175.617 173.022 175.469 171.487L174.304 159.516C174.145 157.9 173.98 156.245 173.29 154.773C172.945 153.95 172.782 153.063 172.811 152.171C174.219 151.365 175.515 150.256 177.106 150.252C177.413 149.09 176.532 145.425 176.018 144.341C174.013 140.065 173.22 135.322 173.726 130.627C173.913 128.94 173.24 127.239 173.466 125.556C173.499 125.162 173.609 124.778 173.789 124.426C173.88 124.252 174.014 124.103 174.178 123.994C174.341 123.885 174.53 123.819 174.726 123.803C174.627 122.793 174.497 121.775 174.325 120.765C174.904 120.173 175.38 119.489 175.733 118.74C176.465 117.208 176.789 115.518 177.215 113.878C177.99 110.987 179.173 108.226 180.11 105.389C181.046 102.551 180.863 99.5509 181.536 96.6356C181.915 95.0295 182.899 93.6312 184.282 92.7308C184.817 92.3787 185.426 92.1076 185.796 91.5865C186.075 91.1582 186.221 90.6575 186.218 90.1465C186.25 89.5934 186.157 89.0402 185.945 88.5282C185.734 88.0162 185.409 87.5584 184.997 87.1889ZM163.477 210.379C163.582 210.235 163.684 210.091 163.779 209.939C163.406 209.918 162.934 209.7 162.889 209.327C162.877 208.953 162.919 208.58 163.012 208.217C163.118 207.57 163.078 206.907 162.896 206.277C162.765 205.841 162.572 205.422 162.431 204.985C162.293 204.498 162.184 204.003 162.104 203.503C161.758 201.715 161.221 199.969 160.501 198.295C159.797 196.672 160.343 194.901 160.35 193.13C160.35 192.296 160.223 191.444 160.435 190.634C160.558 190.155 160.787 189.711 160.917 189.226C161.206 188.109 160.843 186.937 160.487 185.842C161.878 182.553 162.065 178.8 162.35 175.223C162.51 173.223 162.669 171.228 162.829 169.237C162.899 168.346 162.98 167.42 163.449 166.66C164.28 169.203 164.776 171.844 164.924 174.515C164.938 175.287 165.028 176.056 165.191 176.811C165.413 177.645 165.846 178.402 166.135 179.212C166.776 180.994 166.709 182.941 166.998 184.81C167.114 185.567 167.29 186.314 167.403 187.071C167.888 190.412 167.103 193.796 166.322 197.081C165.843 199.095 165.92 201.323 165.811 203.39C165.709 205.373 165.603 207.355 165.653 209.341C165.653 209.946 165.691 210.566 165.684 211.182C165.493 211.159 165.3 211.149 165.107 211.15C164.721 211.179 164.333 211.12 163.973 210.978C163.75 210.834 163.577 210.625 163.477 210.379Z" fill="url(#paint1_linear)"/>
<path d="M175.757 213.126C176.212 213.091 176.666 213.187 177.067 213.404C177.365 213.635 177.584 213.952 177.694 214.312C177.834 214.664 177.896 215.042 177.874 215.42C177.852 215.797 177.747 216.166 177.567 216.499C177.343 216.851 177.031 217.139 176.662 217.333C175.381 218.037 173.803 217.787 172.367 217.513L166.733 216.432C166.394 216.402 166.069 216.28 165.793 216.08C165.622 215.892 165.514 215.655 165.484 215.402C165.455 215.15 165.505 214.894 165.628 214.671C165.873 214.227 166.239 213.861 166.684 213.615C168.304 212.608 170.205 212.207 172.064 211.992C172.768 211.907 173.427 211.682 173.955 212.172C174.236 212.429 174.222 212.749 174.617 212.957C174.98 213.097 175.369 213.154 175.757 213.126Z" fill="#3F3D56"/>
<path d="M165.114 211.189C165.567 211.154 166.02 211.251 166.42 211.467C166.72 211.696 166.939 212.014 167.047 212.376C167.189 212.727 167.251 213.105 167.23 213.483C167.209 213.861 167.104 214.229 166.923 214.562C166.699 214.913 166.387 215.201 166.019 215.397C164.737 216.101 163.16 215.851 161.72 215.576L156.086 214.492C155.746 214.462 155.421 214.34 155.146 214.14C154.974 213.952 154.866 213.715 154.835 213.463C154.805 213.21 154.855 212.954 154.977 212.731C155.23 212.287 155.602 211.921 156.051 211.675C157.667 210.672 159.572 210.284 161.431 210.055C162.135 209.967 162.793 209.745 163.322 210.231C163.6 210.488 163.589 210.809 163.98 211.017C164.34 211.158 164.728 211.216 165.114 211.189Z" fill="#3F3D56"/>
<path d="M163.727 151.333C160.47 151.347 157.219 151.595 153.998 152.076C153.785 152.096 153.577 152.151 153.382 152.238C152.699 152.59 152.678 153.548 152.696 154.316C152.741 157.439 151.674 160.463 151.322 163.561C151.12 165.507 151.141 167.469 151.382 169.41C151.51 170.279 151.585 171.155 151.608 172.033C151.608 172.814 151.477 173.593 151.446 174.378C151.429 175.425 151.49 176.473 151.629 177.511C151.767 179.149 152.029 180.773 152.414 182.37C153.143 185.085 152.65 187.912 152.727 190.722C152.821 192.684 152.799 194.65 152.66 196.609C152.586 197.44 152.47 198.264 152.446 199.098C152.372 201.563 153.104 204.028 152.843 206.492C152.72 207.64 152.421 208.957 153.15 209.844C153.382 210.126 153.695 210.33 153.938 210.601C154.071 210.726 154.17 210.883 154.224 211.057C154.278 211.231 154.287 211.416 154.248 211.594C154.15 211.872 153.879 212.076 153.836 212.365C153.766 212.819 154.269 213.136 154.706 213.281C156.369 213.791 158.153 213.749 159.79 213.16C161.427 212.572 162.829 211.469 163.786 210.017C163.413 209.996 162.941 209.777 162.896 209.408C162.884 209.036 162.926 208.665 163.019 208.305C163.127 207.663 163.087 207.004 162.903 206.38C162.776 205.943 162.579 205.527 162.441 205.094C162.304 204.611 162.195 204.119 162.114 203.623C161.771 201.844 161.235 200.109 160.516 198.447C159.811 196.834 160.361 195.074 160.368 193.32C160.368 192.489 160.244 191.641 160.452 190.838C160.575 190.359 160.804 189.919 160.938 189.43C161.227 188.321 160.864 187.159 160.508 186.071C161.917 182.803 162.093 179.057 162.378 175.508L162.86 169.522C162.931 168.639 163.015 167.716 163.48 166.963C164.312 169.488 164.808 172.111 164.955 174.765C164.967 175.534 165.056 176.299 165.219 177.05C165.441 177.874 165.871 178.628 166.163 179.434C166.8 181.194 166.733 183.134 167.022 184.993C167.138 185.747 167.311 186.486 167.424 187.24C167.909 190.56 167.121 193.93 166.336 197.186C165.857 199.186 165.931 201.411 165.822 203.457C165.716 205.425 165.61 207.394 165.66 209.365C165.702 211.179 165.843 213.126 164.867 214.647C165.959 215.203 167.086 215.77 168.304 215.875C169.721 215.951 171.12 215.527 172.258 214.678C173.384 213.831 174.363 212.805 175.156 211.64C174.909 211.583 174.803 211.249 174.744 211.006C174.018 207.376 175.039 203.647 175.191 199.95C175.265 198.095 175.12 196.237 174.758 194.415C174.62 193.711 174.451 193.046 174.353 192.356C173.842 188.743 175.226 185.071 174.789 181.441C174.585 179.744 175.318 177.976 175.578 176.286C175.807 174.79 175.663 173.265 175.515 171.758L174.356 159.875C174.201 158.266 174.036 156.622 173.346 155.161C172.522 153.4 173.032 151.231 172.944 149.291C170.036 150.571 166.904 151.265 163.727 151.333Z" fill="#46455B"/>
<path d="M170.529 116.141C171.488 113.524 172.732 111.021 174.24 108.677C174.558 108.217 174.841 107.733 175.085 107.23C175.599 106.089 175.652 104.801 175.923 103.575C176.68 100.146 179.152 97.2024 179.469 93.7166C179.582 92.4456 180.265 91.2802 180.691 90.0795C180.976 89.2662 181.3 88.4071 181.99 87.8895C182.453 87.5805 183.004 87.4281 183.56 87.4547C184.116 87.4813 184.649 87.6855 185.081 88.0374C185.503 88.4022 185.834 88.8589 186.051 89.3724C186.268 89.8858 186.364 90.4421 186.331 90.9985C186.333 91.506 186.186 92.0028 185.909 92.428C185.536 92.9456 184.93 93.2237 184.395 93.5652C183.015 94.455 182.03 95.8419 181.645 97.4383C180.969 100.336 181.152 103.311 180.212 106.131C179.272 108.952 178.099 111.698 177.314 114.582C176.874 116.212 176.561 117.891 175.825 119.412C175.089 120.933 173.839 122.307 172.195 122.697C172.091 121.65 171.82 120.627 171.392 119.666C170.899 118.553 170.114 117.272 170.529 116.141Z" fill="#A0616A"/>
<path d="M152.815 120.159C152.679 118.102 152.148 116.09 151.252 114.233C150.9 113.529 150.505 112.825 150.463 112.019C150.485 111.283 150.651 110.559 150.952 109.888C151.75 107.481 152.379 105.021 152.836 102.526L153.808 97.8433C154.243 97.4485 154.627 97.0015 154.952 96.5124C155.632 95.5394 156.03 94.3979 156.104 93.2133C156.136 92.6223 156.05 92.0308 155.851 91.4734C155.653 90.916 155.344 90.4039 154.945 89.967C154.767 89.7564 154.545 89.5865 154.296 89.4687C154.046 89.3508 153.774 89.2878 153.498 89.2839C153.259 89.3121 153.028 89.3892 152.819 89.5103C152.611 89.6315 152.43 89.7941 152.287 89.9881C151.864 90.5816 151.559 91.251 151.389 91.9598C151.037 93.1217 150.685 94.3294 150.84 95.5336C150.981 96.53 151.474 97.6109 150.97 98.4841C149.319 101.354 148.181 104.572 146.956 107.639C146.643 108.376 146.387 109.136 146.192 109.913C145.945 111.165 145.9 112.449 146.058 113.716C146.347 116.093 146.805 118.446 147.432 120.758C147.784 122.208 148.224 123.786 149.442 124.655C150.445 123.05 151.459 121.476 152.815 120.159Z" fill="#A0616A"/>
<path d="M159.685 120.564C163.023 120.564 165.73 117.857 165.73 114.518C165.73 111.18 163.023 108.473 159.685 108.473C156.346 108.473 153.639 111.18 153.639 114.518C153.639 117.857 156.346 120.564 159.685 120.564Z" fill="#A0616A"/>
<path d="M157.428 121.148C157.393 122.25 156.914 123.282 156.442 124.282C156.157 124.884 155.784 125.557 155.132 125.69C156.966 126.424 158.868 126.97 160.812 127.321C161.477 127.47 162.162 127.509 162.84 127.437C163.41 127.335 163.957 127.132 164.456 126.838C165.55 126.218 166.489 125.356 167.2 124.319C167.912 123.282 168.379 122.097 168.565 120.853C167.819 120.95 167.065 120.97 166.315 120.912C165.89 120.924 165.478 120.771 165.163 120.486C164.965 120.211 164.852 119.882 164.84 119.543C164.706 118.543 164.599 117.541 164.519 116.536C163.032 116.594 161.569 116.929 160.206 117.525C159.643 117.772 159.093 118.057 158.512 118.268C158.16 118.395 157.143 118.42 156.896 118.649C156.516 119.011 157.449 120.388 157.428 121.148Z" fill="#A0616A"/>
<path d="M160.46 124.528C160.311 123.745 159.921 123.029 159.343 122.48C158.766 121.931 158.031 121.577 157.241 121.469C156.608 121.395 155.939 121.469 155.351 121.233C154.347 120.8 153.925 119.536 152.953 119.039C151.981 118.543 150.721 119.004 150.002 119.835C149.284 120.666 148.981 121.796 148.763 122.852C148.424 124.317 148.314 125.825 148.436 127.324C148.452 127.599 148.525 127.867 148.65 128.113C148.852 128.394 149.095 128.644 149.372 128.852C149.749 129.199 150.048 129.624 150.246 130.096C150.445 130.569 150.539 131.079 150.523 131.591C150.536 132.556 150.722 133.51 151.073 134.408C151.914 136.901 152.759 139.397 153.492 141.925C153.651 142.393 153.739 142.882 153.752 143.376C153.735 144.08 153.4 144.784 153.573 145.471C153.687 145.787 153.783 146.111 153.858 146.439C153.864 146.694 153.83 146.948 153.759 147.193C153.298 149.171 151.974 153.727 152.203 155.745C155.206 154.639 159.738 153.984 162.921 153.632C163.796 153.532 164.677 153.48 165.558 153.477C167.67 153.477 169.885 153.875 171.857 153.101C173.684 152.397 175.202 150.699 177.166 150.692C177.473 149.541 176.592 145.9 176.082 144.823C174.079 140.58 173.289 135.865 173.8 131.2C173.983 129.525 173.314 127.834 173.543 126.162C173.576 125.77 173.685 125.389 173.864 125.039C173.956 124.865 174.091 124.717 174.255 124.608C174.419 124.499 174.608 124.433 174.804 124.416C174.57 121.794 174.056 119.204 173.272 116.691C172.987 115.796 172.473 114.761 171.536 114.701C170.691 114.645 170.068 115.406 169.459 116.001C168.83 116.597 168.079 117.05 167.258 117.328C166.922 117.402 166.608 117.555 166.343 117.775C165.991 118.145 165.991 118.747 165.699 119.184C165.192 119.965 163.896 120.039 163.586 120.912C163.521 121.169 163.475 121.43 163.449 121.694C163.305 122.208 163.016 122.67 162.618 123.025C162.034 123.697 161.293 124.214 160.46 124.528Z" fill="#2F2E41"/>
<path d="M163.906 107.621C163.958 107.422 163.952 107.212 163.89 107.016C163.828 106.819 163.711 106.645 163.554 106.512C163.368 106.425 163.178 106.348 162.984 106.283C162.719 106.103 162.495 105.87 162.325 105.6C161.83 105.041 161.153 104.676 160.414 104.567C159.675 104.459 158.922 104.615 158.287 105.008C157.297 105.663 156.78 106.825 155.935 107.66C155.502 108.093 154.984 108.431 154.547 108.864C153.683 109.784 153.119 110.946 152.931 112.195C152.751 113.437 152.7 114.695 152.78 115.948C152.769 116.328 152.824 116.706 152.942 117.068C153.068 117.364 153.242 117.637 153.456 117.877C154.529 119.279 155.968 120.359 157.614 120.997C159.269 121.581 161.202 121.511 162.681 120.564C162.829 120.482 162.951 120.36 163.033 120.212C163.103 119.992 163.103 119.756 163.033 119.536C162.857 118.659 162.941 117.749 163.276 116.92C163.569 116.342 163.83 115.748 164.057 115.142C164.202 114.446 164.221 113.731 164.114 113.029C163.941 111.233 163.628 109.424 163.906 107.621Z" fill="#46455B"/>
<path d="M266.2 201.369C266.2 236.008 287.931 264.042 314.789 264.042L266.2 201.369Z" fill="#46455B"/>
<path d="M314.789 264.042C314.789 229.008 339.037 200.665 369.011 200.665L314.789 264.042Z" fill="#013183"/>
<path d="M283.804 204.489C283.804 237.395 297.659 264.024 314.788 264.024L283.804 204.489Z" fill="#013183"/>
<path d="M314.789 264.042C314.789 219.28 342.819 183.06 377.461 183.06L314.789 264.042Z" fill="#46455B"/>
<path d="M304.564 264.464C304.564 264.464 311.454 264.253 313.532 262.774C315.609 261.295 324.133 259.528 324.647 261.901C325.161 264.274 335.002 273.696 327.225 273.76C319.447 273.823 309.148 272.548 307.074 271.295C305.001 270.041 304.564 264.464 304.564 264.464Z" fill="#A8A8A8"/>
<path opacity="0.2" d="M327.352 272.932C319.574 272.996 309.275 271.721 307.201 270.468C305.624 269.503 304.994 266.056 304.786 264.461H304.554C304.554 264.461 304.99 270.017 307.064 271.281C309.138 272.545 319.433 273.82 327.214 273.746C329.457 273.728 330.235 272.929 330.193 271.746C329.89 272.492 329.035 272.918 327.352 272.932Z" fill="black"/>
<path opacity="0.1" d="M267.144 12.8761C267.448 12.4423 267.616 11.9273 267.626 11.3973C267.626 8.1862 261.084 5.58775 253.014 5.58775C244.944 5.58775 238.402 8.1862 238.402 11.3973C238.409 11.9944 238.611 12.5731 238.976 13.0451C229.991 14.0486 223.938 15.9287 223.938 18.0871C223.938 21.2946 237.318 23.8966 253.866 23.8966C270.415 23.8966 283.794 21.2946 283.794 18.0871C283.805 15.8161 277.002 13.8267 267.144 12.8761Z" fill="#013183"/>
<path opacity="0.1" d="M87.9277 19.2138C88.2323 18.78 88.4003 18.265 88.4101 17.735C88.4101 14.5239 81.8682 11.9254 73.7982 11.9254C65.7282 11.9254 59.1863 14.5239 59.1863 17.735C59.2009 18.3354 59.4125 18.9144 59.7884 19.3828C50.803 20.3862 44.7505 22.2664 44.7505 24.4248C44.7505 27.6323 58.1476 30.2343 74.6784 30.2343C91.2092 30.2343 104.606 27.6323 104.606 24.4248C104.589 22.1538 97.7863 20.1644 87.9277 19.2138Z" fill="#013183"/>
<path opacity="0.1" d="M190.647 14.3338C191.468 13.8585 192.577 14.3127 193.14 15.0802C193.704 15.8478 193.844 16.8407 194.003 17.7632C194.316 19.8476 194.545 22.2383 193.14 23.8051C195.436 16.8442 202.038 11.5135 209.337 10.7354" stroke="#013183" stroke-width="3" stroke-miterlimit="10"/>
<path opacity="0.1" d="M73.2144 49.8881C73.7425 49.5818 74.4537 49.8881 74.8164 50.3669C75.1393 50.8882 75.3303 51.4804 75.3727 52.0922C75.5734 53.4337 75.7248 54.9688 74.8199 55.9652C75.5921 53.73 76.977 51.7568 78.8166 50.2707C80.6563 48.7847 82.8766 47.8456 85.2243 47.5608" stroke="#013183" stroke-width="3" stroke-miterlimit="10"/>
<path opacity="0.1" d="M231.656 60.4509C232.184 60.1446 232.896 60.4509 233.258 60.9298C233.581 61.4511 233.772 62.0433 233.815 62.655C234.015 63.9965 234.167 65.5316 233.262 66.5281C234.034 64.2928 235.419 62.3196 237.259 60.8335C239.098 59.3475 241.318 58.4085 243.666 58.1236" stroke="#013183" stroke-width="3" stroke-miterlimit="10"/>
<path opacity="0.1" d="M218.667 178.835V170.279L222.61 174.223L223.596 173.202L217.963 167.568L212.329 173.202L213.315 174.184L217.258 170.279V178.835H218.667Z" fill="#013183"/>
<path opacity="0.1" d="M133.461 207.003V198.447L137.404 202.39L138.39 201.369L132.757 195.736L127.123 201.369L128.109 202.351L132.052 198.447V207.003H133.461Z" fill="#013183"/>
<path opacity="0.1" d="M196.133 232.001V223.445L200.077 227.389L201.062 226.368L195.429 220.734L189.795 226.368L190.781 227.35L194.725 223.445V232.001H196.133Z" fill="#013183"/>
<defs>
<linearGradient id="paint0_linear" x1="111.353" y1="95.4595" x2="111.353" y2="-0.0105444" gradientUnits="userSpaceOnUse">
<stop stop-color="#808080" stop-opacity="0.25"/>
<stop offset="0.54" stop-color="#808080" stop-opacity="0.12"/>
<stop offset="1" stop-color="#808080" stop-opacity="0.1"/>
</linearGradient>
<linearGradient id="paint1_linear" x1="27274.5" y1="59567" x2="32469.3" y2="59030.1" gradientUnits="userSpaceOnUse">
<stop stop-color="#808080" stop-opacity="0.25"/>
<stop offset="0.54" stop-color="#808080" stop-opacity="0.12"/>
<stop offset="1" stop-color="#808080" stop-opacity="0.1"/>
</linearGradient>
</defs>
</svg>
