<svg width="149" height="153" viewBox="0 0 149 153" fill="none" xmlns="http://www.w3.org/2000/svg">
<path d="M134.613 93.1289C132.327 89.1686 122.884 90.3346 113.545 95.7323C111.919 96.669 110.353 97.7067 108.858 98.8393C108.039 88.5678 103.347 78.9912 95.7331 72.0485C88.1191 65.1057 78.1514 61.3156 67.848 61.4454C57.5447 61.5752 47.6757 65.6152 40.2389 72.7475C32.8022 79.8798 28.3535 89.5715 27.7935 99.8604C25.9191 98.3164 23.919 96.9316 21.8139 95.7208C12.4928 90.3346 3.04738 89.1686 0.76366 93.1289C-1.52006 97.0892 4.21339 104.674 13.553 110.072C19.6038 113.565 25.6868 115.283 29.8472 114.991C32.2271 122.069 36.5094 128.354 42.2248 133.16C34.0329 134.309 28.0096 138.141 28.0096 142.699C28.0096 148.159 36.6593 152.588 47.3281 152.588C57.997 152.588 66.6466 148.159 66.6466 142.699C66.6466 142.685 66.6466 142.672 66.6466 142.656C67.2201 142.68 67.7958 142.693 68.3738 142.695C68.9518 142.696 69.5275 142.683 70.101 142.656C70.101 142.672 70.101 142.685 70.101 142.699C70.101 148.159 78.7506 152.588 89.4195 152.588C100.088 152.588 108.738 148.159 108.738 142.699C108.738 138.141 102.715 134.307 94.5228 133.16C100.23 128.363 104.509 122.09 106.891 115.025C110.96 114.92 116.412 113.216 121.84 110.081C131.182 104.674 136.913 97.0869 134.613 93.1289Z" fill="#013183"/>
<path opacity="0.1" d="M0.763277 95.1988C3.0493 91.2386 12.4924 92.4046 21.8319 97.8022C23.9032 98.9907 25.8731 100.348 27.7218 101.859C27.8115 99.9135 27.8115 101.983 27.8069 99.8583C25.9319 98.319 23.9318 96.939 21.8273 95.7324C12.4924 90.3347 3.047 89.1687 0.763277 93.129C0.259616 94.0006 0.146925 95.0494 0.374607 96.2108C0.453497 95.8561 0.584476 95.5151 0.763277 95.1988Z" fill="black"/>
<path opacity="0.1" d="M134.664 95.1988C132.378 91.2386 122.935 92.4046 113.593 97.8022C111.415 99.0579 110.585 99.5179 108.855 100.939C108.763 98.9936 108.763 101.063 108.77 98.9384C110.518 97.4918 111.381 97.0111 113.6 95.7324C122.951 90.3347 132.385 89.1687 134.671 93.129C135.174 94.0006 135.287 95.0494 135.059 96.2108C134.978 95.8558 134.845 95.5147 134.664 95.1988Z" fill="black"/>
<path d="M57.4838 99.7042C59.8107 99.7042 61.6971 97.2341 61.6971 94.187C61.6971 91.1398 59.8107 88.6697 57.4838 88.6697C55.1569 88.6697 53.2705 91.1398 53.2705 94.187C53.2705 97.2341 55.1569 99.7042 57.4838 99.7042Z" fill="#444053"/>
<path d="M79.2518 99.7042C81.5788 99.7042 83.4651 97.2341 83.4651 94.187C83.4651 91.1398 81.5788 88.6697 79.2518 88.6697C76.9249 88.6697 75.0386 91.1398 75.0386 94.187C75.0386 97.2341 76.9249 99.7042 79.2518 99.7042Z" fill="#444053"/>
<path d="M94.5503 111.541C94.5503 119.462 81.3195 132.805 67.969 132.805C54.6185 132.805 41.8867 119.161 41.8867 111.247C41.8867 103.333 54.3495 110.557 67.6884 110.557C81.0274 110.557 94.5503 103.618 94.5503 111.541Z" fill="#3F3D56"/>
<path d="M46.0953 112.894C46.0953 112.894 70.0939 118.236 90.2518 113.045C90.2518 113.045 92.7196 113.045 91.0338 115.897C90.5957 116.635 89.9579 117.235 89.1939 117.627C85.3072 119.611 70.9218 125.48 47.919 117.997C47.2041 117.773 46.5559 117.376 46.0325 116.84C45.5091 116.304 45.1268 115.647 44.9201 114.927C44.6579 113.958 44.7752 113.029 46.0953 112.894Z" fill="#F6F8FB"/>
<path opacity="0.1" d="M68.2195 66.8213C78.5764 66.8219 88.5421 70.7782 96.0793 77.8815C103.617 84.9848 108.156 94.6987 108.77 105.037C108.847 104.026 108.885 103.004 108.885 101.972C108.804 91.2503 104.489 80.9953 96.8786 73.4424C89.2687 65.8895 78.9815 61.6511 68.2597 61.6511C57.5379 61.6511 47.2508 65.8895 39.6408 73.4424C32.0309 80.9953 27.7152 91.2503 27.6345 101.972C27.6345 102.784 27.6621 103.582 27.7081 104.389C28.48 94.1728 33.083 84.6256 40.5953 77.6592C48.1075 70.6928 57.9743 66.8218 68.2195 66.8213Z" fill="black"/>
<path d="M72.8027 14.2774C72.8027 14.9612 72.6681 15.6382 72.4064 16.27C72.1447 16.9017 71.7612 17.4757 71.2777 17.9592C70.7942 18.4427 70.2202 18.8262 69.5885 19.0879C68.9568 19.3495 68.2797 19.4842 67.5959 19.4842C66.9122 19.4842 66.2351 19.3495 65.6034 19.0879C64.9717 18.8262 64.3977 18.4427 63.9142 17.9592C63.4307 17.4757 63.0472 16.9017 62.7855 16.27C62.5238 15.6382 62.3892 14.9612 62.3892 14.2774C62.3892 14.1923 62.3892 14.1095 62.3892 14.0267C62.4578 12.694 63.0356 11.4384 64.0033 10.5194C64.9709 9.60032 66.2545 9.08789 67.5891 9.08789C68.9236 9.08789 70.2072 9.60032 71.1748 10.5194C72.1425 11.4384 72.7203 12.694 72.7889 14.0267C72.8004 14.1095 72.8027 14.1946 72.8027 14.2774Z" fill="#3F3D56"/>
<path opacity="0.1" d="M72.8027 14.2774C72.8027 14.9611 72.6681 15.6382 72.4064 16.2699C72.1447 16.9017 71.7612 17.4756 71.2777 17.9591C70.7942 18.4426 70.2202 18.8262 69.5885 19.0878C68.9568 19.3495 68.2797 19.4842 67.5959 19.4842C66.9122 19.4842 66.2351 19.3495 65.6034 19.0878C64.9717 18.8262 64.3977 18.4426 63.9142 17.9591C63.4307 17.4756 63.0472 16.9017 62.7855 16.2699C62.5238 15.6382 62.3892 14.9611 62.3892 14.2774C62.3892 14.1923 62.3892 14.1095 62.3892 14.0267C63.8569 12.8278 65.6939 12.1729 67.5891 12.1729C69.4842 12.1729 71.3212 12.8278 72.7889 14.0267C72.8004 14.1095 72.8027 14.1946 72.8027 14.2774Z" fill="black"/>
<path d="M67.5961 29.0768C72.1369 29.0768 75.818 25.3957 75.818 20.8549C75.818 16.3141 72.1369 12.6331 67.5961 12.6331C63.0553 12.6331 59.3743 16.3141 59.3743 20.8549C59.3743 25.3957 63.0553 29.0768 67.5961 29.0768Z" fill="#3F3D56"/>
<path d="M62.6288 13.1275C62.6293 11.8662 63.0874 10.6479 63.9181 9.69884C64.7488 8.74974 65.8956 8.13426 67.1457 7.96665C66.4101 7.86823 65.662 7.92817 64.9516 8.14246C64.2411 8.35675 63.5846 8.72044 63.0262 9.20914C62.4677 9.69784 62.0202 10.3003 61.7135 10.9761C61.4069 11.6518 61.2483 12.3854 61.2483 13.1275C61.2483 13.8695 61.4069 14.6031 61.7135 15.2788C62.0202 15.9546 62.4677 16.5571 63.0262 17.0458C63.5846 17.5345 64.2411 17.8982 64.9516 18.1124C65.662 18.3267 66.4101 18.3867 67.1457 18.2883C65.8956 18.1206 64.7488 17.5052 63.9181 16.5561C63.0874 15.607 62.6293 14.3887 62.6288 13.1275Z" fill="#3F3D56"/>
<path d="M58.3212 24.1918C57.3758 23.3565 56.7658 22.2063 56.6046 20.955C56.4435 19.7038 56.7421 18.4366 57.445 17.3889C56.9074 17.8561 56.4714 18.4286 56.164 19.0711C55.8565 19.7135 55.6841 20.4122 55.6575 21.1239C55.6308 21.8356 55.7504 22.5452 56.0089 23.2088C56.2675 23.8725 56.6594 24.476 57.1604 24.9821C57.6615 25.4882 58.2611 25.8862 58.9221 26.1513C59.5831 26.4165 60.2915 26.5432 61.0035 26.5237C61.7154 26.5041 62.4158 26.3387 63.0612 26.0377C63.7067 25.7367 64.2836 25.3065 64.7561 24.7736C64.9097 24.6004 65.0511 24.4168 65.1793 24.224C64.2264 25.0507 63.0057 25.5032 61.7442 25.4972C60.4827 25.4913 59.2663 25.0274 58.3212 24.1918Z" fill="#3F3D56"/>
<path d="M63.2977 31.28C62.8884 31.418 62.433 31.4479 62.0811 31.6962C61.3912 32.1723 61.4211 33.1819 61.6212 33.9961C62.0811 35.8359 63.2311 37.6091 64.972 38.3657C66.0253 38.8257 67.2029 38.8694 68.3482 38.8556C69.597 38.8418 71.0022 38.6831 71.7749 37.7057C72.159 37.2158 72.3223 36.5949 72.4763 35.99C72.8581 34.4951 73.2422 32.9657 73.1042 31.4295C72.3476 31.4962 71.4943 31.5399 70.9148 31.0638C70.3352 30.5877 70.1834 29.6839 69.9258 28.9273C69.8982 28.8069 69.83 28.6997 69.7327 28.6237C69.6257 28.5716 69.5054 28.5531 69.3877 28.5708C68.5969 28.6005 67.8051 28.5612 67.0212 28.4535C66.5313 28.3891 65.3262 27.8785 64.9513 28.3086C64.6822 28.6237 64.8524 29.5735 64.6478 30.0128C64.5187 30.3034 64.3327 30.5652 64.1009 30.7829C63.869 31.0005 63.5959 31.1695 63.2977 31.28Z" fill="#FFC1C7"/>
<path opacity="0.05" d="M63.2977 31.28C62.8884 31.418 62.433 31.4479 62.0811 31.6962C61.3912 32.1723 61.4211 33.1819 61.6212 33.9961C62.0811 35.8359 63.2311 37.6091 64.972 38.3657C66.0253 38.8257 67.2029 38.8694 68.3482 38.8556C69.597 38.8418 71.0022 38.6831 71.7749 37.7057C72.159 37.2158 72.3223 36.5949 72.4763 35.99C72.8581 34.4951 73.2422 32.9657 73.1042 31.4295C72.3476 31.4962 71.4943 31.5399 70.9148 31.0638C70.3352 30.5877 70.1834 29.6839 69.9258 28.9273C69.8982 28.8069 69.83 28.6997 69.7327 28.6237C69.6257 28.5716 69.5054 28.5531 69.3877 28.5708C68.5969 28.6005 67.8051 28.5612 67.0212 28.4535C66.5313 28.3891 65.3262 27.8785 64.9513 28.3086C64.6822 28.6237 64.8524 29.5735 64.6478 30.0128C64.5187 30.3034 64.3327 30.5652 64.1009 30.7829C63.869 31.0005 63.5959 31.1695 63.2977 31.28Z" fill="black"/>
<path d="M20.3488 84.9325C18.5089 84.9877 16.6299 84.9095 14.8292 85.3143C14.4855 85.3533 14.168 85.517 13.9368 85.7743C13.6724 86.1514 13.8127 86.6781 14.0311 87.0852C14.5298 88.0048 15.3631 88.6974 16.3586 89.0193C17.4533 89.3689 18.6331 89.2355 19.7784 89.2723C21.3408 89.322 22.8765 89.6915 24.2906 90.3578C24.6126 90.5096 24.953 90.6798 25.3049 90.6269C25.8131 90.5487 26.1305 90.0404 26.3191 89.5621C26.5299 88.9868 26.6997 88.3973 26.8273 87.7981C27.0941 86.6643 27.1309 84.4243 25.5739 84.1184C24.861 83.9804 24.0216 84.4726 23.3362 84.6151C22.352 84.8107 21.3521 84.917 20.3488 84.9325Z" fill="#444053"/>
<path d="M114.644 85.4638C115.082 85.314 115.459 85.0248 115.718 84.6405C116.408 83.6354 116.408 82.4349 116.773 81.3333C117.233 79.9005 118.252 78.7184 118.892 77.3546C119.464 76.134 119.728 74.7914 119.66 73.4449C119.655 73.3475 119.629 73.2522 119.584 73.1654C119.54 73.0786 119.477 73.0022 119.401 72.9414C119.325 72.8805 119.236 72.8365 119.142 72.8123C119.047 72.7881 118.949 72.7843 118.852 72.801C117.985 72.9689 117.199 73.5967 116.647 74.3143C115.936 75.2342 115.472 76.3289 114.743 77.2373C114.014 78.1458 112.99 78.8748 112.123 79.7096C111.035 80.7584 110.182 81.8991 111.153 83.2606C111.942 84.3783 113.032 85.9928 114.644 85.4638Z" fill="#444053"/>
<path d="M58.2795 55.3475C52.4913 62.8714 45.3076 69.2095 37.1212 74.0152C34.6167 75.4847 32.0041 76.8186 29.7778 78.6838C28.0898 80.1005 26.657 81.7932 25.2334 83.4766C25.0699 83.6365 24.9578 83.8415 24.9114 84.0654C24.9054 84.2276 24.9344 84.3892 24.9965 84.5391C25.4565 85.896 25.99 87.3679 27.2181 88.1085C30.4011 83.5088 36.7256 82.3198 41.5759 79.537C43.8297 78.2445 45.8835 76.6393 47.9625 75.0846C50.9676 72.8354 54.0394 70.6804 57.1779 68.6198C59.2592 67.2537 61.4027 65.9106 63.7899 65.1999C68.8495 63.6867 74.3691 65.1999 79.0423 67.6838C83.7155 70.1676 87.8299 73.5621 92.4089 76.2046C98.6322 79.7923 105.575 81.9082 112.45 83.9941C112.696 82.3428 112.845 80.7237 113.195 79.0909C111.479 78.8494 109.858 78.1709 108.257 77.5063C106.47 76.7612 104.672 76.0068 103.066 74.9236C102.006 74.2061 101.042 73.3505 99.9937 72.6238C97.7077 71.0139 95.0583 70.002 92.7423 68.4404C89.725 66.4074 87.3907 63.5303 84.6309 61.1592C83.4281 60.1265 82.1494 59.1905 80.8684 58.2568C79.5437 57.2886 78.1983 56.3111 76.6712 55.7109C74.8589 54.9956 72.8811 54.8485 70.9377 54.7105C66.5911 54.3885 62.3985 53.9607 58.2795 55.3475Z" fill="#575A89"/>
<path d="M67.4812 30.5716C70.6566 30.5716 73.2308 27.9975 73.2308 24.8221C73.2308 21.6467 70.6566 19.0725 67.4812 19.0725C64.3059 19.0725 61.7317 21.6467 61.7317 24.8221C61.7317 27.9975 64.3059 30.5716 67.4812 30.5716Z" fill="#FFC1C7"/>
<path d="M67.3109 36.811C66.2759 36.6822 65.2836 36.3205 64.4085 35.7531C63.5333 35.1773 62.903 34.2971 62.64 33.2831C62.4537 32.4712 62.5572 31.595 62.2306 30.8314C61.1936 31.3513 60.1169 31.7881 59.0108 32.1377C58.3876 32.3332 57.7367 32.5126 57.2308 32.9243C56.143 33.8097 56.0809 35.4196 56.1108 36.8202C56.101 37.0976 56.136 37.3749 56.2143 37.6412C56.3177 37.894 56.4701 38.1238 56.6627 38.3174C57.8448 39.5823 59.6824 40.1066 60.8024 41.4336C60.2182 42.0882 59.8413 42.9014 59.7192 43.7702C59.6922 44.1195 59.6431 44.4667 59.572 44.8098C59.4786 45.0925 59.3656 45.3684 59.2339 45.6354C58.5072 47.2913 58.5325 49.1633 58.4221 50.9664C58.3117 52.7694 57.9989 54.6898 56.78 56.026C57.2768 56.5595 57.9299 56.7159 58.6452 56.7826C59.3604 56.8493 60.101 56.755 60.83 56.7826C62.7527 56.8378 64.5672 57.6244 66.4209 58.1372C68.2745 58.6501 70.3789 58.8594 72.0186 57.8543C72.5936 57.5025 73.0812 57.0172 73.6584 56.6699C74.3484 56.2514 75.1579 56.0513 75.9582 55.8558L76.2457 46.2517C76.2524 45.5786 76.3008 44.9066 76.3906 44.2394C76.8069 41.613 78.4834 39.3891 80.1071 37.2847C80.0112 36.3256 79.6987 35.4007 79.1931 34.58C78.6876 33.7593 78.0021 33.0642 77.1886 32.5471C76.4602 32.1144 75.6896 31.7568 74.8888 31.48L72.9984 30.7532C72.831 30.6727 72.6454 30.6378 72.4602 30.6521C72.0508 30.7256 71.8944 31.2247 71.8714 31.6387C71.8346 32.2918 71.9312 32.9473 71.9082 33.6004C71.8852 34.2536 71.722 34.9435 71.2597 35.4058C70.9275 35.7032 70.5354 35.9259 70.1098 36.0589C69.1439 36.4269 68.3297 36.9628 67.3109 36.811Z" fill="#FEBA1B"/>
<path d="M59.6807 60.8808C59.7566 62.1618 59.8325 63.4566 59.6164 64.7215C59.4002 65.9864 58.8712 67.2375 57.9099 68.0885C57.167 68.7439 56.1229 69.2384 55.9389 70.2204C55.8939 70.4355 55.9115 70.6589 55.9895 70.8643C56.1942 71.3473 56.7945 71.5658 57.3142 71.483C57.8283 71.3641 58.3034 71.1155 58.6941 70.7608C59.4906 70.1099 60.2536 69.4191 60.9801 68.691C61.6218 68.0678 62.2864 67.41 62.5555 66.5568C62.6673 66.1502 62.7298 65.7317 62.7418 65.3103C62.8913 63.0104 62.9304 60.7106 62.9718 58.4108C62.9994 56.7365 63.0178 55.0094 62.4014 53.4524C62.4934 53.6824 60.2534 53.9009 60.0832 53.9124C59.1173 53.9975 59.3013 54.3953 59.3565 55.306C59.4638 57.1704 59.5719 59.0287 59.6807 60.8808Z" fill="#FFC1C7"/>
<path d="M76.428 60.8808C76.3521 62.1618 76.2762 63.4566 76.4924 64.7215C76.7086 65.9864 77.2375 67.2375 78.1988 68.0885C78.9417 68.7439 79.9858 69.2384 80.1698 70.2204C80.2148 70.4355 80.1972 70.6589 80.1192 70.8643C79.9145 71.3473 79.3142 71.5658 78.7945 71.483C78.2804 71.3641 77.8053 71.1155 77.4146 70.7608C76.6181 70.1099 75.8552 69.4191 75.1286 68.691C74.4869 68.0678 73.8223 67.41 73.5532 66.5568C73.4414 66.1502 73.3789 65.7317 73.3669 65.3103C73.2174 63.0104 73.1783 60.7106 73.1369 58.4108C73.1093 56.7365 73.0909 55.0094 73.7073 53.4524C73.6153 53.6824 75.8553 53.9009 76.0255 53.9124C76.9914 53.9975 76.8074 54.3953 76.7522 55.306C76.651 57.1704 76.543 59.0287 76.428 60.8808Z" fill="#FFC1C7"/>
<path opacity="0.1" d="M56.7942 35.9739C55.9824 38.3703 56.3113 41.0335 57.1415 43.4184C57.3439 44.0049 57.5808 44.6166 57.4865 45.2307C57.4176 45.5448 57.3222 45.8525 57.2013 46.1506C56.9663 46.8715 56.9234 47.6412 57.0771 48.3837C57.1112 48.6067 57.1988 48.8182 57.3324 49.0001C57.4145 49.0842 57.4913 49.1733 57.5624 49.2668C57.8775 49.759 57.2588 50.3685 57.3324 50.9503C57.3876 51.4333 57.8775 51.7185 58.2201 52.0657C59.1884 53.0477 59.0021 54.6461 58.7491 56.003C59.9243 55.8995 60.9385 54.9382 62.116 55.0164C62.5031 55.0483 62.8727 55.1913 63.1804 55.4284C63.488 55.6655 63.7206 55.9864 63.8501 56.3526C63.8064 55.2142 64.2112 54.2437 64.3101 53.1075C64.4411 51.6288 63.4844 50.3041 63.0222 48.8966C62.3483 46.8451 62.7278 44.6166 62.5622 42.4571C62.4905 41.6547 62.3738 40.8569 62.2126 40.0676C62.0033 38.9866 61.6975 37.8045 60.7821 37.1905C59.6023 36.4062 57.8269 36.9628 56.7942 35.9739Z" fill="black"/>
<path d="M56.564 35.5139C55.7522 37.9103 56.0811 40.5735 56.9113 42.9584C57.1137 43.5449 57.3506 44.1566 57.2563 44.7707C57.1873 45.0848 57.0919 45.3926 56.9711 45.6906C56.736 46.4115 56.6932 47.1813 56.8469 47.9237C56.881 48.1468 56.9686 48.3583 57.1022 48.5401C57.1842 48.6242 57.261 48.7133 57.3322 48.8069C57.6472 49.299 57.0286 49.9085 57.1022 50.4903C57.1574 50.9733 57.6472 51.2585 57.9899 51.6058C58.9581 52.5878 58.7718 54.1862 58.5189 55.5431C59.6941 55.4396 60.7083 54.4782 61.8858 54.5564C62.2729 54.5883 62.6425 54.7314 62.9502 54.9685C63.2578 55.2055 63.4904 55.5265 63.6199 55.8926C63.5762 54.7542 63.9809 53.7837 64.0798 52.6476C64.2109 51.1688 63.2542 49.8441 62.7919 48.4366C62.1181 46.3852 62.4976 44.1566 62.332 41.9971C62.2603 41.1947 62.1436 40.3969 61.9824 39.6076C61.7731 38.5267 61.4672 37.3446 60.5519 36.7305C59.3721 35.9463 57.5966 36.5028 56.564 35.5139Z" fill="#FEBA1B"/>
<path opacity="0.1" d="M79.3208 35.9739C80.1326 38.3703 79.8037 41.0335 78.9735 43.4184C78.7711 44.0049 78.5342 44.6166 78.6285 45.2307C78.6974 45.5448 78.7928 45.8525 78.9137 46.1506C79.1487 46.8715 79.1915 47.6412 79.0379 48.3837C79.0038 48.6067 78.9162 48.8182 78.7826 49.0001C78.7005 49.0842 78.6237 49.1733 78.5526 49.2668C78.2375 49.759 78.8562 50.3685 78.7826 50.9503C78.7274 51.4333 78.2375 51.7185 77.8949 52.0657C76.9266 53.0477 77.1129 54.6461 77.3659 56.003C76.1907 55.8995 75.1765 54.9382 73.999 55.0164C73.6119 55.0483 73.2423 55.1913 72.9346 55.4284C72.627 55.6655 72.3944 55.9864 72.2649 56.3526C72.3086 55.2142 71.9038 54.2437 71.8049 53.1075C71.6739 51.6288 72.6306 50.3041 73.0928 48.8966C73.7667 46.8451 73.3872 44.6166 73.5528 42.4571C73.6234 41.6586 73.7386 40.8647 73.8978 40.0791C74.1071 38.9981 74.4129 37.816 75.3283 37.202C76.5127 36.4062 78.2881 36.9628 79.3208 35.9739Z" fill="black"/>
<path d="M79.5505 35.5139C80.3623 37.9103 80.0335 40.5735 79.2032 42.9584C79.0008 43.5449 78.764 44.1566 78.8582 44.7707C78.9272 45.0848 79.0226 45.3926 79.1434 45.6906C79.3785 46.4115 79.4213 47.1813 79.2676 47.9237C79.2335 48.1468 79.1459 48.3583 79.0123 48.5401C78.9303 48.6242 78.8535 48.7133 78.7823 48.8069C78.4673 49.299 79.0859 49.9085 79.0123 50.4903C78.9571 50.9733 78.4673 51.2585 78.1246 51.6058C77.1564 52.5878 77.3427 54.1862 77.5956 55.5431C76.4204 55.4396 75.4062 54.4782 74.2287 54.5564C73.8416 54.5883 73.472 54.7314 73.1643 54.9685C72.8567 55.2055 72.6241 55.5265 72.4946 55.8926C72.5383 54.7542 72.1336 53.7837 72.0347 52.6476C71.9036 51.1688 72.8603 49.8441 73.3226 48.4366C73.9964 46.3852 73.617 44.1566 73.7825 41.9971C73.8531 41.1986 73.9683 40.4047 74.1275 39.6191C74.3368 38.5382 74.6427 37.3561 75.558 36.742C76.7424 35.9463 78.5179 36.5028 79.5505 35.5139Z" fill="#FEBA1B"/>
<path d="M67.366 24.0169C71.1765 24.0169 74.2655 21.9576 74.2655 19.4173C74.2655 16.877 71.1765 14.8176 67.366 14.8176C63.5555 14.8176 60.4666 16.877 60.4666 19.4173C60.4666 21.9576 63.5555 24.0169 67.366 24.0169Z" fill="#3F3D56"/>
<path opacity="0.1" d="M67.366 23.5594C63.6725 23.5594 60.6551 21.6229 60.4666 19.1897C60.4666 19.2656 60.4666 19.3415 60.4666 19.4197C60.4666 21.9495 63.5575 24.0193 67.366 24.0193C71.1745 24.0193 74.2655 21.9495 74.2655 19.4197C74.2655 19.3415 74.2655 19.2656 74.2655 19.1897C74.0792 21.6229 71.0618 23.5594 67.366 23.5594Z" fill="black"/>
<path d="M26.6572 7.84929L23.0879 10.1146L25.2543 6.17272C24.6409 5.68326 23.8818 5.41217 23.0971 5.40228H23.0396C22.7917 5.40675 22.5439 5.38905 22.2991 5.34938L21.0894 6.11522L21.6068 5.1723C20.7494 4.87233 20.0088 4.30883 19.491 3.56242L17.3269 4.94232L18.7022 2.45161C17.4372 0.933728 15.7308 0 13.8518 0C11.6003 0 9.59485 1.3408 8.30006 3.42673C7.91716 4.05307 7.3746 4.56632 6.72799 4.91387C6.08138 5.26142 5.35397 5.43078 4.62034 5.40458H4.50075C2.01465 5.40458 0 8.22416 0 11.6992C0 15.1742 2.01465 17.9938 4.50075 17.9938C5.04671 17.9918 5.58407 17.8576 6.06693 17.6028C7.6883 16.7588 9.81794 16.7427 11.5152 17.4947C12.244 17.82 13.0331 17.9881 13.8311 17.9881C14.6292 17.9881 15.4183 17.82 16.1471 17.4947C17.0017 17.1243 17.9259 16.9419 18.8571 16.9598C19.7884 16.9776 20.7049 17.1954 21.5447 17.5982C22.0241 17.8484 22.5564 17.9801 23.0971 17.9823C25.5832 17.9823 27.5979 15.165 27.5979 11.6877C27.6104 10.3497 27.287 9.02991 26.6572 7.84929Z" fill="#F2F2F2"/>
<path opacity="0.03" d="M19.9303 17.0601C18.6314 16.8137 17.2886 16.9603 16.0735 17.481C15.3451 17.8062 14.5564 17.9742 13.7587 17.9742C12.961 17.9742 12.1723 17.8062 11.4439 17.481C10.5823 17.1031 9.64884 16.9168 8.70814 16.9351C7.76745 16.9533 6.84195 17.1757 5.99564 17.5868C5.51334 17.8433 4.97574 17.9783 4.42946 17.9801C2.21933 17.9801 0.38407 15.7561 0 12.8216C0.441324 12.4993 0.81618 12.0948 1.10392 11.6302C2.39872 9.54431 4.40416 8.20581 6.65568 8.20581C8.90721 8.20581 10.8897 9.52821 12.1753 11.5934C12.5616 12.2166 13.1022 12.7294 13.7449 13.0824C14.3875 13.4353 15.1103 13.6164 15.8435 13.6081H15.901C17.6672 13.5966 19.1897 15.0064 19.9303 17.0601Z" fill="black"/>
<path d="M148.543 47.3118L146.763 48.441L147.844 46.477C147.537 46.2321 147.158 46.0969 146.765 46.0929H146.738C146.614 46.0941 146.49 46.0848 146.367 46.0653L145.765 46.4471L146.022 45.9871C145.595 45.8367 145.226 45.556 144.967 45.1845L143.888 45.8744L144.578 44.6348C144.291 44.2614 143.923 43.9569 143.503 43.7436C143.083 43.5303 142.621 43.4136 142.149 43.4021C141.027 43.4021 140.027 44.0713 139.39 45.1109C139.198 45.4236 138.926 45.6798 138.603 45.8531C138.28 46.0265 137.916 46.1108 137.55 46.0975H137.49C136.25 46.0975 135.245 47.5027 135.245 49.2367C135.245 50.9708 136.25 52.3714 137.49 52.3714C137.763 52.3705 138.031 52.3034 138.272 52.1759C138.694 51.9709 139.156 51.8599 139.625 51.8508C140.095 51.8417 140.56 51.9346 140.99 52.123C141.352 52.2839 141.744 52.3671 142.14 52.3671C142.536 52.3671 142.928 52.2839 143.29 52.123C143.717 51.938 144.178 51.847 144.642 51.8562C145.107 51.8653 145.564 51.9743 145.983 52.1759C146.222 52.3007 146.487 52.3661 146.756 52.3668C147.996 52.3668 149.001 50.9616 149.001 49.2275C149.01 48.5608 148.853 47.9023 148.543 47.3118Z" fill="#F2F2F2"/>
<path opacity="0.03" d="M145.192 51.9116C144.544 51.7886 143.874 51.8614 143.268 52.1209C142.906 52.2819 142.514 52.3649 142.118 52.3646C141.721 52.3626 141.33 52.278 140.968 52.1163C140.538 51.9266 140.073 51.8331 139.604 51.8422C139.135 51.8514 138.673 51.9629 138.252 52.1692C138.011 52.2964 137.742 52.3635 137.47 52.3646C136.368 52.3646 135.45 51.2538 135.26 49.7911C135.48 49.6305 135.667 49.4291 135.811 49.1978C136.455 48.156 137.456 47.489 138.571 47.489C139.687 47.489 140.683 48.1491 141.331 49.1794C141.525 49.4917 141.796 49.7484 142.118 49.9246C142.441 50.1007 142.804 50.1902 143.171 50.1844H143.201C144.059 50.1844 144.818 50.8859 145.192 51.9116Z" fill="black"/>
<path d="M112.013 21.0941L114.874 22.9086L113.137 19.751C113.629 19.358 114.237 19.1402 114.867 19.1323H114.913C115.112 19.1343 115.31 19.1189 115.506 19.0863L116.474 19.7027L116.06 18.946C116.749 18.7025 117.342 18.2467 117.755 17.6443L119.489 18.7436L118.395 16.752C119.409 15.5331 120.775 14.7856 122.281 14.7856C124.084 14.7856 125.692 15.8597 126.729 17.5316C127.036 18.0314 127.469 18.4413 127.986 18.7195C128.502 18.9978 129.082 19.1347 129.668 19.1162H129.767C131.759 19.1162 133.371 21.3746 133.371 24.1597C133.371 26.9448 131.761 29.2032 129.767 29.2032C129.329 29.202 128.897 29.0947 128.509 28.8904C127.831 28.5596 127.089 28.3805 126.334 28.3654C125.58 28.3503 124.831 28.4996 124.14 28.8031C123.556 29.0639 122.923 29.1987 122.284 29.1987C121.644 29.1987 121.012 29.0639 120.428 28.8031C119.743 28.506 119.002 28.3598 118.255 28.3745C117.509 28.3892 116.775 28.5644 116.102 28.8881C115.718 29.0878 115.292 29.1926 114.86 29.194C112.868 29.194 111.254 26.9356 111.254 24.1505C111.248 23.0844 111.509 22.0338 112.013 21.0941Z" fill="#F2F2F2"/>
<path opacity="0.03" d="M117.404 28.4534C118.444 28.2552 119.519 28.3721 120.492 28.7892C121.076 29.05 121.709 29.1848 122.348 29.1848C122.988 29.1848 123.62 29.05 124.204 28.7892C124.895 28.486 125.644 28.3366 126.398 28.3513C127.153 28.366 127.895 28.5444 128.574 28.8743C128.961 29.0798 129.393 29.1879 129.832 29.1894C131.6 29.1894 133.072 27.407 133.378 25.0497C133.026 24.7906 132.726 24.4667 132.495 24.0953C131.458 22.4233 129.85 21.3516 128.045 21.3516C126.239 21.3516 124.655 22.4118 123.618 24.0654C123.307 24.5637 122.874 24.9736 122.359 25.2556C121.844 25.5376 121.265 25.6821 120.679 25.6752H120.633C119.216 25.6936 117.997 26.8159 117.404 28.4534Z" fill="black"/>
</svg>
