<?xml version="1.0" encoding="utf-8"?>
<!-- Generator: Adobe Illustrator 23.1.0, SVG Export Plug-In . SVG Version: 6.00 Build 0)  -->
<svg version="1.1" id="Calque_1" xmlns="http://www.w3.org/2000/svg" xmlns:xlink="http://www.w3.org/1999/xlink" x="0px" y="0px"
	 viewBox="0 0 249.4 192.3" style="enable-background:new 0 0 249.4 192.3;" xml:space="preserve">
<style type="text/css">
	.st0{fill:#013183;}
	.st1{fill:#3F3D56;}
	.st2{fill:#FFFFFF;}
	.st3{fill:#E6E6E6;}
	.st4{fill:#FFB8B8;}
	.st5{fill:#2F2E41;}
	.st6{fill:#C54141;}
	.st7{fill:#F9A826;}
</style>
<g>
	<path class="st0" d="M249.4,173.9H0v18.4h249.4V173.9z"/>
	<path class="st1" d="M249,173.9H-0.1v-0.6h249.2L249,173.9z"/>
	<path class="st0" d="M195.6,73.5V128H53.8V73.5c0-18.1,6.9-35.5,19.3-48.7c12.4-13.2,29.4-21.1,47.5-22.1c1.4-0.1,2.7-0.1,4.1-0.1
		c0.8,0,1.6,0,2.3,0c18,0.6,35.1,8,47.8,20.7c0.4,0.4,0.8,0.8,1.1,1.2C188.6,37.7,195.6,55.2,195.6,73.5z"/>
	<path class="st2" d="M127,2.6V128h-6.4V2.7c1.4-0.1,2.7-0.1,4.1-0.1C125.5,2.6,126.3,2.6,127,2.6z"/>
	<path class="st2" d="M181.4,30.9H68c1.7-2.3,3.5-4.4,5.5-6.4H176C177.9,26.5,179.7,28.7,181.4,30.9z"/>
	<path class="st2" d="M184.8,49.3h-50.3v85.1h50.3V49.3z"/>
	<path class="st0" d="M152.1,63.7h-7.6v7.6h7.6V63.7z"/>
	<path class="st0" d="M164.3,63.7h-7.6v7.6h7.6V63.7z"/>
	<path class="st0" d="M176.6,63.7H169v7.6h7.6V63.7z"/>
	<path class="st0" d="M152.3,81h-7.6v7.6h7.6V81z"/>
	<path class="st0" d="M164.5,81h-7.6v7.6h7.6V81z"/>
	<path class="st3" d="M176.8,81h-7.6v7.6h7.6V81z"/>
	<path class="st0" d="M152.5,98.3h-7.6v7.6h7.6V98.3z"/>
	<path class="st0" d="M164.7,98.3h-7.6v7.6h7.6V98.3z"/>
	<path class="st3" d="M177,98.3h-7.6v7.6h7.6V98.3z"/>
	<path class="st3" d="M152.7,115.7h-7.6v7.6h7.6V115.7z"/>
	<path class="st3" d="M165,115.7h-7.6v7.6h7.6V115.7z"/>
	<path class="st3" d="M177.2,115.7h-7.6v7.6h7.6V115.7z"/>
	<path class="st0" d="M152.7,115.7h-7.6v7.6h7.6V115.7z"/>
	<path class="st3" d="M165,115.7h-7.6v7.6h7.6V115.7z"/>
	<path class="st3" d="M177.2,115.7h-7.6v7.6h7.6V115.7z"/>
	<path class="st2" d="M70.7,110.7c5.8,0,10.5-4.7,10.5-10.5s-4.7-10.5-10.5-10.5c-5.8,0-10.5,4.7-10.5,10.5S64.9,110.7,70.7,110.7z"
		/>
	<path class="st2" d="M70.7,100.2L70.7,100.2l0.5,29.7h-1.1L70.7,100.2z"/>
	<path class="st2" d="M72.6,116.4l-0.2-0.5l-1.7,0.9l0.2,0.5L72.6,116.4z"/>
	<path class="st2" d="M101.5,100.7c8.8,0,15.9-7.1,15.9-15.9s-7.1-15.9-15.9-15.9S85.5,76,85.5,84.8S92.7,100.7,101.5,100.7z"/>
	<path class="st2" d="M101.5,84.8L101.5,84.8l0.8,45.2h-1.7L101.5,84.8z"/>
	<path class="st2" d="M104.4,109.4l-0.4-0.7l-2.6,1.4l0.4,0.7L104.4,109.4z"/>
	<path class="st2" d="M68.6,69.5l2.7-2.2c-2.1-0.2-2.9,0.9-3.3,1.8c-1.6-0.7-3.4,0.2-3.4,0.2l5.4,2C69.7,70.6,69.2,70,68.6,69.5z"/>
	<path class="st2" d="M97,52l2.7-2.2c-2.1-0.2-2.9,0.9-3.3,1.8c-1.6-0.7-3.4,0.2-3.4,0.2l5.4,2C98,53.1,97.6,52.5,97,52z"/>
	<path class="st2" d="M86.1,68.7l2.7-2.2c-2.1-0.2-2.9,0.9-3.3,1.8c-1.6-0.7-3.4,0.2-3.4,0.2l5.4,2C87.2,69.8,86.8,69.1,86.1,68.7z"
		/>
	<path class="st0" d="M203,121.6H46.3v12.9H203V121.6z"/>
	<path class="st0" d="M22.9,155c0,0-31.7-14.6-20.6-24.7C13.5,120.2,22.9,155,22.9,155z"/>
	<path class="st0" d="M22.4,158.5c0,0-14.6-47.9,6.9-45.6C50.7,115.2,22.4,158.5,22.4,158.5z"/>
	<path class="st0" d="M11.8,154.2l0.6,8l0,0.1c0,1.3,0.1,2.5,0.2,3.7c0.8,8.2,4.4,11.9,8.6,11.9c4.2,0,7.6-3.7,8.4-11.9
		c0.1-1.2,0.2-2.5,0.2-3.7l0-0.1l0,0l0.6-8H11.8z"/>
	<path class="st2" d="M29.7,162.2L29.7,162.2l0,0.1c0,1.3-0.1,2.5-0.2,3.7h-17c-0.1-1.2-0.2-2.5-0.2-3.7l0-0.1H29.7z"/>
	<path class="st0" d="M235,155c0,0-31.7-14.6-20.6-24.7C225.6,120.2,235,155,235,155z"/>
	<path class="st0" d="M234.5,158.5c0,0-14.6-47.9,6.9-45.6C262.8,115.2,234.5,158.5,234.5,158.5z"/>
	<path class="st0" d="M223.9,154.2l0.6,8l0,0.1c0,1.3,0.1,2.5,0.2,3.7c0.8,8.2,4.4,11.9,8.6,11.9s7.6-3.7,8.4-11.9
		c0.1-1.2,0.2-2.5,0.2-3.7l0-0.1l0,0l0.6-8H223.9z"/>
	<path class="st2" d="M241.8,162.2L241.8,162.2l0,0.1c0,1.3-0.1,2.5-0.2,3.7h-17c-0.1-1.2-0.2-2.5-0.2-3.7l0-0.1H241.8z"/>
	<path class="st4" d="M192.9,184l-2.1,0.2c-1.6,1-3.6,1.4-5.7,1.3c-0.3,0-0.6-0.1-0.8-0.3c-0.3-0.2-0.5-0.4-0.6-0.6
		c-0.1-0.2-0.2-0.5-0.2-0.7c0-0.3,0-0.5,0.1-0.8c0.1-0.2,0.3-0.4,0.5-0.6c0.2-0.2,0.4-0.3,0.7-0.3l1.6-0.4l3.8-3.7l2.3-4.2l3.3,0.4
		l0.7,5.3c0.1,1.1-0.2,2.1-0.9,2.9C195,183.4,194,183.9,192.9,184z"/>
	<path class="st4" d="M160.6,181.4l-2,0.5c-1.5,1.2-3.4,1.8-5.5,1.9c-0.3,0-0.6,0-0.9-0.2c-0.3-0.1-0.5-0.3-0.7-0.6
		c-0.1-0.2-0.2-0.5-0.3-0.7c0-0.3,0-0.5,0.1-0.8c0.1-0.2,0.2-0.5,0.4-0.7c0.2-0.2,0.4-0.3,0.6-0.4l1.5-0.5l3.4-4.1l1.8-4.4h3.4
		l1.3,5.2c0.2,1,0,2.1-0.6,3C162.5,180.5,161.6,181.1,160.6,181.4z"/>
	<path class="st5" d="M158.9,171.7l3.8,0.6l6-30.3l10.4-17.7l12.6,51.5l4.7,0.9c-0.5-29,2-65.5-3.8-69.9l-25.4,2.9L156,139.5
		L158.9,171.7z"/>
	<path class="st4" d="M177.3,61.8c4.8,0,8.8-3.9,8.8-8.8s-3.9-8.8-8.8-8.8c-4.8,0-8.8,3.9-8.8,8.8S172.5,61.8,177.3,61.8z"/>
	<path class="st4" d="M189.6,66.4l-10.5,1.8l-2.6-9.4l7.6-2.3L189.6,66.4z"/>
	<path class="st6" d="M194,108l-28.1,2.6c2.3-7.8,4.3-15.6,2.6-23.4c-2.1-6.9-0.1-11.1,5.6-14.3l3.8-8.5l10.2-1.2
		c2.7,4.4,3.8,9.5,3.1,14.6C189.8,88.9,190.2,99.2,194,108z"/>
	<path class="st5" d="M177.1,42.6c-2.9,0.7-6.3,1.6-6.4,2.5c-3,0.8-5.3,2.6-5.7,5.3c0,0.2,0,0.5,0,0.7c0.1,0.2,0.2,0.4,0.3,0.6
		c0.2,0.2,0.4,0.3,0.6,0.4c0.2,0.1,0.5,0.1,0.7,0.1c1.6,0,4.1-0.2,5.7-0.9c4.7,3,5.5,10.9,3.4,16.3l3.2-0.3l3.4-9.8l0.9,9.4l7.4-1
		l-1-12c-0.3-2.8-1.3-5.6-2.8-7.9c-0.2-0.2-0.3-0.5-0.5-0.7c-1.1-1.3-2.6-2.2-4.2-2.7C180.5,42.3,178.8,42.3,177.1,42.6z"/>
	<path class="st4" d="M158.6,187.1c0,0.1,0,0.3,0,0.4c0,0.1,0.1,0.3,0.2,0.4c0.1,0.1,0.2,0.2,0.3,0.3c0.1,0.1,0.3,0.1,0.4,0.1l3.3,0
		c0.2,0,0.3-0.1,0.5-0.2c0.1-0.1,0.2-0.3,0.2-0.5c0-0.1,0-0.3-0.1-0.4c-0.1-0.1-0.2-0.2-0.3-0.3l-1-0.4l-1.4-2h-1.1
		C159,185.3,158.7,186.1,158.6,187.1L158.6,187.1L158.6,187.1z"/>
	<path class="st4" d="M150.7,187.1c0,0.1,0,0.3,0,0.4c0,0.1-0.1,0.3-0.2,0.4c-0.1,0.1-0.2,0.2-0.3,0.3c-0.1,0.1-0.3,0.1-0.4,0.1
		l-3.3,0c-0.2,0-0.3-0.1-0.5-0.2c-0.1-0.1-0.2-0.3-0.2-0.5c0-0.1,0-0.3,0.1-0.4c0.1-0.1,0.2-0.2,0.3-0.3l1-0.4l1.4-2h1.1
		C150.2,185.3,150.6,186.1,150.7,187.1L150.7,187.1z"/>
	<path class="st1" d="M148.3,184.5h1.7l5.9-25.7l3.1,26h2l2.7-33.4l-13.7-0.1L148.3,184.5z"/>
	<path class="st4" d="M140.6,137.4h2.3V132l0.5-1c0.1-0.2,0.2-0.4,0.2-0.7c0-0.2-0.1-0.5-0.2-0.7c-0.1-0.2-0.3-0.4-0.4-0.5
		c-0.2-0.1-0.4-0.2-0.6-0.3c-0.2,0-0.4,0-0.6,0c-0.2,0.1-0.4,0.2-0.6,0.3c-0.2,0.1-0.3,0.3-0.4,0.5c-0.1,0.2-0.1,0.4-0.1,0.6V137.4z
		"/>
	<path class="st4" d="M154,124.1c2.9,0,5.2-2.3,5.2-5.2c0-2.9-2.3-5.2-5.2-5.2c-2.9,0-5.2,2.3-5.2,5.2
		C148.8,121.8,151.2,124.1,154,124.1z"/>
	<path class="st4" d="M151.9,127.8h5.4v-6.2h-5.4V127.8z"/>
	<path class="st7" d="M149.4,152.1c4.7,2.9,9.8,2.6,15,0.3l-1.1-26.3l-5.9-0.3l-6.2,0.8l-3.1,2.5L149.4,152.1z"/>
	<path class="st7" d="M143.7,142.7l6.2-4.8l-2-8.8l-3.7,6.8l-1.1-1.1l-3.4,2.5L143.7,142.7z"/>
	<path class="st4" d="M171.3,126.5l-2,1.1l-2.6-4.7l-0.9-0.6c-0.2-0.1-0.3-0.3-0.5-0.5c-0.1-0.2-0.2-0.4-0.2-0.7
		c0-0.2,0-0.5,0.1-0.7c0.1-0.2,0.2-0.4,0.4-0.5c0.2-0.1,0.4-0.2,0.6-0.3c0.2,0,0.4-0.1,0.6,0c0.2,0,0.4,0.1,0.6,0.3
		c0.2,0.1,0.3,0.3,0.4,0.5l0.8,1.5L171.3,126.5z"/>
	<path class="st7" d="M160.3,134.4l7.5-4l3.9-2.1l0.6-3.4l-2.5-2.5l-3.1,2l0.3,2.3l-3.7-0.6L160.3,134.4z"/>
	<path class="st5" d="M155.2,123.1c3.4,0,6.2-2.8,6.2-6.2c0-3.4-2.8-6.2-6.2-6.2c-3.4,0-6.2,2.8-6.2,6.2
		C149,120.3,151.7,123.1,155.2,123.1z"/>
	<path class="st5" d="M158.6,112.7c1.6,0,2.8-1.3,2.8-2.8c0-1.6-1.3-2.8-2.8-2.8s-2.8,1.3-2.8,2.8
		C155.7,111.4,157,112.7,158.6,112.7z"/>
	<path class="st5" d="M158.4,112.2c0.6,0.3,1.2,0.4,1.8,0.3c0.6-0.1,1.2-0.4,1.6-0.9c0.4-0.5,0.7-1.1,0.7-1.7c0-0.6-0.1-1.3-0.5-1.8
		c0.3,0.2,0.6,0.6,0.8,0.9c0.2,0.4,0.3,0.8,0.3,1.2c0,0.4,0,0.8-0.2,1.2c-0.1,0.4-0.4,0.7-0.7,1c-0.3,0.3-0.6,0.5-1,0.6
		c-0.4,0.1-0.8,0.2-1.2,0.1c-0.4,0-0.8-0.2-1.2-0.4c-0.4-0.2-0.7-0.5-0.9-0.8C158.2,112.1,158.3,112.1,158.4,112.2z"/>
	<path class="st4" d="M175.9,116.7l0.2,6.8c0,0.9-0.3,1.8-0.9,2.6s-1.5,1.1-2.4,1.2c-0.6,0.1-1.2,0-1.8-0.3c-0.6-0.2-1-0.6-1.4-1
		c-0.4-0.5-0.7-1-0.8-1.6c-0.1-0.6-0.1-1.2,0-1.8l1.5-5.6l4.4-24l-0.3-14l9.4-0.3L182,94.5L175.9,116.7z"/>
	<path class="st6" d="M184.3,80.2c-3.4-1.3-7.1-1.3-10.5,0l0.6-11.7c0-1.2,0.5-2.4,1.4-3.3s2.1-1.4,3.3-1.4c1.2,0,2.4,0.5,3.3,1.4
		c0.9,0.9,1.4,2.1,1.4,3.3L184.3,80.2z"/>
</g>
</svg>
