<?xml version="1.0" encoding="utf-8"?>
<!-- Generator: Adobe Illustrator 23.1.0, SVG Export Plug-In . SVG Version: 6.00 Build 0)  -->
<svg version="1.1" id="Calque_1" xmlns="http://www.w3.org/2000/svg" xmlns:xlink="http://www.w3.org/1999/xlink" x="0px" y="0px"
	 viewBox="0 0 760 824" style="enable-background:new 0 0 760 824;" xml:space="preserve">
<style type="text/css">
	.st0{fill:#CCCCCC;}
	.st1{fill:#FFFFFF;}
	.st2{fill:#ED3E48;}
	.st3{fill:none;stroke:#CCCCCC;stroke-width:12;stroke-miterlimit:10;}
	.st4{fill:#F7A100;}
	.st5{display:none;}
	.st6{display:inline;}
	.st7{fill:#FFCF00;}
	.st8{display:inline;fill:#FFCF00;}
	.st9{fill:#3F3F3F;}
	.st10{fill:#3D56DF;}
</style>
<g id="ROND_FILLE">
	<g id="Calque_5_-_copie_4">
	</g>
	<g id="PIEDS_-_copie_7">
		<g>
			<rect x="449" y="640" class="st0" width="12" height="184"/>
			<path d="M455,787L455,787c-20.4,0-37,16.6-37,37l0,0h74l0,0C492,803.6,475.4,787,455,787z"/>
		</g>
		<g>
			<rect x="305" y="640" class="st0" width="12" height="184"/>
			<path d="M311,787L311,787c20.4,0,37,16.6,37,37l0,0h-74l0,0C274,803.6,290.6,787,311,787z"/>
		</g>
	</g>
	<g id="Calque_71_-_copie">
	</g>
	<g id="CORPS_-_copie_5">
		<g>
			<path class="st1" d="M297.7,675c-1.4,4.9-2.1,10.1-2.1,15.3c0,38.5,38.9,69.7,86.9,69.7s86.9-31.2,86.9-69.7c0-5-0.7-10-1.9-14.7
				c-23.8,6.8-52.7,10.7-83.8,10.7C351.6,686.3,321.9,682.1,297.7,675z"/>
		</g>
		<path class="st2" d="M541.9,727.1c-56-20-94-197.2-94-197.2L382,499.6V499l-0.7,0.3l-0.4-0.2v0.4L315,529.8c0,0-38,177.2-94,197.2
			c-19.9,5,92.8,17.9,159.9,18v0.1C447.9,745.1,561.9,732.1,541.9,727.1z"/>
	</g>
	<g id="BRAS_-_copie_8">
		<path class="st3" d="M288.8,546.5C228,535,127,588,283,653"/>
		<g id="tete_38_">
			<circle class="st4" cx="289.8" cy="543.5" r="25"/>
		</g>
		<g id="MAIN_-_copie_4" class="st5">
			<g id="tete_40_" class="st6">
				<circle class="st7" cx="282.6" cy="652.6" r="30.8"/>
			</g>
			<path class="st8" d="M291.4,650.8L291.4,650.8c1.2-4.3,5.6-6.9,10-5.7l22.3,6c4.3,1.2,6.9,5.6,5.7,10l0,0
				c-1.2,4.3-5.6,6.9-10,5.7l-22.3-6C292.8,659.6,290.2,655.1,291.4,650.8z"/>
			<path class="st8" d="M297.6,667.2L297.6,667.2c3.3-3,8.4-2.9,11.5,0.4l8.8,9.5c3,3.3,2.9,8.4-0.4,11.5l0,0
				c-3.3,3-8.4,2.9-11.5-0.4l-8.8-9.5C294.1,675.4,294.3,670.3,297.6,667.2z"/>
			<path class="st8" d="M283.8,671.8L283.8,671.8c4.4-0.8,8.6,2.2,9.4,6.6l2.1,12c0.8,4.4-2.2,8.6-6.6,9.4l0,0
				c-4.4,0.8-8.6-2.2-9.4-6.6l-2.1-12C276.4,676.7,279.4,672.5,283.8,671.8z"/>
			<path class="st8" d="M287.5,631.9L287.5,631.9c-1-4.4,1.8-8.7,6.1-9.7l17.5-3.9c4.4-1,8.7,1.8,9.7,6.1l0,0c1,4.4-1.8,8.7-6.1,9.7
				l-17.5,3.9C292.9,639.1,288.5,636.3,287.5,631.9z"/>
		</g>
		<g id="MAIN_-_copie_6">
			<g id="tete_32_">
				<path class="st7" d="M274.6,682.4c-16.4-4.4-26.2-21.4-21.7-37.8c4.5-16.4,21.4-26.2,37.8-21.7c16.4,4.4,15.2,21.4,10.7,37.8
					S291,686.8,274.6,682.4z"/>
			</g>
		</g>
	</g>
	<g id="BRAS_-_copie_9">
		<path class="st3" d="M474,546.5C534.7,535,635.7,588,479.7,653"/>
		<g id="tete_35_">
			<circle class="st4" cx="473" cy="543.5" r="25"/>
		</g>
		<g id="MAIN_-_copie_5" class="st5">
			<g id="tete_25_" class="st6">
				<circle class="st7" cx="480.1" cy="652.6" r="30.8"/>
			</g>
			<path class="st8" d="M471.3,650.8L471.3,650.8c-1.2-4.3-5.6-6.9-10-5.7l-22.3,6c-4.3,1.2-6.9,5.6-5.7,10l0,0
				c1.2,4.3,5.6,6.9,10,5.7l22.3-6C470,659.6,472.5,655.1,471.3,650.8z"/>
			<path class="st8" d="M465.2,667.2L465.2,667.2c-3.3-3-8.4-2.9-11.5,0.4l-8.8,9.5c-3,3.3-2.9,8.4,0.4,11.5l0,0
				c3.3,3,8.4,2.9,11.5-0.4l8.8-9.5C468.7,675.4,468.5,670.3,465.2,667.2z"/>
			<path class="st8" d="M479,671.8L479,671.8c-4.4-0.8-8.6,2.2-9.4,6.6l-2.1,12c-0.8,4.4,2.2,8.6,6.6,9.4l0,0
				c4.4,0.8,8.6-2.2,9.4-6.6l2.1-12C486.4,676.7,483.4,672.5,479,671.8z"/>
			<path class="st8" d="M475.2,631.9L475.2,631.9c1-4.4-1.8-8.7-6.1-9.7l-17.5-3.9c-4.4-1-8.7,1.8-9.7,6.1l0,0
				c-1,4.4,1.8,8.7,6.1,9.7l17.5,3.9C469.9,639.1,474.2,636.3,475.2,631.9z"/>
		</g>
		<g id="MAIN_-_copie_7">
			<g id="tete_36_">
				<path class="st7" d="M488.2,682.4c16.4-4.4,26.2-21.4,21.7-37.8c-4.4-16.4-21.4-26.2-37.8-21.7c-16.4,4.4-18.2,21.4-13.7,37.8
					S471.7,686.8,488.2,682.4z"/>
			</g>
		</g>
	</g>
	<g id="TETE_-_copie_2">
		<g id="tete_30_">
			<ellipse class="st2" cx="533.7" cy="374" rx="55.5" ry="68.4"/>
		</g>
		<g id="tete_28_">
			<ellipse class="st2" cx="226.3" cy="374" rx="55.5" ry="68.4"/>
		</g>
		<g id="tete_26_">
			<circle class="st7" cx="381.8" cy="365.1" r="175.9"/>
		</g>
		<g>
			<g>
				<path class="st9" d="M402.9,206.6c0.5-6.1-1.4-12.1-5.2-16.9c-1.8-2.3-4.2-4.4-7-5.1c-2.6-0.7-5.6-0.1-7.4,2s-1.7,5-0.4,7.3
					c1.3,2.4,3.7,4,6.2,5c4.6,1.7,10.2,0.8,14.1-2.1c4.1-3,6.1-8,5.5-13c-0.6-4.8-3.4-9.7-7.9-11.7c-4.1-1.8-10-1.4-12.3,2.9
					c-2.8,5,1.4,10.5,6,12.5c5.7,2.4,12.9,0.3,17.1-4.1c4.5-4.8,5.4-12.2,2.5-18.1c-0.8-1.7-3.4-0.2-2.6,1.5c2,4.1,1.6,9.1-0.8,12.8
					c-2.3,3.6-6.6,5.8-10.9,5.8c-3.8,0-8.6-2.1-9.2-6.3c-0.6-4,3.8-5.5,7-4.9c7.7,1.4,10.6,11.9,6.2,17.9c-2.2,3-6.1,4.6-9.8,4.6
					c-3.5,0-8.5-1.9-9-5.9c-0.3-2.4,2.2-3.8,4.3-3.5c2.6,0.3,4.7,2.4,6.3,4.4c3.4,4.2,4.9,9.6,4.4,14.9
					C399.8,208.5,402.8,208.5,402.9,206.6L402.9,206.6z"/>
			</g>
		</g>
		<g id="tete_23_">
			<circle class="st10" cx="425" cy="148.3" r="29.3"/>
		</g>
	</g>
	<g id="Calque_73_-_copie_2">
		<g>
			<path d="M348,450c6.8,3.2,13.3,6,19.8,8.2c6.5,2.1,13.1,3.5,19.6,3.7c0.8,0.1,1.6,0,2.4,0s1.6,0,2.4-0.1c1.6,0,3.2-0.3,4.8-0.5
				c3.2-0.5,6.4-1.3,9.6-2.3c6.4-2.1,12.6-5.4,19.3-9c-3.6,6.6-9.2,12.1-16,16.2c-3.4,1.9-7.1,3.5-11,4.4c-2,0.4-3.9,0.8-5.9,1
				c-1,0.1-2,0.2-3,0.2s-2,0.1-3,0c-8-0.3-15.8-2.7-22.4-6.5c-3.3-1.9-6.5-4.2-9.3-6.7C352.6,456,350,453.3,348,450z"/>
		</g>
	</g>
	<g id="VISAGE_-_copie_5">
		<g id="YEUX_-_copie_8">
			<path class="st4" d="M455.5,265.4c-25.7,0-47.4,16.9-54.6,40.2c-4.3-38.2-36.8-67.9-76.2-67.9c-42.4,0-76.7,34.3-76.7,76.7
				s34.3,76.7,76.7,76.7c36.1,0,66.3-24.9,74.5-58.4c4.7,26.8,28.1,47.2,56.3,47.2c31.6,0,57.2-25.6,57.2-57.2
				S487.1,265.4,455.5,265.4z"/>
			<circle class="st1" cx="320" cy="308.7" r="76.7"/>
			<circle class="st1" cx="450.8" cy="317" r="57.2"/>
			<circle cx="450.7" cy="317" r="46.8"/>
			<circle cx="320" cy="308.7" r="60.8"/>
			<circle cx="451" cy="317.1" r="37.4"/>
			<circle cx="320.9" cy="308.7" r="46.8"/>
			<circle class="st1" cx="282.6" cy="271.3" r="16.8"/>
			<circle class="st1" cx="422.9" cy="289.1" r="14"/>
		</g>
	</g>
	<circle class="st5" cx="386.5" cy="404.5" r="21.5"/>
</g>
</svg>
