<?xml version="1.0" encoding="utf-8"?>
<!-- Generator: Adobe Illustrator 23.1.0, SVG Export Plug-In . SVG Version: 6.00 Build 0)  -->
<svg version="1.1" id="Calque_1" xmlns="http://www.w3.org/2000/svg" xmlns:xlink="http://www.w3.org/1999/xlink" x="0px" y="0px"
	 viewBox="0 0 760 824" style="enable-background:new 0 0 760 824;" xml:space="preserve">
<style type="text/css">
	.st0{fill:#ED3E48;}
	.st1{fill:#A91F30;}
	.st2{fill:#CBCBCB;}
	.st3{fill:#FFFFFF;}
	.st4{clip-path:url(#SVGID_2_);fill:#ED3E48;}
	.st5{clip-path:url(#SVGID_4_);fill:#ED3E48;}
	.st6{clip-path:url(#SVGID_6_);fill:#FFFFFF;}
	.st7{clip-path:url(#SVGID_8_);fill:#FFFFFF;}
	.st8{clip-path:url(#SVGID_10_);fill:#FFFFFF;}
	.st9{fill:none;stroke:#A91F30;stroke-width:20;stroke-linecap:round;stroke-linejoin:round;stroke-miterlimit:10;}
	.st10{fill:#C0272D;}
	.st11{fill:#6400D7;}
</style>
<g id="ROUGE_CORNE_BRAS">
	<g id="PIEDS_-_copie_3">
		<g>
			<path class="st0" d="M468,787L468,787c-20.4,0-37,16.6-37,37l0,0h74l0,0C505,803.6,488.4,787,468,787z"/>
			<rect x="431" y="711" class="st0" width="35" height="113"/>
			<path class="st1" d="M468,787L468,787c-20.4,0-6.7,37-6.7,37H505l0,0C505,803.6,488.4,787,468,787z"/>
		</g>
		<g>
			<path class="st0" d="M297,787L297,787c20.4,0,37,16.6,37,37l0,0h-74l0,0C260,803.6,276.6,787,297,787z"/>
			<rect x="299" y="711" class="st0" width="35" height="113"/>
			<path class="st1" d="M297,787L297,787c20.4,0,7.8,37,7.8,37H260l0,0C260,803.6,276.6,787,297,787z"/>
		</g>
	</g>
	<g id="CORNES">
		<g>
			<path class="st2" d="M489.1,221.9c36.8-20.3,55.2-60.8,49.2-100c-0.5-3.5,3.4-5.9,6.3-3.8c10.1,7.4,18.9,16.8,26,28
				c33,52.3,13.1,122.3-42.6,149.3c-49.5,24-109.6,5.3-136.5-43.4c-5.4-9.8-9.1-20.1-11.1-30.5c-0.7-3.8,3.5-6.7,6.7-4.5
				C416.5,237.1,455.8,240.3,489.1,221.9z"/>
		</g>
		<circle class="st3" cx="391.5" cy="369.5" r="76.5"/>
		<g>
			<path class="st2" d="M273.9,222.3c-36.8-20.3-55.2-60.8-49.2-100c0.5-3.5-3.4-5.9-6.3-3.8c-10.1,7.4-18.9,16.8-26,28
				c-33,52.3-13.1,122.3,42.6,149.3c49.5,24,109.6,5.3,136.5-43.4c5.4-9.8,9.1-20.1,11.1-30.5c0.7-3.8-3.5-6.7-6.7-4.5
				C346.5,237.5,307.1,240.7,273.9,222.3z"/>
		</g>
	</g>
	<g id="OREILLES">
		<g>
			<circle class="st0" cx="559.5" cy="302.5" r="35.5"/>
			<circle class="st1" cx="559.5" cy="302.5" r="20"/>
		</g>
		<g>
			<circle class="st0" cx="199.2" cy="303" r="35.5"/>
			<circle class="st1" cx="199.2" cy="303" r="20"/>
		</g>
	</g>
	<g id="BRAS">
		<g id="Calque_28">
			<circle class="st0" cx="148" cy="617" r="15"/>
			<circle class="st0" cx="154" cy="651" r="15"/>
			<circle class="st0" cx="182" cy="671" r="15"/>
		</g>
		<path class="st1" d="M186.6,671.7L186.6,671.7c-26.3-5-43.6-30.4-38.6-56.7l31.8-168c5-26.3,30.4-43.6,56.7-38.6l0,0
			c26.3,5,43.6,30.4,38.6,56.7l-31.8,168C238.3,659.3,212.9,676.6,186.6,671.7z"/>
	</g>
	<g id="BRAS_-_copie">
		<g id="Calque_28_-_copie">
			<circle class="st0" cx="611" cy="620" r="15"/>
			<circle class="st0" cx="605" cy="654" r="15"/>
			<circle class="st0" cx="577" cy="674" r="15"/>
		</g>
		<path class="st1" d="M572.4,674.7L572.4,674.7c26.3-5,43.6-30.4,38.6-56.7l-31.8-168c-5-26.3-30.4-43.6-56.7-38.6l0,0
			c-26.3,5-43.6,30.4-38.6,56.7l31.8,168C520.7,662.3,546.1,679.6,572.4,674.7z"/>
	</g>
	<g id="CORPS_1_">
		<g>
			<path id="SVGID_13_" class="st0" d="M380,780L380,780c-109.4,0-198-88.6-198-198V401c0-109.4,88.6-198,198-198l0,0
				c109.4,0,198,88.6,198,198v181C578,691.4,489.4,780,380,780z"/>
		</g>
		<g>
			<g>
				<defs>
					<path id="SVGID_1_" d="M380,780L380,780c-109.4,0-198-88.6-198-198V401c0-109.4,88.6-198,198-198l0,0c109.4,0,198,88.6,198,198
						v181C578,691.4,489.4,780,380,780z"/>
				</defs>
				<clipPath id="SVGID_2_">
					<use xlink:href="#SVGID_1_"  style="overflow:visible;"/>
				</clipPath>
				<rect x="114" y="128" class="st4" width="632" height="750"/>
			</g>
		</g>
		<g>
			<g>
				<defs>
					<path id="SVGID_3_" d="M380,780L380,780c-109.4,0-198-88.6-198-198V401c0-109.4,88.6-198,198-198l0,0c109.4,0,198,88.6,198,198
						v181C578,691.4,489.4,780,380,780z"/>
				</defs>
				<clipPath id="SVGID_4_">
					<use xlink:href="#SVGID_3_"  style="overflow:visible;"/>
				</clipPath>
				<ellipse class="st5" cx="380" cy="816" rx="198" ry="156"/>
			</g>
		</g>
	</g>
	<g id="DENTS_1_">
		<g>
			<g>
				<defs>
					<path id="SVGID_5_" d="M218,477.9c0,0,92.7,57.3,164.9,62.2s161-71.8,161-71.8l3.5,118.9l-325.8,9.6L218,477.9z"/>
				</defs>
				<clipPath id="SVGID_6_">
					<use xlink:href="#SVGID_5_"  style="overflow:visible;"/>
				</clipPath>
				
					<ellipse transform="matrix(0.4797 -0.8774 0.8774 0.4797 -175.6325 695.8839)" class="st6" cx="498.9" cy="496" rx="39.9" ry="19"/>
			</g>
		</g>
		<g>
			<g>
				<defs>
					<path id="SVGID_7_" d="M217.2,469.8c0,0,89.8,61.8,161.7,70.2s164.3-63.7,164.3-63.7l-2.4,119l-325.9-6.5L217.2,469.8z"/>
				</defs>
				<clipPath id="SVGID_8_">
					<use xlink:href="#SVGID_7_"  style="overflow:visible;"/>
				</clipPath>
				
					<ellipse transform="matrix(0.9653 -0.2612 0.2612 0.9653 -125.8565 106.7609)" class="st7" cx="338.6" cy="526.8" rx="25" ry="57.4"/>
			</g>
		</g>
		<g>
			<g>
				<defs>
					<path id="SVGID_9_" d="M216,473.2c0,0,91,59.9,163.1,66.8S542,472.9,542,472.9l0.1,119l-326,0.3L216,473.2z"/>
				</defs>
				<clipPath id="SVGID_10_">
					<use xlink:href="#SVGID_9_"  style="overflow:visible;"/>
				</clipPath>
				
					<ellipse transform="matrix(0.9597 -0.2812 0.2812 0.9597 -129.1028 103.4073)" class="st8" cx="295.8" cy="501.6" rx="25" ry="57.4"/>
			</g>
		</g>
	</g>
	<g id="BOUCHE_2_">
		<path class="st9" d="M234,477c0,0,146,142,290,0"/>
		<path class="st9" d="M250.6,457.5L250.6,457.5c-17.2,4.1-27.2,21.9-21.8,38.7l0.4,1.3"/>
		<path class="st9" d="M510.6,458L510.6,458c17.2,4.1,27.2,21.9,21.8,38.7L532,498"/>
	</g>
	<g id="FINITIONS">
		<circle class="st1" cx="398" cy="285" r="18"/>
		<circle class="st1" cx="524" cy="656" r="13"/>
		<circle class="st1" cx="280" cy="656" r="8"/>
		<circle class="st1" cx="239" cy="602" r="18"/>
		<circle class="st1" cx="434" cy="267" r="8"/>
		<circle class="st1" cx="219" cy="394" r="8"/>
		<path class="st9" d="M420,580.3l0.4,0.1c14.2,1.9,28.4-3.7,37.6-14.8l0,0"/>
	</g>
	<g id="YEUX_-_copie_3">
		<path class="st10" d="M460.8,314.7c-27.4,0-50.6,18.1-58.4,42.9c-4.6-40.9-39.3-72.6-81.5-72.6c-45.3,0-82,36.7-82,82
			s36.7,82,82,82c38.6,0,70.9-26.6,79.6-62.5c5.1,28.7,30.1,50.5,60.2,50.5c33.8,0,61.2-27.4,61.2-61.2S494.6,314.7,460.8,314.7z"/>
		<circle class="st3" cx="316" cy="361" r="82"/>
		<circle class="st3" cx="455.8" cy="369.9" r="61.2"/>
		<circle class="st11" cx="455.7" cy="369.9" r="50"/>
		<circle class="st11" cx="316" cy="361" r="65"/>
		<circle cx="456" cy="370" r="40"/>
		<circle cx="317" cy="361" r="50"/>
		<circle class="st3" cx="276" cy="321" r="18"/>
		<circle class="st3" cx="426" cy="340" r="15"/>
	</g>
	<g id="CHEVEUX">
		<g>
			<path class="st0" d="M415,243.5c23.7-23.7,23.7-62.1,0-85.8s-62.1-23.7-85.8,0L415,243.5z"/>
		</g>
		<g>
			<path class="st0" d="M394.1,237c10.6-22.7,0.8-49.7-21.9-60.3c-22.7-10.6-49.7-0.8-60.3,21.9L394.1,237z"/>
		</g>
	</g>
</g>
</svg>
