<?xml version="1.0" encoding="utf-8"?>
<!-- Generator: Adobe Illustrator 23.1.0, SVG Export Plug-In . SVG Version: 6.00 Build 0)  -->
<svg version="1.1" id="Calque_1" xmlns="http://www.w3.org/2000/svg" xmlns:xlink="http://www.w3.org/1999/xlink" x="0px" y="0px"
	 viewBox="0 0 760 824" style="enable-background:new 0 0 760 824;" xml:space="preserve">
<style type="text/css">
	.st0{fill:#F7A100;}
	.st1{fill:#CCCCCC;}
	.st2{fill:#A91F30;}
	.st3{fill:#FFCF00;}
	.st4{fill:none;stroke:#CCCCCC;stroke-width:12;stroke-miterlimit:10;}
	.st5{fill:#15BB5C;stroke:#3F3F3F;stroke-width:2;stroke-miterlimit:9.9999;}
	.st6{fill:#ED3E48;}
	.st7{fill:#3F3F3F;}
	.st8{fill:#3D56DF;}
	.st9{display:none;fill:#3F3F3F;stroke:#000000;stroke-width:2;stroke-miterlimit:10;}
	.st10{fill:#FFFFFF;}
</style>
<g id="CARRE">
	<g id="Calque_5_-_copie_3">
		<ellipse class="st0" cx="383.5" cy="687" rx="66.5" ry="35"/>
	</g>
	<g id="PIEDS_-_copie_6">
		<g>
			<rect x="449" y="640" class="st1" width="12" height="184"/>
			<path class="st2" d="M455,787L455,787c-20.4,0-37,16.6-37,37l0,0h74l0,0C492,803.6,475.4,787,455,787z"/>
			<rect x="405" y="787" class="st3" width="100" height="37"/>
		</g>
		<g>
			<rect x="305" y="640" class="st1" width="12" height="184"/>
			<path class="st2" d="M311,787L311,787c20.4,0,37,16.6,37,37l0,0h-74l0,0C274,803.6,290.6,787,311,787z"/>
			<rect x="261" y="787" class="st3" width="100" height="37"/>
		</g>
	</g>
	<g id="BRAS_-_copie_6_1_">
		<path class="st4" d="M473,508c0,0,146,36,182-63"/>
		<g id="MAIN_-_copie_2">
			<rect x="629.4" y="408.3" transform="matrix(0.5 -0.866 0.866 0.5 -56.5406 789.986)" class="st3" width="52.9" height="71.4"/>
		</g>
		<g id="MAIN_-_copie_2_1_">
			
				<rect x="630.5" y="385.5" transform="matrix(0.2602 -0.9656 0.9656 0.2602 102.0819 923.2603)" class="st3" width="46" height="19"/>
			
				<rect x="656" y="395.2" transform="matrix(0.5309 -0.8475 0.8475 0.5309 -24.4275 765.3228)" class="st3" width="46" height="19"/>
			
				<rect x="677" y="412.2" transform="matrix(0.7315 -0.6818 0.6818 0.7315 -99.5472 590.5078)" class="st3" width="46" height="19"/>
			
				<rect x="606.2" y="407.7" transform="matrix(0.8846 -0.4663 0.4663 0.8846 -128.4202 336.4614)" class="st3" width="19" height="40"/>
		</g>
	</g>
	<g id="BRAS_-_copie_7">
		<path class="st4" d="M289.3,507c0,0-146,36-182-63"/>
		<g id="MAIN_-_copie_3_1_">
			<rect x="70.8" y="416.6" transform="matrix(0.866 -0.5 0.5 0.866 -207.2428 112.5913)" class="st3" width="71.4" height="52.9"/>
		</g>
		<g id="MAIN_-_copie_3">
			<rect x="99.4" y="371" transform="matrix(0.9656 -0.2602 0.2602 0.9656 -98.7564 41.8985)" class="st3" width="19" height="46"/>
			
				<rect x="73.8" y="380.7" transform="matrix(0.8475 -0.5309 0.5309 0.8475 -201.6279 105.8138)" class="st3" width="19" height="46"/>
			
				<rect x="52.8" y="397.8" transform="matrix(0.6818 -0.7315 0.7315 0.6818 -287.9561 179.4799)" class="st3" width="19" height="46"/>
			
				<rect x="126.6" y="417.1" transform="matrix(0.4663 -0.8846 0.8846 0.4663 -299.1685 357.3723)" class="st3" width="40" height="19"/>
		</g>
	</g>
	<g id="CORPS_-_copie_4">
		<rect x="374" y="334" class="st1" width="12" height="184"/>
		<rect x="225" y="463" class="st3" width="312" height="227"/>
		<rect x="184.2" y="121" class="st3" width="391.6" height="324"/>
		<rect x="207" y="473" class="st0" width="18" height="75"/>
		<rect x="537" y="473" class="st0" width="18" height="75"/>
		<rect x="340" y="512" transform="matrix(0.7071 -0.7071 0.7071 0.7071 -279.0187 430.3766)" class="st5" width="80" height="80"/>
		<rect x="145" y="197" class="st6" width="39" height="152"/>
		<rect x="576" y="197" class="st6" width="39" height="152"/>
		<g>
			<g>
				<path class="st7" d="M405.6,123.6c0.6-6.6-1.4-13.3-5.5-18.6c-2-2.6-4.6-5-7.8-5.9c-2.8-0.8-6.2-0.3-8.3,1.9
					c-2.2,2.3-2.1,5.6-0.7,8.2c1.5,2.6,4,4.4,6.7,5.5c5.1,1.9,11.3,1,15.7-2.1c4.6-3.3,6.9-8.7,6.4-14.3c-0.6-5.4-3.6-10.9-8.7-13.2
					c-4.5-2-11.2-1.6-13.8,3.2c-3.1,5.6,1.7,11.7,6.9,13.8c5.8,2.3,12.8,0.6,17.4-3.3c4.9-4.1,6.9-10.8,5.7-17
					c-0.3-1.5-0.8-3-1.5-4.4c-0.8-1.7-3.4-0.2-2.6,1.5c2.2,4.6,1.8,10.3-0.9,14.6c-2.7,4.1-7.6,6.6-12.4,6.6
					c-4.4,0-9.8-2.5-10.5-7.3c-0.7-4.6,4.5-6.4,8.2-5.6c8.7,1.8,12,13.8,6.9,20.6c-2.6,3.4-7.1,5.2-11.4,5.1
					c-4-0.1-9.8-2.4-10.1-7.1c-0.2-2.7,2.7-4.2,5.1-3.9c2.9,0.4,5.3,2.6,7,4.8c3.9,4.7,5.7,11,5.1,17.1
					C402.5,125.5,405.5,125.5,405.6,123.6L405.6,123.6z"/>
			</g>
		</g>
		<rect x="404" y="32" transform="matrix(0.5 -0.866 0.866 0.5 163.2979 406.8412)" class="st8" width="60" height="60"/>
		<rect x="385" y="326" class="st9" width="33" height="37.5"/>
	</g>
	<g id="VISAGE_-_copie_4">
		<g id="YEUX_-_copie_7">
			<g>
				<circle class="st0" cx="284" cy="241" r="82"/>
				<ellipse class="st0" cx="499.8" cy="249.9" rx="61.2" ry="61.2"/>
			</g>
		</g>
		<g id="YEUX_-_copie_13">
			<g>
				<circle class="st10" cx="280" cy="237" r="82"/>
				<circle cx="280" cy="237" r="65"/>
				<circle cx="281" cy="237" r="50"/>
				<circle class="st10" cx="240" cy="197" r="18"/>
			</g>
			<g>
				<circle class="st10" cx="495.8" cy="245.9" r="61.2"/>
				<circle cx="495.7" cy="245.9" r="50"/>
				<circle cx="496" cy="246" r="40"/>
				<circle class="st10" cx="466" cy="216" r="15"/>
			</g>
		</g>
		<g id="Calque_73_-_copie">
			<g>
				<path d="M379,393c3.2,1.6,6.4,2.5,9.7,3.1c0.8,0.2,1.6,0.3,2.4,0.4s1.6,0.3,2.4,0.3s1.6,0.1,2.4,0.2l1.2,0.1c0.4,0,0.8,0,1.2,0
					c6.4,0.1,12.8-0.5,19.2-1.8l2.4-0.4l2.4-0.6c1.6-0.3,3.2-0.7,4.8-1c3.2-0.9,6.4-1.6,9.7-2.4c1.6-0.5,3.3-0.9,4.9-1.3l2.5-0.6
					c0.8-0.2,1.7-0.4,2.5-0.6c3.3-0.9,6.7-1.8,10.3-2.3c-2.6,2.5-5.4,4.7-8.3,6.8c-1.4,1.1-3,1.9-4.5,2.8s-3.1,1.8-4.7,2.6
					c-1.6,0.9-3.2,1.5-4.9,2.2c-1.6,0.7-3.3,1.4-5,2c-1.7,0.5-3.5,1-5.2,1.5l-2.6,0.7c-0.9,0.2-1.8,0.3-2.7,0.5
					c-7.1,1.4-14.7,1.4-22-0.3c-0.5-0.1-0.9-0.2-1.4-0.3l-1.3-0.4c-0.9-0.3-1.8-0.6-2.6-0.9c-0.9-0.3-1.7-0.8-2.6-1.2
					c-0.8-0.4-1.7-0.8-2.5-1.3C383.7,398.7,380.8,396.2,379,393z"/>
			</g>
		</g>
	</g>
</g>
</svg>
