<?xml version="1.0" encoding="utf-8"?>
<!-- Generator: Adobe Illustrator 23.1.0, SVG Export Plug-In . SVG Version: 6.00 Build 0)  -->
<svg version="1.1" id="Calque_1" xmlns="http://www.w3.org/2000/svg" xmlns:xlink="http://www.w3.org/1999/xlink" x="0px" y="0px"
	 viewBox="0 0 760 824" style="enable-background:new 0 0 760 824;" xml:space="preserve">
<style type="text/css">
	.st0{fill:#CCCCCC;}
	.st1{fill:#A91F30;}
	.st2{fill:none;stroke:#CCCCCC;stroke-width:12;stroke-miterlimit:10;}
	.st3{fill:#FFCF00;}
	.st4{fill:#F7A100;}
	.st5{fill:#FF7F00;}
	.st6{fill:#ED3E48;}
	.st7{fill:#3F3F3F;}
	.st8{fill:#3D56DF;}
	.st9{fill:#FFFFFF;}
</style>
<g id="ROND_GARCON">
	<g id="Calque_5_-_copie_2">
	</g>
	<g id="PIEDS_-_copie_5">
		<g>
			<rect x="449" y="640" class="st0" width="12" height="184"/>
			<path class="st1" d="M455,787L455,787c-20.4,0-37,16.6-37,37l0,0h74l0,0C492,803.6,475.4,787,455,787z"/>
		</g>
		<g>
			<rect x="305" y="640" class="st0" width="12" height="184"/>
			<path class="st1" d="M311,787L311,787c20.4,0,37,16.6,37,37l0,0h-74l0,0C274,803.6,290.6,787,311,787z"/>
		</g>
	</g>
	<g id="Calque_71">
	</g>
	<g id="BRAS_3_">
		<path class="st2" d="M473,549c0,0,146,36,182-63"/>
		<g id="MAIN">
			<g id="tete_3_">
				<circle class="st3" cx="654.9" cy="485.6" r="36.1"/>
			</g>
			<path class="st3" d="M650.5,464L650.5,464c-5.2,0-9.5-4.3-9.5-9.5v-27c0-5.2,4.3-9.5,9.5-9.5l0,0c5.2,0,9.5,4.3,9.5,9.5v27
				C660,459.7,655.7,464,650.5,464z"/>
			<path class="st3" d="M666.8,464.2L666.8,464.2c-4.4-2.8-5.8-8.6-3-13.1l14.3-22.9c2.8-4.4,8.6-5.8,13.1-3l0,0
				c4.4,2.8,5.8,8.6,3,13.1l-14.3,22.9C677.1,465.7,671.3,467,666.8,464.2z"/>
			<path class="st3" d="M676.2,478.4L676.2,478.4c-2.2-4.8-0.2-10.4,4.6-12.6l24.5-11.4c4.8-2.2,10.4-0.2,12.6,4.6l0,0
				c2.2,4.8,0.2,10.4-4.6,12.6L688.8,483C684,485.3,678.4,483.2,676.2,478.4z"/>
			<path class="st3" d="M630.1,486.3L630.1,486.3c-4.6,2.4-10.4,0.7-12.8-4l-9.8-18.6c-2.4-4.6-0.7-10.4,4-12.8l0,0
				c4.6-2.4,10.4-0.7,12.8,4l9.8,18.6C636.5,478.1,634.7,483.9,630.1,486.3z"/>
		</g>
	</g>
	<g id="BRAS_-_copie_5">
		<path class="st2" d="M289.8,548c0,0-146,36-182-63"/>
		<g id="MAIN_-_copie">
			<g id="tete_8_">
				<circle class="st3" cx="107.9" cy="484.6" r="36.1"/>
			</g>
			<path class="st3" d="M112.3,463L112.3,463c5.2,0,9.5-4.3,9.5-9.5v-27c0-5.2-4.3-9.5-9.5-9.5l0,0c-5.2,0-9.5,4.3-9.5,9.5v27
				C102.8,458.7,107,463,112.3,463z"/>
			<path class="st3" d="M96,463.2L96,463.2c4.4-2.8,5.8-8.6,3-13.1l-14.3-22.9c-2.8-4.4-8.6-5.8-13.1-3l0,0c-4.4,2.8-5.8,8.6-3,13.1
				l14.3,22.9C85.6,464.7,91.5,466,96,463.2z"/>
			<path class="st3" d="M86.6,477.4L86.6,477.4c2.2-4.8,0.2-10.4-4.6-12.6l-24.5-11.4c-4.8-2.2-10.4-0.2-12.6,4.6l0,0
				c-2.2,4.8-0.2,10.4,4.6,12.6L74,482C78.7,484.3,84.4,482.2,86.6,477.4z"/>
			<path class="st3" d="M132.7,485.3L132.7,485.3c4.6,2.4,10.4,0.7,12.8-4l9.8-18.6c2.4-4.6,0.7-10.4-4-12.8l0,0
				c-4.6-2.4-10.4-0.7-12.8,4l-9.8,18.6C126.3,477.1,128.1,482.9,132.7,485.3z"/>
		</g>
	</g>
	<g id="CORPS_4_">
		<g id="tete_6_">
			<circle class="st4" cx="289.8" cy="548.5" r="27.2"/>
		</g>
		<g id="tete_9_">
			<circle class="st4" cx="473" cy="548.7" r="27.2"/>
		</g>
		<g>
			<path class="st5" d="M271.8,629.5c-1.8,8-2.8,16.4-2.8,25c0,62.7,50.8,113.5,113.5,113.5S496,717.2,496,654.5
				c0-8.2-0.9-16.2-2.5-24c-31.1,11-68.8,17.5-109.5,17.5C342.1,648,303.4,641.2,271.8,629.5z"/>
		</g>
		<path class="st3" d="M382.5,541c-54.1,0-99.4,37.9-110.7,88.5C303.4,641.2,342.1,648,384,648c40.6,0,78.4-6.5,109.5-17.5
			C482.5,579.4,437,541,382.5,541z"/>
		<g id="tete_19_">
			<circle class="st1" cx="347.6" cy="673.3" r="15.3"/>
		</g>
		<g id="tete_21_">
			<circle class="st1" cx="425.6" cy="673.3" r="15.3"/>
		</g>
	</g>
	<g id="TETE_-_copie">
		<g id="tete_10_">
			<circle class="st6" cx="553" cy="353" r="77"/>
		</g>
		<g id="tete_13_">
			<circle class="st6" cx="207" cy="353" r="77"/>
		</g>
		<g id="tete_5_">
			<circle class="st3" cx="382" cy="343" r="198"/>
		</g>
		<g>
			<g>
				<path class="st7" d="M405.6,164.6c0.6-6.6-1.4-13.3-5.5-18.6c-2-2.6-4.6-5-7.8-5.9c-2.8-0.8-6.2-0.3-8.3,1.9
					c-2.2,2.3-2.1,5.6-0.7,8.2c1.5,2.6,4,4.4,6.7,5.5c5.1,1.9,11.3,1,15.7-2.1c4.6-3.3,6.9-8.7,6.4-14.3c-0.6-5.4-3.6-10.9-8.7-13.2
					c-4.5-2-11.2-1.6-13.8,3.2c-3.1,5.6,1.7,11.7,6.9,13.8c5.8,2.3,12.8,0.6,17.4-3.3c4.9-4.1,6.9-10.8,5.7-17
					c-0.3-1.5-0.8-3-1.5-4.4c-0.8-1.7-3.4-0.2-2.6,1.5c2.2,4.6,1.8,10.3-0.9,14.6c-2.7,4.1-7.6,6.6-12.4,6.6
					c-4.4,0-9.8-2.5-10.5-7.3c-0.7-4.6,4.5-6.4,8.2-5.6c8.7,1.8,12,13.8,6.9,20.6c-2.6,3.4-7.1,5.2-11.4,5.1
					c-4-0.1-9.8-2.4-10.1-7.1c-0.2-2.7,2.7-4.2,5.1-3.9c2.9,0.4,5.3,2.6,7,4.8c3.9,4.7,5.7,11,5.1,17.1
					C402.5,166.5,405.5,166.5,405.6,164.6L405.6,164.6z"/>
			</g>
		</g>
		<g id="tete_14_">
			<circle class="st8" cx="430.6" cy="99" r="33"/>
		</g>
	</g>
	<g id="Calque_73">
		<g>
			<path d="M348,450c6.8,3.2,13.3,6,19.8,8.2c6.5,2.1,13.1,3.5,19.6,3.7c0.8,0.1,1.6,0,2.4,0s1.6,0,2.4-0.1c1.6,0,3.2-0.3,4.8-0.5
				c3.2-0.5,6.4-1.3,9.6-2.3c6.4-2.1,12.6-5.4,19.3-9c-3.6,6.6-9.2,12.1-16,16.2c-3.4,1.9-7.1,3.5-11,4.4c-2,0.4-3.9,0.8-5.9,1
				c-1,0.1-2,0.2-3,0.2s-2,0.1-3,0c-8-0.3-15.8-2.7-22.4-6.5c-3.3-1.9-6.5-4.2-9.3-6.7C352.6,456,350,453.3,348,450z"/>
		</g>
	</g>
	<g id="VISAGE_-_copie_3">
		<g id="YEUX_-_copie_6">
			<path class="st4" d="M460.8,231.7c-27.4,0-50.6,18.1-58.4,42.9c-4.6-40.9-39.3-72.6-81.5-72.6c-45.3,0-82,36.7-82,82
				s36.7,82,82,82c38.6,0,70.9-26.6,79.6-62.5c5.1,28.7,30.1,50.5,60.2,50.5c33.8,0,61.2-27.4,61.2-61.2S494.6,231.7,460.8,231.7z"
				/>
			<circle class="st9" cx="316" cy="278" r="82"/>
			<circle class="st9" cx="455.8" cy="286.9" r="61.2"/>
			<circle cx="455.7" cy="286.9" r="50"/>
			<circle cx="316" cy="278" r="65"/>
			<circle cx="456" cy="287" r="40"/>
			<circle cx="317" cy="278" r="50"/>
			<circle class="st9" cx="276" cy="238" r="18"/>
			<circle class="st9" cx="426" cy="257" r="15"/>
		</g>
	</g>
	<circle cx="386.5" cy="404.5" r="21.5"/>
</g>
</svg>
