<?xml version="1.0" encoding="utf-8"?>
<!-- Generator: Adobe Illustrator 23.1.0, SVG Export Plug-In . SVG Version: 6.00 Build 0)  -->
<svg version="1.1" id="Calque_1" xmlns="http://www.w3.org/2000/svg" xmlns:xlink="http://www.w3.org/1999/xlink" x="0px" y="0px"
	 viewBox="0 0 760 824" style="enable-background:new 0 0 760 824;" xml:space="preserve">
<style type="text/css">
	.st0{display:none;}
	.st1{display:inline;fill:#CCCCCC;}
	.st2{display:inline;fill:#FFCF00;}
	.st3{fill:#CCCCCC;}
	.st4{fill:none;stroke:#CCCCCC;stroke-width:12;stroke-miterlimit:10;}
	.st5{fill:#FFCF00;}
	.st6{fill:#F7A100;}
	.st7{fill:#3D56DF;}
	.st8{fill:#ED3E48;}
	.st9{fill:#FFFFFF;}
	.st10{fill:none;stroke:#000000;stroke-width:10;stroke-miterlimit:10;}
</style>
<g id="ROND_PERE">
	<g id="Calque_5_-_copie_6">
	</g>
	<g id="PIEDS_-_copie_9">
		<g class="st0">
			<rect x="449" y="640" class="st1" width="12" height="184"/>
			<path class="st2" d="M455,774L455,774c-13.8,0-25,11.2-25,25v25h50v-25C480,785.2,468.8,774,455,774z"/>
		</g>
		<g class="st0">
			<rect x="305" y="640" class="st1" width="12" height="184"/>
			<path class="st2" d="M310,774L310,774c13.8,0,25,11.2,25,25v25h-50v-25C285,785.2,296.2,774,310,774z"/>
		</g>
		<g>
			<rect x="452.7" y="629.7" class="st3" width="12.7" height="194.3"/>
			<path d="M467,784.9h-16c-20.4,0-37,16.6-37,37v2.1h90v-2.1C504,801.5,487.4,784.9,467,784.9z"/>
		</g>
		<g>
			<rect x="300.6" y="629.7" class="st3" width="12.7" height="194.3"/>
			<path d="M299,784.9h16c20.4,0,37,16.6,37,37v2.1h-90v-2.1C262,801.5,278.5,784.9,299,784.9z"/>
		</g>
	</g>
	<g id="Calque_71_-_copie_3">
	</g>
	<g id="BRAS_-_copie_11_1_">
		<path class="st4" d="M506,449c0,0,146,36,182-63"/>
		<g id="MAIN_-_copie_9_1_">
			<g id="tete_59_">
				<circle class="st5" cx="687.9" cy="385.6" r="36.1"/>
			</g>
			<path class="st5" d="M683.5,364L683.5,364c-5.2,0-9.5-4.3-9.5-9.5v-27c0-5.2,4.3-9.5,9.5-9.5l0,0c5.2,0,9.5,4.3,9.5,9.5v27
				C693,359.7,688.7,364,683.5,364z"/>
			<path class="st5" d="M699.8,364.2L699.8,364.2c-4.4-2.8-5.8-8.6-3-13.1l14.3-22.9c2.8-4.4,8.6-5.8,13.1-3l0,0
				c4.4,2.8,5.8,8.6,3,13.1l-14.3,22.9C710.1,365.7,704.3,367,699.8,364.2z"/>
			<path class="st5" d="M709.2,378.4L709.2,378.4c-2.2-4.8-0.2-10.4,4.6-12.6l24.5-11.4c4.8-2.2,10.4-0.2,12.6,4.6l0,0
				c2.2,4.8,0.2,10.4-4.6,12.6L721.8,383C717,385.3,711.4,383.2,709.2,378.4z"/>
			<path class="st5" d="M663.1,386.3L663.1,386.3c-4.6,2.4-10.4,0.7-12.8-4l-9.8-18.6c-2.4-4.6-0.7-10.4,4-12.8l0,0
				c4.6-2.4,10.4-0.7,12.8,4l9.8,18.6C669.5,378.1,667.7,383.9,663.1,386.3z"/>
		</g>
	</g>
	<g id="BRAS_-_copie_11">
		<path class="st4" d="M262.8,450c0,0-146,36-182-63"/>
		<g id="MAIN_-_copie_9">
			<g id="tete_57_">
				<circle class="st5" cx="80.9" cy="386.6" r="36.1"/>
			</g>
			<path class="st5" d="M85.3,365L85.3,365c5.2,0,9.5-4.3,9.5-9.5v-27c0-5.2-4.3-9.5-9.5-9.5l0,0c-5.2,0-9.5,4.3-9.5,9.5v27
				C75.8,360.7,80,365,85.3,365z"/>
			<path class="st5" d="M69,365.2L69,365.2c4.4-2.8,5.8-8.6,3-13.1l-14.3-22.9c-2.8-4.4-8.6-5.8-13.1-3l0,0c-4.4,2.8-5.8,8.6-3,13.1
				l14.3,22.9C58.6,366.7,64.5,368,69,365.2z"/>
			<path class="st5" d="M59.6,379.4L59.6,379.4c2.2-4.8,0.2-10.4-4.6-12.6l-24.5-11.4c-4.8-2.2-10.4-0.2-12.6,4.6l0,0
				c-2.2,4.8-0.2,10.4,4.6,12.6L47,384C51.7,386.3,57.4,384.2,59.6,379.4z"/>
			<path class="st5" d="M105.7,387.3L105.7,387.3c4.6,2.4,10.4,0.7,12.8-4l9.8-18.6c2.4-4.6,0.7-10.4-4-12.8l0,0
				c-4.6-2.4-10.4-0.7-12.8,4l-9.8,18.6C99.3,379.1,101.1,384.9,105.7,387.3z"/>
		</g>
	</g>
	<g id="CORPS_5_">
		<g id="tete_71_">
			<circle class="st6" cx="245.6" cy="450.1" r="28.7"/>
		</g>
		<g id="tete_70_">
			<circle class="st6" cx="518" cy="450.4" r="28.7"/>
		</g>
		<g>
			<path class="st5" d="M528.9,500.4c-10.4-15.6-23.2-29.4-37.9-40.9v62.8C506.3,516.2,519.2,508.7,528.9,500.4z"/>
			<path class="st5" d="M236,500.4c9.7,8.3,22.6,15.8,38,21.9v-62.9C259.3,471,246.4,484.8,236,500.4z"/>
			<path class="st5" d="M483.8,454.1c-28.7-20.2-63.6-32.1-101.3-32.1c-36.5,0-70.4,11.1-98.5,30.1V526c27.6,9.4,61.6,15,98.5,15
				s70.9-5.6,98.5-15v-73L483.8,454.1z"/>
		</g>
		<g>
			<path class="st7" d="M554.5,560.8c-4.7-21.9-13.5-42.4-25.6-60.4c-28.2,24.2-83.2,40.6-146.4,40.6c-63.3,0-118.3-16.4-146.5-40.6
				c-11.8,17.7-20.5,37.6-25.3,58.9c-2.8,12.5-4.3,25.4-4.3,38.7c0,97.2,78.8,176,176,176s176-78.8,176-176
				C558.5,585.3,557.1,572.8,554.5,560.8z"/>
			<path class="st7" d="M274,459.4v62.9c3.2,1.3,6.6,2.5,10,3.7v-73.9C280.6,454.4,277.2,456.9,274,459.4z"/>
			<path class="st7" d="M491,459.5c-2.4-1.8-4.8-3.6-7.2-5.4L481,453v73c3.4-1.2,6.8-2.4,10-3.7V459.5z"/>
		</g>
		<g>
			<g id="tete_47_">
				<circle cx="382" cy="522" r="10"/>
			</g>
			<g>
				<g id="tete_52_">
					<circle cx="382" cy="484" r="10"/>
				</g>
				<path d="M391.3,481.3l41.4-11.9c0.8-0.2,1.7-0.1,2.5,0.4l19.8,13.5c1.8,1.3,1.7,4-0.3,5l-21.5,11.2c-0.7,0.4-1.5,0.4-2.2,0.2
					L391.4,487C388.4,486.1,388.5,482.1,391.3,481.3z"/>
				<path d="M373.2,480.6l-41.4-11.9c-0.8-0.2-1.7-0.1-2.5,0.4l-19.8,13.5c-1.8,1.3-1.7,4,0.3,5l21.5,11.2c0.7,0.4,1.5,0.4,2.2,0.2
					l39.6-12.7C376.1,485.3,376,481.4,373.2,480.6z"/>
			</g>
		</g>
	</g>
	<g id="TETE_-_copie_4">
		<g id="tete_55_">
			<circle class="st8" cx="533.5" cy="306.5" r="47.5"/>
		</g>
		<g id="tete_53_">
			<circle class="st8" cx="226.3" cy="307" r="47.5"/>
		</g>
		<g>
			<path d="M360,0h43c0,0-15,31-15,110s-13,78-13,0S360,0,360,0z"/>
			<g id="tete_46_">
				<ellipse class="st8" cx="379.5" cy="140" rx="52.5" ry="37"/>
			</g>
			<g>
				<path class="st5" d="M384,213c-10.8,0-123-79-174.6,49.5c-2.4,11.5-3.6,23.4-3.6,35.5c0,97.2,78.8,175.9,175.9,175.9
					S557.6,395.1,557.6,298c0-13.9-1.6-27.4-4.6-40.3C501.5,135.8,394.8,213,384,213z"/>
			</g>
			<path d="M382.5,228c10.8,0,119-92.2,170.6,29.8c-18.2-77.7-88-135.6-171.3-135.6c-85,0-155.9,60.3-172.3,140.4
				C261,134,371.7,228,382.5,228z"/>
		</g>
	</g>
	<g id="VISAGE_-_copie_7">
		<g id="YEUX_-_copie_10">
			<g>
				<circle class="st6" cx="312.1" cy="284.3" r="60"/>
				<circle class="st6" cx="462.4" cy="292.2" r="60"/>
			</g>
		</g>
		<g id="YEUX_-_copie_12">
			<g>
				<circle class="st9" cx="308.1" cy="280.3" r="60"/>
				<circle cx="308.1" cy="280.3" r="47.6"/>
				<circle cx="308.9" cy="280.3" r="36.6"/>
				<circle class="st9" cx="278.9" cy="251.1" r="13.2"/>
			</g>
			<g>
				<circle class="st9" cx="458.4" cy="288.2" r="60"/>
				<circle cx="458.2" cy="288.2" r="49.1"/>
				<circle cx="458.5" cy="288.3" r="39.2"/>
				<circle class="st9" cx="429.1" cy="258.9" r="14.7"/>
			</g>
		</g>
	</g>
	<g id="Calque_132">
		<path class="st10" d="M534.1,282.3c0,39.2-31.8,70.9-70.9,70.9s-70.9-31.8-70.9-70.9s-4.6-55.1,70.9-55.1S534.1,243.2,534.1,282.3
			z"/>
		<path class="st10" d="M372.9,279.9c0,39.2-31.8,70.9-70.9,70.9s-71-31.7-71-70.9s-4.6-55.1,70.9-55.1S372.9,240.7,372.9,279.9z"/>
		<line class="st10" x1="374" y1="251" x2="391" y2="251"/>
		<g>
			<polygon points="237,248 209,263 231,240 			"/>
		</g>
		<g>
			<polygon points="533.8,240.8 554.7,263.7 527.6,248.7 			"/>
		</g>
	</g>
</g>
</svg>
