<?xml version="1.0" encoding="utf-8"?>
<!-- Generator: Adobe Illustrator 23.1.0, SVG Export Plug-In . SVG Version: 6.00 Build 0)  -->
<svg version="1.1" id="Calque_1" xmlns="http://www.w3.org/2000/svg" xmlns:xlink="http://www.w3.org/1999/xlink" x="0px" y="0px"
	 viewBox="0 0 760 824" style="enable-background:new 0 0 760 824;" xml:space="preserve">
<style type="text/css">
	.st0{clip-path:url(#SVGID_2_);fill:#3D7FDF;}
	.st1{clip-path:url(#SVGID_4_);fill:#ED3E48;}
	.st2{clip-path:url(#SVGID_6_);fill:#3D7FDF;}
	.st3{clip-path:url(#SVGID_8_);fill:#ED3E48;}
	.st4{fill:#3D56DF;}
	.st5{fill:#ED3E48;}
	.st6{fill:#3D7FDF;}
	.st7{fill:none;stroke:#3D56DF;stroke-width:50;stroke-linecap:round;stroke-linejoin:round;stroke-miterlimit:10;}
	.st8{fill:#FFFFFF;}
	.st9{clip-path:url(#SVGID_10_);}
	.st10{clip-path:url(#SVGID_12_);}
	.st11{clip-path:url(#SVGID_14_);}
	.st12{clip-path:url(#SVGID_16_);}
	.st13{fill:none;stroke:#3D56DF;stroke-width:12;stroke-miterlimit:10;}
	.st14{fill:#3D64DF;}
</style>
<g id="BLEU_CYCLOPE_CORNES_BRAS">
	<g id="CORNES_1_">
		<g>
			<g>
				<defs>
					<path id="SVGID_1_" d="M488.6,356.1c36.8-20.3,55.2-60.8,49.2-100c-0.5-3.5,3.4-5.9,6.3-3.8c10.1,7.4,18.9,16.8,26,28
						c33,52.3,13.1,122.3-42.6,149.3c-49.5,24-109.6,5.3-136.5-43.4c-5.4-9.8-9.1-20.1-11.1-30.5c-0.7-3.8,3.5-6.7,6.7-4.5
						C416,371.3,455.4,374.5,488.6,356.1z"/>
				</defs>
				<clipPath id="SVGID_2_">
					<use xlink:href="#SVGID_1_"  style="overflow:visible;"/>
				</clipPath>
				<rect x="429" y="198" class="st0" width="163" height="259"/>
			</g>
			<g>
				<defs>
					<path id="SVGID_3_" d="M488.6,356.1c36.8-20.3,55.2-60.8,49.2-100c-0.5-3.5,3.4-5.9,6.3-3.8c10.1,7.4,18.9,16.8,26,28
						c33,52.3,13.1,122.3-42.6,149.3c-49.5,24-109.6,5.3-136.5-43.4c-5.4-9.8-9.1-20.1-11.1-30.5c-0.7-3.8,3.5-6.7,6.7-4.5
						C416,371.3,455.4,374.5,488.6,356.1z"/>
				</defs>
				<clipPath id="SVGID_4_">
					<use xlink:href="#SVGID_3_"  style="overflow:visible;"/>
				</clipPath>
				<circle class="st1" cx="579.5" cy="401.5" r="115.5"/>
			</g>
		</g>
		<g>
			<g>
				<defs>
					<path id="SVGID_5_" d="M294.4,356.5c-36.8-20.3-55.2-60.8-49.2-100c0.5-3.5-3.4-5.9-6.3-3.8c-10.1,7.4-18.9,16.8-26,28
						c-33,52.3-13,122.3,42.6,149.3c49.5,24,109.6,5.3,136.5-43.4c5.4-9.8,9.1-20.1,11.1-30.5c0.7-3.8-3.5-6.7-6.7-4.5
						C367,371.7,327.7,374.9,294.4,356.5z"/>
				</defs>
				<clipPath id="SVGID_6_">
					<use xlink:href="#SVGID_5_"  style="overflow:visible;"/>
				</clipPath>
				<rect x="146" y="215" class="st2" width="172" height="213"/>
			</g>
			<g>
				<defs>
					<path id="SVGID_7_" d="M294.4,356.5c-36.8-20.3-55.2-60.8-49.2-100c0.5-3.5-3.4-5.9-6.3-3.8c-10.1,7.4-18.9,16.8-26,28
						c-33,52.3-13,122.3,42.6,149.3c49.5,24,109.6,5.3,136.5-43.4c5.4-9.8,9.1-20.1,11.1-30.5c0.7-3.8-3.5-6.7-6.7-4.5
						C367,371.7,327.7,374.9,294.4,356.5z"/>
				</defs>
				<clipPath id="SVGID_8_">
					<use xlink:href="#SVGID_7_"  style="overflow:visible;"/>
				</clipPath>
				<circle class="st3" cx="202.5" cy="401.5" r="115.5"/>
			</g>
		</g>
	</g>
	<g id="PIEDS_-_copie_2">
		<g>
			<path class="st4" d="M477.6,788.2L477.6,788.2c-20.4,0-37,16.6-37,37l0,0h74l0,0C514.6,804.8,498,788.2,477.6,788.2z"/>
			<rect x="440.6" y="712.2" class="st4" width="35" height="113"/>
			<path class="st5" d="M477.6,788.2L477.6,788.2c-20.4,0-6.7,37-6.7,37h43.7l0,0C514.6,804.8,498,788.2,477.6,788.2z"/>
		</g>
		<g>
			<path class="st4" d="M306.6,788.2L306.6,788.2c20.4,0,37,16.6,37,37l0,0h-74l0,0C269.6,804.8,286.1,788.2,306.6,788.2z"/>
			<rect x="308.5" y="712.2" class="st4" width="35" height="113"/>
			<path class="st5" d="M306.6,788.2L306.6,788.2c20.4,0,7.8,37,7.8,37h-44.8l0,0C269.6,804.8,286.1,788.2,306.6,788.2z"/>
		</g>
	</g>
	<g id="BRAS_1_">
		<path class="st6" d="M99.8,684H96v-55h3.8c11.2,0,20.2,9.1,20.2,20.2v14.5C120,674.9,110.9,684,99.8,684z"/>
		<path class="st7" d="M505,529l0.5,0.5c139,0,173.5-32,173.5-169.2l0,0"/>
		<path class="st7" d="M250.5,511.1l-0.5-0.5c-139,0-173.5,32-173.5,169.2l0,0"/>
		<path class="st6" d="M659.2,362h3.8v55h-3.8c-11.2,0-20.2-9.1-20.2-20.2v-14.5C639,371.1,648.1,362,659.2,362z"/>
	</g>
	<g id="CORPS_-_copie_2">
		<g id="tete_1_">
			<circle class="st6" cx="382" cy="539" r="198"/>
		</g>
	</g>
	<g id="VISAGE_-_copie_2">
		<g id="YEUX_-_copie_2">
		</g>
		<circle class="st4" cx="387" cy="463" r="82"/>
		<circle class="st8" cx="382" cy="457" r="82"/>
		<circle class="st5" cx="382" cy="457" r="55"/>
		<circle cx="382.8" cy="457" r="40"/>
		<circle class="st8" cx="342" cy="422.3" r="21.7"/>
		<path class="st4" d="M307.8,422c13.1-27.8,41.4-47,74.2-47c32.9,0,61.2,19.3,74.3,47.3C458.9,427.8,305.1,427.8,307.8,422z"/>
		<path d="M515.9,605.2c0,52.3-58,94.8-129.4,94.8s-129.4-42.4-129.4-94.8S515.9,552.9,515.9,605.2z"/>
		<g>
			<g>
				<defs>
					<path id="SVGID_9_" d="M515.9,605.2c0,52.3-58,94.8-129.4,94.8s-129.4-42.4-129.4-94.8S515.9,552.9,515.9,605.2z"/>
				</defs>
				<clipPath id="SVGID_10_">
					<use xlink:href="#SVGID_9_"  style="overflow:visible;"/>
				</clipPath>
				<g id="LANGUE" class="st9">
					<ellipse class="st5" cx="414.3" cy="720.4" rx="48.7" ry="53.4"/>
					<ellipse class="st5" cx="358.9" cy="720.4" rx="48.7" ry="53.4"/>
				</g>
			</g>
			<g>
				<defs>
					<path id="SVGID_11_" d="M515.9,605.2c0,52.3-58,94.8-129.4,94.8s-129.4-42.4-129.4-94.8S515.9,552.9,515.9,605.2z"/>
				</defs>
				<clipPath id="SVGID_12_">
					<use xlink:href="#SVGID_11_"  style="overflow:visible;"/>
				</clipPath>
				<g id="DENTS_AVT" class="st10">
					<ellipse class="st8" cx="365.4" cy="568.4" rx="22.9" ry="44.4"/>
					<ellipse class="st8" cx="418.5" cy="568.6" rx="22.9" ry="44.4"/>
				</g>
			</g>
			<g>
				<defs>
					<path id="SVGID_13_" d="M515.9,605.2c0,52.3-58,94.8-129.4,94.8s-129.4-42.4-129.4-94.8S515.9,552.9,515.9,605.2z"/>
				</defs>
				<clipPath id="SVGID_14_">
					<use xlink:href="#SVGID_13_"  style="overflow:visible;"/>
				</clipPath>
				<g id="DENTS_D" class="st11">
					
						<ellipse transform="matrix(0.6426 -0.7662 0.7662 0.6426 -306.3512 615.6746)" class="st8" cx="506.8" cy="636.2" rx="12.8" ry="24.9"/>
					
						<ellipse transform="matrix(0.6426 -0.7662 0.7662 0.6426 -336.3981 608.5266)" class="st8" cx="484.1" cy="664.9" rx="18.4" ry="35.7"/>
				</g>
			</g>
			<g>
				<defs>
					<path id="SVGID_15_" d="M515.9,605.2c0,52.3-58,94.8-129.4,94.8s-129.4-42.4-129.4-94.8S515.9,552.9,515.9,605.2z"/>
				</defs>
				<clipPath id="SVGID_16_">
					<use xlink:href="#SVGID_15_"  style="overflow:visible;"/>
				</clipPath>
				<g id="DENTS_G" class="st12">
					
						<ellipse transform="matrix(0.7662 -0.6426 0.6426 0.7662 -343.0539 320.8824)" class="st8" cx="269.4" cy="631.9" rx="24.9" ry="12.8"/>
					
						<ellipse transform="matrix(0.7662 -0.6426 0.6426 0.7662 -356.1084 342.1428)" class="st8" cx="292.1" cy="660.5" rx="35.7" ry="18.4"/>
				</g>
			</g>
		</g>
		<path class="st13" d="M515.9,605.2c0,52.3-58,94.8-129.4,94.8s-129.4-42.4-129.4-94.8S515.9,552.9,515.9,605.2z"/>
	</g>
	<g id="FINITIONS_1_">
		<circle class="st4" cx="215" cy="553" r="18"/>
		<circle class="st4" cx="523" cy="535" r="13"/>
		<circle class="st4" cx="285" cy="512" r="8"/>
		<circle class="st4" cx="246" cy="423" r="13"/>
		<circle class="st4" cx="523" cy="420" r="8"/>
		<circle class="st4" cx="469" cy="512" r="8"/>
		<circle class="st4" cx="437" cy="712" r="8"/>
		<circle class="st4" cx="215" cy="601" r="8"/>
	</g>
	<g id="BOUCHE_1_">
		<path class="st14" d="M458.1,432H302.4c-5.5,0-9.9-4.4-9.9-9.9v-0.2c0-5.5,4.4-9.9,9.9-9.9h155.7c5.5,0,9.9,4.4,9.9,9.9v0.2
			C468,427.6,463.6,432,458.1,432z"/>
	</g>
</g>
</svg>
