<?xml version="1.0" encoding="utf-8"?>
<!-- Generator: Adobe Illustrator 23.1.0, SVG Export Plug-In . SVG Version: 6.00 Build 0)  -->
<svg version="1.1" id="Calque_1" xmlns="http://www.w3.org/2000/svg" xmlns:xlink="http://www.w3.org/1999/xlink" x="0px" y="0px"
	 viewBox="0 0 760 824" style="enable-background:new 0 0 760 824;" xml:space="preserve">
<style type="text/css">
	.st0{fill:#9CCF30;}
	.st1{fill:#15BB5C;}
	.st2{fill:#FFCF00;}
	.st3{clip-path:url(#SVGID_2_);fill:#FFCF00;}
	.st4{clip-path:url(#SVGID_4_);fill:#FFCF00;}
	.st5{fill:#FFFFFF;}
	.st6{display:none;}
	.st7{display:inline;fill:none;stroke:#15BB5C;stroke-width:20;stroke-linecap:round;stroke-linejoin:round;stroke-miterlimit:10;}
	.st8{stroke:#15BB5C;stroke-width:12;stroke-miterlimit:10;}
	.st9{display:inline;fill:#15BB5C;}
	.st10{opacity:0.44;}
</style>
<g id="GRENOUILLE">
	<g id="QUEUE_-_copie">
	</g>
	<g id="JAMBES_ARR_-_copie">
		<g>
			
				<ellipse transform="matrix(0.5005 -0.8657 0.8657 0.5005 -311.0894 787.3808)" class="st0" cx="526.8" cy="663.3" rx="120.4" ry="65.7"/>
			<path class="st0" d="M516.1,734.8c39.2,13.1,65.7,39.7,61.6,52c-4.1,12.4-37.3,5.9-76.6-7.3c-39.2-13.1-69.6-28-65.5-40.3
				C439.7,726.9,476.8,721.7,516.1,734.8z"/>
		</g>
		<g>
			
				<ellipse transform="matrix(0.9289 -0.3703 0.3703 0.9289 -230.9512 135.3476)" class="st0" cx="237" cy="669.2" rx="65.5" ry="120.1"/>
			<path class="st0" d="M237.4,741.2c-40.6,7.3-70.6,29.7-68.2,42.4c2.3,12.8,36,11.2,76.6,3.9s72.7-17.6,70.4-30.4
				C313.9,744.4,278,733.9,237.4,741.2z"/>
		</g>
	</g>
	<g id="CORPS_-_copie_5">
		<path class="st1" d="M502,780.8l-5-9.8l-5.7-196.6l0,0l0,0L486,518H273.5l-5.7,57.4l0,0L262.1,772l-5.8,11.3L242,806l30.7-16.5
			L282,804l10-15l30,18c0,0-6.9-12.3-11.7-24.3h3.1l135.5-1.3C444.1,793.3,437,806,437,806l30-18l10,15l9.3-14.5L517,805L502,780.8z
			"/>
		<g>
			<path class="st2" d="M457,687.6c0,112.5-34.7,105.6-77.5,105.6S302,800.1,302,687.6S336.7,386,379.5,386S457,575.2,457,687.6z"/>
			<ellipse class="st2" cx="378.5" cy="773.5" rx="80.5" ry="19.5"/>
			<rect x="298" y="683" class="st2" width="161" height="91"/>
		</g>
		<g>
			<path class="st1" d="M306,772c-7-17.6,13-137,13-137l-51.3-59.6l0,0L262,772l-5.8,11.3L242,806l30.7-16.5L282,804l10-15l30,18
				c0,0-6.9-12.3-11.7-24.3C308.2,777.4,306.5,773.2,306,772z"/>
			<path class="st1" d="M502,780.8l-5-9.8l-5.7-196.6l0,0L440,634c0,0,20,119.4,13,137c-0.5,1.2-2.1,5.2-4.1,10.4
				C444.1,793.3,437,806,437,806l30-18l10,15l9.3-14.5L517,805L502,780.8z"/>
		</g>
		<path class="st1" d="M289,656l30-22l16-33.8c17.7-37.4,70.9-37.7,88.9-0.4L440,633l34-8v-51l-25.3-56.1L295,529l-6,95V656z"/>
		<ellipse class="st0" cx="382" cy="405.5" rx="246" ry="150.5"/>
		<ellipse class="st0" cx="247.8" cy="243.4" rx="86.2" ry="86.1"/>
		<ellipse class="st0" cx="511.5" cy="243.8" rx="86.2" ry="86.1"/>
		<g>
			<g>
				<defs>
					<ellipse id="SVGID_1_" cx="382" cy="405.5" rx="246" ry="150.5"/>
				</defs>
				<clipPath id="SVGID_2_">
					<use xlink:href="#SVGID_1_"  style="overflow:visible;"/>
				</clipPath>
				<circle class="st3" cx="585.5" cy="356.5" r="46.5"/>
			</g>
			<g>
				<defs>
					<ellipse id="SVGID_3_" cx="382" cy="405.5" rx="246" ry="150.5"/>
				</defs>
				<clipPath id="SVGID_4_">
					<use xlink:href="#SVGID_3_"  style="overflow:visible;"/>
				</clipPath>
				<circle class="st4" cx="176.5" cy="356.5" r="46.5"/>
			</g>
		</g>
		<circle class="st2" cx="183.7" cy="443.8" r="26"/>
		<circle class="st2" cx="574.5" cy="443.9" r="26"/>
		<circle class="st2" cx="236" cy="406" r="15"/>
		<circle class="st2" cx="529" cy="406" r="15"/>
	</g>
	<g id="VISAGE_-_copie_3">
		<g id="YEUX_-_copie_9_1_">
		</g>
		<g id="YEUX_-_copie_9">
			<g>
				<circle class="st1" cx="258" cy="259" r="70"/>
				<circle class="st5" cx="254" cy="255" r="70"/>
				<circle class="st2" cx="254" cy="255" r="55.5"/>
				<circle cx="254.9" cy="255" r="34.1"/>
				<circle class="st5" cx="219.9" cy="220.9" r="15.4"/>
			</g>
			<g>
				<circle class="st1" cx="508.7" cy="259.1" r="70"/>
				<circle class="st5" cx="504.7" cy="255.1" r="70"/>
				<circle class="st2" cx="504.5" cy="255.1" r="57.2"/>
				<ellipse transform="matrix(0.3827 -0.9239 0.9239 0.3827 75.9091 624.0059)" cx="504.9" cy="255.2" rx="34.3" ry="34.3"/>
				<circle class="st5" cx="470.6" cy="220.9" r="17.2"/>
			</g>
		</g>
		<g id="Calque_87" class="st6">
			<path class="st7" d="M201.5,439.6c0,0,180.8,142,359.2,0"/>
			<path class="st7" d="M222.1,420.1c-21.3,4.1-33.8,21.9-27.1,38.7"/>
			<path class="st7" d="M544.1,420.5c21.3,4.1,33.8,21.9,27.1,38.7"/>
		</g>
		<g id="Calque_89">
			<path id="bouche_2_" class="st8" d="M434,344.3c0,25.8-24.5,46.7-54.7,46.7s-54.7-20.9-54.7-46.7
				C324.5,318.6,434,318.6,434,344.3z"/>
		</g>
		<g id="Calque_88" class="st6">
			<ellipse class="st9" cx="371.5" cy="457" rx="13.5" ry="11"/>
			<ellipse class="st9" cx="405.5" cy="457" rx="13.5" ry="11"/>
		</g>
	</g>
	<g class="st10">
		<path class="st2" d="M212.3,816.4c-1.2-2.1-1.9-4.4-1.9-7v-6.9c0-0.3,0-0.7,0-1C210.6,806.8,211.2,811.7,212.3,816.4z"/>
		<path class="st2" d="M342.4,802.6v6.9c0,4-1.7,7.6-4.4,10.2c2.3-6.1,3.8-12.9,4.2-20.2C342.4,800.4,342.4,801.5,342.4,802.6z"/>
	</g>
	<g id="Calque_90">
	</g>
	<g id="BRAS_3_">
		<circle class="st1" cx="241.5" cy="808.5" r="12.5"/>
		<circle class="st1" cx="322.5" cy="808.5" r="12.5"/>
		<circle class="st1" cx="282" cy="808" r="16"/>
	</g>
	<g id="BRAS_-_copie_5">
		<circle class="st1" cx="517.5" cy="808.5" r="12.5"/>
		<circle class="st1" cx="436.5" cy="808.5" r="12.5"/>
		<circle class="st1" cx="477" cy="808" r="16"/>
	</g>
</g>
</svg>
