<?xml version="1.0" encoding="utf-8"?>
<!-- Generator: Adobe Illustrator 23.1.0, SVG Export Plug-In . SVG Version: 6.00 Build 0)  -->
<svg version="1.1" id="Calque_1" xmlns="http://www.w3.org/2000/svg" xmlns:xlink="http://www.w3.org/1999/xlink" x="0px" y="0px"
	 viewBox="0 0 760 824" style="enable-background:new 0 0 760 824;" xml:space="preserve">
<style type="text/css">
	.st0{fill:#CCCCCC;}
	.st1{fill:#FFCF00;}
	.st2{fill:none;stroke:#CCCCCC;stroke-width:12;stroke-miterlimit:10;}
	.st3{fill:#ED3E48;}
	.st4{fill:#5CB9DF;}
	.st5{fill:#F7A100;}
	.st6{fill:#FFFFFF;}
</style>
<g id="ROND_MERE">
	<g id="Calque_5_-_copie_5">
	</g>
	<g id="PIEDS_-_copie_8">
		<g>
			<rect x="449" y="640" class="st0" width="12" height="184"/>
			<path class="st1" d="M455,774L455,774c-13.8,0-25,11.2-25,25v25h50v-25C480,785.2,468.8,774,455,774z"/>
		</g>
		<g>
			<rect x="305" y="640" class="st0" width="12" height="184"/>
			<path class="st1" d="M310,774L310,774c13.8,0,25,11.2,25,25v25h-50v-25C285,785.2,296.2,774,310,774z"/>
		</g>
	</g>
	<g id="Calque_71_-_copie_2">
	</g>
	<g id="BRAS_-_copie_10_1_">
		<path class="st2" d="M461,487c0,0,146,36,182-63"/>
		<g id="MAIN_-_copie_8_1_">
			<g id="tete_62_">
				<circle class="st1" cx="642.9" cy="423.6" r="36.1"/>
			</g>
			<path class="st1" d="M638.5,402L638.5,402c-5.2,0-9.5-4.3-9.5-9.5v-27c0-5.2,4.3-9.5,9.5-9.5l0,0c5.2,0,9.5,4.3,9.5,9.5v27
				C648,397.7,643.7,402,638.5,402z"/>
			<path class="st1" d="M654.8,402.2L654.8,402.2c-4.4-2.8-5.8-8.6-3-13.1l14.3-22.9c2.8-4.4,8.6-5.8,13.1-3l0,0
				c4.4,2.8,5.8,8.6,3,13.1l-14.3,22.9C665.1,403.7,659.3,405,654.8,402.2z"/>
			<path class="st1" d="M664.2,416.4L664.2,416.4c-2.2-4.8-0.2-10.4,4.6-12.6l24.5-11.4c4.8-2.2,10.4-0.2,12.6,4.6l0,0
				c2.2,4.8,0.2,10.4-4.6,12.6L676.8,421C672,423.3,666.4,421.2,664.2,416.4z"/>
			<path class="st1" d="M618.1,424.3L618.1,424.3c-4.6,2.4-10.4,0.7-12.8-4l-9.8-18.6c-2.4-4.6-0.7-10.4,4-12.8l0,0
				c4.6-2.4,10.4-0.7,12.8,4l9.8,18.6C624.5,416.1,622.7,421.9,618.1,424.3z"/>
		</g>
	</g>
	<g id="BRAS_-_copie_10">
		<path class="st2" d="M297.8,485c0,0-146,36-182-63"/>
		<g id="MAIN_-_copie_8">
			<g id="tete_60_">
				<circle class="st1" cx="115.9" cy="421.6" r="36.1"/>
			</g>
			<path class="st1" d="M120.3,400L120.3,400c5.2,0,9.5-4.3,9.5-9.5v-27c0-5.2-4.3-9.5-9.5-9.5l0,0c-5.2,0-9.5,4.3-9.5,9.5v27
				C110.8,395.7,115,400,120.3,400z"/>
			<path class="st1" d="M104,400.2L104,400.2c4.4-2.8,5.8-8.6,3-13.1l-14.3-22.9c-2.8-4.4-8.6-5.8-13.1-3l0,0
				c-4.4,2.8-5.8,8.6-3,13.1l14.3,22.9C93.6,401.7,99.5,403,104,400.2z"/>
			<path class="st1" d="M94.6,414.4L94.6,414.4c2.2-4.8,0.2-10.4-4.6-12.6l-24.5-11.4c-4.8-2.2-10.4-0.2-12.6,4.6l0,0
				c-2.2,4.8-0.2,10.4,4.6,12.6L82,419C86.7,421.3,92.4,419.2,94.6,414.4z"/>
			<path class="st1" d="M140.7,422.3L140.7,422.3c4.6,2.4,10.4,0.7,12.8-4l9.8-18.6c2.4-4.6,0.7-10.4-4-12.8l0,0
				c-4.6-2.4-10.4-0.7-12.8,4l-9.8,18.6C134.3,414.1,136.1,419.9,140.7,422.3z"/>
		</g>
	</g>
	<g id="CORPS_-_copie_6">
	</g>
	<g id="TETE_-_copie_3">
		<g id="tete_50_">
			<circle class="st3" cx="533.5" cy="306.5" r="47.5"/>
		</g>
		<g id="tete_48_">
			<circle class="st3" cx="226.3" cy="307" r="47.5"/>
		</g>
		<g id="tete_45_">
			<circle cx="379.5" cy="53.5" r="52.5"/>
		</g>
		<g id="tete_41_">
			<ellipse class="st3" cx="379.5" cy="140" rx="52.5" ry="37"/>
		</g>
		<g>
			<g>
				<path class="st1" d="M410.6,212.4c-0.6,0.9-1.2,1.6-1.8,2.3c-5.9,8.1-15.5,13.4-26.3,13.4s-20.3-5.3-26.2-13.3
					c-0.8-0.7-1.6-1.6-2.3-2.7c-14.4-22.9-93-78-144.6,50.5c-2.4,11.5-3.6,23.4-3.6,35.5c0,97.2,78.8,175.9,175.9,175.9
					s175.9-78.8,175.9-175.9c0-13.9-1.6-27.4-4.6-40.3C501.5,135.8,424.8,189.8,410.6,212.4z"/>
			</g>
			<path d="M354,212c0.7,1.1,1.4,2,2.3,2.7c5.9,8.1,15.5,13.3,26.2,13.3c10.8,0,20.4-5.3,26.3-13.4c0.7-0.6,1.3-1.4,1.8-2.3
				c14.2-22.6,90.9-76.5,142.4,45.4c-18.2-77.7-88-135.6-171.3-135.6c-85,0-155.9,60.3-172.3,140.4C261,134,339.6,189.1,354,212z"/>
		</g>
	</g>
	<g id="ROBE">
		<path class="st4" d="M540,712.9c-56-16-28-157.8-94-157.8s-67.8-0.1-132.9-0.1s-38,141.8-94,157.8c-19.9,4,92.8,14.3,159.9,14.4
			v0.1C446,727.3,560,716.9,540,712.9z"/>
		<rect x="324" y="533" class="st5" width="113" height="23"/>
		<path class="st1" d="M436,536H323c-7.2,0-13.7-4.8-16.3-12l-20.6-30c-3.4-9.7,3.2-20,12.9-20h161c9.7,0,16.3,10.3,12.9,20
			l-20.6,30C449.7,531.2,443.2,536,436,536z"/>
		<path class="st4" d="M379.5,536c-52.5,0-61.2-62-80.4-62s182.2,0,161,0S432,536,379.5,536z"/>
	</g>
	<g id="VISAGE_-_copie_6">
		<g id="YEUX_-_copie_9">
			<g>
				<circle class="st5" cx="312.1" cy="284.3" r="60"/>
				<circle class="st5" cx="462.4" cy="292.2" r="60"/>
			</g>
		</g>
		<g id="YEUX_-_copie_11">
			<g>
				<circle class="st6" cx="308.1" cy="280.3" r="60"/>
				<circle cx="308.1" cy="280.3" r="47.6"/>
				<circle cx="308.9" cy="280.3" r="36.6"/>
				<circle class="st6" cx="278.9" cy="251.1" r="13.2"/>
			</g>
			<g>
				<circle class="st6" cx="458.4" cy="288.2" r="60"/>
				<circle cx="458.2" cy="288.2" r="49.1"/>
				<circle cx="458.5" cy="288.3" r="39.2"/>
				<circle class="st6" cx="429.1" cy="258.9" r="14.7"/>
			</g>
		</g>
	</g>
	<g id="COLLIER">
		<circle cx="337.5" cy="478.5" r="5"/>
		<circle cx="417.5" cy="487.5" r="5"/>
		<circle cx="375.5" cy="500.5" r="5"/>
		<circle cx="346.5" cy="490.5" r="5"/>
		<circle cx="360.5" cy="497.5" r="5"/>
		<circle cx="390.5" cy="500.5" r="5"/>
		<circle cx="404.5" cy="495.5" r="5"/>
		<circle cx="428.5" cy="477.5" r="5"/>
	</g>
</g>
</svg>
