<?xml version="1.0" encoding="utf-8"?>
<!-- Generator: Adobe Illustrator 23.1.0, SVG Export Plug-In . SVG Version: 6.00 Build 0)  -->
<svg version="1.1" id="Calque_1" xmlns="http://www.w3.org/2000/svg" xmlns:xlink="http://www.w3.org/1999/xlink" x="0px" y="0px"
	 viewBox="0 0 760 824" style="enable-background:new 0 0 760 824;" xml:space="preserve">
<style type="text/css">
	.st0{fill:#8B6239;}
	.st1{fill:#C59B6D;}
	.st2{fill:#CCCCCC;}
	.st3{fill:#FBE6CD;}
	.st4{fill:#754C24;}
	.st5{fill:#FFFFFF;}
	.st6{fill:#5CB9DF;}
</style>
<g id="PARESSEU_1_">
	<g id="CORPS_-_copie_3">
		<g id="BRAS_2_">
			<path class="st0" d="M506.4,730.4c22-32.9,36.6-90.9,36.6-156.9c0-83.4-23.3-154-55.4-177.3C485.3,428,484,461.9,484,497
				C484,587.9,492.5,670.2,506.4,730.4z"/>
			<path class="st0" d="M255,730.8c-22-32.9-36.6-90.9-36.6-156.9c0-83.4,23.3-154,55.4-177.3c2.4,31.8,3.6,65.7,3.6,100.8
				C277.4,588.2,268.8,670.6,255,730.8z"/>
		</g>
		<g id="AILES_-_copie">
			<path class="st1" d="M452.8,754c-73.2,0-71.8,0-146.4,0s-71.8-335,0-335s72.5,0,146.4,0S526,754,452.8,754z"/>
			<path class="st1" d="M341.1,824c-31.7,0-31.1,0-63.4,0S254,576,254,576s55.1,103,87.1,103S372.8,824,341.1,824z"/>
			<path class="st1" d="M419.3,824c31.7,0,31.1,0,63.4,0s23.7-248,23.7-248s-55.1,103-87.1,103S387.6,824,419.3,824z"/>
		</g>
		<g id="BRAS_-_copie_4">
			<path class="st0" d="M506.4,730.4c22-32.9,36.6-90.9,36.6-156.9C543,490.1,492.5,670.2,506.4,730.4z"/>
			<path class="st0" d="M255,730.8c-22-32.9-36.6-90.9-36.6-156.9C218.4,490.4,268.8,670.6,255,730.8z"/>
		</g>
		<g id="Calque_66">
			<g>
				<g>
					<path class="st2" d="M250,702c1.9,3.5,3.5,6.7,5.2,10c1.7,3.2,3.3,6.5,5.1,9.6c1.7,3.2,3.4,6.3,5.3,9.5
						c1.8,3.2,3.7,6.3,5.4,9.9c-3.5-1.8-6.6-4.3-9.2-7.1c-2.7-2.8-4.9-6-6.8-9.4c-1.9-3.4-3.3-7.1-4.2-10.8
						C249.9,709.9,249.4,705.9,250,702z"/>
				</g>
				<g>
					<path class="st2" d="M249,715c1.5,3.1,2.8,5.9,4.2,8.8c1.3,2.8,2.7,5.5,4.1,8.2c0.3,0.7,0.7,1.3,1.1,2l1.1,2
						c0.8,1.3,1.5,2.6,2.4,3.9c1.6,2.7,3.4,5.2,5.2,8.2c-3.3-1-6.3-2.8-8.8-5.2c-1.3-1.1-2.4-2.4-3.5-3.8c-1-1.4-2-2.8-2.8-4.3
						c-1.6-3-2.8-6.3-3.3-9.6C248.1,721.8,248,718.3,249,715z"/>
				</g>
			</g>
			<g>
				<g>
					<path class="st2" d="M511.6,698.9c0.6,3.9,0.1,7.9-0.8,11.6c-0.9,3.8-2.3,7.4-4.2,10.8c-1.9,3.4-4.1,6.6-6.8,9.4
						c-2.6,2.9-5.7,5.3-9.2,7.1c1.7-3.6,3.7-6.7,5.4-9.9c1.8-3.2,3.6-6.3,5.3-9.5c1.7-3.2,3.4-6.4,5.1-9.6
						C508,705.6,509.7,702.4,511.6,698.9z"/>
				</g>
				<g>
					<path class="st2" d="M512.6,711.9c1,3.3,0.9,6.8,0.3,10.1c-0.6,3.4-1.7,6.6-3.3,9.6c-0.8,1.5-1.8,2.9-2.8,4.3
						c-1.1,1.3-2.2,2.7-3.5,3.8c-2.5,2.3-5.5,4.1-8.8,5.2c1.7-3,3.6-5.5,5.2-8.2c0.9-1.3,1.6-2.6,2.4-3.9l1.1-2
						c0.4-0.6,0.7-1.3,1.1-2c1.4-2.7,2.8-5.4,4.1-8.2C509.8,717.8,511,715,512.6,711.9z"/>
				</g>
			</g>
		</g>
		<ellipse class="st1" cx="380.5" cy="256.5" rx="212.5" ry="178.5"/>
		<g>
			<path class="st1" d="M440.6,458.7H318.4c-84.1,0-152.4-68.2-152.4-152.4v-31c0-84.1,68.2-152.4,152.4-152.4h122.3
				c84.1,0,152.4,68.2,152.4,152.4v31C593,390.5,524.8,458.7,440.6,458.7z"/>
		</g>
		<g>
			<path class="st3" d="M435.6,458.7H323.4c-77.2,0-139.9-62.6-139.9-139.9v-28.5c0-77.2,62.6-139.9,139.9-139.9h112.2
				c77.2,0,139.9,62.6,139.9,139.9v28.5C575.5,396.1,512.9,458.7,435.6,458.7z"/>
		</g>
		<path class="st3" d="M417.3,750h-77.7c-31.2,0-56.5-25.3-56.5-56.5v-131c0-49.4,40.1-89.5,89.5-89.5h11.7
			c49.4,0,89.5,40.1,89.5,89.5v131C473.9,724.7,448.6,750,417.3,750z"/>
	</g>
	<g id="TACHES">
		<g>
			<ellipse class="st0" cx="482.5" cy="270" rx="87.5" ry="61"/>
			<path class="st0" d="M482,331c109,1,68.4,81,68.4,81l14-16.9c0,0,33.7-143-24.4-171.1"/>
		</g>
		<g>
			<ellipse class="st0" cx="276.5" cy="270" rx="87.5" ry="61"/>
			<path class="st0" d="M277,331c-109,1-68.4,81-68.4,81l-14-16.9c0,0-33.7-143,24.4-171.1"/>
		</g>
	</g>
	<g id="VISAGE_3_">
		<g id="Calque_63">
			<path d="M387.3,350h-14.5c-13.1,0-23.7-10.6-23.7-23.7v-7c0-6.8,5.5-12.3,12.3-12.3h37.5c6.8,0,12.3,5.5,12.3,12.3v7
				C411,339.4,400.4,350,387.3,350z"/>
			<path id="bouche_1_" d="M431,377c0,20.4-22.6,37-50.6,37s-50.6-16.6-50.6-37S431,356.6,431,377z"/>
		</g>
		<g id="YEUX_-_copie_5">
			<g>
				<circle class="st4" cx="278" cy="273" r="50"/>
				<circle class="st4" cx="488.7" cy="273.1" r="50"/>
			</g>
		</g>
		<g id="YEUX_-_copie_8">
			<g>
				<circle class="st5" cx="274" cy="269" r="50"/>
				<circle class="st6" cx="274" cy="269" r="39.6"/>
				<circle cx="274.6" cy="269" r="24.4"/>
				<circle class="st5" cx="249.6" cy="244.6" r="11"/>
			</g>
			<g>
				<circle class="st5" cx="484.7" cy="269.1" r="50"/>
				<circle class="st6" cx="484.6" cy="269.1" r="40.9"/>
				<circle cx="484.8" cy="269.2" r="24.5"/>
				<circle class="st5" cx="460.3" cy="244.6" r="12.3"/>
			</g>
		</g>
	</g>
</g>
</svg>
