<?xml version="1.0" encoding="utf-8"?>
<!-- Generator: Adobe Illustrator 23.1.0, SVG Export Plug-In . SVG Version: 6.00 Build 0)  -->
<svg version="1.1" id="Calque_1" xmlns="http://www.w3.org/2000/svg" xmlns:xlink="http://www.w3.org/1999/xlink" x="0px" y="0px"
	 viewBox="0 0 760 824" style="enable-background:new 0 0 760 824;" xml:space="preserve">
<style type="text/css">
	.st0{fill:#A91F30;}
	.st1{display:none;}
	.st2{display:inline;}
	.st3{fill:#ED3E48;}
	.st4{fill:#FFFFFF;}
	.st5{fill:#FFCF00;}
	.st6{fill:#5CB9DF;}
</style>
<g id="POULPES">
	<g id="CORPS_-_copie_6">
		<g>
			<path class="st0" d="M487,645H274c-6.6,0-12,5.4-12,12v52c0,6.6,5.4,12,12,12h100.5c0-5,7.5-14,7.5-14s6.5,10,6.5,14H487
				c6.6,0,12-5.4,12-12v-52C499,650.4,493.6,645,487,645z"/>
		</g>
		<g id="TENTACULES" class="st1">
			<g class="st2">
				<path class="st0" d="M500,684c-0.8,15.8-1.1,31.5-0.4,46.9c0.4,7.7,1.1,15.3,2.1,22.7c0.6,3.7,1.2,7.3,2,10.9
					c0.8,3.5,1.7,7,2.8,10.2c2.1,6.5,5,12.3,8.5,16.5c3.5,4.1,7.5,6.5,13,7.4s12.3,0.1,19.2-1.8c6.9-1.9,14-4.8,21-8.2
					c14-6.7,27.8-15.1,41.6-23.6s27.6-17.4,41.9-25.5c7.2-4.1,14.5-8,22-11.4c7.6-3.4,15.4-6.5,23.6-8.3c4.1-0.9,8.3-1.5,12.6-1.5
					c2.1,0,4.2,0.1,6.3,0.5c2.1,0.3,4.2,0.8,6.2,1.5s3.9,1.6,5.7,2.7c1.8,1.1,3.5,2.3,5,3.7c3.1,2.8,5.6,6.1,7.7,9.5
					c-2.5-3.2-5.3-6.2-8.5-8.5c-1.6-1.2-3.4-2.2-5.1-3c-1.8-0.8-3.7-1.4-5.6-1.9c-1.9-0.5-3.8-0.7-5.8-0.8c-1.9-0.1-3.9,0-5.8,0.2
					c-3.9,0.4-7.7,1.3-11.4,2.6c-7.5,2.5-14.6,6.1-21.5,10.1s-13.5,8.5-20.1,13.2c-13.1,9.4-25.8,19.5-38.7,29.4
					c-13,10-26.1,20-40.6,28.9c-7.3,4.4-14.9,8.6-23.4,11.9c-4.2,1.6-8.7,3.1-13.5,4.1s-9.9,1.6-15.2,1.3c-2.7-0.1-5.4-0.5-8.1-1.1
					c-1.4-0.3-2.7-0.7-4.1-1.1c-1.3-0.5-2.7-0.9-4-1.5c-5.3-2.2-10-5.5-14-9.2s-7.2-7.8-10-12s-5-8.5-6.9-12.8s-3.6-8.6-5-12.9
					c-1.4-4.3-2.6-8.6-3.7-12.9c-2.1-8.6-3.8-17.1-5.1-25.6c-2.6-17-4-33.8-4.8-50.5H500V684z"/>
			</g>
			<g class="st2">
				<path class="st0" d="M301.6,684.6c-0.9,16.7-2.2,33.6-4.8,50.5c-1.3,8.5-2.9,17-5.1,25.6c-1.1,4.3-2.3,8.6-3.7,12.9
					c-1.4,4.3-3.1,8.6-5,12.9c-1.9,4.3-4.2,8.6-6.9,12.8c-2.8,4.2-6,8.3-10,12s-8.7,7-14,9.2c-1.3,0.6-2.7,1-4,1.5
					c-1.4,0.4-2.7,0.8-4.1,1.1c-2.7,0.6-5.5,1-8.1,1.1c-5.4,0.3-10.5-0.3-15.2-1.3c-4.8-1-9.2-2.5-13.5-4.1
					c-8.5-3.3-16.1-7.5-23.4-11.9c-14.5-8.9-27.6-18.9-40.6-28.9c-12.9-10-25.6-20.1-38.7-29.4c-6.6-4.7-13.2-9.2-20.1-13.2
					s-14-7.6-21.5-10.1c-3.7-1.2-7.6-2.1-11.4-2.6c-1.9-0.2-3.9-0.3-5.8-0.2c-1.9,0.1-3.9,0.3-5.8,0.8c-1.9,0.5-3.8,1.1-5.6,1.9
					c-1.8,0.9-3.5,1.8-5.1,3c-3.2,2.3-6.1,5.3-8.5,8.5c2.1-3.5,4.6-6.8,7.7-9.5c1.5-1.4,3.2-2.6,5-3.7c1.8-1.1,3.7-1.9,5.7-2.7
					c2-0.7,4.1-1.2,6.2-1.5c2.1-0.3,4.2-0.4,6.3-0.5c4.2,0,8.5,0.6,12.6,1.5c8.2,1.8,16.1,4.9,23.6,8.3c7.6,3.4,14.9,7.4,22,11.4
					c14.3,8.2,28.1,17,41.9,25.5c13.8,8.5,27.6,16.9,41.6,23.6c7,3.3,14.1,6.3,21,8.2s13.7,2.8,19.2,1.8c5.5-0.9,9.5-3.3,13-7.4
					c3.5-4.1,6.4-9.9,8.5-16.5c1.1-3.3,2-6.7,2.8-10.2c0.8-3.5,1.4-7.2,2-10.9c1.1-7.4,1.7-15,2.1-22.7c0.7-15.4,0.4-31.1-0.4-46.9
					h40.1V684.6z"/>
			</g>
			<g class="st2">
				<path class="st0" d="M465.3,692.4c-0.8,8.5-1.5,16.8-1.9,25.1c-0.4,8.2-0.6,16.3-0.3,23.9c0.1,3.8,0.4,7.4,0.7,10.9
					c0.3,3.4,0.8,6.6,1.3,9.2c0.5,2.6,1.1,4.6,1.1,5.3c0,0.4-0.2,0.3-0.8,0.1c-0.6-0.2-1.7-0.8-3-1.1s-2.7-0.4-3.5-0.2
					s-1.2,0.5-0.9,0.6c0.2,0.1,0.9,0.2,1.8,0.1c1-0.2,2.1-0.5,3.4-1c2.6-0.9,5.6-2.5,8.7-4.3s6.4-4,9.6-6.3
					c6.5-4.7,13.1-10.1,19.6-15.7c6.5-5.7,13-11.6,19.4-17.7c12.9-12.2,25.7-24.9,38.6-37.7c12.9-12.7,26-25.5,39.6-37.8
					c6.8-6.1,13.8-12.2,21.1-17.9s14.9-11.2,23.1-15.9c4.1-2.3,8.4-4.4,12.9-6.1c2.3-0.8,4.6-1.5,7-2.1c2.4-0.5,4.8-0.8,7.3-0.9
					c4.9-0.1,9.9,1.2,13.9,3.9c2,1.4,3.7,3,5.2,4.7c1.5,1.8,2.7,3.7,3.8,5.7c-1.5-1.7-3-3.4-4.7-4.8c-1.7-1.4-3.6-2.6-5.5-3.4
					c-3.9-1.7-8.2-1.9-12.2-1.1c-2,0.4-4,1.1-5.9,1.9c-1.9,0.8-3.8,1.8-5.6,2.9c-3.6,2.2-7.1,4.8-10.4,7.6
					c-6.6,5.6-12.7,12-18.5,18.6s-11.3,13.6-16.7,20.6c-10.8,14.1-21.1,28.8-31.4,43.6c-10.3,14.8-20.6,29.8-31.4,44.7
					c-5.4,7.5-11,14.9-16.9,22.3c-5.9,7.4-12.1,14.8-19,22.1c-3.5,3.7-7.1,7.3-11.2,10.9c-4.1,3.6-8.5,7.2-13.8,10.6
					c-2.6,1.7-5.6,3.4-8.7,4.9c-3.2,1.6-6.9,3-11.1,4.1c-4.1,1.1-9,1.9-14.3,1.8c-5.3-0.1-11.2-1.1-16.6-3.2
					c-5.4-2-10.4-5.1-14.3-8.3s-7.1-6.7-9.7-10c-2.5-3.3-4.7-6.6-6.4-9.7c-0.4-0.8-0.9-1.6-1.3-2.3l-1.2-2.3c-0.8-1.6-1.4-3-2.1-4.5
					c-2.6-5.9-4.5-11.4-6.2-16.8c-1.6-5.4-3-10.6-4.1-15.7c-2.3-10.3-3.9-20.1-5.3-29.9c-1.3-9.8-2.4-19.4-3.2-29h80V692.4z"/>
			</g>
			<g class="st2">
				<path class="st0" d="M377.7,692.4c-0.8,9.6-1.9,19.2-3.2,29c-1.4,9.8-3,19.7-5.3,29.9c-1.1,5.1-2.5,10.3-4.1,15.7
					s-3.6,10.9-6.2,16.8c-0.7,1.5-1.3,2.9-2.1,4.5l-1.2,2.3c-0.4,0.8-0.9,1.6-1.3,2.3c-1.7,3.1-3.9,6.4-6.4,9.7
					c-2.6,3.3-5.8,6.8-9.7,10c-3.9,3.2-8.9,6.3-14.3,8.3c-5.4,2.1-11.3,3.1-16.6,3.2c-5.3,0.1-10.2-0.7-14.3-1.8
					c-4.2-1.1-7.8-2.6-11.1-4.1c-3.2-1.6-6.1-3.2-8.7-4.9c-5.3-3.4-9.7-7-13.8-10.6c-4.1-3.6-7.7-7.2-11.2-10.9
					c-6.9-7.3-13.1-14.7-19-22.1c-5.9-7.4-11.4-14.9-16.9-22.3c-10.8-14.9-21.1-29.9-31.4-44.7c-10.3-14.8-20.6-29.5-31.4-43.6
					c-5.4-7.1-10.9-14-16.7-20.6s-11.9-13-18.5-18.6c-3.3-2.8-6.7-5.4-10.4-7.6c-1.8-1.1-3.7-2.1-5.6-2.9c-1.9-0.8-3.9-1.5-5.9-1.9
					c-4-0.8-8.3-0.6-12.2,1.1c-2,0.9-3.8,2-5.5,3.4s-3.2,3.1-4.7,4.8c1.1-2,2.3-3.9,3.8-5.7s3.2-3.4,5.2-4.7c4-2.7,9-4,13.9-3.9
					c2.5,0,4.9,0.4,7.3,0.9s4.7,1.2,7,2.1c4.5,1.7,8.8,3.8,12.9,6.1c8.2,4.7,15.8,10.2,23.1,15.9s14.3,11.8,21.1,17.9
					c13.7,12.3,26.7,25.1,39.6,37.8s25.7,25.5,38.6,37.7c6.4,6.1,12.9,12,19.4,17.7c6.5,5.6,13.1,11,19.6,15.7
					c3.3,2.3,6.5,4.5,9.6,6.3s6.2,3.4,8.7,4.3c1.3,0.5,2.4,0.8,3.4,1c0.9,0.2,1.6,0.1,1.8-0.1c0.3-0.1-0.1-0.5-0.9-0.6
					c-0.8-0.2-2.2-0.1-3.5,0.2s-2.4,0.9-3,1.1c-0.6,0.2-0.8,0.3-0.8-0.1c0-0.7,0.6-2.7,1.1-5.3s1-5.8,1.3-9.2s0.6-7,0.7-10.9
					c0.3-7.6,0.1-15.7-0.3-23.9s-1.1-16.6-1.9-25.1h80V692.4z"/>
			</g>
		</g>
		<g id="TENTACULES_-_copie">
			<path class="st0" d="M733.3,726.5c-1.5-1.4-3.2-2.6-5-3.7c-1.8-1.1-3.7-1.9-5.7-2.7c-2-0.7-4.1-1.2-6.2-1.5
				c-2.1-0.3-4.2-0.4-6.3-0.5c-4.2,0-8.5,0.6-12.6,1.5c-8.2,1.8-16.1,4.9-23.6,8.3c-7.6,3.4-14.9,7.4-22,11.4
				c-14.3,8.2-28.1,17-41.9,25.5c-13.8,8.5-27.6,16.9-41.6,23.6c-7,3.3-14.1,6.3-21,8.2s-13.7,2.8-19.2,1.8c-5.5-0.9-9.5-3.3-13-7.4
				c-3.5-4.1-6.4-9.9-8.5-16.5c-1.1-3.3-2-6.7-2.8-10.2s-1.4-7.2-2-10.9c-1.1-7.4-1.7-15-2.1-22.7c-0.7-15.4-1.4-31.1-0.6-46.9v-9
				l-39-10v19c0.9,16.7,2.2,33.6,4.8,50.5c1.3,8.5,2.9,17,5.1,25.6c1.1,4.3,2.3,8.6,3.7,12.9c1.4,4.3,3.1,8.6,5,12.9
				c1.9,4.3,4.2,8.6,6.9,12.8c2.8,4.2,6,8.3,10,12s8.7,7,14,9.2c1.3,0.6,2.7,1,4,1.5c1.4,0.4,2.7,0.8,4.1,1.1c2.7,0.6,5.5,1,8.1,1.1
				c5.4,0.3,10.5-0.3,15.2-1.3c4.8-1,9.2-2.5,13.5-4.1c8.5-3.3,16.1-7.5,23.4-11.9c14.5-8.9,27.6-18.9,40.6-28.9
				c12.9-10,25.6-20.1,38.7-29.4c6.6-4.7,13.2-9.2,20.1-13.2c6.9-4,14-7.6,21.5-10.1c3.7-1.2,7.6-2.1,11.4-2.6
				c1.9-0.2,3.9-0.3,5.8-0.2c1.9,0.1,3.9,0.3,5.8,0.8c1.9,0.5,3.8,1.1,5.6,1.9c1.8,0.9,3.5,1.8,5.1,3c3.2,2.3,6.1,5.3,8.5,8.5
				C738.9,732.6,736.4,729.3,733.3,726.5z"/>
			<g id="VENTOUSE">
				
					<ellipse transform="matrix(0.9777 -0.2099 0.2099 0.9777 -147.4294 117.2417)" class="st3" cx="478.6" cy="753.2" rx="7.7" ry="10.7"/>
				
					<ellipse transform="matrix(0.9777 -0.2099 0.2099 0.9777 -143.0559 115.2703)" class="st3" cx="471.5" cy="731.6" rx="4.9" ry="6.8"/>
				
					<ellipse transform="matrix(0.9216 -0.3882 0.3882 0.9216 -271.2125 279.2437)" class="st3" cx="555.5" cy="810.9" rx="4.9" ry="3.5"/>
				
					<ellipse transform="matrix(0.7071 -0.7071 0.7071 0.7071 -423.0082 592.0169)" class="st3" cx="503.1" cy="806.6" rx="4.9" ry="6.8"/>
				
					<ellipse transform="matrix(0.3277 -0.9448 0.9448 0.3277 -420.1544 1038.6654)" class="st3" cx="519.7" cy="814.6" rx="4.9" ry="6.8"/>
				<ellipse transform="matrix(0.992 -0.1264 0.1264 0.992 -98.77 74.6349)" class="st3" cx="538.7" cy="815.6" rx="6.8" ry="4.9"/>
				
					<ellipse transform="matrix(0.9216 -0.3882 0.3882 0.9216 -267.7215 284.3182)" class="st3" cx="569.8" cy="804.8" rx="4.9" ry="3.5"/>
			</g>
			<path class="st0" d="M301.5,684.6L302,665l-4,1l-36,0.1V685c0.4,8.7,0,16.5,0,25c0,6.9,0.4,14.6,0,21.5
				c-0.4,7.7-1.1,15.3-2.1,22.7c-0.6,3.7-1.2,7.3-2,10.9c-0.8,3.5-1.7,7-2.8,10.2c-2.1,6.5-5,12.3-8.5,16.5c-3.5,4.1-7.5,6.5-13,7.4
				s-12.3,0.1-19.2-1.8c-6.9-1.9-14-4.8-21-8.2c-14-6.7-27.8-15.1-41.6-23.6s-27.6-17.4-41.9-25.5c-7.2-4.1-14.5-8-22-11.4
				c-7.6-3.4-15.4-6.5-23.6-8.3c-4.1-0.9-8.3-1.5-12.6-1.5c-2.1,0-4.2,0.1-6.3,0.5c-2.1,0.3-4.2,0.8-6.2,1.5s-3.9,1.6-5.7,2.7
				c-1.8,1.1-3.5,2.3-5,3.7c-3.1,2.8-5.6,6.1-7.7,9.5c2.5-3.2,5.3-6.2,8.5-8.5c1.6-1.2,3.4-2.2,5.1-3c1.8-0.8,3.7-1.4,5.6-1.9
				c1.9-0.5,3.8-0.7,5.8-0.8c1.9-0.1,3.9,0,5.8,0.2c3.9,0.4,7.7,1.3,11.4,2.6c7.5,2.5,14.6,6.1,21.5,10.1s13.5,8.5,20.1,13.2
				c13.1,9.4,25.8,19.5,38.7,29.4c13,10,26.1,20,40.6,28.9c7.3,4.4,14.9,8.6,23.4,11.9c4.2,1.6,8.7,3.1,13.5,4.1s9.9,1.6,15.2,1.3
				c2.7-0.1,5.4-0.5,8.1-1.1c1.4-0.3,2.7-0.7,4.1-1.1c1.3-0.5,2.7-0.9,4-1.5c5.3-2.2,10-5.5,14-9.2s7.2-7.8,10-12s5-8.5,6.9-12.8
				s3.6-8.6,5-12.9c1.4-4.3,2.6-8.6,3.7-12.9c2.1-8.6,3.8-17.1,5.1-25.6c2.4-15.8,3.8-31.5,4.6-47.1l0,0l0,0
				c0.1-1.1,0.1-2.3,0.2-3.4L301.5,684.6z"/>
			<g id="VENTOUSE_-_copie">
				
					<ellipse transform="matrix(0.2099 -0.9777 0.9777 0.2099 -513.2089 871.2993)" class="st3" cx="282.5" cy="753.2" rx="10.7" ry="7.7"/>
				
					<ellipse transform="matrix(0.2099 -0.9777 0.9777 0.2099 -486.5849 861.1575)" class="st3" cx="289.5" cy="731.6" rx="6.8" ry="4.9"/>
				
					<ellipse transform="matrix(0.3882 -0.9216 0.9216 0.3882 -621.5055 685.6084)" class="st3" cx="205.6" cy="810.9" rx="3.5" ry="4.9"/>
				
					<ellipse transform="matrix(0.7071 -0.7071 0.7071 0.7071 -494.8088 418.6201)" class="st3" cx="257.9" cy="806.6" rx="6.8" ry="4.9"/>
				
					<ellipse transform="matrix(0.9448 -0.3277 0.3277 0.9448 -253.6149 124.0828)" class="st3" cx="241.4" cy="814.6" rx="6.8" ry="4.9"/>
				
					<ellipse transform="matrix(0.1264 -0.992 0.992 0.1264 -614.7064 933.0816)" class="st3" cx="222.4" cy="815.5" rx="4.9" ry="6.8"/>
				
					<ellipse transform="matrix(0.3882 -0.9216 0.9216 0.3882 -624.6195 668.7076)" class="st3" cx="191.3" cy="804.8" rx="3.5" ry="4.9"/>
			</g>
			<path class="st0" d="M460.3,692.4c-0.8,8.5,2.5,16.8,2.1,25.1c-0.4,8.2,0.4,16.3,0.7,23.9c0.1,3.8,0.4,7.4,0.7,10.9
				c0.3,3.4,0.8,6.6,1.3,9.2c0.5,2.6,1.1,4.6,1.1,5.3c0,0.4-4.3-1-3-1.5c2.6-0.9,5.6-2.5,8.7-4.3s6.4-4,9.6-6.3
				c6.5-4.7,13.1-10.1,19.6-15.7c6.5-5.7,13-11.6,19.4-17.7c12.9-12.2,25.7-24.9,38.6-37.7c12.9-12.7,26-25.5,39.6-37.8
				c6.8-6.1,13.8-12.2,21.1-17.9s14.9-11.2,23.1-15.9c4.1-2.3,8.4-4.4,12.9-6.1c2.3-0.8,4.6-1.5,7-2.1c2.4-0.5,4.8-0.8,7.3-0.9
				c4.9-0.1,9.9,1.2,13.9,3.9c2,1.4,3.7,3,5.2,4.7c1.5,1.8,2.7,3.7,3.8,5.7c-1.5-1.7-3-3.4-4.7-4.8c-1.7-1.4-3.6-2.6-5.5-3.4
				c-3.9-1.7-8.2-1.9-12.2-1.1c-2,0.4-4,1.1-5.9,1.9c-1.9,0.8-3.8,1.8-5.6,2.9c-3.6,2.2-7.1,4.8-10.4,7.6
				c-6.6,5.6-12.7,12-18.5,18.6s-11.3,13.6-16.7,20.6c-10.8,14.1-21.1,28.8-31.4,43.6c-10.3,14.8-20.6,29.8-31.4,44.7
				c-5.4,7.5-11,14.9-16.9,22.3c-5.9,7.4-12.1,14.8-19,22.1c-3.5,3.7-7.1,7.3-11.2,10.9c-4.1,3.6-8.5,7.2-13.8,10.6
				c-2.6,1.7-5.6,3.4-8.7,4.9c-3.2,1.6-6.9,3-11.1,4.1c-4.1,1.1-9,1.9-14.3,1.8c-5.3-0.1-11.2-1.1-16.6-3.2
				c-5.4-2-10.4-5.1-14.3-8.3s-7.1-6.7-9.7-10c-2.5-3.3-4.7-6.6-6.4-9.7c-0.4-0.8-0.9-1.6-1.3-2.3l-1.2-2.3c-0.8-1.6-1.4-3-2.1-4.5
				c-2.6-5.9-4.5-11.4-6.2-16.8c-1.6-5.4-3-10.6-4.1-15.7c-2.3-10.3-3.9-20.1-5.3-29.9c-1.3-9.8-2.4-19.4-3.2-29h75V692.4z"/>
			<g id="VENTOUSES_-_copie">
				<ellipse transform="matrix(0.9527 -0.304 0.304 0.9527 -222.0668 181.5462)" class="st3" cx="472" cy="804" rx="14" ry="10"/>
				
					<ellipse transform="matrix(0.3865 -0.9223 0.9223 0.3865 -475.136 897.8418)" class="st3" cx="437.3" cy="806.1" rx="7.7" ry="10.7"/>
				<ellipse transform="matrix(0.866 -0.5 0.5 0.866 -335.6102 313.2434)" class="st3" cx="416.7" cy="782.9" rx="7.7" ry="10.7"/>
				
					<ellipse transform="matrix(0.7854 -0.6189 0.6189 0.7854 -380.129 479.5712)" class="st3" cx="501.6" cy="788.1" rx="10.7" ry="7.7"/>
				
					<ellipse transform="matrix(0.6585 -0.7526 0.7526 0.6585 -397.3063 654.6719)" class="st3" cx="522.7" cy="765.1" rx="10.7" ry="7.7"/>
				
					<ellipse transform="matrix(0.7071 -0.7071 0.7071 0.7071 -369.8221 600.1996)" class="st3" cx="539.6" cy="746.5" rx="6.8" ry="4.9"/>
				
					<ellipse transform="matrix(0.7071 -0.7071 0.7071 0.7071 -355.0739 604.9349)" class="st3" cx="552.7" cy="731.1" rx="6.8" ry="4.9"/>
				
					<ellipse transform="matrix(0.7071 -0.7071 0.7071 0.7071 -341.7489 609.1089)" class="st3" cx="564.4" cy="717.1" rx="6.8" ry="4.9"/>
				
					<ellipse transform="matrix(0.9404 -0.3402 0.3402 0.9404 -234.4277 183.1547)" class="st3" cx="405.1" cy="760.1" rx="4.9" ry="6.8"/>
				
					<ellipse transform="matrix(0.9698 -0.244 0.244 0.9698 -169.1943 119.9512)" class="st3" cx="399.6" cy="742.9" rx="3.5" ry="4.9"/>
				
					<ellipse transform="matrix(0.5492 -0.8357 0.8357 0.5492 -328.6862 798.2918)" class="st3" cx="575.6" cy="703.8" rx="4.9" ry="3.5"/>
			</g>
			<path class="st0" d="M377.7,692.4c-0.8,9.6-1.9,19.2-3.2,29c-1.4,9.8-3,19.7-5.3,29.9c-1.1,5.1-2.5,10.3-4.1,15.7
				s-3.6,10.9-6.2,16.8c-0.7,1.5-1.3,2.9-2.1,4.5l-1.2,2.3c-0.4,0.8-0.9,1.6-1.3,2.3c-1.7,3.1-3.9,6.4-6.4,9.7
				c-2.6,3.3-5.8,6.8-9.7,10c-3.9,3.2-8.9,6.3-14.3,8.3c-5.4,2.1-11.3,3.1-16.6,3.2c-5.3,0.1-10.2-0.7-14.3-1.8
				c-4.2-1.1-7.8-2.6-11.1-4.1c-3.2-1.6-6.1-3.2-8.7-4.9c-5.3-3.4-9.7-7-13.8-10.6c-4.1-3.6-7.7-7.2-11.2-10.9
				c-6.9-7.3-13.1-14.7-19-22.1c-5.9-7.4-11.4-14.9-16.9-22.3c-10.8-14.9-21.1-29.9-31.4-44.7c-10.3-14.8-20.6-29.5-31.4-43.6
				c-5.4-7.1-10.9-14-16.7-20.6s-11.9-13-18.5-18.6c-3.3-2.8-6.7-5.4-10.4-7.6c-1.8-1.1-3.7-2.1-5.6-2.9c-1.9-0.8-3.9-1.5-5.9-1.9
				c-4-0.8-8.3-0.6-12.2,1.1c-2,0.9-3.8,2-5.5,3.4s-3.2,3.1-4.7,4.8c1.1-2,2.3-3.9,3.8-5.7s3.2-3.4,5.2-4.7c4-2.7,9-4,13.9-3.9
				c2.5,0,4.9,0.4,7.3,0.9s4.7,1.2,7,2.1c4.5,1.7,8.8,3.8,12.9,6.1c8.2,4.7,15.8,10.2,23.1,15.9s14.3,11.8,21.1,17.9
				c13.7,12.3,26.7,25.1,39.6,37.8s25.7,25.5,38.6,37.7c6.4,6.1,12.9,12,19.4,17.7c6.5,5.6,13.1,11,19.6,15.7
				c3.3,2.3,6.5,4.5,9.6,6.3c2.2,1.3,4.3,2.4,6.2,3.3c0.9,0.4,1.7,0.7,2.5,1c1.3,0.5-3,1.8-3,1.5c0-0.7,0.6-2.7,1.1-5.3
				s1-5.8,1.3-9.2s0.6-7,0.7-10.9c0.3-7.6,1.1-15.7,0.7-23.9s2.9-16.6,2.1-25.1h75V692.4z"/>
			<g id="VENTOUSES">
				<ellipse transform="matrix(0.304 -0.9527 0.9527 0.304 -562.2975 838.3424)" class="st3" cx="292.6" cy="804" rx="10" ry="14"/>
				
					<ellipse transform="matrix(0.9223 -0.3865 0.3865 0.9223 -286.1216 189.1452)" class="st3" cx="327.3" cy="806.1" rx="10.7" ry="7.7"/>
				<ellipse transform="matrix(0.5 -0.866 0.866 0.5 -504.0489 692.7241)" class="st3" cx="347.9" cy="782.9" rx="10.7" ry="7.7"/>
				
					<ellipse transform="matrix(0.6189 -0.7854 0.7854 0.6189 -518.8258 506.7678)" class="st3" cx="262.9" cy="788.1" rx="7.7" ry="10.7"/>
				
					<ellipse transform="matrix(0.7526 -0.6585 0.6585 0.7526 -443.9428 348.5921)" class="st3" cx="241.9" cy="765.1" rx="7.7" ry="10.7"/>
				
					<ellipse transform="matrix(0.7071 -0.7071 0.7071 0.7071 -462.0035 377.684)" class="st3" cx="224.9" cy="746.5" rx="4.9" ry="6.8"/>
				
					<ellipse transform="matrix(0.7071 -0.7071 0.7071 0.7071 -454.8974 363.9617)" class="st3" cx="211.9" cy="731.1" rx="4.9" ry="6.8"/>
				
					<ellipse transform="matrix(0.7071 -0.7071 0.7071 0.7071 -448.4234 351.587)" class="st3" cx="200.2" cy="717.1" rx="4.9" ry="6.8"/>
				
					<ellipse transform="matrix(0.3402 -0.9404 0.9404 0.3402 -477.6035 839.5404)" class="st3" cx="359.4" cy="760.1" rx="6.8" ry="4.9"/>
				
					<ellipse transform="matrix(0.244 -0.9698 0.9698 0.244 -444.5184 915.5172)" class="st3" cx="364.9" cy="742.9" rx="4.9" ry="3.5"/>
				
					<ellipse transform="matrix(0.8357 -0.5492 0.5492 0.8357 -355.463 219.4386)" class="st3" cx="189" cy="703.8" rx="3.5" ry="4.9"/>
			</g>
		</g>
		<path class="st0" d="M379.5,675L379.5,675C242.3,675,131,563.7,131,426.5V263h497v163.5C628,563.7,516.7,675,379.5,675z"/>
		<path class="st3" d="M419,0c0,0,257.4,189,257.4,328c1.6,35.9-21.3,21.4-48.7,48.8l-120.1,82.1c-70.6,70.6-185.1,70.6-255.7,0
			l-120.1-82.1c-27.4-27.4-50.3-12.9-48.7-48.8C83.1,112,419,0,419,0z"/>
	</g>
	<g id="VISAGE_-_copie_4">
		<g id="YEUX_-_copie_10_1_">
			<g>
				<circle class="st3" cx="270.5" cy="597.5" r="82.5"/>
				<circle class="st3" cx="498.7" cy="600" r="80"/>
			</g>
		</g>
		<g id="YEUX_-_copie_11">
			<g>
				<circle class="st3" cx="278" cy="590" r="75"/>
				<circle class="st3" cx="488.7" cy="590.1" r="70"/>
			</g>
		</g>
		<g id="YEUX_-_copie_10">
			<g>
				<circle class="st4" cx="274" cy="586" r="75"/>
				<circle class="st5" cx="274" cy="586" r="59.5"/>
				<circle cx="274.9" cy="586" r="36.6"/>
				<circle class="st4" cx="237.4" cy="549.4" r="16.5"/>
			</g>
			<g>
				<circle class="st4" cx="489.7" cy="591.1" r="75"/>
				<circle class="st6" cx="489.5" cy="591.1" r="61.3"/>
				<ellipse transform="matrix(0.1602 -0.9871 0.9871 0.1602 -172.1394 980.0745)" cx="489.9" cy="591.2" rx="36.8" ry="36.8"/>
				<circle class="st4" cx="453.1" cy="554.4" r="18.4"/>
			</g>
		</g>
	</g>
</g>
</svg>
