<?xml version="1.0" encoding="utf-8"?>
<!-- Generator: Adobe Illustrator 23.1.0, SVG Export Plug-In . SVG Version: 6.00 Build 0)  -->
<svg version="1.1" id="Calque_1" xmlns="http://www.w3.org/2000/svg" xmlns:xlink="http://www.w3.org/1999/xlink" x="0px" y="0px"
	 viewBox="0 0 760 824" style="enable-background:new 0 0 760 824;" xml:space="preserve">
<style type="text/css">
	.st0{fill:#FFCF00;}
	.st1{fill:#FF7F00;}
	.st2{fill:#3D7FDF;}
	.st3{fill:#3D56DF;}
	.st4{fill:#5CB9DF;}
	.st5{fill:#FFFFFF;}
</style>
<g id="HIBOU_-_copie">
	<g id="PATTES_-_copie_2">
		<g>
			<path class="st0" d="M464.8,788L464.8,788c-20.4,0-37,16.6-37,37l0,0h74l0,0C501.8,804.5,485.2,788,464.8,788z"/>
			<rect x="427.8" y="712" class="st0" width="35" height="113"/>
			<path class="st1" d="M464.8,788L464.8,788c-20.4,0-6.7,37-6.7,37h43.7l0,0C501.8,804.5,485.2,788,464.8,788z"/>
		</g>
		<g>
			<path class="st0" d="M293.8,788L293.8,788c20.4,0,37,16.6,37,37l0,0h-74l0,0C256.8,804.5,273.4,788,293.8,788z"/>
			<rect x="295.8" y="711.9" class="st0" width="35" height="113"/>
			<path class="st1" d="M293.8,788L293.8,788c20.4,0,7.8,37,7.8,37h-44.8l0,0C256.8,804.5,273.4,788,293.8,788z"/>
		</g>
	</g>
	<g id="CORPS_-_copie_4">
		<g>
			<circle class="st2" cx="380" cy="541" r="235"/>
		</g>
		<g id="AILES_-_copie_2">
			<ellipse class="st3" cx="237" cy="551" rx="103" ry="184"/>
			<ellipse class="st3" cx="525" cy="551" rx="103" ry="184"/>
		</g>
		<g>
			<path class="st2" d="M440.6,458.7H318.4c-84.1,0-152.4-68.2-152.4-152.4l0,0c0-84.1,68.2-152.4,152.4-152.4h122.3
				c84.1,0,152.4,68.2,152.4,152.4l0,0C593,390.5,524.8,458.7,440.6,458.7z"/>
		</g>
		<path class="st4" d="M522.2,213.6c-9.5-5.6-19.8-8.6-30.7-8.6C402,205,400,257.6,400,322.5c0,14.6,21.8,52.5,25.2,65.4
			c-0.1,0,0,2.6,0.3,3.8c1,3.3,1.5,6.8,1.5,10.4c0,20.4-26.6,37-47,37s-47-16.6-47-37c0-1.5,0.1-3.1,0.3-4.6
			c1.2-3.5,2.2-7.2,3.1-10.9c3-12.2,24.6-51.3,24.6-65c0-64.9-2-117.5-91.5-117.5c-12.2,0-23.7,3.9-34.1,10.8
			c-14.9,9.9-27.3,26-35.7,46c-7.8,16.8-12.2,35.5-12.2,55.2v12c0,24.1,6.5,46.7,17.9,66.1c6.1,11.3,13.7,20.9,22.3,28.3
			c23.6,22.7,55.6,36.7,90.9,36.7h121.9c28.9,0,55.6-9.4,77.3-25.2c32.1-16,55.2-59.9,55.2-111.5C573,273.3,552,231.1,522.2,213.6z"
			/>
	</g>
	<g id="VISAGE_2_">
		<g id="YEUX_2_">
			<g>
				<circle class="st2" cx="278" cy="310" r="75"/>
				<circle class="st2" cx="488.7" cy="310.1" r="70"/>
			</g>
		</g>
		<g id="YEUX_-_copie_6">
			<g>
				<circle class="st5" cx="274" cy="306" r="75"/>
				<circle class="st1" cx="274" cy="306" r="59.5"/>
				<circle cx="274.9" cy="306" r="36.6"/>
				<circle class="st5" cx="237.4" cy="269.4" r="16.5"/>
			</g>
			<g>
				<circle class="st5" cx="484.7" cy="306.1" r="70"/>
				<circle class="st1" cx="484.5" cy="306.1" r="57.2"/>
				<ellipse transform="matrix(0.1602 -0.9871 0.9871 0.1602 104.9815 735.791)" cx="484.9" cy="306.2" rx="34.3" ry="34.3"/>
				<circle class="st5" cx="450.6" cy="271.9" r="17.2"/>
			</g>
		</g>
		<path class="st0" d="M425.8,419.6l-45.1,33.1l-45.1-33.1c-11.1-11.1-11.1-29.2,0-40.3l17.6-17.6c15.2-15.2,39.8-15.2,54.9,0
			l17.6,17.6C437,390.5,437,408.5,425.8,419.6z"/>
	</g>
	<g id="OREILLES_-_copie">
		<g>
			<path class="st3" d="M449,168.2c36.8-20.3,55.2-60.8,49.2-100c-0.5-3.5,3.4-5.9,6.3-3.8c10.1,7.4,18.9,16.8,26,28
				c33,52.3,13.1,122.3-42.6,149.3c-49.5,24-109.6,5.3-136.5-43.4c-5.4-9.8-9.1-20.1-11.1-30.5c-0.7-3.8,3.5-6.7,6.7-4.5
				C376.4,183.3,415.7,186.5,449,168.2z"/>
		</g>
		<g>
			<path class="st3" d="M314.8,168.6c-36.8-20.3-55.2-60.8-49.2-100c0.5-3.5-3.4-5.9-6.3-3.8c-10.1,7.4-18.9,16.8-26,28
				c-33,52.3-13.1,122.3,42.6,149.3c49.5,24,109.6,5.3,136.5-43.4c5.4-9.8,9.1-20.1,11.1-30.5c0.7-3.8-3.5-6.7-6.7-4.5
				C387.4,183.7,348,186.9,314.8,168.6z"/>
		</g>
	</g>
</g>
</svg>
