<?xml version="1.0" encoding="utf-8"?>
<!-- Generator: Adobe Illustrator 23.1.0, SVG Export Plug-In . SVG Version: 6.00 Build 0)  -->
<svg version="1.1" id="Calque_1" xmlns="http://www.w3.org/2000/svg" xmlns:xlink="http://www.w3.org/1999/xlink" x="0px" y="0px"
	 viewBox="0 0 760 824" style="enable-background:new 0 0 760 824;" xml:space="preserve">
<style type="text/css">
	.st0{fill:#CCCCCC;}
	.st1{fill:#FFFFFF;}
	.st2{fill:#3F3F3F;}
	.st3{fill:#ED3E48;}
	.st4{fill:#3F3F3F;stroke:#000000;stroke-width:12;stroke-miterlimit:10;}
	.st5{clip-path:url(#SVGID_2_);}
	.st6{clip-path:url(#SVGID_4_);fill:#ED3E48;}
	.st7{clip-path:url(#SVGID_6_);fill:#ED3E48;}
	.st8{fill:none;stroke:#000000;stroke-width:12;stroke-miterlimit:10;}
</style>
<g id="NOIRES_CORNES_AILES">
	<g id="Calque_5_-_copie">
		<g>
			<path class="st0" d="M489.1,221.9c36.8-20.3,55.2-60.8,49.2-100c-0.5-3.5,3.4-5.9,6.3-3.8c10.1,7.4,18.9,16.8,26,28
				c33,52.3,13.1,122.3-42.6,149.3c-49.5,24-109.6,5.3-136.5-43.4c-5.4-9.8-9.1-20.1-11.1-30.5c-0.7-3.8,3.5-6.7,6.7-4.5
				C416.5,237.1,455.8,240.3,489.1,221.9z"/>
		</g>
		<circle class="st1" cx="391.5" cy="369.5" r="76.5"/>
		<g>
			<path class="st0" d="M273.9,222.3c-36.8-20.3-55.2-60.8-49.2-100c0.5-3.5-3.4-5.9-6.3-3.8c-10.1,7.4-18.9,16.8-26,28
				c-33,52.3-13.1,122.3,42.6,149.3c49.5,24,109.6,5.3,136.5-43.4c5.4-9.8,9.1-20.1,11.1-30.5c0.7-3.8-3.5-6.7-6.7-4.5
				C346.5,237.5,307.1,240.7,273.9,222.3z"/>
		</g>
	</g>
	<g id="PIEDS_-_copie">
		<g>
			<path class="st2" d="M496,787L496,787c-20.4,0-37,16.6-37,37l0,0h74l0,0C533,803.6,516.4,787,496,787z"/>
			<rect x="459" y="640" class="st2" width="24" height="184"/>
		</g>
		<g>
			<path class="st2" d="M263,787L263,787c20.4,0,37,16.6,37,37l0,0h-74l0,0C226,803.6,242.6,787,263,787z"/>
			<rect x="276" y="640" class="st2" width="24" height="184"/>
		</g>
	</g>
	<g id="AILE">
		<g>
			<path d="M645.5,409.8C623,382,676,301,739.9,371.7c0.1-1.3,0.2-2.7,0.2-4c0-36.4-42.3-65.9-94.5-65.9S551,367.6,551,367.6
				s8.2,30.8,21.9,42.2C572.9,409.8,605.1,386.3,645.5,409.8z"/>
		</g>
		<g id="TRAITS">
			<g>
				<path class="st2" d="M722.6,341.5c-6.2-3.8-12.5-7.5-19.2-10.1c-3.3-1.5-6.7-2.4-10.1-3.5c-1.7-0.5-3.5-0.8-5.2-1.2
					c-0.9-0.2-1.7-0.4-2.6-0.6l-2.6-0.3l-2.6-0.4l-1.3-0.2c-0.4-0.1-0.9,0-1.3-0.1l-5.3-0.3c-3.5,0.1-7,0.1-10.5,0.7
					c-6.9,0.8-13.8,2.4-20.3,4.8c-6.6,2.4-12.8,5.7-18.7,9.4c-6,3.7-11.8,7.5-17.7,11.5c-11.7,8-23,16.8-34.6,26l0,0
					c-0.3,0.2-0.7,0.2-0.9-0.1c-0.1-0.2-0.2-0.4-0.1-0.6c3.2-6.9,7.6-13,12.4-18.9c4.8-5.8,10.2-11.2,16-16
					c5.8-4.9,12.3-9,19.2-12.4c6.9-3.3,14.1-6,21.5-8.1c14.7-4.2,30.6-5.1,45.4-1.4l2.8,0.6c0.9,0.3,1.8,0.6,2.7,0.9
					c1.8,0.6,3.6,1.1,5.4,1.8c3.5,1.5,7,2.8,10.2,4.8l2.5,1.3l1.2,0.7c0.4,0.2,0.8,0.5,1.2,0.8l4.7,3.1c1.6,1,3,2.2,4.5,3.3l4.4,3.4
					c0.3,0.2,0.3,0.6,0.1,0.8C723.3,341.6,722.9,341.7,722.6,341.5L722.6,341.5z"/>
			</g>
			<g>
				<path class="st2" d="M626.5,389.3c-1.6-2.1-3.4-3.9-5.4-5.3s-4.1-2.5-6.4-3.3c-2.2-0.8-4.5-1.3-6.9-1.5
					c-2.4-0.3-4.7-0.3-7.1-0.2c-2.4,0.1-4.8,0.7-7.2,1.2s-4.8,0.9-7.2,0.9c-2.5,0.1-5,0-7.7-0.2c-2.6-0.2-5.4-0.6-8.4-1.3l0,0
					c-0.4-0.1-0.6-0.5-0.5-0.9c0-0.1,0.1-0.2,0.1-0.3c2-2.5,4.3-4.3,6.7-5.8c2.5-1.5,5.1-2.6,7.8-3.4s5.5-1.1,8.4-0.9
					s5.7,0.7,8.5,1.1s5.7,1.1,8.4,2c2.7,1,5.4,2.3,7.8,3.9c2.4,1.7,4.6,3.6,6.3,5.9s2.9,4.8,3.8,7.4c0.1,0.3-0.1,0.7-0.4,0.8
					C626.9,389.6,626.6,389.5,626.5,389.3L626.5,389.3z"/>
			</g>
		</g>
	</g>
	<g id="AILE_-_copie">
		<g>
			<path d="M112.5,419.8C135.1,392,82.1,311,18.2,381.7c-0.1-1.3-0.2-2.7-0.2-4c0-36.4,42.3-65.9,94.5-65.9s94.5,65.9,94.5,65.9
				s-8.2,30.8-21.9,42.2C185.1,419.8,153,396.3,112.5,419.8z"/>
		</g>
		<g id="TRAITS_-_copie">
			<g>
				<path class="st2" d="M34.7,350.5l4.4-3.4c1.5-1.1,2.9-2.3,4.5-3.3l4.7-3.1c0.4-0.2,0.8-0.5,1.2-0.8l1.2-0.7l2.5-1.3
					c3.2-1.9,6.7-3.3,10.2-4.8c1.8-0.7,3.6-1.2,5.4-1.8c0.9-0.3,1.8-0.6,2.7-0.9l2.8-0.6c14.8-3.7,30.7-2.8,45.4,1.4
					c7.4,2.1,14.6,4.8,21.5,8.1c6.9,3.3,13.4,7.5,19.2,12.4c5.8,4.8,11.2,10.2,16,16s9.1,12,12.4,18.9c0.1,0.3,0,0.7-0.3,0.8
					c-0.2,0.1-0.5,0.1-0.6-0.1l0,0c-11.7-9.2-22.9-18.1-34.6-26c-5.9-4-11.7-7.8-17.7-11.5c-5.9-3.7-12.2-7-18.7-9.4
					c-6.6-2.4-13.4-4-20.3-4.8c-3.5-0.5-7-0.6-10.5-0.7l-5.3,0.3c-0.4,0-0.9,0-1.3,0.1l-1.3,0.2l-2.6,0.4l-2.6,0.3
					c-0.9,0.2-1.7,0.4-2.6,0.6c-1.7,0.4-3.5,0.7-5.2,1.2c-3.4,1.1-6.9,2-10.1,3.5c-6.7,2.6-13,6.3-19.2,10.1l0,0
					c-0.3,0.2-0.7,0.1-0.8-0.2C34.4,351,34.5,350.7,34.7,350.5z"/>
			</g>
			<g>
				<path class="st2" d="M130.5,398.7c0.8-2.6,2.1-5.1,3.8-7.4s3.9-4.3,6.3-5.9c2.4-1.6,5.1-2.9,7.8-3.9c2.8-0.9,5.6-1.6,8.4-2
					c2.8-0.4,5.7-0.9,8.5-1.1c2.9-0.2,5.7,0.1,8.4,0.9s5.3,1.9,7.8,3.4c2.4,1.5,4.8,3.3,6.7,5.8c0.2,0.3,0.2,0.8-0.1,1
					c-0.1,0.1-0.2,0.1-0.3,0.1l0,0c-3,0.8-5.7,1.1-8.4,1.3c-2.6,0.2-5.2,0.3-7.7,0.2c-2.5,0-4.9-0.4-7.2-0.9
					c-2.4-0.5-4.8-1.1-7.2-1.2s-4.8-0.1-7.1,0.2c-2.4,0.2-4.7,0.7-6.9,1.5s-4.4,1.8-6.4,3.3s-3.7,3.3-5.4,5.3l0,0
					c-0.2,0.3-0.6,0.3-0.9,0.1C130.5,399.2,130.5,399,130.5,398.7z"/>
			</g>
		</g>
	</g>
	<g id="CORPS_-_copie">
		<path class="st2" d="M380,780L380,780c-109.4,0-198-88.6-198-198V401c0-109.4,88.6-198,198-198l0,0c109.4,0,198,88.6,198,198v181
			C578,691.4,489.4,780,380,780z"/>
	</g>
	<g id="VISAGE_-_copie">
		<g id="YEUX_-_copie">
			<path d="M463.8,310.7c-27.4,0-50.6,18.1-58.4,42.9c-4.6-40.9-39.3-72.6-81.5-72.6c-45.3,0-82,36.7-82,82s36.7,82,82,82
				c38.6,0,70.9-26.6,79.6-62.5c5.1,28.7,30.1,50.5,60.2,50.5c33.8,0,61.2-27.4,61.2-61.2S497.6,310.7,463.8,310.7z"/>
			<circle class="st1" cx="319" cy="357" r="82"/>
			<circle class="st1" cx="458.8" cy="365.9" r="61.2"/>
			<circle class="st3" cx="458.7" cy="365.9" r="50"/>
			<circle class="st3" cx="319" cy="357" r="65"/>
			<circle cx="459" cy="366" r="30"/>
			<circle cx="320" cy="357" r="40"/>
			<circle class="st1" cx="279" cy="317" r="18"/>
			<circle class="st1" cx="429" cy="336" r="15"/>
		</g>
		<path class="st4" d="M554,549c0,70.1-77.7,127-173.5,127S207,619.1,207,549S554,478.9,554,549z"/>
		<g id="DENTS_2_">
			<g>
				<defs>
					<rect id="SVGID_1_" x="254" y="506" width="255" height="67"/>
				</defs>
				<clipPath id="SVGID_2_">
					<use xlink:href="#SVGID_1_"  style="overflow:visible;"/>
				</clipPath>
				<g class="st5">
					<ellipse class="st1" cx="472.1" cy="508" rx="25" ry="57.4"/>
					<ellipse class="st1" cx="291" cy="508" rx="25" ry="57.4"/>
				</g>
			</g>
		</g>
		<g>
			<g>
				<defs>
					<path id="SVGID_3_" d="M554,549c0,70.1-77.7,127-173.5,127S207,619.1,207,549S554,478.9,554,549z"/>
				</defs>
				<clipPath id="SVGID_4_">
					<use xlink:href="#SVGID_3_"  style="overflow:visible;"/>
				</clipPath>
				<circle class="st6" cx="459" cy="724" r="122"/>
			</g>
			<g>
				<defs>
					<path id="SVGID_5_" d="M554,549c0,70.1-77.7,127-173.5,127S207,619.1,207,549S554,478.9,554,549z"/>
				</defs>
				<clipPath id="SVGID_6_">
					<use xlink:href="#SVGID_5_"  style="overflow:visible;"/>
				</clipPath>
				<circle class="st7" cx="320" cy="724" r="122"/>
			</g>
		</g>
		<path class="st8" d="M554,549c0,70.1-77.7,127-173.5,127S207,619.1,207,549S554,478.9,554,549z"/>
	</g>
	<g id="Calque_6_-_copie">
		<circle cx="459" cy="735" r="18"/>
		<circle cx="479" cy="273" r="18"/>
		<circle cx="441" cy="239" r="13"/>
		<circle cx="409" cy="740" r="13"/>
		<circle cx="199" cy="624" r="8"/>
		<circle cx="525" cy="471" r="8"/>
		<circle cx="242" cy="442" r="13"/>
		<circle cx="272" cy="455" r="8"/>
	</g>
	<g id="Calque_16">
	</g>
</g>
</svg>
