<?xml version="1.0" encoding="utf-8"?>
<!-- Generator: Adobe Illustrator 23.1.0, SVG Export Plug-In . SVG Version: 6.00 Build 0)  -->
<svg version="1.1" id="Calque_1" xmlns="http://www.w3.org/2000/svg" xmlns:xlink="http://www.w3.org/1999/xlink" x="0px" y="0px"
	 viewBox="0 0 142 103" style="enable-background:new 0 0 142 103;" xml:space="preserve">
<style type="text/css">
	.st0{opacity:0.1;fill:#013183;enable-background:new    ;}
	.st1{fill:#3F3D56;}
	.st2{fill:none;stroke:#3F3D56;stroke-width:2;stroke-miterlimit:10;}
	.st3{fill:#F2F2F2;}
	.st4{fill:#FEBA1B;}
	.st5{fill:#2F2E41;}
	.st6{fill:#FFFFFF;}
	.st7{opacity:0.1;fill:#FEBA1B;enable-background:new    ;}
	.st8{fill:url(#SVGID_1_);}
	.st9{fill:#F6F7F9;}
	.st10{fill:#534D72;}
	.st11{opacity:0.2;}
	.st12{opacity:0.2;fill:#FEBA1B;enable-background:new    ;}
	.st13{fill:url(#SVGID_2_);}
	.st14{fill:url(#SVGID_3_);}
	.st15{opacity:0.1;}
	.st16{opacity:0.1;fill:url(#SVGID_4_);enable-background:new    ;}
	.st17{fill:url(#SVGID_5_);}
	.st18{opacity:0.1;fill:url(#SVGID_6_);enable-background:new    ;}
	.st19{opacity:0.1;fill:url(#SVGID_7_);enable-background:new    ;}
	.st20{opacity:0.1;fill:url(#SVGID_8_);enable-background:new    ;}
	.st21{opacity:0.1;fill:url(#SVGID_9_);enable-background:new    ;}
	.st22{opacity:0.1;fill:url(#SVGID_10_);enable-background:new    ;}
	.st23{opacity:0.1;fill:url(#SVGID_11_);enable-background:new    ;}
	.st24{opacity:0.1;fill:url(#SVGID_12_);enable-background:new    ;}
	.st25{opacity:0.1;fill:url(#SVGID_13_);enable-background:new    ;}
	.st26{opacity:0.1;fill:url(#SVGID_14_);enable-background:new    ;}
	.st27{opacity:0.1;fill:url(#SVGID_15_);enable-background:new    ;}
	.st28{opacity:0.1;fill:url(#SVGID_16_);enable-background:new    ;}
	.st29{opacity:0.1;fill:url(#SVGID_17_);enable-background:new    ;}
	.st30{fill:url(#SVGID_18_);}
	.st31{opacity:0.1;fill:url(#SVGID_19_);enable-background:new    ;}
	.st32{fill:url(#SVGID_20_);}
	.st33{fill:url(#SVGID_21_);}
	.st34{opacity:3.000000e-02;}
	.st35{opacity:3.000000e-02;fill:url(#SVGID_22_);enable-background:new    ;}
	.st36{fill:url(#SVGID_23_);}
	.st37{fill:url(#SVGID_24_);}
	.st38{opacity:0.1;fill:url(#SVGID_25_);enable-background:new    ;}
	.st39{fill:url(#SVGID_26_);}
	.st40{fill:url(#SVGID_27_);}
	.st41{opacity:0.1;fill:url(#SVGID_28_);enable-background:new    ;}
	.st42{fill:url(#SVGID_29_);}
	.st43{opacity:0.1;fill:url(#SVGID_30_);enable-background:new    ;}
	.st44{opacity:0.1;fill:url(#SVGID_31_);enable-background:new    ;}
	.st45{fill:url(#SVGID_32_);}
	.st46{opacity:0.1;fill:url(#SVGID_33_);enable-background:new    ;}
	.st47{fill:url(#SVGID_34_);}
	.st48{fill:url(#SVGID_35_);}
	.st49{fill:url(#SVGID_36_);}
	.st50{opacity:0.1;fill:url(#SVGID_37_);enable-background:new    ;}
	.st51{opacity:0.1;fill:url(#SVGID_38_);enable-background:new    ;}
	.st52{fill:url(#SVGID_39_);}
	.st53{opacity:0.1;fill:url(#SVGID_40_);enable-background:new    ;}
	.st54{opacity:0.1;fill:url(#SVGID_41_);enable-background:new    ;}
	.st55{fill:url(#SVGID_42_);}
	.st56{fill:url(#SVGID_43_);}
	.st57{opacity:0.1;fill:url(#SVGID_44_);enable-background:new    ;}
	.st58{fill:url(#SVGID_45_);}
	.st59{opacity:0.1;fill:url(#SVGID_46_);enable-background:new    ;}
	.st60{fill:url(#SVGID_47_);}
	.st61{opacity:0.1;fill:url(#SVGID_48_);enable-background:new    ;}
	.st62{opacity:0.1;fill:url(#SVGID_49_);enable-background:new    ;}
	.st63{opacity:0.1;fill:url(#SVGID_50_);enable-background:new    ;}
	.st64{opacity:0.1;fill:url(#SVGID_51_);enable-background:new    ;}
	.st65{opacity:0.1;fill:url(#SVGID_52_);enable-background:new    ;}
	.st66{opacity:0.1;fill:url(#SVGID_53_);enable-background:new    ;}
	.st67{opacity:0.1;fill:url(#SVGID_54_);enable-background:new    ;}
	.st68{fill:url(#SVGID_55_);}
	.st69{opacity:0.1;fill:url(#SVGID_56_);enable-background:new    ;}
	.st70{opacity:0.1;fill:url(#SVGID_57_);enable-background:new    ;}
	.st71{opacity:0.1;fill:url(#SVGID_58_);enable-background:new    ;}
	.st72{opacity:0.1;fill:url(#SVGID_59_);enable-background:new    ;}
	.st73{fill:url(#SVGID_60_);}
	.st74{opacity:0.1;fill:url(#SVGID_61_);enable-background:new    ;}
	.st75{opacity:0.1;fill:url(#SVGID_62_);enable-background:new    ;}
	.st76{opacity:0.1;fill:url(#SVGID_63_);enable-background:new    ;}
	.st77{opacity:0.1;fill:url(#SVGID_64_);enable-background:new    ;}
	.st78{opacity:0.1;fill:url(#SVGID_65_);enable-background:new    ;}
	.st79{opacity:0.1;fill:url(#SVGID_66_);enable-background:new    ;}
	.st80{opacity:0.1;fill:url(#SVGID_67_);enable-background:new    ;}
	.st81{opacity:0.1;fill:url(#SVGID_68_);enable-background:new    ;}
	.st82{opacity:0.1;fill:url(#SVGID_69_);enable-background:new    ;}
	.st83{opacity:0.1;fill:url(#SVGID_70_);enable-background:new    ;}
	.st84{opacity:0.1;fill:url(#SVGID_71_);enable-background:new    ;}
	.st85{opacity:0.1;fill:url(#SVGID_72_);enable-background:new    ;}
	.st86{opacity:0.1;fill:url(#SVGID_73_);enable-background:new    ;}
	.st87{opacity:0.1;fill:url(#SVGID_74_);enable-background:new    ;}
	.st88{opacity:0.1;fill:url(#SVGID_75_);enable-background:new    ;}
	.st89{opacity:0.1;fill:url(#SVGID_76_);enable-background:new    ;}
	.st90{opacity:0.1;fill:url(#SVGID_77_);enable-background:new    ;}
	.st91{opacity:0.1;fill:url(#SVGID_78_);enable-background:new    ;}
	.st92{opacity:0.1;fill:url(#SVGID_79_);enable-background:new    ;}
	.st93{opacity:0.1;fill:url(#SVGID_80_);enable-background:new    ;}
	.st94{fill:url(#SVGID_81_);}
	.st95{opacity:0.1;fill:url(#SVGID_82_);enable-background:new    ;}
	.st96{fill:url(#SVGID_83_);}
	.st97{opacity:0.1;fill:url(#SVGID_84_);enable-background:new    ;}
	.st98{opacity:0.1;fill:url(#SVGID_85_);enable-background:new    ;}
	.st99{fill:url(#SVGID_86_);}
	.st100{opacity:0.1;fill:url(#SVGID_87_);enable-background:new    ;}
	.st101{opacity:0.1;fill:url(#SVGID_88_);enable-background:new    ;}
	.st102{opacity:0.1;fill:url(#SVGID_89_);enable-background:new    ;}
	.st103{opacity:0.1;fill:url(#SVGID_90_);enable-background:new    ;}
	.st104{opacity:0.1;fill:url(#SVGID_91_);enable-background:new    ;}
	.st105{opacity:0.1;fill:url(#SVGID_92_);enable-background:new    ;}
	.st106{opacity:0.1;fill:url(#SVGID_93_);enable-background:new    ;}
	.st107{opacity:0.1;fill:url(#SVGID_94_);enable-background:new    ;}
	.st108{opacity:0.1;fill:url(#SVGID_95_);enable-background:new    ;}
	.st109{opacity:0.1;fill:url(#SVGID_96_);enable-background:new    ;}
	.st110{opacity:0.1;fill:url(#SVGID_97_);enable-background:new    ;}
	.st111{fill:url(#SVGID_98_);}
	.st112{opacity:0.1;fill:url(#SVGID_99_);enable-background:new    ;}
	.st113{opacity:0.1;fill:url(#SVGID_100_);enable-background:new    ;}
	.st114{opacity:0.1;fill:url(#SVGID_101_);enable-background:new    ;}
	.st115{opacity:0.1;fill:url(#SVGID_102_);enable-background:new    ;}
	.st116{fill:#9D9CB5;}
	.st117{fill:#E4E3F9;}
	.st118{opacity:0.1;enable-background:new    ;}
	.st119{fill:#535461;}
	.st120{fill:#5E52AD;}
	.st121{opacity:3.000000e-02;enable-background:new    ;}
	.st122{fill:#784D55;}
	.st123{fill:#F8BDC5;}
	.st124{fill:#EB6475;}
	.st125{fill:#FFC075;}
	.st126{opacity:0.1;fill:none;stroke:#000000;stroke-miterlimit:10;enable-background:new    ;}
	.st127{opacity:0.5;fill:#FFFFFF;enable-background:new    ;}
	.st128{opacity:0.2;enable-background:new    ;}
	.st129{opacity:0.5;fill:#FEBA1B;enable-background:new    ;}
	.st130{opacity:0.8;fill:#FEBA1B;enable-background:new    ;}
	.st131{opacity:0.95;fill:#FEBA1B;enable-background:new    ;}
	.st132{opacity:0.6;fill:#FEBA1B;enable-background:new    ;}
	.st133{fill:#FDC2CC;}
	.st134{fill:#DFE6F5;}
	.st135{fill:#53526B;}
	.st136{fill:#865A61;}
	.st137{opacity:0.1;fill:none;stroke:#535461;stroke-width:2;stroke-miterlimit:10;enable-background:new    ;}
	.st138{fill:url(#SVGID_103_);}
	.st139{fill:#FBBEBE;}
	.st140{fill:#013183;fill-opacity:8.000000e-02;}
</style>
<g>
	<g class="st15">
		<path class="st137" d="M86.5,63.8c0,0,0.8-16.6,10.3-25.9c4-3.9,6.6-8.9,7.4-14.3c0.4-2.6,0.5-5.2,0.3-7.7"/>
		<path class="st7" d="M110.5,10.1c-0.7,1.8-6.1,6-6.1,6s-1.5-6.5-0.9-8.4c0.7-1.9,2.8-2.8,4.7-2.2c0.4,0.1,0.9,0.4,1.2,0.7
			c0.4,0.3,0.7,0.7,0.9,1.1s0.3,0.9,0.4,1.3C110.7,9.2,110.6,9.6,110.5,10.1z"/>
		<path class="st7" d="M112.6,22.2c-1.6,1.2-8.5,1.9-8.5,1.9s2.4-6.3,4-7.5c0.8-0.6,1.7-0.8,2.7-0.7c1,0.1,1.8,0.6,2.5,1.3
			c0.3,0.4,0.5,0.8,0.6,1.2c0.1,0.4,0.2,0.9,0.1,1.4c-0.1,0.5-0.2,0.9-0.5,1.3C113.3,21.6,112.9,21.9,112.6,22.2z"/>
		<path class="st7" d="M106,39.6c-2,0.3-8.3-2.5-8.3-2.5s5.4-4.3,7.4-4.5c2-0.3,3.9,1.1,4.1,3C109.4,37.6,108,39.4,106,39.6z"/>
		<path class="st7" d="M97.9,51.7c-1.9,0.6-8.7-1.1-8.7-1.1s4.5-5.1,6.5-5.6c1.9-0.6,4,0.5,4.6,2.3c0.1,0.4,0.2,0.9,0.1,1.4
			c0,0.5-0.2,0.9-0.4,1.3c-0.2,0.4-0.5,0.8-0.9,1.1C98.8,51.4,98.4,51.6,97.9,51.7z"/>
		<path class="st7" d="M96.6,22c0.9,1.7,6.9,5.2,6.9,5.2s0.6-6.7-0.3-8.4c-0.5-0.8-1.2-1.5-2.2-1.8c-0.9-0.3-1.9-0.2-2.8,0.2
			c-0.4,0.2-0.8,0.5-1.1,0.8c-0.3,0.3-0.6,0.8-0.7,1.2c-0.2,0.4-0.2,0.9-0.2,1.4C96.3,21.2,96.4,21.6,96.6,22z"/>
		<path class="st7" d="M87.4,36.3c1.4,1.4,8.2,3,8.2,3s-1.5-6.5-2.9-7.9c-0.7-0.7-1.6-1.1-2.6-1.1c-1,0-1.9,0.3-2.6,1
			c-0.3,0.3-0.6,0.7-0.8,1.1c-0.2,0.4-0.3,0.9-0.3,1.4c0,0.5,0.1,0.9,0.3,1.4C86.8,35.6,87.1,36,87.4,36.3z"/>
		<path class="st7" d="M80.4,51.3c1.1,1.6,7.5,4.3,7.5,4.3s-0.3-6.7-1.4-8.3c-0.6-0.8-1.4-1.3-2.4-1.5c-1-0.2-1.9,0-2.7,0.6
			c-0.4,0.3-0.7,0.6-1,1c-0.3,0.4-0.4,0.8-0.5,1.3c-0.1,0.5-0.1,0.9,0,1.4C79.9,50.5,80.1,50.9,80.4,51.3z"/>
	</g>
	
		<linearGradient id="SVGID_1_" gradientUnits="userSpaceOnUse" x1="76.9812" y1="-281.618" x2="76.9812" y2="-197.4721" gradientTransform="matrix(1 0 0 -1 0 -196.3603)">
		<stop  offset="0" style="stop-color:#808080;stop-opacity:0.25"/>
		<stop  offset="0.54" style="stop-color:#808080;stop-opacity:0.12"/>
		<stop  offset="1" style="stop-color:#808080;stop-opacity:0.1"/>
	</linearGradient>
	<path class="st8" d="M101.1,23c0,0-0.7-5.4-4.5-5.5c-3.8-0.1,0.6,6.7,1,7.3c0.3,0.4,0.1,1.4-0.2,2.1c-0.2,0.6-0.3,1.1-0.4,1.7
		c-0.1,0.7-0.4,1.4-0.9,1.9c-0.6,0.8-1.2,1.6-1.5,2.6c0,0-1.1,0-1.5-0.2c-0.4-0.3-3-1.2-3.1-1.1c0,0-0.1,0-0.2,0
		c-0.2,0-0.3,0-0.5-0.1c0-0.1,0-0.3-0.1-0.4c0,0-0.3-0.1-0.7-0.3c0,0,0,0,0,0v0c0.1-0.2,0.1-0.4,0.2-0.7v0c0.1-0.2,0.2-0.3,0.3-0.4
		c0.3-0.3,0.9-0.2,1.3-0.3c0,0,0.1,0,0.1-0.1l0.1,0l0.1,0l0.1,0l0.1,0l0.1,0c0,0,0,0,0.1,0l0-0.1l0-0.1l0-0.1c0,0,0,0,0-0.1
		c0,0,0,0,0-0.1l0-0.1l0-0.1l0-0.1c0,0,0,0,0-0.1c0,0,0,0,0-0.1c0,0,0-0.1,0-0.1s0,0,0-0.1c0,0,0-0.1,0-0.1l0-0.1c0,0,0-0.1,0-0.1
		c0,0,0,0,0-0.1v-0.1c0,0,0,0,0-0.1c0,0,0-0.1,0-0.1V28v-0.1c0,0,0,0,0,0c0-0.1,0-0.2,0-0.3c-0.1-0.5-0.3-0.9-0.2-1.4c0,0,0,0,0,0
		c0,0,0-0.1,0.1-0.1c0.1-0.1,0.2-0.2,0.4-0.3c0.1-0.1,0.3-0.1,0.4-0.2c0.5-0.2,1-0.5,1.3-0.9c0.2-0.3,0.4-0.7,0.5-1
		c0-0.2,0-0.3,0-0.5c0,0,0,0,0,0c-0.1-0.3-0.2-0.6-0.2-0.9c0-0.1,0-0.2,0.1-0.4c0-0.1,0-0.1,0.1-0.2l0,0c0-0.1,0.1-0.1,0.1-0.2
		c0,0,0,0,0,0l0.1-0.1l0,0c0-0.1,0.1-0.1,0.1-0.1c0.1-0.1,0.2-0.2,0.3-0.4c0-0.1,0.1-0.1,0.1-0.2c0-0.1,0.1-0.1,0.1-0.2c0,0,0,0,0,0
		c0-0.1,0.1-0.1,0.1-0.2l0-0.1c0-0.1,0-0.1,0.1-0.2c0,0,0,0,0-0.1c0-0.1,0-0.1,0-0.2c0,0,0,0,0,0c0-0.1,0-0.2,0-0.2c0,0,0,0,0-0.1
		c0-0.1,0-0.2,0-0.2c0-0.3-0.1-0.6-0.1-0.8c-0.1-0.4-0.3-0.9-0.7-1c-0.2,0-0.4,0-0.6,0c-0.6,0-1.3-0.1-1.8-0.5
		c-0.5-0.4-1.1-0.7-1.6-1.2c-0.3-0.3-0.8-0.5-1.2-0.4c-0.1,0.1-0.3,0.1-0.4,0.2c0,0-0.1,0-0.1,0c-0.1,0-0.3,0-0.4,0h0
		c-0.1-0.4-0.3-0.8-0.4-1.2c-0.4-1-0.9-2-1.7-2.7c-0.5-0.4-1-0.6-1.6-0.8c-1.7-0.7-3.5-1.5-5.2-0.9c-0.8,0.2-1.4,0.7-2.1,1.1
		l-2.8,1.9l-0.2-0.1c-0.4-0.1-0.8-0.2-1.1-0.3l0,0c-0.8-0.3-1.6-0.9-1.6-1.8c0-0.1,0-0.3,0-0.4c0.1-0.3,0.2-0.5,0.3-0.8
		c0.1-0.2,0.1-0.3,0.2-0.5l0-0.2c0-0.1,0.1-0.2,0.1-0.3l0-0.2c0-0.1,0-0.2,0-0.2s0-0.2,0-0.3c0,0,0-0.1,0-0.1c0-0.2,0.1-0.5,0.1-0.7
		c0-0.1,0-0.3,0-0.4c0,0,0,0,0-0.1c0-0.1,0-0.3,0-0.4c0-1.8-0.6-3.5-1.6-4.9c-0.2,0.4-0.3,0.8-0.3,1.2c0,0.1,0,0.2,0,0.2
		c0,0-0.1,0.1-0.1,0.1s-0.1,0-0.1,0c0,0-0.1,0-0.1,0c0,0-0.1,0-0.1-0.1c-0.1-0.1-0.2-0.2-0.3-0.4C68.9,2.1,68.7,2,68.6,2
		c-0.2,0-0.3,0-0.5,0.1c-0.1,0.1-0.3,0.2-0.3,0.4c-0.1,0.2-0.1,0.3,0,0.5c-0.6-0.3-1.2-0.4-1.8-0.4c-0.6,0-1.2,0.2-1.8,0.6
		c-0.3,0.2-0.5,0.5-0.6,0.8c0,0.2,0,0.4,0.1,0.6c0.2,0.4,0.6,0.7,0.8,1.1C63.4,7.1,63,9,63,9l-0.2,0.3c-0.5,0.3-0.9,0.6-1.3,1
		C61.2,10.6,61,11,61,11.4l-3.5,4.4c0,0-3.7,5.1-4.1,6.2c-0.1,0.2-1.6,2,0.7,4.1c2.3,2.1,2.8,2.4,3.1,3.1c0.2,0.4,1.7,1.2,2.9,1.8
		l0.4,0.2c-0.1,1.3,0.5,2.7,2.3,4.4c0,0.2,0.1,0.4,0.1,0.6c0,1.5,0.7,4,0.7,4s0.9,1.5-0.3,2.5c-1.2,1-1.5,1.5-0.7,2.3l0,0l-0.1,2.2
		h-0.3c0,0-3,2.1-3.6,3.3c-0.6,1.2-1.7,4.4-1.7,4.4s-0.2,3.1-0.6,3.6c-0.3,0.5,0,2.4,0,2.4s-0.1,2.9,0.7,3.6
		c0.7,0.7,0.5,2.4,0.5,2.4c0,0.4,0.1,0.7,0.1,1.1c-0.8-0.2-2.2-0.4-2.4,1.4c-0.2,1.4-0.3,2.7-0.2,4.1c0,0-0.7,3-1.2,3.9
		c-0.5,0.9-1.6,8.5,3.2,7.2c0,0,0.7-0.2,1.1-1.2c0.2-0.2,0.3-0.4,0.5-0.6c0,1.5,0.4,2.7,1.8,2.4c0,0,0.8-0.2,1.2-1.9
		c0.8-0.7,1.4-1.5,2-2.4l1.3-3.4l0.1-0.3l1.3-1.3c2.1,0.7,4.2,1.1,6.4,1.3c0.6,0.1,1.3,0.1,1.9,0.1c1.1,0,2.2-0.1,3.3-0.3
		c2,0.3,5.6,0.5,8.6-0.6c4.5-1.7,1.4-5.5,0.6-6.3c-0.8-0.8-3.2-3.2-3.4-3.4v0c0,0,0.5-13.8-0.5-14.2c-1-0.4-4.1-3.8-4.1-3.8l0.3-2.2
		c0,0,1.6,0.2,1.6-1.2c0.1-1.4,0-3.4,0-3.4l2.1-3.7c0,0,2.5-1.5,3.6-2c0.1,0,0.1,0.1,0.2,0.1c1.2,0.7,3.8,1.5,4.8,1.3
		c1.2-0.2,3.7,0.3,5.2,0.5c1.6,0.1,2.3-1.4,2.1-1.6c-0.2-0.2,0.6-1.9,0.6-1.9s1.5-7.2,1.2-8.3C100.5,25.1,101.1,23,101.1,23z
		 M61,69.2c0.1,0.1,0.3,0.1,0.4,0.2c0.7,0.3,1.5,0.6,2.2,0.8l1.4,0.5c0,0-2.1,0-3.1,0.1c-0.5-0.1-1-0.3-1.4-0.6
		C60.6,69.8,60.8,69.5,61,69.2z M82.1,29c0-0.1,0-0.1-0.1-0.2c0.2,0,0.4-0.1,0.6-0.2c-0.1,0.1-0.3,0.3-0.5,0.5
		C82.1,29.1,82.1,29,82.1,29z M58.6,23.3c0,0,1-2.5,1.8-4.1c0,0.1,0.1,0.3,0.1,0.4c0,0,0,0,0.1,0.3v0c0.4,1,1.1,1.9,2.1,2.5
		c0.3,0.2,0.6,0.3,1,0.5c0,0,0,0,0,0c0,0,0,0,0-0.1c0,0,0,0,0,0c0,0,0,0,0-0.1l0,0c0,0,0,0,0-0.1l0,0c0,0,0,0,0,0
		c0.2,0.1,0.3,0.2,0.5,0.3c0,0,0.1,0,0.1,0.1c0.2,0.1,0.3,0.2,0.5,0.3l0.1,0.1c0.2,0.1,0.4,0.2,0.6,0.3l0,0l0.2,0.1l0.4,0.2
		c0.1,0.1,0.3,0.1,0.4,0.1c0.1,0,0.2-0.1,0.2-0.1l0.1-0.1c0.5-0.4,1.1-0.4,1.6-0.7c0.5-0.2,1.1-0.7,1-1.3c0-0.2-0.1-0.4-0.2-0.5
		c-0.1-0.2-0.2-0.3-0.4-0.4c-0.3-0.2-0.7-0.4-1-0.6c-0.6-0.4-1-1.2-0.8-1.9c0,0,0-0.1,0.1-0.1l0,0c0,0,0-0.1,0.1-0.1c0,0,0,0,0,0
		c0.1-0.1,0.2-0.2,0.3-0.3c0.1-0.1,0.3-0.2,0.4-0.3l2.7-1.9c0.2-0.1,0.4-0.3,0.6-0.4c0.2-0.1,0.4-0.2,0.6-0.3c0.1,0,0.1-0.1,0.2-0.1
		l0.1,0c0.1,0,0.2-0.1,0.3-0.1c0.1,0,0.1,0,0.2,0c-0.3,0.9-0.7,1.8-1.2,2.6c-0.1,0.1-0.2,0.3-0.2,0.5c0,0,0,0.1,0,0.1
		c0,0.2,0,0.4,0.1,0.6c0.2,0.4,0.2,0.7,0.6,1c0.1,0.1,0.2,0.1,0.3,0.2c0,0.1,0,0.1,0,0.2c0,0.3-0.1,0.7-0.1,1c0,1.8,0.6,3.5,1.6,4.9
		l-0.1,0.1c-0.5,0.6-1.1,1.1-1.7,1.5c-0.1,0-0.1,0.1-0.2,0.1c-0.1-0.2-0.2-0.4-0.3-0.6c-0.2,0.1-0.4,0.1-0.5,0
		c-0.2-0.1-0.3-0.2-0.4-0.4c-0.3-0.6-1.3,0-1.3,0s-2.3-1.3-2.4-0.7c0,0.1-0.1,0.2-0.1,0.2l-0.1-0.1c0,0-0.5,0.2-1.3,0.5
		c-0.3-0.1-0.6-0.2-0.8-0.5c-0.2-0.3-0.2,0.1,0,0.9l0,0l-0.3-0.1C62.5,26.1,58.8,24.6,58.6,23.3L58.6,23.3z M84.3,29
		c-0.1-0.3-0.6-0.6-1-0.7c1.9-0.9,3.4-2.4,4.1-4.4c0-0.1,0.1-0.2,0.1-0.3c0.1,0,0.1,0,0.2,0c0.1,0,0.3-0.1,0.4-0.2
		c0.1-0.1,0.2-0.2,0.3-0.3c0-0.1,0.1-0.2,0.1-0.4c0-0.3,0-0.6,0-0.8v0c0-1.7-0.1-3.4-0.5-5l0.2,0.2c0.1,0.1,0.2,0.2,0.3,0.2
		c0.1,0.1,0.2,0.1,0.2,0.2l0,0c0.1,0.1,0.1,0.1,0.2,0.2c0,0,0,0,0,0c0.1,0.1,0.1,0.1,0.2,0.2l0.1,0.1c0,0.1,0.1,0.1,0.1,0.2l0,0
		c0,0.1,0.1,0.2,0.1,0.2l0,0.1c0,0.1,0,0.1,0.1,0.2c0,0,0,0.1,0,0.1c0,0.1,0,0.2,0,0.2c0,0,0,0.1,0,0.1c0,0.1,0,0.2,0,0.2
		c0,0.1,0,0.1,0,0.1c0,1.5-0.3,3.1-0.9,4.4c-0.6,1.4-1.4,2.7-2.4,3.8c-0.3,0.4-0.6,0.7-0.8,1.2c0,0.1-0.1,0.2-0.1,0.3
		C85,29.5,84.4,29.4,84.3,29L84.3,29z"/>
	<path class="st139" d="M101.9,26.7c0.3,1.1-1.2,8.3-1.2,8.3s-0.8,1.8-0.6,1.9c0.2,0.2-0.6,1.7-2.2,1.6c-1.6-0.2-4.1-0.7-5.4-0.5
		c-0.9,0.2-3.6-0.6-4.9-1.3c-0.4-0.2-0.7-0.5-0.7-0.6c0.1-0.7,2.5-4,2.5-4c0.4,0.1,0.7,0.2,1.1,0.2c0.1,0,0.2,0,0.2,0
		c0.1-0.2,2.8,0.8,3.2,1.1c0.4,0.3,1.6,0.2,1.6,0.2c0.4-0.9,0.9-1.8,1.6-2.5c0.5-0.5,0.8-1.2,0.9-1.9c0.1-0.6,0.2-1.1,0.4-1.7
		c0.2-0.8,0.4-1.7,0.2-2.1c-0.5-0.6-4.9-7.4-1.1-7.2c3.9,0.1,4.6,5.5,4.6,5.5S101.5,25.6,101.9,26.7z"/>
	<path class="st139" d="M84.4,33.1l-3.2,1.4l-3.7,1.1c0,0-8.5-6.9-6.3-7.4c0.4-0.1,0.7-0.2,1.1-0.5c0.6-0.4,1.2-0.9,1.7-1.5
		c0.5-0.6,1-1.2,1.5-1.9c0,0,8.4-0.4,7.1,1.6c-0.5,0.8-0.3,2,0.1,3.3c0,0.1,0,0.1,0.1,0.2C83.1,30.8,83.7,32,84.4,33.1z"/>
	<path class="st1" d="M63.5,71.5c0,0-1.5-1.4-2,0.7c-0.3,1.1-0.5,2.3-0.6,3.5c0,0-0.8,2.5-1.2,3.2c-0.4,0.7-2.1,7,1.1,6.4
		c0,0,1.2-0.2,1.4-2.9c0.2-2.7,2.2-10.6,2.2-10.6L63.5,71.5z"/>
	<path class="st139" d="M87.3,76.5c-3.2,1.2-7,0.9-9,0.6c-0.9-0.1-1.4-0.3-1.4-0.3l-10-1L66.7,76l-1.3,1.3L64,80.9
		c0,0-4,5.5-4.4,2.2c-0.1-0.7-0.1-1.4-0.1-2.1c0.1-3.5,1-8.1,1-8.1l9.1-1.2l5.7-3l0.1-3.1l0-0.8l0-1.9l7.7,0.7l1.4,3.1l0,0
		c0.2,0.2,2.8,2.6,3.5,3.3C88.7,71,91.9,74.7,87.3,76.5z"/>
	<path class="st4" d="M65.4,77.6c0,0-4.1,0.2-4.3-0.6l-1.3,3c0,0,3.7,1.4,4.2,0.9L65.4,77.6z"/>
	<path class="st1" d="M58.2,68.3c0,0-2.6-1.3-3,1.2c-0.2,1.3-0.3,2.7-0.2,4.1c0,0-0.7,3-1.2,3.8c-0.5,0.9-1.6,8.4,3.2,7.1
		c0,0,1.8-0.5,1.5-3.6c-0.3-3.1,0.9-12.6,0.9-12.6L58.2,68.3z"/>
	<path class="st118" d="M72.9,62.4l8.3,7.3c0,0,4.8,2.6-0.9,6.9c0,0-2.6,1.1-6.5,0.7c-2.4-0.3-4.8-0.8-7.2-1.5c0,0-3-0.5-4,1.1
		c-1,1.6-3.3,5.1-3.3,5.1s-2.8,5.5-4.6-1.3L57,74c0,0,0.1-2.2,0-2.7c-0.1-0.5,1.5-2.8,2.4-2c0.9,0.7,2,1.8,3,1.7
		c1-0.1,3.4-0.1,3.4-0.1l-1.4-0.5c0,0-4.1-1.1-3.8-2c0.3-0.9,2.3-5,2.3-5L72.9,62.4z"/>
	<path class="st139" d="M79.8,76.6c-0.5,0.2-1,0.3-1.4,0.4c-1.7,0.4-3.4,0.4-5,0.3c-2.2-0.2-4.4-0.7-6.5-1.3
		c-0.4-0.1-0.7-0.2-0.7-0.2s-3-0.5-4,1.1c-0.7,1-1.9,2.9-2.6,4.1l-0.7,1c0,0-2.8,5.5-4.6-1.3l2.3-6.7c0,0,0.1-2.2,0-2.7
		c-0.1-0.3,0.7-1.5,1.4-2c0.4-0.2,0.7-0.3,1-0.1c0.6,0.5,1.2,1,1.8,1.4c0.3,0.2,0.7,0.3,1.1,0.3c1-0.1,3.4-0.1,3.4-0.1l-1.4-0.5
		c-0.8-0.2-1.5-0.5-2.3-0.8c-0.9-0.4-1.7-0.8-1.5-1.2c0.3-0.9,2.3-5,2.3-5l10.1-0.9l2.9,2.5l1.2,1.1l4.2,3.7
		C80.7,69.7,85.5,72.2,79.8,76.6z"/>
	<path class="st126" d="M72.6,72.9c0,0-2.2-2.9-7.3-2.1"/>
	<path class="st118" d="M56.3,73.5l-1.7,3.8c0,0,1.8,4.2,5.4,3.6l2.2-3.9C62.2,76.9,57.3,76.4,56.3,73.5z"/>
	<path class="st4" d="M56.1,73.8l-1.7,3.8c0,0,1.8,4.2,5.4,3.6l2.2-3.9C61.9,77.2,57,76.7,56.1,73.8z"/>
	<path class="st118" d="M88.4,36.5c-0.2,0.1-0.5,0.2-0.7,0.3c-0.4-0.2-0.7-0.5-0.7-0.6c0.1-0.7,2.5-4,2.5-4c0.4,0.1,0.7,0.2,1.1,0.2
		C91,34.8,89.1,36.3,88.4,36.5z"/>
	<path class="st118" d="M84.4,33.4l-3.2,1.4l-3.7,1.1c0,0-8.5-6.9-6.3-7.4c0.4-0.1,0.7-0.2,1.1-0.5c1.3,1.7,4.3,3.4,4.3,3.4
		c2.5,0.9,4.8-0.8,6-1.9C83.1,30.8,83.7,32.1,84.4,33.4z"/>
	<path class="st6" d="M87.9,36.5c-0.7,0.2-4.1,2.1-4.1,2.1l-2.1,3.6c0,0,0.1,2,0,3.4C81.6,47,80,46.9,80,46.9l-0.1,0
		c-0.4,0.2-2.3,1-2.3,1c0,0-3.9-0.4-3.9-0.4L66,46.2c0,0-2.4-0.1-3.2-0.9l0,0c-0.8-0.8-0.5-1.4,0.8-2.3c1.2-1,0.3-2.4,0.3-2.4
		s-0.7-2.4-0.7-3.9c0-1.5-0.7-1.4-0.7-1.4s-0.5,0,1.8-1.5c2.3-1.5-0.3-8.4,0.5-7.4c0.8,1,2.3,0.5,2.4-0.1c0.1-0.6,2.4,0.7,2.4,0.7
		s1-0.6,1.4,0c0.1,0.2,0.2,0.3,0.4,0.4c0.2,0.1,0.4,0.1,0.5,0c0.6,1.9,4.8,4.3,4.8,4.3c3.8,1.4,7-3,7-3s1.3,0.3,1.4,0.9
		c0.2,0.5,1.6,0.5,1.6,0.5s1.7,0.2,1.8,0.7c0.1,0.5,1.7,1.2,1.7,1.2C90.7,34.7,88.6,36.3,87.9,36.5z"/>
	<path class="st118" d="M80,46.4L80,46.9c-0.4,0.2-2.3,1-2.3,1s-3.9-0.4-3.9-0.4L66,46.2c0,0-2.4-0.1-3.2-0.9l0,0l0-0.4l1.3-0.2
		c0,0,12.3,0.7,14,1.5L80,46.4z"/>
	<path class="st118" d="M84.4,66.8c0,0.3,0,0.4,0,0.4s-2.4-3.7-5.5-1.9c-0.7,0.4-1.6,0.7-2.4,0.6c-0.4,0-0.8-0.1-1.2-0.3
		c-0.7-0.3-1.2-0.7-1.7-1.3c0,0-5.5,1.1-7.3,2.7c-1.9,1.5-3.4-0.5-3.4-0.5s-0.5,2.3-1.2,2.9c-0.9-0.4-1.7-0.8-1.5-1.2
		c0.3-0.9,2.3-5,2.3-5l10.1-0.9l2.9,2.5l0-1.9l7.7,0.7L84.4,66.8L84.4,66.8z"/>
	<path class="st4" d="M64,45.1c0,0,12.3,0.7,14,1.5l2,0.3L79.7,49c0,0,3.2,3.4,4.2,3.8c1,0.4,0.5,14.1,0.5,14.1S82,63.1,78.9,65
		c-3.1,1.8-5.4-1-5.4-1s-5.5,1.1-7.3,2.7c-1.9,1.5-3.4-0.5-3.4-0.5s-0.6,2.7-1.4,3c-0.7,0.3-0.9,2.1-0.9,2.1s-2.1-0.4-2.1-1
		s-0.1-0.9-0.5-1.3c-0.4-0.5-0.5-1.9-0.5-1.9s0.2-1.7-0.5-2.4c-0.7-0.7-0.7-3.6-0.7-3.6s-0.3-1.9,0-2.3c0.3-0.5,0.6-3.5,0.6-3.5
		s1.1-3.2,1.8-4.4c0.6-1.2,3.6-3.2,3.6-3.2h0.3l0.1-2.2L64,45.1z"/>
	<path class="st1" d="M77.7,49.9c0.2,0,0.4-0.2,0.4-0.4c0-0.2-0.2-0.4-0.4-0.4c-0.2,0-0.4,0.2-0.4,0.4
		C77.3,49.7,77.5,49.9,77.7,49.9z"/>
	<path class="st1" d="M75.7,58c0.2,0,0.4-0.2,0.4-0.4c0-0.2-0.2-0.4-0.4-0.4c-0.2,0-0.4,0.2-0.4,0.4C75.4,57.9,75.5,58,75.7,58z"/>
	<path class="st1" d="M78.3,55.3c0.2,0,0.4-0.2,0.4-0.4c0-0.2-0.2-0.4-0.4-0.4c-0.2,0-0.4,0.2-0.4,0.4
		C77.9,55.1,78.1,55.3,78.3,55.3z"/>
	<path class="st118" d="M63.3,47.9h0.5c0,0-2.7,6.3-2.9,4.5C60.7,50.6,63.3,47.9,63.3,47.9z"/>
	<path class="st118" d="M66.6,48.3c0,0-3.1,4.8-1.6,5.5c1.5,0.7,2.9-5.2,2.9-5.2L66.6,48.3z"/>
	<path class="st118" d="M70.7,51.1c0,0,1.2,7.3,2.5,8.7S73,62.1,73,62.1s4.7,0.4,6.2,0.7s3.8-0.3,2.8-0.9c-0.9-0.6-0.1-7.1-0.1-7.4
		C82,54.2,79,60.2,70.7,51.1z"/>
	<path class="st118" d="M65.7,42.6c0.3-0.1,4.5-6.1,5.5-5.6C72.2,37.4,65.7,42.6,65.7,42.6z"/>
	<path class="st118" d="M66.2,37.3c0,0-1.7,2.6-1.2,3.1C65.5,40.8,66.2,37.3,66.2,37.3z"/>
	<path class="st118" d="M68.5,27.4c0,0,1.7,3.5,1.2,4.1C69.2,32.1,68.5,27.4,68.5,27.4z"/>
	<path class="st118" d="M87.9,32.1c0,0-0.3,2-0.8,2.1C86.7,34.3,87.9,32.1,87.9,32.1z"/>
	<path class="st118" d="M79.7,32.8c0,0,4.8,1.2,5.2,1.4C85.3,34.5,80.7,34.5,79.7,32.8z"/>
	<path class="st118" d="M97.5,36.2c0,0-0.6-2.4-1.4-2.3C95.3,33.9,97.5,36.2,97.5,36.2z"/>
	<path class="st1" d="M95.4,20.9c-0.3,0.6-0.9,1.1-0.9,1.8c0,0.3,0.2,0.6,0.2,0.9c0,0.3,0,0.6-0.1,0.8c-0.1,0.3-0.2,0.5-0.4,0.7
		c-0.4,0.4-0.8,0.7-1.4,0.9c-0.3,0.1-0.6,0.2-0.8,0.5c-0.3,0.4,0,1,0.1,1.5c0.2,0.8-0.1,1.8-0.9,2.1c-0.4,0.1-0.9,0-1.3,0.3
		c-0.4,0.3-0.4,0.8-0.6,1.2c-0.2,0.3-0.5,0.5-0.8,0.6s-0.7,0.1-1-0.1c0-0.2,0-0.4,0.1-0.6c-0.2,0.1-0.5,0-0.7,0
		c-0.2-0.1-0.4-0.3-0.6-0.5c-0.1-0.2-0.2-0.4-0.2-0.7c0-0.2,0.1-0.5,0.2-0.7c0.2-0.4,0.5-0.8,0.8-1.2c1-1.2,1.8-2.4,2.5-3.8
		c0.7-1.4,1-2.9,1-4.4c0-0.5-0.1-0.9-0.3-1.3c-0.2-0.4-0.5-0.8-0.9-1.1c-0.2-0.2-0.4-0.3-0.6-0.5c-0.1-0.1-0.3-0.2-0.4-0.3
		c-0.2-0.2-0.9-0.7-0.8-1c0-0.2,0.5-0.1,0.9-0.1c0.2,0,0.3,0,0.5,0c0,0,0.1,0,0.1,0c0.1-0.1,0.3-0.2,0.4-0.2
		c0.4-0.1,0.9,0.1,1.2,0.4c0.5,0.4,1,0.8,1.6,1.2c0.6,0.3,1.2,0.5,1.9,0.5c0.2,0,0.4-0.1,0.6,0c0.4,0.1,0.6,0.6,0.7,1
		C95.6,19.4,95.7,20.2,95.4,20.9z"/>
	<path class="st1" d="M73,15.1c-0.1,0-0.2,0-0.3,0c-0.2,0.1-0.5,0.2-0.7,0.3c-0.4,0.2-0.8,0.4-1.1,0.7l-2.8,1.8
		c-0.3,0.1-0.5,0.3-0.7,0.6c-0.5,0.7,0,1.7,0.7,2.2c0.3,0.2,0.7,0.4,1,0.6c0.2,0.1,0.3,0.2,0.4,0.4c0.1,0.2,0.2,0.3,0.2,0.5
		c0,0.6-0.5,1.1-1.1,1.3c-0.5,0.2-1.2,0.3-1.6,0.7c-0.1,0.1-0.2,0.1-0.3,0.2c-0.1,0-0.3,0-0.4-0.1c-0.9-0.4-1.7-0.8-2.5-1.3
		c0.1,0,0.1,0.1,0.1,0.2c0,0.1,0,0.1,0,0.2c-0.7-0.2-1.4-0.6-1.9-1.1c-0.5-0.5-1-1.1-1.2-1.8c-0.3-0.7-0.4-1.4-0.3-2.2
		c0.1-0.7,0.3-1.5,0.7-2.1c0.3-0.5,0.7-1,0.9-1.5c0.2-0.5,0.3-1.2,0-1.7c-0.2-0.3-0.6-0.6-0.7-1c-0.1-0.4,0.1-0.9,0.4-1.2
		c0.7-0.7,1.6-1.1,2.3-1.7c0.7-0.6,1.3-1.7,0.9-2.5c-0.3-0.7-1.2-1.2-1.1-1.9c0.1-0.3,0.3-0.6,0.6-0.8c0.5-0.3,1.2-0.5,1.8-0.6
		c0.6,0,1.3,0.1,1.9,0.4c0-0.2,0-0.4,0-0.5c0.1-0.2,0.2-0.3,0.3-0.4c0.2-0.1,0.3-0.1,0.5-0.1c0.2,0,0.3,0.1,0.5,0.2
		c0.1,0.1,0.2,0.3,0.3,0.4c0.1,0.1,0.1,0.1,0.2,0.1c0.1,0,0.2,0,0.2-0.1c0-0.1,0.1-0.1,0-0.2c0-0.4,0.1-0.8,0.3-1.2
		c0.8,1.2,1.3,2.6,1.5,4c0.2,1.4,0,2.9-0.5,4.3c-0.2,0.4-0.3,0.8-0.3,1.2c0,0.9,0.8,1.5,1.6,1.8l0,0c0.3,0.1,0.7,0.2,1.1,0.3
		c0.6,0.2,1.1,0.4,1.1,0.8C75.3,14.9,73.8,15,73,15.1z"/>
	<path class="st139" d="M61.3,18.2c-0.4,0.5-2.6,5.6-2.6,5.6c0.2,1.3,4,2.7,5.6,3.3c0.4,0.2,0.7,0.2,0.7,0.2l1.6,1.4
		c0,0-1.6,8.8-1.7,6.6c-0.1-2.2-2.9-3.3-2.9-3.3s-0.7-0.3-1.6-0.7c-1.2-0.6-2.8-1.3-3-1.8c-0.3-0.7-0.8-1-3.2-3.1
		c-2.4-2.1-0.8-3.9-0.7-4.1c0.4-1.1,4.2-6.2,4.2-6.2l5.5-6.7c0,0,1.5-6.2,5.3-3.8c3.8,2.4-4.3,8.2-4.3,8.2S61.7,17.8,61.3,18.2z"/>
	<path class="st118" d="M66.6,28.7c0,0-1.6,8.8-1.7,6.6c-0.1-2.2-2.9-3.3-2.9-3.3s-0.7-0.3-1.6-0.7c0.3-2,2.4-3.5,4-4.3
		c0.4,0.2,0.7,0.2,0.7,0.2L66.6,28.7z"/>
	<path class="st6" d="M68.5,27.8l-1.7-1.5c0,0-10.8,3.4-3.5,9.9h3.1l2.8-3.7L68.5,27.8z"/>
	<path class="st118" d="M82.6,29.2c0,0.1,0,0.2,0.1,0.2c-1.6,0.4-3.3,0.3-4.8-0.2c-1.5-0.6-2.9-1.6-3.9-2.9c0.5-0.6,1-1.2,1.5-1.9
		c0,0,8.4-0.4,7.1,1.6C82,26.7,82.2,28,82.6,29.2z"/>
	<path class="st139" d="M88.9,21.3c0,1.6-0.5,3.2-1.4,4.6c-0.9,1.3-2.2,2.4-3.7,3c-1.5,0.6-3.1,0.8-4.7,0.5
		c-1.6-0.3-3.1-1.1-4.2-2.2c-1.1-1.1-1.9-2.6-2.2-4.2c-0.3-1.6-0.2-3.2,0.5-4.7c0.6-1.5,1.7-2.8,3-3.7s2.9-1.4,4.6-1.4
		c1.1,0,2.1,0.2,3.1,0.6c1,0.4,1.9,1,2.7,1.8c0.8,0.8,1.4,1.7,1.8,2.7C88.7,19.1,88.9,20.2,88.9,21.3z"/>
	<path class="st118" d="M88.9,21.3c0,1.1-0.2,2.2-0.6,3.2c-0.5,0.1-0.9,0.1-1.4,0c-0.2,0-0.4-0.1-0.5-0.2c-0.1-0.1-0.2-0.3-0.2-0.5
		c-0.1-0.5-0.2-1-0.3-1.5c-0.7,0.3-1.6,0.1-2.3-0.3c-0.7-0.4-1.3-0.9-1.9-1.4c-0.7-0.4-1.5-0.8-2.2-0.6c-0.4,0.1-0.8,0.3-1.2,0.5
		c-0.8,0.4-1.4,0.9-2.1,1.5c-0.4,0.5-0.8,1-1.4,1.2c-0.4,0.1-0.7,0.1-1.1-0.1c-0.3-0.2-0.6-0.5-0.7-0.8c-0.1-0.4,0-0.9-0.1-1.3
		c0-0.1-0.1-0.3-0.1-0.4c-0.1-0.1-0.2-0.2-0.3-0.3c0.3-2.1,1.3-4,2.9-5.3c1.6-1.3,3.7-2,5.7-1.9c2.1,0.1,4,1,5.5,2.6
		C88.1,17.2,88.9,19.2,88.9,21.3L88.9,21.3z"/>
	<path class="st1" d="M73,20.8c0.1,0.4,0,0.9,0.1,1.3c0.1,0.4,0.4,0.6,0.7,0.8c0.3,0.2,0.7,0.2,1.1,0.1c0.6-0.2,0.9-0.8,1.4-1.2
		c0.6-0.6,1.3-1.1,2-1.5c0.4-0.2,0.8-0.4,1.2-0.5c0.8-0.1,1.6,0.2,2.2,0.6c0.7,0.4,1.3,1,2,1.4c0.7,0.4,1.5,0.6,2.3,0.3l0.3,1.5
		c0,0.2,0.1,0.3,0.2,0.5c0.1,0.1,0.3,0.2,0.5,0.2c0.6,0.1,1.1,0.1,1.7-0.1c0.1,0,0.3-0.1,0.4-0.2c0.1-0.1,0.2-0.2,0.3-0.3
		c0-0.1,0.1-0.2,0.1-0.4c0.2-2.9-0.3-5.8-1.3-8.5c-0.4-1-0.9-2-1.7-2.6c-0.5-0.3-1-0.6-1.6-0.8c-1.7-0.7-3.6-1.5-5.4-0.9
		c-0.8,0.2-1.5,0.7-2.2,1.1l-3.2,2.1c-0.2,0.1-0.3,0.2-0.5,0.4c-0.2,0.2-0.3,0.5-0.3,0.8c-0.3,1-0.8,2-1.3,2.9
		c-0.1,0.2-0.2,0.4-0.2,0.6c0,0.2,0,0.4,0.1,0.6c0.2,0.4,0.2,0.7,0.6,1C72.7,20.1,72.9,20.3,73,20.8z"/>
	<g class="st15">
		<path class="st118" d="M68.7,22.8c-0.5,0.2-1.2,0.3-1.6,0.7c-0.1,0.1-0.2,0.1-0.3,0.2c-0.1,0-0.3,0-0.4-0.1
			c-0.9-0.4-1.7-0.8-2.5-1.3c0.1,0,0.1,0.1,0.1,0.2c0,0.1,0,0.1,0,0.2c-0.7-0.2-1.4-0.6-1.9-1.1c-0.5-0.5-1-1.1-1.3-1.8
			c-0.2-0.5,0,0.5,0,0c-0.1,0.7-0.3,0,0,0.7c0.3,0.7,0.7,1.3,1.2,1.8c0.5,0.5,1.2,0.9,1.9,1.1c0-0.1,0-0.1,0-0.2
			c0-0.1-0.1-0.1-0.1-0.2c0.8,0.5,1.6,0.9,2.5,1.3c0.1,0.1,0.3,0.1,0.4,0.1c0.1,0,0.2-0.1,0.3-0.2c0.5-0.3,1.1-0.4,1.6-0.7
			c0.5-0.2,1.1-0.7,1.1-1.3c0-0.1,0-0.2-0.1-0.3C69.4,22.4,69.1,22.7,68.7,22.8z"/>
		<path class="st118" d="M71.3,10.6c0,0.1,0,0.2,0,0.3c0.1-0.3,0.2-0.5,0.3-0.8c0.4-1.1,0.6-2.2,0.5-3.4c0,0.9-0.2,1.8-0.5,2.7
			C71.4,9.8,71.3,10.2,71.3,10.6z"/>
		<path class="st118" d="M90.2,18.3c-0.3-0.7-0.9-1.1-1.4-1.5c0.1,0.3,0.1,0.5,0.2,0.8c0.5,0.4,1,0.8,1.3,1.4
			c0.2,0.4,0.3,0.8,0.3,1.3c0-0.2,0-0.4,0-0.6C90.5,19.2,90.4,18.8,90.2,18.3z"/>
		<path class="st118" d="M64.7,6.5C64.8,6.1,65,6.3,64.8,6c-0.2-0.5-0.8-0.9-1-1.4c0,0.1,0,0.1-0.1,0.2C63.6,5.4,64.4,5.8,64.7,6.5
			C64.5,6,64.8,6.6,64.7,6.5z"/>
		<path class="st118" d="M73,14.4c-0.1,0-0.2,0-0.2,0c-0.7,0.2-1.3,0.5-1.8,0.9l-2.8,1.8c-0.3,0.1-0.5,0.3-0.7,0.6
			c-0.1,0.1-0.2,0.3-0.2,0.5c0,0.2,0,0.4,0,0.5c0-0.1,0.1-0.2,0.2-0.3c0.2-0.2,0.4-0.4,0.7-0.6l2.8-1.8c0.5-0.4,1.1-0.7,1.8-0.9
			C72.8,14.9,72.9,14.6,73,14.4z"/>
		<path class="st118" d="M94.7,23.5c-0.1,0.3-0.2,0.6-0.4,0.9c-0.4,0.4-0.8,0.7-1.4,0.9c-0.3,0.1-0.6,0.2-0.8,0.5
			c-0.1,0.1-0.1,0.3-0.1,0.4c0,0.1,0,0.3,0,0.4c0-0.1,0.1-0.1,0.1-0.2c0.2-0.3,0.5-0.4,0.8-0.5c0.5-0.2,1-0.5,1.4-0.9
			c0.2-0.2,0.3-0.5,0.4-0.7C94.7,24.1,94.7,23.9,94.7,23.5C94.7,23.6,94.7,23.5,94.7,23.5z"/>
		<path class="st118" d="M95.4,20.2c-0.3,0.6-0.9,1.1-0.9,1.8c0,0.1,0,0.2,0.1,0.3c0.2-0.5,0.6-0.9,0.9-1.4c0.2-0.4,0.3-0.9,0.2-1.4
			C95.5,19.7,95.5,20,95.4,20.2z"/>
		<path class="st118" d="M86.3,24c0.1,0.1,0.3,0.2,0.5,0.2c0.6,0.1,1.1,0.1,1.7-0.1c0.1,0,0.3-0.1,0.4-0.2c0.1-0.1,0.2-0.2,0.3-0.3
			c0-0.1,0.1-0.2,0.1-0.4c0-0.6,0.1-1.1,0-1.7c0,0.3,0,0.7,0,1c0,0.1,0,0.2-0.1,0.4c-0.1,0.1-0.2,0.2-0.3,0.3
			c-0.1,0.1-0.2,0.1-0.4,0.2c-0.6,0.2-1.1,0.2-1.7,0.1c-0.2,0-0.4-0.1-0.5-0.2c-0.1-0.1-0.2-0.3-0.2-0.5c-0.1-0.5-0.2-1-0.3-1.5
			c-0.7,0.3-1.6,0.1-2.3-0.3c-0.7-0.4-1.3-0.9-1.9-1.4c-0.7-0.4-1.5-0.8-2.2-0.6c-0.4,0.1-0.8,0.3-1.2,0.5c-0.8,0.4-1.4,0.9-2.1,1.5
			c-0.4,0.5-0.8,1-1.4,1.2c-0.4,0.1-0.7,0.1-1.1-0.1c-0.3-0.2-0.6-0.5-0.7-0.8c-0.1-0.4,0-0.9-0.1-1.3c-0.1-0.5-0.3-0.7-0.7-0.9
			c-0.4-0.2-0.4-0.6-0.6-1c0-0.1,0-0.1-0.1-0.2c0,0.1-0.1,0.2-0.1,0.3c0,0.2,0,0.4,0.1,0.6c0.2,0.4,0.2,0.7,0.6,1
			c0.4,0.3,0.6,0.4,0.7,0.9c0,0.4,0,0.9,0.1,1.3c0.1,0.4,0.4,0.6,0.7,0.8c0.3,0.2,0.7,0.2,1.1,0.1c0.6-0.2,0.9-0.8,1.4-1.2
			c0.6-0.6,1.3-1.1,2.1-1.5c0.4-0.2,0.8-0.4,1.2-0.5c0.8-0.1,1.6,0.2,2.2,0.6c0.7,0.4,1.3,1,1.9,1.4c0.7,0.4,1.5,0.6,2.3,0.3
			c0.1,0.5,0.2,1,0.3,1.5C86.2,23.7,86.2,23.9,86.3,24z"/>
		<path class="st118" d="M91.2,29.4c-0.4,0.1-0.9,0-1.3,0.3c-0.4,0.3-0.4,0.8-0.6,1.2c-0.2,0.3-0.5,0.5-0.8,0.6
			c-0.3,0.1-0.7,0.1-1-0.1c0-0.2,0-0.4,0.1-0.6c-0.2,0.1-0.5,0-0.7,0c-0.2-0.1-0.4-0.3-0.6-0.5c-0.1-0.1-0.1-0.2-0.1-0.3
			c-0.1,0.3,0,0.7,0.1,1c0.1,0.2,0.3,0.4,0.6,0.5c0.2,0.1,0.5,0.1,0.7,0c-0.1,0.2-0.1,0.4-0.1,0.6c0.3,0.2,0.7,0.2,1,0.1
			c0.3-0.1,0.6-0.3,0.8-0.6c0.2-0.4,0.2-0.9,0.6-1.2c0.4-0.3,0.9-0.2,1.3-0.3c0.8-0.2,1.1-1.2,1-2C92.1,28.7,91.8,29.3,91.2,29.4z"
			/>
	</g>
	<path class="st4" d="M74,13.3c-0.3,0.6-0.6,1.2-1,1.7c-0.1,0-0.2,0-0.3,0c-0.2,0.1-0.5,0.2-0.7,0.3c0.2-0.8,0.5-1.6,0.9-2.3
		C73.2,13.2,73.6,13.2,74,13.3z"/>
	<path class="st4" d="M89.3,17.9c-0.2-0.2-0.4-0.3-0.6-0.5c-0.1-0.5-0.2-1-0.3-1.5c0.2,0,0.3,0,0.5,0C89.1,16.6,89.3,17.2,89.3,17.9
		z"/>
	<path class="st140" d="M20,86.3c0.5-8.7,7.6-15.9,16.4-16.5c4.1-0.3,8.1,0.8,11.4,3.2c3.3,2.3,5.7,5.7,6.8,9.6c0.2,0,0.4,0,0.6,0
		c3.8,0,7.5,1.2,10.6,3.5c3.1,2.3,5.3,5.4,6.4,9.1c2.5-1.1,5.3-1.3,8-0.7c2.7,0.7,5.1,2.2,6.8,4.3h-55c-6.8,0-12.2-5.5-12-12.2
		C20,86.5,20,86.4,20,86.3z"/>
</g>
</svg>
