<?xml version="1.0" encoding="utf-8"?>
<!-- Generator: Adobe Illustrator 23.1.0, SVG Export Plug-In . SVG Version: 6.00 Build 0)  -->
<svg version="1.1" id="Calque_1" xmlns="http://www.w3.org/2000/svg" xmlns:xlink="http://www.w3.org/1999/xlink" x="0px" y="0px"
	 viewBox="0 0 142 103" style="enable-background:new 0 0 142 103;" xml:space="preserve">
<style type="text/css">
	.st0{opacity:0.1;fill:#013183;enable-background:new    ;}
	.st1{fill:#3F3D56;}
	.st2{fill:none;stroke:#3F3D56;stroke-width:2;stroke-miterlimit:10;}
	.st3{fill:#F2F2F2;}
	.st4{fill:#FEBA1B;}
	.st5{fill:#2F2E41;}
	.st6{fill:#FFFFFF;}
	.st7{opacity:0.1;fill:#FEBA1B;enable-background:new    ;}
	.st8{fill:url(#SVGID_1_);}
	.st9{fill:#F6F7F9;}
	.st10{fill:#534D72;}
	.st11{opacity:0.2;}
	.st12{opacity:0.2;fill:#FEBA1B;enable-background:new    ;}
	.st13{fill:url(#SVGID_2_);}
	.st14{fill:url(#SVGID_3_);}
	.st15{opacity:0.1;}
	.st16{opacity:0.1;fill:url(#SVGID_4_);enable-background:new    ;}
	.st17{fill:url(#SVGID_5_);}
	.st18{opacity:0.1;fill:url(#SVGID_6_);enable-background:new    ;}
	.st19{opacity:0.1;fill:url(#SVGID_7_);enable-background:new    ;}
	.st20{opacity:0.1;fill:url(#SVGID_8_);enable-background:new    ;}
	.st21{opacity:0.1;fill:url(#SVGID_9_);enable-background:new    ;}
	.st22{opacity:0.1;fill:url(#SVGID_10_);enable-background:new    ;}
	.st23{opacity:0.1;fill:url(#SVGID_11_);enable-background:new    ;}
	.st24{opacity:0.1;fill:url(#SVGID_12_);enable-background:new    ;}
	.st25{opacity:0.1;fill:url(#SVGID_13_);enable-background:new    ;}
	.st26{opacity:0.1;fill:url(#SVGID_14_);enable-background:new    ;}
	.st27{opacity:0.1;fill:url(#SVGID_15_);enable-background:new    ;}
	.st28{opacity:0.1;fill:url(#SVGID_16_);enable-background:new    ;}
	.st29{opacity:0.1;fill:url(#SVGID_17_);enable-background:new    ;}
	.st30{fill:url(#SVGID_18_);}
	.st31{opacity:0.1;fill:url(#SVGID_19_);enable-background:new    ;}
	.st32{fill:url(#SVGID_20_);}
	.st33{fill:url(#SVGID_21_);}
	.st34{opacity:3.000000e-02;}
	.st35{opacity:3.000000e-02;fill:url(#SVGID_22_);enable-background:new    ;}
	.st36{fill:url(#SVGID_23_);}
	.st37{fill:url(#SVGID_24_);}
	.st38{opacity:0.1;fill:url(#SVGID_25_);enable-background:new    ;}
	.st39{fill:url(#SVGID_26_);}
	.st40{fill:url(#SVGID_27_);}
	.st41{opacity:0.1;fill:url(#SVGID_28_);enable-background:new    ;}
	.st42{fill:url(#SVGID_29_);}
	.st43{opacity:0.1;fill:url(#SVGID_30_);enable-background:new    ;}
	.st44{opacity:0.1;fill:url(#SVGID_31_);enable-background:new    ;}
	.st45{fill:url(#SVGID_32_);}
	.st46{opacity:0.1;fill:url(#SVGID_33_);enable-background:new    ;}
	.st47{fill:url(#SVGID_34_);}
	.st48{fill:url(#SVGID_35_);}
	.st49{fill:url(#SVGID_36_);}
	.st50{opacity:0.1;fill:url(#SVGID_37_);enable-background:new    ;}
	.st51{opacity:0.1;fill:url(#SVGID_38_);enable-background:new    ;}
	.st52{fill:url(#SVGID_39_);}
	.st53{opacity:0.1;fill:url(#SVGID_40_);enable-background:new    ;}
	.st54{opacity:0.1;fill:url(#SVGID_41_);enable-background:new    ;}
	.st55{fill:url(#SVGID_42_);}
	.st56{fill:url(#SVGID_43_);}
	.st57{opacity:0.1;fill:url(#SVGID_44_);enable-background:new    ;}
	.st58{fill:url(#SVGID_45_);}
	.st59{opacity:0.1;fill:url(#SVGID_46_);enable-background:new    ;}
	.st60{fill:url(#SVGID_47_);}
	.st61{opacity:0.1;fill:url(#SVGID_48_);enable-background:new    ;}
	.st62{opacity:0.1;fill:url(#SVGID_49_);enable-background:new    ;}
	.st63{opacity:0.1;fill:url(#SVGID_50_);enable-background:new    ;}
	.st64{opacity:0.1;fill:url(#SVGID_51_);enable-background:new    ;}
	.st65{opacity:0.1;fill:url(#SVGID_52_);enable-background:new    ;}
	.st66{opacity:0.1;fill:url(#SVGID_53_);enable-background:new    ;}
	.st67{opacity:0.1;fill:url(#SVGID_54_);enable-background:new    ;}
	.st68{fill:url(#SVGID_55_);}
	.st69{opacity:0.1;fill:url(#SVGID_56_);enable-background:new    ;}
	.st70{opacity:0.1;fill:url(#SVGID_57_);enable-background:new    ;}
	.st71{opacity:0.1;fill:url(#SVGID_58_);enable-background:new    ;}
	.st72{opacity:0.1;fill:url(#SVGID_59_);enable-background:new    ;}
	.st73{fill:url(#SVGID_60_);}
	.st74{opacity:0.1;fill:url(#SVGID_61_);enable-background:new    ;}
	.st75{opacity:0.1;fill:url(#SVGID_62_);enable-background:new    ;}
	.st76{opacity:0.1;fill:url(#SVGID_63_);enable-background:new    ;}
	.st77{opacity:0.1;fill:url(#SVGID_64_);enable-background:new    ;}
	.st78{opacity:0.1;fill:url(#SVGID_65_);enable-background:new    ;}
	.st79{opacity:0.1;fill:url(#SVGID_66_);enable-background:new    ;}
	.st80{opacity:0.1;fill:url(#SVGID_67_);enable-background:new    ;}
	.st81{opacity:0.1;fill:url(#SVGID_68_);enable-background:new    ;}
	.st82{opacity:0.1;fill:url(#SVGID_69_);enable-background:new    ;}
	.st83{opacity:0.1;fill:url(#SVGID_70_);enable-background:new    ;}
	.st84{opacity:0.1;fill:url(#SVGID_71_);enable-background:new    ;}
	.st85{opacity:0.1;fill:url(#SVGID_72_);enable-background:new    ;}
	.st86{opacity:0.1;fill:url(#SVGID_73_);enable-background:new    ;}
	.st87{opacity:0.1;fill:url(#SVGID_74_);enable-background:new    ;}
	.st88{opacity:0.1;fill:url(#SVGID_75_);enable-background:new    ;}
	.st89{opacity:0.1;fill:url(#SVGID_76_);enable-background:new    ;}
	.st90{opacity:0.1;fill:url(#SVGID_77_);enable-background:new    ;}
	.st91{opacity:0.1;fill:url(#SVGID_78_);enable-background:new    ;}
	.st92{opacity:0.1;fill:url(#SVGID_79_);enable-background:new    ;}
	.st93{opacity:0.1;fill:url(#SVGID_80_);enable-background:new    ;}
	.st94{fill:url(#SVGID_81_);}
	.st95{opacity:0.1;fill:url(#SVGID_82_);enable-background:new    ;}
	.st96{fill:url(#SVGID_83_);}
	.st97{opacity:0.1;fill:url(#SVGID_84_);enable-background:new    ;}
	.st98{opacity:0.1;fill:url(#SVGID_85_);enable-background:new    ;}
	.st99{fill:url(#SVGID_86_);}
	.st100{opacity:0.1;fill:url(#SVGID_87_);enable-background:new    ;}
	.st101{opacity:0.1;fill:url(#SVGID_88_);enable-background:new    ;}
	.st102{opacity:0.1;fill:url(#SVGID_89_);enable-background:new    ;}
	.st103{opacity:0.1;fill:url(#SVGID_90_);enable-background:new    ;}
	.st104{opacity:0.1;fill:url(#SVGID_91_);enable-background:new    ;}
	.st105{opacity:0.1;fill:url(#SVGID_92_);enable-background:new    ;}
	.st106{opacity:0.1;fill:url(#SVGID_93_);enable-background:new    ;}
	.st107{opacity:0.1;fill:url(#SVGID_94_);enable-background:new    ;}
	.st108{opacity:0.1;fill:url(#SVGID_95_);enable-background:new    ;}
	.st109{opacity:0.1;fill:url(#SVGID_96_);enable-background:new    ;}
	.st110{opacity:0.1;fill:url(#SVGID_97_);enable-background:new    ;}
	.st111{fill:url(#SVGID_98_);}
	.st112{opacity:0.1;fill:url(#SVGID_99_);enable-background:new    ;}
	.st113{opacity:0.1;fill:url(#SVGID_100_);enable-background:new    ;}
	.st114{opacity:0.1;fill:url(#SVGID_101_);enable-background:new    ;}
	.st115{opacity:0.1;fill:url(#SVGID_102_);enable-background:new    ;}
	.st116{fill:#9D9CB5;}
	.st117{fill:#E4E3F9;}
	.st118{opacity:0.1;enable-background:new    ;}
	.st119{fill:#535461;}
	.st120{fill:#5E52AD;}
	.st121{opacity:3.000000e-02;enable-background:new    ;}
	.st122{fill:#784D55;}
	.st123{fill:#F8BDC5;}
	.st124{fill:#EB6475;}
	.st125{fill:#FFC075;}
	.st126{opacity:0.1;fill:none;stroke:#000000;stroke-miterlimit:10;enable-background:new    ;}
	.st127{opacity:0.5;fill:#FFFFFF;enable-background:new    ;}
	.st128{opacity:0.2;enable-background:new    ;}
	.st129{opacity:0.5;fill:#FEBA1B;enable-background:new    ;}
	.st130{opacity:0.8;fill:#FEBA1B;enable-background:new    ;}
	.st131{opacity:0.95;fill:#FEBA1B;enable-background:new    ;}
	.st132{opacity:0.6;fill:#FEBA1B;enable-background:new    ;}
	.st133{fill:#FDC2CC;}
	.st134{fill:#DFE6F5;}
	.st135{fill:#53526B;}
	.st136{fill:#865A61;}
	.st137{opacity:0.1;fill:none;stroke:#535461;stroke-width:2;stroke-miterlimit:10;enable-background:new    ;}
	.st138{fill:url(#SVGID_103_);}
	.st139{fill:#FBBEBE;}
	.st140{fill:#013183;fill-opacity:8.000000e-02;}
</style>
<g>
	<path class="st0" d="M49.5,22.1c3.7-3.2,9.4-3.9,14.7-3.6c16.4,0.8,31.3,8.6,44.1,17.5c4.6,3.2,9.2,6.7,12.2,11.1
		c6.1,9,4.3,21.4-4.2,28.8c-2.9,2.5-6.4,4.4-10,6.2c-6.4,3-13.4,5.5-20.7,6.2c-5.2,0.5-10.5,0.1-15.6-0.6
		c-14.5-1.9-28.6-6.2-40.5-13.5c-5.2-3.2-10.1-7.2-12.3-12.4C15,56.6,16.4,50,21.7,46.9c2.2-1.3,4.8-1.8,7.4-2.4
		c3.8-0.8,7.7-1.6,11.1-3.2c3.5-1.7,7.7-4.9,7-8.6C46.4,28.8,45.8,25.3,49.5,22.1z"/>
	<path class="st133" d="M78.4,37.5l-9.9,2.3c0,0-4.9-4.1-3.7-6.3c0.4-0.8,0.6-2,0.7-3.4c0-1.1,0-2.2,0-3.1c-0.1-1.4-0.2-2.4-0.2-2.4
		s10.1-5.7,9.8,0c-0.1,1,0,1.9,0.1,2.9c0.1,0.7,0.3,1.3,0.6,1.9c0.5,1,1.2,1,1.2,1L78.4,37.5z"/>
	<path class="st118" d="M75.1,27.4c-1.4,1-3.2,1.5-4.9,1.4c-1.8-0.1-3.4-0.8-4.7-1.9c-0.1-1.4-0.2-2.4-0.2-2.4s10.1-5.7,9.8,0
		C75,25.5,75,26.5,75.1,27.4z"/>
	<path class="st133" d="M70.6,28.7c4.3,0,7.8-3.5,7.8-7.8c0-4.3-3.5-7.8-7.8-7.8c-4.3,0-7.8,3.5-7.8,7.8
		C62.9,25.2,66.3,28.7,70.6,28.7z"/>
	<path class="st118" d="M78.4,37.5l-9.9,2.3c0,0-4.9-4.1-3.7-6.3c0.4-0.8,0.6-2,0.7-3.4c0.2,1.2,0.9,2.3,1.8,3
		c2.3,1.5,1.9,3.4,1.9,3.4l4.1-0.1c-0.3-1.7,1.3-2.6,1.8-2.8c0.5-0.2,0.3-1.1,0.3-1.1l0.4-3.1c0.5,1,1.2,1,1.2,1L78.4,37.5z"/>
	<path class="st118" d="M88.2,94.2c0,0-0.2,0.7-0.4,1.8c-1.1-0.1-2.5-0.1-3.2,0c-1.1,0.3-5.5,0.4-5.5,0.4l-10.9,0.4v-0.3
		c-1.3,0-2.5,0.1-3.8,0.3c-1.9,0.3-4.8-0.1-6.6-0.4c-0.6-0.1-1.1-0.2-1.7-0.4c0.2-1.3,0.5-2.5,0.5-2.5L88.2,94.2z"/>
	<path class="st4" d="M87.4,62.4c-0.2,0.9,0,2.5,0.2,4c0.3,2.3,0.8,4.6,0.8,4.6s2.1,13,0.9,14.7c-1.2,1.7,0,10,0,10
		s-3.5-0.3-4.6-0.1c-1.1,0.3-5.5,0.4-5.5,0.4l-10.9,0.4v-0.3c-1.3,0-2.5,0.1-3.8,0.3c-1.9,0.3-4.8-0.1-6.6-0.4
		c-1.9-0.3-2.6-0.9-2.4-1.2c0.2-0.3-0.2-8.5-0.2-8.5l-0.1-6.7c0,0-0.1-4.7,1.1-5.8c0.5-0.4,0.9-2,1.2-3.7c0.4-2.5,0.7-5.3,0.7-5.3
		l-7.6-20.4L50.3,44c0,0,2.2-3.4,1.9-5.1c-0.4-1.7,2.1-3.1,2.1-3.1s4.6-2,4.9-2.6c0.3-0.6,3.5-0.8,3.5-0.8s1.8-1,2.1-1.6
		c0.1-0.2,0.2-0.3,0.3-0.4c0.1-0.1,0.3-0.2,0.5-0.2c0.2,1.2,0.9,2.3,1.8,3.1c2.3,1.5,1.9,3.4,1.9,3.4l4.1-0.1
		c-0.3-1.7,1.3-2.6,1.8-2.8c0.5-0.2,0.3-1.1,0.3-1.1l0.5-3.2c0.2-0.5,1.7,1.5,1.7,1.5s3.9,1.3,4.1,1.4c0.3,0.1,3.5,1.1,3.5,1.1
		s4,2.6,4,3.3s2.2,4.2,2.2,4.2s0,0.1-0.1,0.4C90.7,44,87.7,60.3,87.4,62.4z"/>
	<path class="st133" d="M71.3,54.3c0,0-8.7-2.3-9.5-2.9c-0.9-0.6-5.9,2.7,0.3,7c0,0,7.5,1.6,9.5,0C73.5,56.9,71.3,54.3,71.3,54.3z"
		/>
	<path class="st118" d="M90.1,40.6l1.1,0.1l3.1,8.3c0,0,1.9,4.4,2.2,5.1c0.4,0.7,0.2,3.6,0,4.5c-0.2,0.9-1.5,4.6-1.6,5.6
		c-0.1,1-2.4,1.9-4.8,1.8c-2.4-0.1-8,0.6-8,0.6s-6-0.6-9.7,1.3c0,0-2.4-4.9-2.1-13.9c0,0,4.2-0.3,5.2,0.2c1.1,0.4,6.2,1.6,6.8,1
		c0.7-0.6,3.6,1.1,3.6,1.1c0.2-0.3,0.2-0.7,0.2-1.1s-0.1-0.7-0.2-1.1c-0.5-1.2-1.4-5-0.3-6.2C86.8,46.5,90.1,40.6,90.1,40.6z"/>
	<path class="st118" d="M87.5,66.4C85,66.6,82.2,67,82.2,67s-6-0.6-9.7,1.3c0,0-2.4-4.9-2.1-13.9c0,0,4.2-0.3,5.2,0.1
		c1.1,0.4,6.2,1.6,6.8,1c0.7-0.6,3.6,1.1,3.6,1.1c0.2-0.3,0.2-0.7,0.2-1.1s-0.1-0.7-0.2-1.1c-0.5-1.2-1.4-5-0.3-6.2
		c1.1-1.2,4.4-7.1,4.4-7.1l1,0c-0.5,2.8-3.5,19-3.9,21.2C87.2,63.4,87.3,64.9,87.5,66.4z"/>
	<path class="st4" d="M90.3,40.8l1.1,0l3.1,8.3c0,0,1.9,4.4,2.2,5.1c0.3,0.7,0.2,3.6,0,4.5c-0.2,0.9-1.5,4.6-1.6,5.6
		c0,1-2.4,1.9-4.8,1.8c-2.4-0.1-8,0.6-8,0.6s-6-0.6-9.7,1.3c0,0-2.4-4.9-2.1-13.9c0,0,4.2-0.3,5.2,0.2c1.1,0.4,6.2,1.6,6.8,1
		c0.7-0.6,3.6,1.1,3.6,1.1c0.2-0.3,0.2-0.7,0.2-1.1s-0.1-0.7-0.2-1.1c-0.5-1.2-1.4-5-0.3-6.2C87,46.7,90.3,40.8,90.3,40.8z"/>
	<path class="st134" d="M79.7,59.2l1.3,0.8l7-11.2l-1.2-0.8L79.7,59.2z"/>
	<path class="st134" d="M91.5,47.2c1.2-2,1.1-4.3-0.3-5.2c-1.4-0.9-3.5,0-4.8,2c-1.2,2-1.1,4.3,0.3,5.2
		C88.1,50.1,90.2,49.2,91.5,47.2z"/>
	<path class="st118" d="M90.7,46.7c0.9-1.4,0.8-3.1-0.2-3.7c-1-0.6-2.5,0-3.4,1.5c-0.9,1.4-0.8,3.1,0.2,3.7
		C88.3,48.8,89.9,48.2,90.7,46.7z"/>
	<path class="st135" d="M76.1,64.9l1.3,0.8l4.3-7l-1.3-0.8L76.1,64.9z"/>
	<path class="st133" d="M68.8,65.4l3.1-0.9c0,0,15.1,0.4,10-5.8c0,0-2.7-2.6-8.2-0.5c-5.6,2.1-7.1,2.3-7.1,2.3L68.8,65.4z"/>
	<path class="st118" d="M66.5,39.2c0.3,0,0.6-0.3,0.6-0.6S66.9,38,66.5,38s-0.6,0.3-0.6,0.6S66.2,39.2,66.5,39.2z"/>
	<path class="st118" d="M76.8,38.9c0.3,0,0.6-0.3,0.6-0.6s-0.3-0.6-0.6-0.6s-0.6,0.3-0.6,0.6S76.5,38.9,76.8,38.9z"/>
	<path class="st6" d="M66.5,39c0.3,0,0.6-0.3,0.6-0.6s-0.3-0.6-0.6-0.6s-0.6,0.3-0.6,0.6S66.2,39,66.5,39z"/>
	<path class="st118" d="M67.4,47.6c0.3,0,0.6-0.3,0.6-0.6c0-0.3-0.3-0.6-0.6-0.6s-0.6,0.3-0.6,0.6C66.8,47.3,67,47.6,67.4,47.6z"/>
	<path class="st118" d="M77.1,47c0.3,0,0.6-0.3,0.6-0.6c0-0.3-0.3-0.6-0.6-0.6s-0.6,0.3-0.6,0.6C76.5,46.7,76.8,47,77.1,47z"/>
	<path class="st6" d="M67.4,47.4c0.3,0,0.6-0.3,0.6-0.6s-0.3-0.6-0.6-0.6s-0.6,0.3-0.6,0.6S67,47.4,67.4,47.4z"/>
	<path class="st118" d="M76.9,76c0.3,0,0.6-0.3,0.6-0.6s-0.3-0.6-0.6-0.6s-0.6,0.3-0.6,0.6S76.6,76,76.9,76z"/>
	<path class="st118" d="M69,76c0.3,0,0.6-0.3,0.6-0.6s-0.3-0.6-0.6-0.6c-0.3,0-0.6,0.3-0.6,0.6S68.6,76,69,76z"/>
	<path class="st6" d="M76.9,75.7c0.3,0,0.6-0.3,0.6-0.6s-0.3-0.6-0.6-0.6s-0.6,0.3-0.6,0.6S76.6,75.7,76.9,75.7z"/>
	<path class="st118" d="M69.6,86c0.3,0,0.6-0.3,0.6-0.6s-0.3-0.6-0.6-0.6S69,85.1,69,85.4S69.2,86,69.6,86z"/>
	<path class="st118" d="M77.1,85.4c0.3,0,0.6-0.3,0.6-0.6c0-0.3-0.3-0.6-0.6-0.6s-0.6,0.3-0.6,0.6C76.5,85.1,76.8,85.4,77.1,85.4z"
		/>
	<path class="st6" d="M69.6,85.8c0.3,0,0.6-0.3,0.6-0.6s-0.3-0.6-0.6-0.6S69,84.9,69,85.2S69.2,85.8,69.6,85.8z"/>
	<path class="st6" d="M69,75.7c0.3,0,0.6-0.3,0.6-0.6s-0.3-0.6-0.6-0.6c-0.3,0-0.6,0.3-0.6,0.6S68.6,75.7,69,75.7z"/>
	<path class="st6" d="M77.1,85.2c0.3,0,0.6-0.3,0.6-0.6S77.5,84,77.1,84s-0.6,0.3-0.6,0.6S76.8,85.2,77.1,85.2z"/>
	<path class="st6" d="M76.8,38.7c0.3,0,0.6-0.3,0.6-0.6c0-0.3-0.3-0.6-0.6-0.6s-0.6,0.3-0.6,0.6C76.2,38.4,76.5,38.7,76.8,38.7z"/>
	<path class="st6" d="M77.1,46.8c0.3,0,0.6-0.3,0.6-0.6s-0.3-0.6-0.6-0.6s-0.6,0.3-0.6,0.6S76.8,46.8,77.1,46.8z"/>
	<path class="st118" d="M78,67.2c0,0,0.1,13.7,0.4,16.2C78.4,83.4,78.5,67.9,78,67.2z"/>
	<path class="st118" d="M80.6,73.6c-0.2,0,4.1,16.1,4.3,17.2C85.1,92,81.8,73.6,80.6,73.6z"/>
	<path class="st118" d="M84,71c0,0.2,2.4,8.7,3.6,9.2C88.8,80.6,84,71,84,71z"/>
	<path class="st118" d="M93.5,54.3c0,0-5.1,0.2-5.3,1C88.1,56,93.5,54.3,93.5,54.3z"/>
	<path class="st118" d="M51.5,43.8h-1l-1.5,5.3c0,0-0.5,1.9-1,2.3c-0.5,0.5,0.5,4.6,0.5,4.6s-0.6,2.9-1,3.7
		c-0.5,0.8,0.7,2.6,0.7,2.6l2.3,5.4l6.1,1.6c0,0,10.8,2.4,11.3,2.7c0.5,0.4,1-0.1,1.3-3.4c0.4-3.3,1.3-9.6,2.1-9.9
		c0,0-6,0.7-6.5,0.6c-0.5-0.1-2.9,0.1-2.9,0.1s-3.2-0.2-3.7,0.1c-0.5,0.3,0.7-1.5,0.7-1.5c0.2-0.8,0.2-1.6,0-2.5
		C58.5,54.1,58.3,38.8,51.5,43.8z"/>
	<path class="st118" d="M71.1,59.3c-0.8,0.3-1.7,6.6-2.1,9.9c-0.4,3.3-0.8,3.8-1.3,3.4c-0.4-0.3-7.6-1.9-10.3-2.5
		c0.4-2.5,0.7-5.3,0.7-5.3l-7.6-20.4h0.8c6.8-5,7,10.3,7.4,11.7c0.2,0.8,0.2,1.6,0,2.5c0,0-1.2,1.8-0.7,1.5c0.5-0.3,3.7-0.1,3.7-0.1
		s2.4-0.1,2.9,0C65.1,59.9,71.1,59.3,71.1,59.3z"/>
	<path class="st4" d="M51.3,44h-1l-1.5,5.3c0,0-0.5,1.9-1,2.3c-0.5,0.5,0.5,4.6,0.5,4.6s-0.6,2.9-1,3.7s0.7,2.6,0.7,2.6l2.3,5.4
		l6.1,1.6c0,0,10.8,2.4,11.3,2.7c0.5,0.4,1-0.1,1.3-3.4c0.4-3.3,1.3-9.6,2.1-9.9c0,0-6,0.7-6.5,0.6c-0.5-0.1-2.9,0-2.9,0
		s-3.2-0.2-3.7,0.1c-0.5,0.3,0.7-1.5,0.7-1.5c0.2-0.8,0.2-1.6,0-2.5C58.3,54.3,58.1,39,51.3,44z"/>
	<path class="st118" d="M54.5,62.1c0,0-2.8,5.2-3.3,4.6C50.8,66.1,54.5,62.1,54.5,62.1z"/>
	<path class="st118" d="M51.7,59.2c0,0-2.6,2.1-1.4,2.7C51.5,62.4,51.7,59.2,51.7,59.2z"/>
	<path class="st118" d="M54.1,56.6c0.2,0.1,3.7,0.7,3.8,1C57.9,57.9,54.1,56.6,54.1,56.6z"/>
	<path class="st118" d="M78.4,19.9c-0.1,0-0.2,0.1-0.3,0.2c-0.1,0.1-0.1,0.2-0.1,0.3c-0.2,0.2-0.5,0-0.7-0.3
		c-0.2-0.2-0.4-0.5-0.6-0.5c-0.1,0-0.2,0.1-0.3,0.1c-0.4,0.1-0.7-0.3-1-0.8c-0.4-0.7-0.8-1.4-1.2-2.2c-0.8,0.5-1.7,0-2.5-0.5
		c-0.8-0.5-1.7-0.9-2.5-0.5c-1.2,0.7-1.2,2.9-2.4,3.4c-0.4,0.2-0.8,0.1-1.2,0.4c-0.4,0.2-0.5,0.7-0.7,1.1c-0.1,0.3-0.2,0.5-0.4,0.6
		c-0.1,0.1-0.3,0.1-0.4,0.1c-0.4,0.1-0.7,0-1-0.1c-0.2-0.1-0.3-0.3-0.4-0.5c-0.1-0.2-0.1-0.4,0-0.6c0,0,0,0,0-0.1
		c0.1-0.2,0.2-0.3,0.3-0.5c0.1-0.3-0.1-0.7,0-1c0.1-0.6,0.7-0.9,0.8-1.5c0-0.2,0-0.5,0-0.7c0,0,0-0.1,0-0.1l-0.4,0.3
		c0.4-0.5,0.6-1.1,0.9-1.7c0.3-0.6,0.8-1.2,1.4-1.7c0.6-0.5,1.2-0.8,1.9-1c1.3-0.4,2.7-0.3,4,0c1.3,0.3,2.5,0.8,3.6,1.5
		c0.4,0.2,0.7,0.5,1,0.8c0.2,0.4,0.4,0.7,0.6,1.1c0.4,0.8,1.5,1.6,0.6,1.7c-0.7,0.1-0.1,0.6,0.3,0.9c0.1,0.1,0.2,0.1,0.2,0.2
		c0.1,0.1,0.1,0.3,0.1,0.4c0,0.1-0.1,0.3-0.1,0.4C78,19.8,78.6,19.8,78.4,19.9z"/>
	<path class="st136" d="M78.4,19.7c-0.1,0-0.2,0.1-0.3,0.2c-0.1,0.1-0.1,0.2-0.1,0.3c-0.2,0.2-0.5,0-0.7-0.3
		c-0.2-0.2-0.4-0.5-0.6-0.5c-0.1,0-0.2,0.1-0.3,0.1c-0.4,0.1-0.7-0.3-1-0.8c-0.4-0.7-0.8-1.4-1.2-2.2c-0.8,0.5-1.7,0-2.5-0.5
		c-0.8-0.5-1.7-0.9-2.5-0.5c-1.2,0.7-1.2,2.9-2.4,3.4c-0.4,0.2-0.8,0.1-1.2,0.4c-0.4,0.2-0.5,0.7-0.7,1.1c-0.1,0.3-0.2,0.5-0.4,0.6
		c-0.1,0.1-0.3,0.1-0.4,0.1c-0.4,0.1-0.7,0-1-0.1c-0.2-0.1-0.3-0.3-0.4-0.5c-0.1-0.2-0.1-0.4,0-0.6c0,0,0,0,0-0.1
		c0.1-0.2,0.2-0.3,0.3-0.5c0.1-0.3-0.1-0.7,0-1c0.1-0.6,0.7-0.9,0.8-1.5c0-0.2,0-0.5,0-0.7c0,0,0-0.1,0-0.1l-0.4,0.3
		c0.4-0.5,0.6-1.1,0.9-1.7c0.3-0.6,0.8-1.2,1.4-1.7c0.6-0.5,1.2-0.8,1.9-1c1.3-0.4,2.7-0.3,4,0c1.3,0.3,2.5,0.8,3.6,1.5
		c0.4,0.2,0.7,0.5,1,0.8c0.2,0.4,0.4,0.7,0.6,1.1c0.4,0.8,1.5,1.6,0.6,1.7C77,17.5,77.6,18,78,18.3c0.1,0.1,0.2,0.1,0.2,0.2
		c0.1,0.1,0.1,0.3,0.1,0.4c0,0.1-0.1,0.3-0.1,0.4C78,19.6,78.6,19.6,78.4,19.7z"/>
	<path class="st118" d="M78,18.3l-0.1,0.8c0,0-8.4-10.7-14.9,1.4c0,0,0-0.1-0.1-0.4c0.1-0.2,0.2-0.3,0.3-0.5c0.1-0.3-0.1-0.7,0-1
		c0.1-0.6,0.7-0.9,0.8-1.5c0-0.2,0-0.5,0-0.7c0,0,0-0.1,0-0.1l-0.4,0.3c0.4-0.5,0.6-1.1,0.9-1.7c0.3-0.6,0.8-1.2,1.4-1.7
		c0.6-0.5,1.2-0.8,1.9-1c1.3-0.4,2.7-0.3,4,0c1.3,0.3,2.5,0.8,3.6,1.5c0.4,0.2,0.7,0.5,1,0.8c0.2,0.4,0.4,0.7,0.6,1.1
		c0.4,0.8,1.5,1.6,0.6,1.7C77,17.5,77.6,18,78,18.3z"/>
	<g class="st15">
		<path class="st118" d="M78.2,19.6c0,0-0.1,0.1-0.1,0.2c0,0.1,0,0.1,0,0.2c-0.2,0.2-0.5,0-0.7-0.3c-0.2-0.2-0.4-0.5-0.6-0.5
			c-0.1,0-0.2,0.1-0.3,0.1c-0.4,0.1-0.7-0.3-1-0.8c-0.4-0.7-0.8-1.4-1.2-2.2c-0.8,0.5-1.7,0-2.5-0.5c-0.8-0.5-1.7-0.9-2.5-0.5
			c-1.2,0.7-1.2,2.9-2.4,3.4c-0.4,0.2-0.8,0.1-1.2,0.4c-0.4,0.2-0.5,0.7-0.7,1.1c-0.1,0.3-0.2,0.5-0.4,0.6c-0.1,0.1-0.3,0.1-0.4,0.1
			c-0.4,0.1-0.7,0-1-0.1c-0.2-0.1-0.3-0.3-0.4-0.6c0,0.2,0,0.4,0,0.5c0.1,0.2,0.2,0.3,0.3,0.4c0.3,0.2,0.7,0.2,1,0.1
			c0.1,0,0.3,0,0.4-0.1c0.2-0.2,0.3-0.4,0.4-0.6c0.2-0.4,0.3-0.9,0.7-1.1c0.4-0.2,0.8-0.2,1.2-0.4c1.2-0.5,1.2-2.8,2.4-3.4
			c0.8-0.5,1.7,0,2.5,0.5c0.8,0.5,1.7,0.9,2.5,0.5c0.4,0.7,0.8,1.4,1.2,2.2c0.2,0.4,0.6,0.9,1,0.8c0.1-0.1,0.2-0.1,0.3-0.1
			c0.3,0,0.4,0.3,0.6,0.5c0.2,0.2,0.5,0.4,0.7,0.3c0-0.1,0-0.2,0.1-0.3c0.1-0.1,0.2-0.2,0.3-0.2C78.6,19.7,78.3,19.7,78.2,19.6z"/>
		<path class="st118" d="M77.6,17.6c0.1,0,0.1,0,0.2,0c0.4,0,0.4-0.2,0.2-0.5c-0.1,0-0.1,0.1-0.2,0.1C77.3,17.2,77.4,17.4,77.6,17.6
			z"/>
		<path class="st118" d="M78.3,19.2c0-0.1,0-0.3,0-0.4c0,0.1-0.1,0.2-0.1,0.2C78.2,19.2,78.2,19.2,78.3,19.2z"/>
		<path class="st118" d="M63.3,18.7C63.3,18.7,63.3,18.7,63.3,18.7c0,0.3,0,0.4,0,0.6C63.3,19.1,63.3,18.9,63.3,18.7z"/>
		<path class="st118" d="M64.1,16.2c-0.1,0.2-0.2,0.3-0.3,0.5l0.3-0.2C64.1,16.4,64.1,16.3,64.1,16.2z"/>
	</g>
	<path class="st4" d="M63,20.4c0,0-1.2-5.4-0.8-6.3c0,0-1-2.1-1-2.7c-0.1-0.9-0.3-1.7-0.8-2.4c-0.5-0.9-1.2-4.9,2.1-5.9
		c3.3-1,5.8-1.8,6.2-2.5c0.4-0.7,6-0.3,7.6,2.3c1.5,2.5,2.5,2,2.5,2s2.4,1.5,2.4,2.8s-0.7,2,0,2.3c0.7,0.3,0.2,5.8-3,6L77.9,19
		C77.9,19,69.5,8.3,63,20.4z"/>
	<path class="st118" d="M63.3,4.2c0,0-0.7,4.3,0.6,5.7L63.3,4.2z"/>
	<path class="st118" d="M66.7,3.3c0,0-1.9,4.6-1.4,5.4L66.7,3.3z"/>
	<path class="st118" d="M68.3,1.8c0,0-1.3,5.9-0.7,6.4L68.3,1.8z"/>
	<path class="st118" d="M70.5,3.4c0,0-1.6,3.8-0.9,4.3L70.5,3.4z"/>
	<path class="st118" d="M73.4,3.9c0,0-1.8,3.1-1.5,3.7L73.4,3.9z"/>
	<path class="st118" d="M77.2,6.9c0,0-2,0.5-1.6,1.2L77.2,6.9z"/>
	<path class="st118" d="M79,10.1c0,0-1.8,0.9-1.4,1.3L79,10.1z"/>
	<path class="st118" d="M62.2,14.1c0,0,11.2-4.5,16,2C78.2,16.1,72.3,11.1,62.2,14.1z"/>
	<path class="st135" d="M58.1,51.5l1.6-1.6l4.4,4.4l-1.6,1.6l-4.1-4L58.1,51.5z"/>
	<path class="st134" d="M47.9,41.3c0,0,6.8,0.6,13.2,7.7l-2.6,2.7L47.9,41.3z"/>
	<path class="st133" d="M68.4,54.1c0,0-6.6-2.4-7.2-3c-0.6-0.6-4.4,2.8,0.2,7.3c0,0,5.7,1.6,7.2,0C70,56.8,68.4,54.1,68.4,54.1z"/>
</g>
</svg>
